<svg width="86" height="108" viewBox="0 0 86 108" fill="none" xmlns="http://www.w3.org/2000/svg">
<g clip-path="url(#clip0)">
<path d="M1.27723 0H61.3069L62.1584 0.857143L85.1485 24C86.1703 25.0286 86.1419 25.5714 86 25.7143V106.286C86 107.657 84.8647 108 84.297 108H0.851485C0.170297 108 0 107.143 0 106.714V1.28571C0 0.257143 0.851485 0 1.27723 0Z" fill="#0079C2"/>
<path d="M1.30357 9.69034e-05H60.9068H60.9244H60.9395H60.942H60.9596H60.9722H60.9772H60.9948H61.0049H61.0125H61.0301H61.0376H61.0452L61.0628 0.00263521H61.0703H61.0804L61.0955 0.00517352H61.1005L61.1131 0.00771183L61.1282 0.0102501H61.1332L61.1458 0.0127885L61.1785 0.0204034L61.1936 0.0229417H61.1961L61.2112 0.02548L61.2263 0.0280183L61.2414 0.0305566L61.2565 0.0356332L61.2716 0.0407099L61.2867 0.0457865L61.3018 0.0508631L61.3169 0.0559397L61.332 0.0610163L61.3446 0.066093H61.3471L61.3622 0.0711696L61.3747 0.0762462H61.3773L61.3924 0.0813228L61.4049 0.0863994H61.4075L61.4226 0.0914761L61.4351 0.0965527H61.4376L61.4527 0.104168L61.4653 0.109244H61.4678L61.4829 0.116859L61.4955 0.121936H61.498L61.5106 0.129551L61.5232 0.137166L61.5358 0.144781L61.5484 0.152395L61.5609 0.16001L61.5634 0.162549L61.6163 0.195547L61.6289 0.203162H61.6314L61.644 0.210777L61.6565 0.22093L61.6591 0.223468L61.6691 0.231083L61.6817 0.241236L61.6867 0.243775L61.6968 0.25139L61.7094 0.261543L61.7144 0.264081L61.722 0.269158L61.7345 0.279311L61.7396 0.284388L61.7471 0.289464L61.7597 0.299617L61.7672 0.304694L61.7723 0.309771L61.7849 0.319924L61.7924 0.327539L61.7949 0.330077L61.8075 0.34023L61.8176 0.350384L61.8201 0.352922L61.8301 0.363075L61.8427 0.373228L85.6312 24.3729L85.6412 24.3856L85.6513 24.3958L85.6538 24.3983L85.6639 24.4085L85.6664 24.411L85.6739 24.4212L85.6765 24.4237L85.684 24.4313L85.6865 24.4364L85.6941 24.444L85.6991 24.4491L85.7041 24.4567L85.7092 24.4618L85.7142 24.4694L85.7192 24.477L85.7243 24.4821L85.7293 24.4897L85.7343 24.4948L85.7394 24.5024L85.7419 24.5075L85.7494 24.5151L85.7519 24.5202L85.7595 24.5303L85.762 24.5329L85.7695 24.543L85.7721 24.5456L85.7796 24.5557L85.7821 24.5582L85.7897 24.5684L85.7922 24.5709L85.7997 24.5836V24.5862L85.8073 24.5989V24.6014L85.8148 24.6141L85.8224 24.6268L85.8299 24.6395L85.8375 24.6522L85.845 24.6649L85.8526 24.6775L85.8601 24.6902L85.8677 24.7029V24.7055L85.8752 24.7182V24.7207L85.8828 24.7334V24.7359L85.8878 24.7486V24.7512L85.8928 24.7638V24.7664L85.8979 24.7791V24.7816L85.9029 24.7943V24.7968L85.9079 24.8095V24.8121L85.913 24.8248V24.8273L85.918 24.84V24.8425L85.923 24.8552V24.8578L85.9281 24.8705V24.873L85.9331 24.8857V24.8882L85.9381 24.9009V24.9035L85.9432 24.9161V24.9187L85.9482 24.9314V24.9339L85.9532 24.9491L85.9582 24.9644L85.9633 24.9796L85.9658 24.9948L85.9683 25.0101L85.9708 25.0253L85.9733 25.0405V25.0431L85.9784 25.0735V25.0761L85.9809 25.0887V25.0913L85.9834 25.104V25.1091L85.9859 25.1217V25.1268L85.9884 25.137V25.1421V25.1522V25.1598V25.17V25.1776V25.1852V25.1928V25.2004V25.2106V25.2182V25.2284V25.2334V25.2461V25.2512V25.2639V25.2664V25.2791V25.2817V25.2969V25.3121V106.68C85.9884 107.406 85.4047 107.995 84.6852 107.995H1.2935C0.573938 107.995 -0.00976562 107.406 -0.00976562 106.68V1.3124C-0.00976562 0.586447 0.573938 -0.00244141 1.2935 -0.00244141L1.30357 9.69034e-05ZM39.8255 76.3626C34.8263 75.03 30.3755 70.7504 28.403 68.0776C25.8141 64.5569 24.2894 60.3611 24.0076 55.9952C23.7258 51.6268 24.702 47.271 26.818 43.4433C28.798 39.8338 31.7115 36.8284 35.249 34.7445C38.7889 32.6605 42.8245 31.5767 46.9306 31.6046C64.8921 31.6579 76.5737 52.0938 65.1009 68.2146C63.2592 70.7986 58.7682 74.8828 54.003 76.2915V78.543C64.9021 75.228 73.5722 64.3691 71.5493 50.7891C69.685 38.2423 57.797 27.2184 43.0158 29.7237C38.3084 30.5233 33.4148 32.6758 30.1718 35.6963C24.3473 41.1131 20.6941 48.9742 22.0376 58.2492C22.7698 62.9933 24.8304 67.4303 27.9778 71.0449C31.1278 74.6569 35.2339 77.2992 39.8205 78.6598V76.3601L39.8255 76.3626ZM63.8806 58.8051C64.9902 60.4017 66.1828 60.2367 67.486 58.894C66.4369 58.2035 65.0254 57.5918 63.8806 58.8051V58.8051ZM26.2343 58.828C26.9513 60.4474 29.0723 60.2342 29.7189 58.6401C28.2093 57.9573 27.5753 57.7771 26.2343 58.828ZM49.9925 45.0932C51.4015 44.4129 52.6519 43.5575 52.5186 41.3771C50.5712 41.999 50.0328 42.8138 49.9925 45.0932ZM45.4185 47.2837C45.7984 46.7431 46.0525 46.1263 46.1657 45.4765C46.2764 44.8266 46.2437 44.1591 46.0651 43.522C46.0223 43.3062 45.9292 43.1031 45.7984 42.9305C45.6651 42.7579 45.494 42.6158 45.2977 42.5193C45.0612 43.263 44.5404 44.0144 44.4901 44.9536C44.47 45.3521 44.5278 45.7506 44.6662 46.1237C44.8046 46.4969 45.0134 46.8395 45.2877 47.1289C45.3153 47.1619 45.3757 47.2279 45.4185 47.2837V47.2837ZM42.5478 53.1447C42.4144 51.147 40.92 50.581 38.7462 50.6749C39.2871 52.5101 40.2683 53.4341 42.5478 53.1447V53.1447ZM51.716 39.1358C52.1965 38.8921 51.8091 39.2119 52.1839 38.8261L53.1098 37.001C53.2784 36.0035 53.0067 34.7546 52.4758 34.1683C51.2379 35.4552 50.4932 37.2701 51.716 39.1332V39.1358ZM49.039 57.706C51.4115 57.7416 51.9952 57.0385 52.3978 54.7946C50.1561 54.5611 49.1145 55.5942 49.039 57.706ZM44.5983 57.701C44.6285 55.6348 43.3202 54.5712 41.2093 54.8174C41.5464 56.9826 42.2761 57.7695 44.5983 57.701V57.701ZM39.0506 48.9539C38.3964 46.6187 38.1247 45.8877 35.3622 45.9968C35.7673 48.0935 36.6428 49.1265 39.0506 48.9539ZM54.4282 49.0783C56.8058 48.8854 57.8549 48.2153 58.2222 45.9968C55.6082 45.8572 54.9238 46.7507 54.4282 49.0783ZM35.7748 42.0751C36.0012 39.7297 34.9521 38.4174 32.8663 38.1407C32.6626 40.6004 33.7872 41.4888 35.7748 42.0751ZM29.9353 43.3062C30.7731 44.9967 33.3368 45.5196 34.9898 44.4154C33.8124 42.5371 32.4487 42.7757 29.9353 43.3062ZM57.8423 42.0497C59.9105 41.5065 60.937 40.7044 60.7533 38.1331C58.6751 38.4504 57.5958 39.7094 57.8423 42.0497ZM50.3372 52.9442C52.6972 53.7539 54.2873 52.4847 54.8483 50.7079C52.0908 50.4439 51.1901 51.0303 50.3372 52.9442ZM58.6349 44.4154C59.0425 44.7099 59.5129 44.9104 60.0111 44.9967C60.5067 45.0856 61.0175 45.0602 61.5031 44.9256C61.9559 44.8368 62.3837 44.6464 62.7535 44.3672C63.1233 44.088 63.4227 43.7276 63.6316 43.3163C61.3093 42.7452 59.6312 42.5371 58.6374 44.4154H58.6349ZM59.3343 55.5079C61.1609 55.0078 62.117 53.5407 61.6515 51.0912C60.7206 51.0024 59.9683 51.7816 59.6413 52.3883C59.1406 53.3274 59.2639 54.4697 59.3343 55.5079ZM34.2778 55.4926C34.3483 54.4341 34.4464 53.3046 33.9658 52.3807C33.6438 51.7638 32.9217 51.01 31.9656 51.0937C31.4599 53.5584 32.4562 55.0002 34.2778 55.4926ZM63.6567 52.1395C65.7223 51.9466 66.7665 50.4262 66.5098 48.0097C64.5222 48.4158 63.4605 49.784 63.6567 52.1395V52.1395ZM29.973 52.1446C30.1567 49.8017 29.0974 48.2965 27.0796 47.9995C26.9236 50.3906 27.7791 51.8298 29.973 52.1446ZM42.3993 43.9002C43.6724 42.7325 43.2824 39.6358 41.642 38.92C40.1023 40.9024 41.1363 42.7503 42.3993 43.9002ZM59.835 62.9172C59.0978 60.5718 57.7643 60.1276 55.1024 60.7266C55.7641 62.9527 57.8096 63.0771 59.835 62.9172ZM45.8789 38.8642C45.8739 36.2802 45.1921 35.1633 42.9529 34.5998C42.7415 37.0823 43.5567 38.5748 45.8789 38.8642ZM33.7721 62.9172C35.4704 63.0314 37.7423 63.1735 38.5197 60.7266C35.6616 60.1555 34.4942 60.5591 33.7721 62.9172ZM47.864 33.6505C47.3835 35.5034 48.8578 36.006 47.4665 42.4279C46.8325 45.3318 46.4677 48.0376 45.9267 50.949L40.4168 44.6337C39.5638 43.324 38.9978 41.8492 38.7537 40.3059C38.3788 38.1687 38.9952 36.171 36.8214 36.534C35.6138 39.5216 37.546 44.5957 39.0355 46.5273C41.2194 49.3398 42.9076 50.7917 44.397 53.7843C47.1445 59.3102 45.8512 70.5499 45.8613 77.2789L43.8963 77.2282L43.9869 65.9022C43.9819 61.7775 42.6308 59.5057 40.8772 56.8125C38.7512 53.5534 33.9784 43.758 28.3502 45.2531C27.6482 47.2457 28.9691 46.7177 32.1971 48.8372C33.5985 49.756 35.0678 51.5659 36.0339 53.0787C36.8189 54.2539 37.4353 55.5332 37.8706 56.8811C33.757 56.117 30.2699 56.7669 27.6105 52.9365C26.7727 51.7334 26.9362 50.7739 25.0518 51.2714C24.9436 51.6674 24.9209 52.0811 24.9813 52.4847C25.0442 52.8909 25.1876 53.2767 25.409 53.6219C26.1663 54.9037 27.4646 56.5054 28.6999 57.1552C29.666 57.6629 29.9025 57.5182 30.992 58.2061C31.0297 58.2315 31.1052 58.2848 31.1605 58.3254C30.6347 59.1656 29.105 60.5185 29.4849 61.7394C29.6434 62.2572 29.5528 61.9577 29.7642 62.2014C31.7392 63.105 32.0487 60.4956 33.3142 59.5768C34.5797 58.6579 37.0127 58.6122 38.6178 59.3382C41.8509 60.8002 41.7502 65.5113 41.7502 69.6995C41.7502 72.8445 41.6571 75.9616 41.6571 79.1217L44.8851 85.5411L46.1179 84.5969H47.698L48.9358 85.5411L52.1638 79.1217L52.1588 79.0278H52.1638C52.1638 78.5506 52.1437 78.0049 52.121 77.4033C51.8669 71.6794 50.7297 61.2317 54.9817 59.3331C56.5064 58.6528 59.0651 58.6122 60.2879 59.5717C61.5458 60.5642 61.8176 63.105 63.8429 62.2065L64.1675 61.2165C64.0995 60.8408 63.9637 60.4804 63.7674 60.153L62.7963 58.8026C62.4164 58.3101 62.7912 58.8914 62.439 58.3254C64.4744 56.8836 64.9047 58.2898 67.9792 53.9214C68.6082 53.033 68.8597 52.4314 68.5276 51.2841C66.7514 50.7104 66.8394 51.5862 66.1073 52.8096C63.8303 56.6298 59.1305 56.2617 55.7038 56.8988C56.9844 53.132 59.4526 49.7687 62.9472 47.8599C64.4367 47.0451 65.9664 47.106 65.2342 45.2632C62.9976 44.6363 60.001 46.7989 58.8789 47.832C56.7554 49.7941 53.2155 55.9419 51.5902 58.7137C50.219 61.0693 49.4315 62.9121 49.6151 66.1637L50.0127 77.1926L48.181 77.3805L47.8841 57.8253C47.8791 55.1525 48.5635 53.6625 49.7812 51.8375L53.4947 47.733C55.0295 46.0298 58.8034 39.519 56.6045 36.3385C52.9463 36.3766 57.153 39.679 51.965 45.9435L49.3359 48.86C48.9283 49.4032 48.4855 49.9236 48.015 50.416C48.327 45.4663 51.5801 38.3793 49.5547 33.7241L47.8615 33.6581L47.864 33.6505ZM9.78489 97.9332H13.2494V101.55H9.78489V97.9332ZM9.78489 90.902H13.2494V94.5191H9.78489V90.902ZM9.78489 83.8709H13.2494V87.488H9.78489V83.8709ZM9.78489 76.8398H13.2494V80.4569H9.78489V76.8398ZM9.78489 69.8087H13.2494V73.4258H9.78489V69.8087ZM9.78489 62.7776H13.2494V66.3947H9.78489V62.7776ZM9.78489 55.7465H13.2494V59.3635H9.78489V55.7465ZM9.78489 48.7153H13.2494V52.3324H9.78489V48.7153ZM9.78489 41.6842H13.2494V45.3013H9.78489V41.6842ZM9.78489 34.6531H13.2494V38.2702H9.78489V34.6531ZM9.78489 27.622H13.2494V31.2391H9.78489V27.622ZM9.78489 20.5909H13.2494V24.208H9.78489V20.5909ZM9.78489 13.5597H13.2494V17.1768H9.78489V13.5597ZM9.78489 6.52863H13.2494V10.1457H9.78489V6.52863V6.52863ZM62.21 4.47768V23.9871H81.5478L62.21 4.47768ZM59.601 25.302V2.61709H2.60684V105.353H83.3894V26.6168H60.9043C60.1847 26.6168 59.601 26.0279 59.601 25.302V25.302Z" fill="#F6F7FC"/>
</g>
<defs>
<clipPath id="clip0">
<rect width="86" height="108" fill="white"/>
</clipPath>
</defs>
</svg>
