<svg width="20" height="20" viewBox="0 0 20 20" fill="none" xmlns="http://www.w3.org/2000/svg">
<path d="M9.99965 0C12.7608 0 15.2608 1.11954 17.0707 2.92868C18.8805 4.7385 19.9993 7.23861 19.9993 9.99974C19.9993 10.2102 19.9931 10.4193 19.9799 10.627H19.523C19.5361 10.42 19.5437 10.2109 19.5437 9.99974C19.5437 7.36462 18.4754 4.97806 16.7487 3.25132C15.022 1.52457 12.6354 0.456265 10.0003 0.456265C7.36525 0.456265 4.97871 1.52457 3.25198 3.25132C1.52525 4.97806 0.456953 7.36462 0.456953 9.99974C0.456953 12.6349 1.52525 15.0214 3.25198 16.7482C4.97871 18.4749 7.36525 19.5432 10.0003 19.5432C12.6354 19.5432 15.022 18.4749 16.7487 16.7482C17.2756 16.2213 17.7415 15.6328 18.1341 14.9944L17.115 14.3761L19.3672 13.1929L19.417 15.7733L18.5239 15.2312C18.112 15.9007 17.6238 16.5183 17.0707 17.0708C15.2608 18.8806 12.7608 19.9995 9.99965 19.9995C7.23855 19.9995 4.73846 18.8799 2.92865 17.0708C1.11884 15.261 0 12.7616 0 9.99974C0 7.23861 1.11953 4.7385 2.92865 2.92868C4.73846 1.11885 7.23855 0 9.99965 0V0ZM17.0201 9.69718V10.303H16.3928V9.69718H17.0201ZM3.60647 9.69718V10.303H2.97919V9.69718H3.60647ZM9.6964 2.97922H10.3022V3.6065H9.6964V2.97922ZM9.6964 16.393H10.3022V17.0203H9.6964V16.393ZM7.63458 1.73159H8.24039V2.35887H7.63458V1.73159ZM5.63921 2.52988H6.24502V3.15716H5.63921V2.52988ZM3.98588 3.88413H4.59169V4.51141H3.98588V3.88413ZM2.89196 5.56587H3.49777V6.19315H2.89196V5.56587ZM1.83681 7.56125H2.44262V8.18853H1.83681V7.56125ZM1.8652 11.7805H2.47101V12.4078H1.8652V11.7805ZM2.57763 13.7191H3.18344V14.3464H2.57763V13.7191ZM3.96026 15.4299H4.56607V16.0572H3.96026V15.4299ZM5.64198 16.7412H6.24779V17.3685H5.64198V16.7412ZM7.6235 17.5541H8.22931V18.1813H7.6235V17.5541ZM11.9244 17.5686H12.5302V18.1959H11.9244V17.5686ZM13.8484 16.7987H14.4543V17.426H13.8484V16.7987ZM15.5163 15.4161H16.1221V16.0433H15.5163V15.4161ZM17.6259 11.7812H18.2317V12.4085H17.6259V11.7812ZM17.6578 7.54741H18.2636V8.17468H17.6578V7.54741ZM16.874 5.48071H17.4798V6.10799H16.874V5.48071ZM15.5627 3.86959H16.1685V4.49687H15.5627V3.86959ZM13.8519 2.58665H14.4577V3.21393H13.8519V2.58665ZM11.8704 1.75998H12.4762V2.38725H11.8704V1.75998ZM10.2911 4.09738V8.80058C10.5141 8.85458 10.7135 8.96951 10.8706 9.12668C11.0278 9.28384 11.1427 9.48324 11.1967 9.70618H14.2535V10.2905H11.1967C11.1427 10.5135 11.0278 10.7129 10.8706 10.87C10.6477 11.093 10.3389 11.2314 9.99896 11.2314C9.65832 11.2314 9.35023 11.0937 9.12729 10.87C8.90435 10.6471 8.76588 10.3383 8.76588 9.99836C8.76588 9.65772 8.90366 9.34962 9.12729 9.12668C9.28445 8.96951 9.48385 8.85458 9.70679 8.80058V4.09738H10.2911ZM18.8299 9.99905C18.8299 10.3418 18.5523 10.6194 18.2096 10.6194C17.8669 10.6194 17.5892 10.3418 17.5892 9.99905C17.5892 9.65633 17.8669 9.3787 18.2096 9.3787C18.5523 9.3787 18.8299 9.65633 18.8299 9.99905ZM2.4087 9.99905C2.4087 10.3418 2.13106 10.6194 1.78835 10.6194C1.44563 10.6194 1.168 10.3418 1.168 9.99905C1.168 9.65633 1.44563 9.3787 1.78835 9.3787C2.13106 9.3787 2.4087 9.65633 2.4087 9.99905ZM9.99896 1.16801C10.3417 1.16801 10.6193 1.44565 10.6193 1.78836C10.6193 2.13108 10.3417 2.40872 9.99896 2.40872C9.65625 2.40872 9.37861 2.13108 9.37861 1.78836C9.37861 1.44565 9.65625 1.16801 9.99896 1.16801ZM9.99896 17.5894C10.3417 17.5894 10.6193 17.867 10.6193 18.2097C10.6193 18.5525 10.3417 18.8301 9.99896 18.8301C9.65625 18.8301 9.37861 18.5525 9.37861 18.2097C9.37861 17.867 9.65625 17.5894 9.99896 17.5894ZM10.548 9.44932C10.4075 9.30877 10.2129 9.22153 9.99896 9.22153C9.78433 9.22153 9.58978 9.30877 9.44993 9.44932C9.30938 9.58986 9.22214 9.78442 9.22214 9.99836C9.22214 10.213 9.30938 10.4075 9.44993 10.5474C9.59047 10.6879 9.78503 10.7752 9.99896 10.7752C10.2136 10.7752 10.4081 10.6879 10.548 10.5474C10.6885 10.4068 10.7758 10.2123 10.7758 9.99836C10.7758 9.78372 10.6885 9.58917 10.548 9.44932Z" fill="#98C22A"/>
</svg>
