<svg width="101" height="126" viewBox="0 0 101 126" fill="none" xmlns="http://www.w3.org/2000/svg">
<g clip-path="url(#clip0_100:210)">
<path d="M1.5 0H72L73 1L100 28C101.2 29.2 101.167 29.8333 101 30V124C101 125.6 99.6667 126 99 126H1C0.2 126 0 125 0 124.5V1.5C0 0.3 1 0 1.5 0Z" fill="#0079C2"/>
<path d="M1.53044 3.16736e-05H71.5296H71.5503H71.568H71.5709H71.5916H71.6064H71.6123H71.633H71.6448H71.6537H71.6744H71.6832H71.6921L71.7128 0.00299303H71.7216H71.7335L71.7512 0.0059544H71.7571L71.7719 0.00891576L71.7896 0.0118771H71.7955L71.8103 0.0148385L71.8487 0.0237226L71.8664 0.0266839H71.8694L71.8871 0.0296453L71.9048 0.0326066L71.9226 0.035568L71.9403 0.0414907L71.958 0.0474135L71.9757 0.0533362L71.9935 0.0592589L72.0112 0.0651816L72.0289 0.0711043L72.0437 0.0770271H72.0467L72.0644 0.0829498L72.0792 0.0888725H72.0821L72.0998 0.0947952L72.1146 0.100718H72.1176L72.1353 0.106641L72.1501 0.112563H72.153L72.1708 0.121447L72.1855 0.12737H72.1885L72.2062 0.136254L72.221 0.142177H72.2239L72.2387 0.151061L72.2535 0.159945L72.2683 0.168829L72.283 0.177713L72.2978 0.186597L72.3008 0.189559L72.3628 0.228056L72.3776 0.236941H72.3806L72.3953 0.245825L72.4101 0.25767L72.4131 0.260631L72.4249 0.269516L72.4397 0.281361L72.4456 0.284322L72.4574 0.293206L72.4722 0.305052L72.4781 0.308013L72.4869 0.313936L72.5017 0.325781L72.5076 0.331704L72.5165 0.337627L72.5312 0.349472L72.5401 0.355395L72.546 0.361318L72.5608 0.373163L72.5697 0.382047L72.5726 0.385009L72.5874 0.396854L72.5992 0.4087L72.6022 0.411661L72.614 0.423506L72.6288 0.435352L100.566 28.435L100.578 28.4498L100.59 28.4617L100.593 28.4646L100.605 28.4765L100.608 28.4794L100.617 28.4913L100.62 28.4942L100.628 28.5031L100.631 28.5091L100.64 28.5179L100.646 28.5239L100.652 28.5327L100.658 28.5387L100.664 28.5476L100.67 28.5564L100.676 28.5624L100.682 28.5712L100.688 28.5772L100.693 28.5861L100.696 28.592L100.705 28.6009L100.708 28.6068L100.717 28.6186L100.72 28.6216L100.729 28.6334L100.732 28.6364L100.741 28.6482L100.744 28.6512L100.753 28.663L100.755 28.666L100.764 28.6808V28.6838L100.773 28.6986V28.7015L100.782 28.7164L100.791 28.7312L100.8 28.746L100.809 28.7608L100.818 28.7756L100.826 28.7904L100.835 28.8052L100.844 28.82V28.823L100.853 28.8378V28.8407L100.862 28.8555V28.8585L100.868 28.8733V28.8763L100.874 28.8911V28.894L100.88 28.9088V28.9118L100.885 28.9266V28.9296L100.891 28.9444V28.9473L100.897 28.9621V28.9651L100.903 28.9799V28.9829L100.909 28.9977V29.0006L100.915 29.0154V29.0184L100.921 29.0332V29.0362L100.927 29.051V29.0539L100.933 29.0688V29.0717L100.939 29.0865V29.0895L100.945 29.1073L100.95 29.125L100.956 29.1428L100.959 29.1606L100.962 29.1783L100.965 29.1961L100.968 29.2139V29.2168L100.974 29.2524V29.2553L100.977 29.2701V29.2731L100.98 29.2879V29.2938L100.983 29.3086V29.3145L100.986 29.3264V29.3323V29.3442V29.353V29.3649V29.3738V29.3827V29.3915V29.4004V29.4123V29.4212V29.433V29.4389V29.4537V29.4597V29.4745V29.4774V29.4922V29.4952V29.513V29.5307V124.46C100.986 125.307 100.3 125.994 99.4554 125.994H1.51862C0.67355 125.994 -0.0119629 125.307 -0.0119629 124.46V1.53106C-0.0119629 0.684106 0.67355 -0.00292969 1.51862 -0.00292969L1.53044 3.16736e-05ZM46.7713 89.0896C40.9001 87.5349 35.6731 82.5421 33.3566 79.4237C30.3161 75.3163 28.5255 70.4212 28.1945 65.3277C27.8636 60.2312 29.01 55.1495 31.495 50.6837C33.8205 46.4727 37.2421 42.9664 41.3966 40.5351C45.554 38.1039 50.2934 36.8394 55.1157 36.8719C76.21 36.9341 89.9291 60.776 76.4552 79.5836C74.2923 82.5983 69.018 87.3632 63.4216 89.0067V91.6334C76.2218 87.7659 86.404 75.0972 84.0284 59.2539C81.8389 44.6159 67.8774 31.7547 50.518 34.6776C44.9896 35.6104 39.2425 38.1216 35.4338 41.6457C28.5934 47.9652 24.3031 57.1365 25.8809 67.9573C26.7408 73.4921 29.1607 78.6686 32.8572 82.8856C36.5566 87.0996 41.3788 90.1824 46.7654 91.7697V89.0867L46.7713 89.0896ZM75.0221 68.6059C76.3252 70.4686 77.7258 70.2761 79.2564 68.7095C78.0242 67.904 76.3666 67.1904 75.0221 68.6059ZM30.8095 68.6325C31.6516 70.5219 34.1425 70.2731 34.9019 68.4134C33.129 67.6168 32.3844 67.4065 30.8095 68.6325ZM58.7117 52.6086C60.3663 51.815 61.8349 50.817 61.6783 48.2732C59.3913 48.9987 58.7589 49.9493 58.7117 52.6086ZM53.3398 55.1643C53.786 54.5335 54.0845 53.8139 54.2174 53.0558C54.3474 52.2977 54.309 51.5188 54.0992 50.7755C54.049 50.5238 53.9397 50.2869 53.786 50.0855C53.6294 49.8842 53.4285 49.7183 53.198 49.6058C52.9203 50.4735 52.3086 51.35 52.2495 52.4457C52.2259 52.9107 52.2938 53.3756 52.4564 53.8109C52.6189 54.2462 52.8641 54.646 53.1862 54.9836C53.2187 55.0221 53.2896 55.0991 53.3398 55.1643ZM49.9684 62.002C49.8118 59.6715 48.0567 59.0111 45.5037 59.1206C46.139 61.2617 47.2914 62.3396 49.9684 62.002ZM60.7357 45.6583C61.3001 45.374 60.845 45.7471 61.2853 45.297L62.3727 43.1678C62.5706 42.004 62.2515 40.547 61.628 39.8629C60.1743 41.3643 59.2997 43.4817 60.7357 45.6553V45.6583ZM57.5918 67.3236C60.3782 67.3651 61.0637 66.5448 61.5364 63.9269C58.9037 63.6545 57.6804 64.8598 57.5918 67.3236ZM52.3766 67.3177C52.412 64.9071 50.8755 63.6663 48.3965 63.9536C48.7924 66.4796 49.6493 67.3977 52.3766 67.3177ZM45.8613 57.1128C45.093 54.3884 44.7739 53.5355 41.5295 53.6629C42.0052 56.1089 43.0335 57.3142 45.8613 57.1128ZM63.921 57.2579C66.7132 57.0329 67.9454 56.2511 68.3768 53.6629C65.3068 53.5 64.5031 54.5424 63.921 57.2579ZM42.0141 49.0876C42.28 46.3513 41.0479 44.8202 38.5984 44.4974C38.359 47.367 39.6798 48.4035 42.0141 49.0876ZM35.156 50.5238C36.14 52.4961 39.1509 53.1061 41.0922 51.8179C39.7094 49.6265 38.1079 49.9049 35.156 50.5238ZM67.9306 49.0579C70.3595 48.4242 71.565 47.4884 71.3493 44.4886C68.9087 44.8587 67.6411 46.3276 67.9306 49.0579ZM59.1165 61.7681C61.8881 62.7128 63.7555 61.2321 64.4144 59.1591C61.176 58.8512 60.1181 59.5352 59.1165 61.7681ZM68.8614 51.8179C69.3401 52.1614 69.8926 52.3954 70.4777 52.4961C71.0598 52.5997 71.6596 52.5701 72.2299 52.4132C72.7617 52.3095 73.264 52.0874 73.6984 51.7617C74.1327 51.4359 74.4844 51.0154 74.7296 50.5357C72.0023 49.8694 70.0315 49.6265 68.8643 51.8179H68.8614ZM69.6828 64.7591C71.828 64.1757 72.9508 62.464 72.4042 59.6063C71.3109 59.5027 70.4274 60.4118 70.0433 61.1196C69.4553 62.2153 69.6001 63.5479 69.6828 64.7591ZM40.256 64.7413C40.3387 63.5064 40.454 62.1886 39.8896 61.1107C39.5114 60.3911 38.6634 59.5115 37.5405 59.6093C36.9466 62.4847 38.1167 64.1668 40.256 64.7413ZM74.7592 60.8293C77.1851 60.6043 78.4113 58.8304 78.1099 56.0112C75.7756 56.485 74.5287 58.0812 74.7592 60.8293ZM35.2003 60.8353C35.416 58.1019 34.1721 56.3458 31.8023 55.9994C31.6191 58.789 32.6238 60.4681 35.2003 60.8353ZM49.7941 51.2168C51.2892 49.8545 50.8312 46.2417 48.9047 45.4066C47.0964 47.7194 48.3108 49.8753 49.7941 51.2168ZM70.2708 73.4033C69.4051 70.667 67.839 70.1488 64.7129 70.8476C65.49 73.4447 67.8922 73.5899 70.2708 73.4033ZM53.8806 45.3414C53.8747 42.3268 53.0739 41.0238 50.4441 40.3663C50.1959 43.2626 51.1533 45.0038 53.8806 45.3414ZM39.6621 73.4033C41.6566 73.5365 44.3248 73.7024 45.2378 70.8476C41.8811 70.1813 40.5101 70.6522 39.6621 73.4033ZM56.2119 39.2588C55.6475 41.4206 57.3791 42.0069 55.745 49.4992C55.0004 52.887 54.572 56.0438 53.9367 59.4405L47.4657 52.0726C46.464 50.5445 45.7992 48.824 45.5126 47.0235C45.0723 44.53 45.7962 42.1994 43.2433 42.6229C41.825 46.1084 44.0943 52.0282 45.8435 54.2818C48.4083 57.563 50.391 59.2569 52.1402 62.7483C55.3668 69.1952 53.8481 82.3081 53.8599 90.1587L51.5522 90.0994L51.6586 76.8859C51.6527 72.0736 50.0659 69.4232 48.0064 66.2812C45.5096 62.4788 39.9044 51.0509 33.2945 52.7952C32.4701 55.1198 34.0214 54.5039 37.8124 56.9766C39.4582 58.0486 41.1838 60.1601 42.3185 61.9251C43.2403 63.2962 43.9643 64.7887 44.4755 66.3612C39.6444 65.4698 35.549 66.2279 32.4258 61.7592C31.4418 60.3555 31.6339 59.2361 29.4208 59.8166C29.2937 60.2785 29.2671 60.7612 29.338 61.2321C29.4119 61.7059 29.5803 62.156 29.8403 62.5588C30.7297 64.0543 32.2544 65.9229 33.7052 66.681C34.8399 67.2733 35.1176 67.1045 36.397 67.907C36.4414 67.9366 36.53 67.9988 36.595 68.0462C35.9775 69.0264 34.1809 70.6048 34.6271 72.0292C34.8133 72.6333 34.7069 72.2839 34.9551 72.5682C37.2746 73.6224 37.6381 70.5781 39.1243 69.5061C40.6106 68.4341 43.4679 68.3808 45.353 69.2278C49.1499 70.9335 49.0317 76.4298 49.0317 81.316C49.0317 84.9852 48.9224 88.6217 48.9224 92.3086L52.7134 99.7979L54.1613 98.6963H56.0169L57.4706 99.7979L61.2617 92.3086L61.2557 92.1991H61.2617C61.2617 91.6423 61.238 91.0056 61.2114 90.3038C60.913 83.6259 59.5774 71.4369 64.571 69.2218C66.3616 68.4282 69.3667 68.3808 70.8027 69.5002C72.2801 70.6581 72.5992 73.6224 74.9778 72.5741L75.359 71.4192C75.2792 70.9809 75.1196 70.5604 74.8892 70.1784L73.7486 68.6029C73.3024 68.0284 73.7427 68.7066 73.329 68.0462C75.7195 66.3641 76.2247 68.0047 79.8355 62.9082C80.5742 61.8717 80.8697 61.1699 80.4797 59.8314C78.3936 59.1621 78.497 60.1838 77.6371 61.6111C74.9631 66.068 69.4435 65.6386 65.419 66.3819C66.923 61.9872 69.8217 58.0634 73.9259 55.8365C75.6751 54.8859 77.4717 54.957 76.6118 52.807C73.985 52.0756 70.4658 54.5986 69.148 55.8039C66.6542 58.0931 62.4968 65.2655 60.588 68.4993C58.9776 71.2474 58.0527 73.3974 58.2684 77.1909L58.7353 90.058L56.5842 90.2771L56.2355 67.4628C56.2296 64.3445 57.0333 62.6062 58.4635 60.4769L62.8247 55.6884C64.6272 53.7014 69.0594 46.1055 66.4769 42.3949C62.1806 42.4393 67.121 46.292 61.0282 53.6007L57.9405 57.0033C57.4618 57.637 56.9417 58.2441 56.3892 58.8186C56.7556 53.0439 60.5761 44.7758 58.1975 39.3447L56.2089 39.2677L56.2119 39.2588ZM11.4911 114.255H15.5598V118.475H11.4911V114.255ZM11.4911 106.052H15.5598V110.272H11.4911V106.052ZM11.4911 97.8493H15.5598V102.069H11.4911V97.8493ZM11.4911 89.6464H15.5598V93.8663H11.4911V89.6464ZM11.4911 81.4434H15.5598V85.6633H11.4911V81.4434ZM11.4911 73.2404H15.5598V77.4604H11.4911V73.2404ZM11.4911 65.0374H15.5598V69.2574H11.4911V65.0374ZM11.4911 56.8345H15.5598V61.0544H11.4911V56.8345ZM11.4911 48.6315H15.5598V52.8514H11.4911V48.6315ZM11.4911 40.4285H15.5598V44.6485H11.4911V40.4285ZM11.4911 32.2256H15.5598V36.4455H11.4911V32.2256ZM11.4911 24.0226H15.5598V28.2425H11.4911V24.0226ZM11.4911 15.8196H15.5598V20.0396H11.4911V15.8196ZM11.4911 7.61665H15.5598V11.8366H11.4911V7.61665ZM73.0602 5.22387V27.9849H95.7707L73.0602 5.22387ZM69.996 29.5189V3.0532H3.06103V122.911H97.9336V31.0529H71.5266C70.6815 31.0529 69.996 30.3658 69.996 29.5189Z" fill="#F6F7FC"/>
</g>
<defs>
<clipPath id="clip0_100:210">
<rect width="101" height="126" fill="white"/>
</clipPath>
</defs>
</svg>
