<svg width="40" height="40" viewBox="0 0 40 40" fill="none" xmlns="http://www.w3.org/2000/svg">
<g clip-path="url(#clip0_467:4450)">
<path d="M20.1065 0C25.5998 0 30.5735 2.23863 34.1735 5.85792C37.7732 9.47688 39.9999 14.4772 39.9999 20.0002C39.9999 25.5228 37.7732 30.5231 34.1735 34.1424C30.5735 37.7617 25.6001 40.0003 20.1065 40.0003C15.6988 40.0003 11.6256 38.5587 8.32789 36.1194L8.91172 35.4162C12.0504 37.7237 15.92 39.0861 20.1062 39.0861C25.3485 39.0861 30.0946 36.9497 33.5301 33.4962C36.9652 30.0427 39.0902 25.2708 39.0902 20.0005C39.0902 14.7302 36.9652 9.9583 33.5301 6.50481C30.0946 3.05098 25.3485 0.914894 20.1062 0.914894L19.9592 0.915893L19.9834 0.00133172L20.1062 0.000665862L20.1065 0ZM6.36843 34.7553L5.50079 33.89L6.36147 33.0181L7.22911 33.8834L6.36876 34.7553H6.36843ZM3.64365 31.6085L2.97173 30.582L3.99236 29.9065L4.66428 30.9326L3.64365 31.6081V31.6085ZM1.60073 27.9166L1.15599 26.7723L2.29418 26.3252L2.73893 27.4698L1.60073 27.9166ZM0.488703 24.4581L0.255567 23.2522L1.45502 23.0179L1.68816 24.2237L0.488703 24.4581ZM0.000244141 20.4849L0.00852311 19.2564L1.2305 19.2647L1.22222 20.4932L0.000244141 20.4849ZM0.365843 16.1465L0.636069 14.9483L1.82758 15.2199L1.55735 16.4182L0.365843 16.1465ZM1.3421 12.7409L1.81665 11.609L2.94259 12.0861L2.46771 13.218L1.34177 12.7409H1.3421ZM3.03432 9.33405L3.7122 8.31196L4.72886 8.99347L4.05098 10.0159L3.03432 9.33439V9.33405ZM5.55278 6.07299L6.42373 5.21104L7.2811 6.08631L6.41015 6.94827L5.55278 6.07299ZM8.47228 3.54072L9.49092 2.86221L10.1658 3.8863L9.14718 4.56482L8.47228 3.54072ZM12.0187 1.52782L13.1529 1.07004L13.6082 2.21L12.474 2.66778L12.0187 1.52782ZM15.7435 0.309626L16.9446 0.082234L17.1708 1.28944L15.9697 1.51683L15.7435 0.309626ZM20.5063 11.4885V25.9696L24.6557 22.0151L25.2809 22.6759L20.0509 27.6602L14.8365 22.6759L15.4617 22.0151L19.5969 25.9676V11.4885H20.5063ZM23.8728 36.7299L22.6727 36.9577L22.4452 35.7508L23.6463 35.5227L23.8728 36.7299ZM17.7669 4.24753L16.5658 4.47592L16.3393 3.26905L17.5404 3.04066L17.7669 4.24753ZM26.89 35.7391L25.7525 36.1866L25.3067 35.043L26.4449 34.5952L26.89 35.7395V35.7391ZM14.9054 4.95601L13.7672 5.4038L13.3221 4.25985L14.4603 3.81206L14.9054 4.95601ZM30.0244 33.9576L29.0054 34.6348L28.3312 33.6107L29.3505 32.9329L30.0244 33.9576ZM11.8809 6.38828L10.8619 7.06613L10.188 6.0417L11.2073 5.36385L11.8809 6.38828ZM32.4227 31.8708L31.5461 32.7261L30.695 31.8452L31.5719 30.9892L32.4227 31.8708ZM9.51708 8.15415L8.6405 9.01011L7.78976 8.12851L8.66667 7.27255L9.51741 8.15415H9.51708ZM34.4603 29.2736L33.7632 30.2821L32.7595 29.5819L33.4565 28.5725L34.46 29.2736H34.4603ZM7.45297 10.4177L6.75588 11.4269L5.75247 10.726L6.44956 9.71692L7.45297 10.4177ZM36.076 26.0412L35.6048 27.1742L34.4775 26.7011L34.9487 25.5671L36.076 26.0412ZM5.73591 13.2989L5.26501 14.4326L4.13774 13.9585L4.60865 12.8248L5.73591 13.2986V13.2989ZM36.9019 23.0245L36.6433 24.2247L35.4491 23.9654L35.7078 22.7642L36.9019 23.0245ZM4.76429 16.0343L4.50566 17.2352L3.3115 16.9748L3.57013 15.7739L4.76429 16.034V16.0343ZM37.1635 19.5524L37.1513 20.7806L35.9296 20.7689L35.9416 19.5401L37.1635 19.5524ZM4.28411 19.2311L4.27219 20.4599L3.05055 20.4476L3.06247 19.2191L4.28411 19.2311ZM36.7552 16.2424L36.9797 17.4499L35.779 17.676L35.5541 16.4681L36.7555 16.2424H36.7552ZM4.43545 22.324L4.66031 23.5319L3.4592 23.7573L3.23467 22.5498L4.43578 22.324H4.43545ZM35.7376 13.1201L36.1869 14.2624L35.0511 14.7146L34.601 13.5719L35.7376 13.1201ZM5.16367 25.2851L5.61338 26.4277L4.47718 26.8795L4.02746 25.7372L5.16367 25.2854V25.2851ZM34.0331 10.0878L34.7027 11.1152L33.6807 11.7888L33.0108 10.761L34.0331 10.0878ZM6.53367 28.2109L7.20361 29.2387L6.18132 29.9119L5.51139 28.8844L6.53334 28.2112L6.53367 28.2109ZM31.806 7.51292L32.6647 8.38687L31.7958 9.25049L30.9368 8.37654L31.806 7.51292ZM8.41863 30.7495L9.27765 31.6235L8.40836 32.4867L7.54934 31.6128L8.41863 30.7495ZM29.2144 5.49403L30.2238 6.18686L29.535 7.20163L28.5256 6.50913L29.2147 5.49436L29.2144 5.49403ZM10.6791 32.7987L11.6885 33.4912L10.9993 34.506L9.98998 33.8131L10.6791 32.7987ZM26.0432 3.9176L27.1731 4.38603L26.7072 5.52166L25.5773 5.05323L26.0432 3.91727V3.9176ZM13.5069 34.478L14.6368 34.9464L14.1709 36.0821L13.0409 35.6136L13.5069 34.478ZM22.8184 3.0643L24.0172 3.30301L23.7798 4.50822L22.581 4.26951L22.8181 3.0643H22.8184ZM16.4337 35.4921L17.6325 35.7308L17.395 36.936L16.1962 36.6973L16.4337 35.4921ZM19.4959 2.85721H20.7179V4.08573H19.4959V2.85721ZM19.4959 35.9143H20.7179V37.1428H19.4959V35.9143Z" fill="#0079C2"/>
</g>
<defs>
<clipPath id="clip0_467:4450">
<rect width="40" height="40" fill="white"/>
</clipPath>
</defs>
</svg>
