<svg width="30" height="30" viewBox="0 0 30 30" fill="none" xmlns="http://www.w3.org/2000/svg">
<path d="M17.8709 14.9999C17.8709 15.5677 17.7025 16.1228 17.3871 16.595C17.0716 17.0671 16.6232 17.4351 16.0986 17.6524C15.574 17.8697 14.9967 17.9265 14.4398 17.8157C13.8829 17.705 13.3713 17.4315 12.9698 17.03C12.5683 16.6285 12.2949 16.1169 12.1841 15.56C12.0733 15.0031 12.1301 14.4258 12.3474 13.9012C12.5647 13.3766 12.9327 12.9282 13.4049 12.6128C13.877 12.2973 14.4321 12.1289 14.9999 12.1289C15.7614 12.1289 16.4916 12.4314 17.03 12.9698C17.5684 13.5082 17.8709 14.2385 17.8709 14.9999Z" fill="#0079C2"/>
<path d="M21.7141 9.92104C21.5709 9.54946 21.3514 9.212 21.0698 8.9304C20.7882 8.64881 20.4507 8.42931 20.0791 8.28604C19.567 8.095 19.0257 7.99352 18.4791 7.98604C17.5711 7.94504 17.2981 7.93604 14.9981 7.93604C12.6981 7.93604 12.4261 7.94504 11.5171 7.98604C10.9705 7.99358 10.4293 8.09506 9.91713 8.28604C9.54558 8.42937 9.20817 8.64889 8.92657 8.93048C8.64498 9.21207 8.42546 9.54949 8.28214 9.92104C8.09114 10.4332 7.98965 10.9745 7.98213 11.521C7.94113 12.429 7.93213 12.702 7.93213 15.002C7.93213 17.302 7.94113 17.574 7.98213 18.483C7.98963 19.0296 8.09112 19.5709 8.28214 20.083C8.42541 20.4546 8.6449 20.7921 8.9265 21.0737C9.2081 21.3553 9.54555 21.5748 9.91713 21.718C10.4293 21.9092 10.9705 22.0107 11.5171 22.018C12.4251 22.059 12.6971 22.068 14.9971 22.068C17.2971 22.068 17.5701 22.059 18.4781 22.018C19.0247 22.0107 19.566 21.9092 20.0781 21.718C20.4497 21.5748 20.7872 21.3553 21.0688 21.0737C21.3504 20.7921 21.5699 20.4546 21.7131 20.083C21.9041 19.5708 22.0055 19.0296 22.0131 18.483C22.0541 17.575 22.0631 17.302 22.0631 15.002C22.0631 12.702 22.0541 12.43 22.0131 11.521C22.0061 10.9745 21.9049 10.4332 21.7141 9.92104ZM15.0001 19.421C14.1254 19.421 13.2702 19.1616 12.5428 18.6756C11.8155 18.1896 11.2486 17.4988 10.9138 16.6906C10.5791 15.8824 10.4915 14.9931 10.6621 14.1351C10.8328 13.2772 11.254 12.4891 11.8726 11.8705C12.4912 11.2519 13.2793 10.8307 14.1373 10.66C14.9952 10.4894 15.8845 10.5769 16.6927 10.9117C17.5009 11.2465 18.1917 11.8134 18.6777 12.5407C19.1637 13.2681 19.4231 14.1232 19.4231 14.998C19.4234 15.579 19.3092 16.1544 19.087 16.6913C18.8649 17.2281 18.5391 17.7159 18.1284 18.1269C17.7176 18.5378 17.23 18.8638 16.6932 19.0862C16.1565 19.3086 15.5811 19.423 15.0001 19.423V19.421ZM19.6001 11.434C19.3956 11.434 19.1957 11.3734 19.0257 11.2598C18.8556 11.1462 18.7231 10.9847 18.6448 10.7957C18.5666 10.6068 18.5461 10.3989 18.586 10.1983C18.6259 9.99774 18.7244 9.81349 18.869 9.66888C19.0136 9.52428 19.1978 9.42581 19.3984 9.38591C19.599 9.34601 19.8069 9.36649 19.9958 9.44475C20.1848 9.52301 20.3463 9.65554 20.4599 9.82558C20.5735 9.99562 20.6341 10.1955 20.6341 10.4C20.6344 10.5362 20.6078 10.671 20.5558 10.7968C20.5038 10.9226 20.4275 11.0369 20.3313 11.1332C20.235 11.2294 20.1207 11.3057 19.9949 11.3577C19.8691 11.4097 19.7343 11.4363 19.5981 11.436L19.6001 11.434Z" fill="#0079C2"/>
<path d="M15 0C12.0333 0 9.13319 0.879735 6.66645 2.52796C4.19972 4.17618 2.27713 6.51886 1.14181 9.25975C0.00649929 12.0006 -0.290551 15.0166 0.288228 17.9264C0.867006 20.8361 2.29562 23.5088 4.3934 25.6066C6.49119 27.7044 9.16394 29.133 12.0737 29.7118C14.9834 30.2906 17.9994 29.9935 20.7403 28.8582C23.4812 27.7229 25.8238 25.8003 27.4721 23.3336C29.1203 20.8668 30 17.9667 30 15C30 11.0218 28.4197 7.20644 25.6066 4.3934C22.7936 1.58035 18.9783 0 15 0V0ZM23.561 18.551C23.5469 19.2656 23.4116 19.9726 23.161 20.642C22.9399 21.2143 22.6017 21.734 22.1678 22.1678C21.734 22.6016 21.2143 22.9399 20.642 23.161C19.9726 23.4115 19.2656 23.5468 18.551 23.561C17.632 23.603 17.339 23.613 15 23.613C12.661 23.613 12.367 23.603 11.449 23.561C10.7344 23.5468 10.0274 23.4115 9.35801 23.161C8.78572 22.9399 8.26598 22.6016 7.83217 22.1678C7.39836 21.734 7.06007 21.2143 6.83901 20.642C6.58836 19.9726 6.4531 19.2656 6.43901 18.551C6.40001 17.633 6.38701 17.339 6.38701 15C6.38701 12.661 6.39701 12.367 6.43901 11.449C6.45314 10.7344 6.58839 10.0274 6.83901 9.358C7.06044 8.78593 7.39887 8.26639 7.83264 7.83263C8.2664 7.39887 8.78594 7.06044 9.35801 6.839C10.0274 6.58848 10.7344 6.45323 11.449 6.439C12.368 6.397 12.661 6.387 15 6.387C17.339 6.387 17.633 6.397 18.551 6.439C19.2656 6.45327 19.9726 6.58852 20.642 6.839C21.2141 7.06033 21.7337 7.39872 22.1675 7.8325C22.6013 8.26627 22.9397 8.78587 23.161 9.358C23.4116 10.0274 23.5469 10.7344 23.561 11.449C23.603 12.368 23.613 12.661 23.613 15C23.613 17.339 23.6 17.633 23.561 18.551Z" fill="#0079C2"/>
</svg>
