<svg width="67" height="100" viewBox="0 0 67 100" fill="none" xmlns="http://www.w3.org/2000/svg">
<path d="M15.8927 10.209C18.8733 9.26901 22.0861 9.38 24.9946 10.5234C28.7351 10.1101 32.446 9.46294 36.1055 8.58575C40.6284 7.81069 47.8658 7.93986 53.2946 11.6877C58.7235 15.4355 63.8922 15.5647 64.9257 26.5499C65.9591 37.535 64.0214 41.412 62.8571 43.8681C61.6928 46.3242 47.8658 49.9428 45.4097 50.8471C42.9536 51.7513 33.1311 53.8199 30.6767 53.174C28.2223 52.5281 12.4576 49.8137 10.2599 48.1344C8.06221 46.4551 1.60165 32.6331 2.11156 30.2977C2.62147 27.9623 5.8594 17.1148 8.31546 15.048C10.5778 13.0555 13.1335 11.4233 15.8927 10.209Z" fill="white"/>
<path d="M30.874 0.00740525C29.3973 0.0195206 27.9683 0.531805 26.8202 1.46065C24.8757 3.13655 22.933 4.87874 23.001 7.15804C23.0119 8.46478 23.4859 9.72531 24.3386 10.7155C24.4513 10.787 24.5441 10.8858 24.6084 11.0027C24.6727 11.1196 24.7064 11.2509 24.7064 11.3843C24.7064 11.5178 24.6727 11.6491 24.6084 11.766C24.5441 11.8829 24.4513 11.9817 24.3386 12.0532C20.9474 14.3324 18.1903 17.4353 16.3258 21.0711C14.4612 24.7069 13.5502 28.7565 13.6781 32.8405C13.8294 35.2668 13.7845 37.7013 13.5438 40.1203C13.4454 42.7112 13.8596 45.296 14.7625 47.7265C14.7761 47.7418 15.0379 48.4148 14.4464 48.0222C11.5286 46.0772 9.12717 43.4524 7.4487 40.3736C5.63328 37.0669 4.68483 33.3544 4.69179 29.5822C4.67271 25.6584 5.69885 21.8003 7.66474 18.4044C9.63062 15.0085 12.4653 12.1974 15.8775 10.26C11.2744 11.5828 7.23068 14.3758 4.36385 18.2125C1.49701 22.0492 -0.0353914 26.7186 0.000620496 31.5079C0.000295644 32.2777 0.0388715 33.0469 0.1162 33.8127C0.120012 35.7279 0.375453 37.6343 0.875966 39.4829C1.40848 41.4019 1.63449 43.393 1.54565 45.3826C1.54565 45.986 1.74621 65.8334 13.4826 65.7654C13.4826 65.7654 19.0763 65.9048 19.1137 63.6238C19.1518 62.4052 18.7742 61.21 18.0429 60.2346C17.533 59.1281 17.1727 59.0601 17.4412 55.5077C17.4412 55.5077 17.4548 54.7887 17.7234 54.7717C17.9919 54.7547 21.2622 64.494 25.4859 69.5914C26.8252 71.4093 28.5882 72.8726 30.6218 73.854C32.6554 74.8354 34.8979 75.3052 37.1544 75.2225C37.1544 75.2225 43.1866 75.2225 43.1866 72.2055C43.1866 69.1886 40.4382 70.3937 40.4382 60.804C40.4382 51.2143 45.0648 51.6885 45.6019 54.0341C46.139 56.3796 46.6081 58.2578 45.6681 64.5603C44.7282 70.8628 47.2795 71.6021 49.6267 71.6021C51.974 71.6021 64.3122 72.0016 66.4538 36.7294C66.5556 33.1306 66.0098 29.5427 64.8425 26.1369C64.8425 26.1369 65.6481 35.5243 59.8131 40.5537C53.978 45.5831 50.6245 44.8472 50.6245 44.8472C50.6245 44.8472 47.8115 44.6432 46.671 46.0523C45.5305 47.4613 45.7293 48.4675 43.3158 47.7299C40.9022 46.9922 40.892 46.3905 38.679 46.6591C36.466 46.9276 35.1334 47.1928 34.2598 45.3826C33.9867 44.5626 33.5068 43.8269 32.8663 43.2466C32.2259 42.6663 31.4466 42.261 30.6037 42.0699C28.7935 41.7299 20.8372 37.9498 21.0531 27.2825C21.2537 17.3579 25.7477 13.9364 25.7477 13.9364C25.7477 13.9364 26.487 13.1325 27.2247 13.4673C27.8063 13.6831 28.4402 13.7142 29.0401 13.5563C29.64 13.3985 30.1765 13.0593 30.5765 12.5852C31.9217 11.1444 33.6038 10.0604 35.4716 9.43054C35.9494 9.35911 36.3842 9.11465 36.6935 8.74363C37.0028 8.3726 37.165 7.90087 37.1493 7.41809C37.0813 5.6742 35.6705 1.85668 33.8603 0.71618C32.9532 0.19902 31.9167 -0.0469734 30.874 0.00740525ZM36.9589 48.0018C37.517 48.0773 38.0593 48.242 38.5651 48.4896C39.8032 48.7297 41.0714 48.7733 42.3231 48.6188C43.1254 48.5627 43.6642 48.9044 43.02 49.6658C42.1345 50.7162 41.0739 50.6856 39.7362 50.7706C38.7015 50.6873 37.725 50.258 36.964 49.5519C36.8875 49.4228 36.2365 48.7293 36.5391 48.2381C36.5821 48.165 36.6434 48.1044 36.7171 48.0624C36.7907 48.0203 36.8741 47.9983 36.9589 47.9984V48.0018ZM30.1074 26.6043C31.6575 24.7023 32.521 24.4576 33.862 24.4576C34.7247 24.47 35.5595 24.7655 36.2379 25.2986C36.9162 25.8317 37.4007 26.5729 37.6167 27.4083C38.2201 29.6876 38.526 30.0377 36.3538 32.5821C34.7952 34.4076 31.9839 38.4053 29.1675 35.8575C26.3511 33.3096 27.3981 29.9221 30.1074 26.6043ZM55.2952 30.155C54.3876 27.8757 53.6363 27.3845 52.3565 26.9816C51.5299 26.7346 50.645 26.766 49.8379 27.0709C49.0309 27.3759 48.3464 27.9375 47.8897 28.6694C46.6302 30.6632 46.19 30.8519 47.5038 33.9385C48.4438 36.1481 49.9633 40.858 53.4154 39.2722C56.8675 37.6863 56.8828 34.1391 55.2952 30.155ZM40.4399 45.1123C40.8528 44.6257 41.3681 44.2362 41.949 43.9718C42.5299 43.7073 43.162 43.5744 43.8002 43.5826C43.958 43.5959 44.1168 43.5766 44.2668 43.5259C44.4169 43.4752 44.5548 43.3941 44.6722 43.2878C44.7895 43.1814 44.8837 43.0521 44.9489 42.9078C45.0141 42.7634 45.0489 42.6072 45.0512 42.4489C45.0512 42.4489 45.1412 41.3322 40.5589 40.8869C35.9765 40.4416 35.8575 41.6228 35.8575 41.6228C35.8311 41.7786 35.8369 41.938 35.8746 42.0914C35.9123 42.2448 35.9811 42.3887 36.0767 42.5145C36.1723 42.6402 36.2927 42.7449 36.4304 42.8222C36.5681 42.8995 36.7202 42.9478 36.8773 42.9639C37.5049 43.076 38.1005 43.3239 38.6222 43.6903C39.144 44.0567 39.5793 44.5328 39.8977 45.0851C39.9996 45.3894 40.2835 45.3894 40.4382 45.1191L40.4399 45.1123ZM62.0499 17.6146C61.4496 17.7643 60.8179 17.7259 60.2402 17.5046C59.6626 17.2832 59.1669 16.8897 58.8204 16.3772C57.6426 14.7972 56.0908 13.5345 54.3043 12.7025C53.8375 12.5786 53.4325 12.2875 53.1664 11.8844C52.9004 11.4814 52.7917 10.9946 52.8613 10.5166C53.1213 8.79145 54.9434 5.149 56.8692 4.21586C58.045 3.77341 59.3237 3.68081 60.551 3.94925C61.7782 4.21768 62.9015 4.83567 63.7852 5.72859C65.5325 7.61016 67.2713 9.55802 66.9518 11.8169C66.7961 13.1142 66.184 14.3137 65.2249 15.201H65.2487C64.2779 16.1248 63.2046 16.9346 62.0499 17.6146Z" fill="#001C2A"/>
<path d="M13.3418 67.5942C12.7484 67.5942 12.1684 67.7702 11.6751 68.0998C11.1817 68.4295 10.7972 68.898 10.5702 69.4462C10.3431 69.9944 10.2837 70.5976 10.3994 71.1795C10.5152 71.7614 10.8009 72.296 11.2205 72.7155C11.64 73.1351 12.1746 73.4208 12.7565 73.5365C13.3384 73.6523 13.9416 73.5929 14.4898 73.3658C15.038 73.1388 15.5065 72.7542 15.8361 72.2609C16.1658 71.7675 16.3417 71.1876 16.3417 70.5942C16.3415 70.2005 16.2637 69.8106 16.1129 69.447C15.962 69.0833 15.7409 68.7529 15.4624 68.4746C15.1838 68.1964 14.8531 67.9757 14.4893 67.8252C14.1254 67.6747 13.7355 67.5974 13.3418 67.5977V67.5942ZM11.9548 71.9846C11.7259 71.7564 11.5568 71.4754 11.4625 71.1663C11.3681 70.8572 11.3515 70.5295 11.4141 70.2125C11.4766 69.8954 11.6164 69.5987 11.8211 69.3486C12.0258 69.0984 12.289 68.9026 12.5874 68.7786C12.8858 68.6545 13.2102 68.6059 13.5318 68.6372C13.8535 68.6684 14.1625 68.7786 14.4314 68.9578C14.7004 69.137 14.9209 69.3798 15.0736 69.6647C15.2263 69.9495 15.3063 70.2676 15.3066 70.5908C15.3063 70.979 15.1911 71.3584 14.9754 71.6812C14.7597 72.0039 14.4532 72.2556 14.0946 72.4043C13.736 72.5531 13.3414 72.5922 12.9606 72.5169C12.5798 72.4416 12.2298 72.2552 11.9548 71.9812V71.9846ZM14.0047 70.8917L14.5146 71.0616C14.4584 71.3124 14.3202 71.5373 14.1219 71.7007C13.8847 71.8593 13.6 71.9311 13.316 71.9038C13.0319 71.8766 12.766 71.752 12.5633 71.5511C12.3266 71.2823 12.2046 70.9315 12.2234 70.5738C12.2004 70.2027 12.3223 69.8371 12.5633 69.554C12.6774 69.4336 12.8158 69.3391 12.9694 69.2766C13.1231 69.2142 13.2883 69.1853 13.4539 69.192C13.7426 69.1798 14.0243 69.2825 14.2375 69.4775C14.3692 69.6117 14.462 69.7791 14.5061 69.9619L13.9809 70.0877C13.9569 69.9598 13.8877 69.8448 13.786 69.7637C13.6843 69.6825 13.5568 69.6407 13.4268 69.6458C13.3371 69.6428 13.2479 69.6601 13.1658 69.6963C13.0837 69.7325 13.0109 69.7867 12.9525 69.8549C12.8132 70.0527 12.7487 70.2937 12.7707 70.5347C12.7475 70.785 12.8105 71.0356 12.9491 71.2452C13.0056 71.3135 13.0769 71.368 13.1576 71.4045C13.2383 71.441 13.3263 71.4586 13.4149 71.456C13.5487 71.4586 13.6786 71.4106 13.7786 71.3217C13.8939 71.2069 13.9706 71.0589 13.9978 70.8985L14.0047 70.8917Z" fill="#6D6D6D"/>
<path d="M62.75 74.0767C62.1565 74.0767 61.5765 74.2527 61.0831 74.5824C60.5897 74.9121 60.2052 75.3807 59.9782 75.929C59.7512 76.4773 59.6919 77.0806 59.8078 77.6625C59.9237 78.2445 60.2096 78.779 60.6293 79.1985C61.049 79.618 61.5837 79.9036 62.1657 80.0192C62.7478 80.1347 63.351 80.0751 63.8992 79.8477C64.4473 79.6204 64.9157 79.2357 65.2452 78.7421C65.5746 78.2486 65.7503 77.6684 65.7499 77.0749C65.7497 76.6812 65.6719 76.2913 65.521 75.9277C65.3702 75.564 65.1491 75.2336 64.8706 74.9554C64.592 74.6771 64.2613 74.4565 63.8975 74.306C63.5336 74.1555 63.1437 74.0781 62.75 74.0784V74.0767ZM61.363 78.467C61.1341 78.2389 60.965 77.9578 60.8707 77.6487C60.7763 77.3396 60.7597 77.012 60.8223 76.6949C60.8848 76.3778 61.0246 76.0811 61.2293 75.831C61.4339 75.5809 61.6971 75.3851 61.9955 75.261C62.294 75.1369 62.6184 75.0884 62.94 75.1196C63.2617 75.1509 63.5707 75.261 63.8396 75.4402C64.1086 75.6195 64.3291 75.8622 64.4818 76.1471C64.6345 76.4319 64.7145 76.7501 64.7148 77.0732C64.7145 77.4614 64.5993 77.8409 64.3836 78.1636C64.1679 78.4864 63.8614 78.738 63.5028 78.8867C63.1442 79.0355 62.7496 79.0747 62.3688 78.9993C61.988 78.924 61.638 78.7377 61.363 78.4636V78.467ZM61.7233 78.3905V75.7628H62.8401C63.0465 75.7534 63.2532 75.7775 63.4519 75.8341C63.5793 75.8813 63.687 75.9699 63.7579 76.0857C63.8359 76.2098 63.876 76.3539 63.8734 76.5004C63.8807 76.6787 63.8199 76.8531 63.7035 76.9883C63.5644 77.1284 63.3801 77.2145 63.1834 77.2313C63.2882 77.2908 63.3839 77.3652 63.4672 77.4523C63.5803 77.5855 63.6815 77.7282 63.7698 77.8789L64.091 78.3888H63.457L63.0729 77.8177C62.9879 77.6832 62.8942 77.5542 62.7925 77.4319C62.7488 77.3832 62.694 77.3458 62.6327 77.3231C62.5457 77.2999 62.4557 77.2901 62.3658 77.2942H62.2587V78.3905H61.7233ZM62.2537 76.8744H62.6463C62.8062 76.8823 62.9665 76.8714 63.1239 76.8421C63.1842 76.8221 63.2363 76.7826 63.2718 76.7299C63.3097 76.6713 63.3287 76.6025 63.3262 76.5327C63.3295 76.455 63.3041 76.3787 63.2548 76.3186C63.2023 76.2616 63.1311 76.2254 63.0542 76.2166C63.0111 76.2109 62.882 76.2081 62.6667 76.2081H62.2519V76.8744H62.2537Z" fill="#6D6D6D"/>
<path d="M2.15942 81.9073H5.57412C5.83325 81.8678 6.09808 81.9198 6.323 82.0544C6.54791 82.1891 6.71886 82.3979 6.8064 82.645C7.21603 83.7022 8.90553 90.4806 8.90553 90.4806L11.3259 86.8994C11.3259 86.8994 10.3384 81.8835 12.0687 81.9073C14.1542 81.9345 15.3168 81.9073 15.3168 81.9073C15.3168 81.9073 16.148 81.8274 16.6766 83.2144C17.2884 84.8461 18.7791 90.5911 18.7791 90.5911L22.2159 82.7402C22.3423 82.5151 22.5195 82.3225 22.7334 82.1779C22.9474 82.0333 23.1921 81.9407 23.4482 81.9073C24.2538 81.9073 24.7637 82.4716 24.5853 83.1192C24.3133 84.1033 18.6108 99.0964 18.6108 99.0964C18.6108 99.0964 18.2318 99.9972 17.421 99.9972C16.6103 99.9972 16.2822 99.523 15.8556 98.4318C15.429 97.3406 12.7265 90.0387 12.7265 90.0387L8.64717 99.2851C8.64717 99.2851 8.33953 99.9956 7.69874 99.9956C6.94068 99.9956 6.65513 99.6556 6.27609 98.9519C5.89706 98.2482 1.10731 84.5368 1.10731 84.5368C1.10731 84.5368 0.167373 81.9073 2.15942 81.9073ZM27.3728 81.9073H30.7875C31.0466 81.8678 31.3114 81.9198 31.5363 82.0544C31.7613 82.1891 31.9322 82.3979 32.0197 82.645C32.4294 83.7022 34.1189 90.4806 34.1189 90.4806L36.5392 86.8994C36.5392 86.8994 35.5517 81.8835 37.282 81.9073C39.3675 81.9345 40.5301 81.9073 40.5301 81.9073C40.5301 81.9073 41.3613 81.8274 41.8899 83.2144C42.5018 84.8461 43.9924 90.5911 43.9924 90.5911L47.4377 82.7402C47.5641 82.5151 47.7414 82.3225 47.9553 82.1779C48.1692 82.0333 48.414 81.9407 48.67 81.9073C49.4757 81.9073 49.9873 82.4716 49.8071 83.1192C49.5352 84.1033 43.8327 99.0964 43.8327 99.0964C43.8327 99.0964 43.4536 99.9972 42.6429 99.9972C41.8321 99.9972 41.5058 99.523 41.0774 98.4318C40.6491 97.3406 37.9483 90.0387 37.9483 90.0387L33.869 99.2851C33.869 99.2851 33.5614 99.9956 32.9206 99.9956C32.1625 99.9956 31.877 99.6556 31.4979 98.9519C31.1189 98.2482 26.3291 84.5368 26.3291 84.5368C26.3291 84.5368 25.3807 81.9073 27.3728 81.9073ZM52.6048 99.9989C52.6048 99.9989 51.432 100.099 51.432 98.2533V83.0308C51.432 83.0308 51.432 81.8904 53.1079 81.8904H64.5741C64.7508 81.8745 64.9289 81.8957 65.097 81.9526C65.265 82.0096 65.4193 82.1009 65.5501 82.2209C65.6808 82.3409 65.785 82.4869 65.856 82.6495C65.9271 82.8121 65.9635 82.9877 65.9627 83.1651C65.9747 83.3338 65.9488 83.5031 65.8871 83.6605C65.8253 83.8179 65.7292 83.9596 65.6058 84.0752C65.4824 84.1908 65.3347 84.2774 65.1736 84.3287C65.0125 84.3801 64.8419 84.3948 64.6744 84.3719H57.8348C57.731 84.3685 57.6276 84.3859 57.5306 84.423C57.4337 84.4602 57.3451 84.5164 57.2702 84.5883C57.1953 84.6602 57.1355 84.7464 57.0944 84.8417C57.0533 84.9371 57.0317 85.0397 57.0308 85.1436V88.8982H62.2999C62.2999 88.8982 63.7225 88.8982 63.7225 90.0047C63.7225 91.1112 62.5328 91.1775 62.5328 91.1775H56.9968V98.4964C56.9968 98.4964 57.0784 99.9972 56.1062 99.9972C55.4348 99.9989 52.6048 99.9649 52.6048 99.9989Z" fill="#001C2A"/>
</svg>
