<svg width="146" height="55" viewBox="0 0 146 55" fill="none" xmlns="http://www.w3.org/2000/svg">
<path d="M32.7536 22.6887V35.6178C32.7536 37.7925 31.8979 39.8781 30.3746 41.4159C28.8514 42.9536 26.7855 43.8175 24.6313 43.8175H23.3961C21.243 43.8138 19.1792 42.9487 17.6568 41.4118C16.1343 39.8749 15.2774 37.7914 15.2738 35.6178V7.89993C15.2988 6.87172 15.1198 5.84886 14.7473 4.89156C14.3748 3.93426 13.8163 3.06186 13.1048 2.32572C12.3933 1.58959 11.5431 1.0046 10.6042 0.60518C9.66537 0.205764 8.65685 0 7.63804 0C6.61923 0 5.61071 0.205764 4.67186 0.60518C3.73301 1.0046 2.8828 1.58959 2.17128 2.32572C1.45977 3.06186 0.901321 3.93426 0.528823 4.89156C0.156326 5.84886 -0.0226949 6.87172 0.00229892 7.89993V36.9158C0.00229885 41.7115 1.88919 46.3108 5.24797 49.7021C8.60674 53.0935 13.1623 54.9991 17.9128 54.9999H26.668C29.0242 55.0058 31.3584 54.5424 33.5369 53.6363C35.7154 52.7301 37.6954 51.399 39.3635 49.7191C41.0317 48.0393 42.3551 46.0437 43.2582 43.8467C44.1612 41.6497 44.626 39.2945 44.626 36.9158V22.6825C44.66 21.8776 44.5322 21.0741 44.2506 20.3203C43.9689 19.5665 43.539 18.8781 42.9868 18.2964C42.4347 17.7147 41.7717 17.2519 41.0377 16.9356C40.3037 16.6194 39.5139 16.4564 38.7158 16.4564C37.9178 16.4564 37.128 16.6194 36.394 16.9356C35.66 17.2519 34.997 17.7147 34.4448 18.2964C33.8927 18.8781 33.4628 19.5665 33.1811 20.3203C32.8994 21.0741 32.7717 21.8776 32.8057 22.6825L32.7536 22.6887Z" fill="#5DC1E1"/>
<path d="M44.6263 34.8627C43.5888 49.0388 31.4774 49.0481 31.4774 49.0481L25.4898 48.2931L19.2617 43.528L22.2608 43.7369C22.6429 43.7879 23.0279 43.8122 23.4133 43.8096H24.6393C25.7059 43.8096 26.7621 43.5975 27.7476 43.1854C28.733 42.7734 29.6284 42.1694 30.3826 41.408C31.1369 40.6466 31.7352 39.7427 32.1433 38.7478C32.5515 37.753 32.7616 36.6868 32.7616 35.61V22.6916C32.7276 21.8867 32.8553 21.0832 33.137 20.3294C33.4187 19.5757 33.8486 18.8872 34.4007 18.3056C34.9529 17.7239 35.6159 17.261 36.3499 16.9448C37.0839 16.6286 37.8737 16.4656 38.6717 16.4656C39.4698 16.4656 40.2596 16.6286 40.9936 16.9448C41.7276 17.261 42.3906 17.7239 42.9427 18.3056C43.4949 18.8872 43.9248 19.5757 44.2065 20.3294C44.4881 21.0832 44.6159 21.8867 44.5819 22.6916V36.925" fill="#41AFCA"/>
<path d="M22.0336 43.7059C20.142 43.3797 18.4256 42.3891 17.1875 40.9091C15.9494 39.429 15.2694 37.5549 15.2675 35.6177C15.2675 35.6177 14.348 50.0336 31.9351 49.0388C31.9336 49.0465 25.3698 49.2012 22.0336 43.7059Z" fill="#2C93A6"/>
<path d="M42.5508 9.92821H34.6523C34.2593 9.93784 33.8717 9.83459 33.5346 9.63049C33.1975 9.42638 32.9248 9.12981 32.7481 8.77531C32.5715 8.4208 32.4983 8.02293 32.5369 7.62803C32.5756 7.23313 32.7245 6.85744 32.9665 6.54469L36.9357 1.15922C37.1278 0.888993 37.3809 0.668835 37.6741 0.516968C37.9672 0.3651 38.292 0.285889 38.6215 0.285889C38.951 0.285889 39.2757 0.3651 39.5689 0.516968C39.862 0.668835 40.1151 0.888993 40.3072 1.15922L44.2611 6.54469C44.5047 6.85919 44.6541 7.2374 44.6919 7.63479C44.7297 8.03217 44.6542 8.43217 44.4743 8.78769C44.2944 9.14321 44.0177 9.43944 43.6766 9.6415C43.3356 9.84356 42.9445 9.94303 42.5493 9.92821H42.5508Z" fill="#41AFCA"/>
<path d="M70.7797 38.9489H70.251C70.0119 38.9489 69.9291 39.0324 69.9291 39.2583V41.6888H67.1706V39.3124C67.1706 39.0819 67.0879 39.003 66.8641 39.003H66.3247C66.0963 39.003 66.0028 39.0866 66.0028 39.3124V45.3461C66.0028 45.5875 66.0963 45.671 66.3247 45.671H66.8641C67.0924 45.671 67.1706 45.5875 67.1706 45.3461V42.8367H69.9291V45.3461C69.9291 45.5875 70.0119 45.671 70.251 45.671H70.7797C71.008 45.671 71.1015 45.5875 71.1015 45.3461V39.3124C71.1015 39.0819 71.008 39.003 70.7797 39.003V38.9489ZM77.8369 38.9612H77.3174C77.2579 38.9557 77.1981 38.9664 77.1442 38.9923C77.0902 39.0182 77.0442 39.0582 77.0109 39.1082L74.9358 42.3246C74.5434 42.915 74.2098 43.5431 73.9397 44.1997C74.0368 43.7531 74.0991 43.404 74.1267 43.1523V39.3124C74.1267 39.0819 74.0439 39.003 73.8202 39.003H73.2807C73.0524 39.003 72.9589 39.0866 72.9589 39.3124V45.3461C72.9589 45.5875 73.0524 45.671 73.2807 45.671H73.8186C73.8799 45.6735 73.9406 45.6593 73.9946 45.6299C74.0485 45.6005 74.0936 45.557 74.1251 45.5039L76.2707 42.2241C76.6332 41.6557 76.9455 41.0562 77.204 40.4325C77.1105 40.8827 77.0584 41.2293 77.0277 41.4799C76.9971 41.7306 77.0277 42.0988 77.0277 42.5273V45.2827C77.0277 45.5241 77.1105 45.6076 77.3342 45.6076H77.8323C78.0606 45.6076 78.1388 45.5241 78.1388 45.2827V39.3124C78.1388 39.0819 78.056 39.003 77.8323 39.003L77.8369 38.9612ZM81.1747 44.5726V42.8151H83.0214C83.2526 42.8151 83.4744 42.9078 83.638 43.0729C83.8015 43.238 83.8934 43.4619 83.8934 43.6954C83.8934 43.9288 83.8015 44.1528 83.638 44.3178C83.4744 44.4829 83.2526 44.5757 83.0214 44.5757H81.2621L81.1747 44.5726ZM81.2621 41.7476V40.086H82.8605C83.0779 40.086 83.2865 40.1732 83.4402 40.3284C83.594 40.4836 83.6804 40.6942 83.6804 40.9137C83.6804 41.1332 83.594 41.3437 83.4402 41.499C83.2865 41.6542 83.0779 41.7414 82.8605 41.7414H81.2099L81.2621 41.7476ZM82.9432 38.9442H80.3594C80.1311 38.9442 80.0376 39.0278 80.0376 39.2536V45.2997C80.0376 45.5411 80.1311 45.6246 80.3594 45.6246H83.026C84.2918 45.6246 85.101 44.9439 85.101 43.7805C85.1449 43.4409 85.0747 43.0963 84.9016 42.8018C84.7285 42.5072 84.4625 42.2799 84.1462 42.156C84.3829 42.0103 84.5743 41.8006 84.6989 41.5507C84.8235 41.3008 84.8763 41.0206 84.8512 40.742C84.8512 39.611 84.1462 38.9814 82.9417 38.9814L82.9432 38.9442ZM90.6839 38.9814H86.9799C86.7408 38.9814 86.658 39.0649 86.658 39.2908V45.3461C86.658 45.5875 86.7408 45.671 86.9799 45.671H90.7881C91.0165 45.671 91.0947 45.5875 91.0947 45.3461V44.882C91.0947 44.6515 91.0119 44.5726 90.7881 44.5726H87.8304V42.8367H90.2824C90.5215 42.8367 90.6042 42.7532 90.6042 42.5273V42.0972C90.6042 41.8559 90.5215 41.7723 90.2824 41.7723H87.8304V40.086H90.6839C90.9123 40.086 91.0058 40.0024 91.0058 39.7611V39.297C91.0058 39.0664 90.9123 38.9875 90.6839 38.9875V38.9814ZM93.7995 42.2519V40.086H95.3045C95.589 40.086 95.8618 40.2001 96.063 40.4032C96.2642 40.6063 96.3772 40.8817 96.3772 41.169C96.3772 41.4562 96.2642 41.7316 96.063 41.9347C95.8618 42.1378 95.589 42.2519 95.3045 42.2519H93.7888H93.7995ZM95.4071 38.952H92.9383C92.7099 38.952 92.6057 39.0355 92.6057 39.2614V45.3075C92.6057 45.5488 92.7099 45.6324 92.9383 45.6324H93.467C93.706 45.6324 93.7888 45.5488 93.7888 45.3075V43.3488H95.4071C95.6954 43.3566 95.9824 43.306 96.251 43.1999C96.5196 43.0939 96.7644 42.9346 96.9711 42.7315C97.1777 42.5284 97.3419 42.2856 97.4541 42.0173C97.5662 41.7491 97.624 41.4609 97.624 41.1697C97.624 40.8786 97.5662 40.5904 97.4541 40.3221C97.3419 40.0539 97.1777 39.8111 96.9711 39.6079C96.7644 39.4048 96.5196 39.2456 96.251 39.1395C95.9824 39.0335 95.6954 38.9829 95.4071 38.9906V38.952ZM117.046 38.9906H113.393C113.154 38.9906 113.071 39.0742 113.071 39.3001V41.3113C113.09 42.0926 113.006 42.8731 112.821 43.6319C112.762 43.836 112.667 44.0277 112.541 44.1982C112.397 44.4257 112.187 44.6017 111.938 44.701C111.896 44.7136 111.857 44.736 111.825 44.7666C111.793 44.7971 111.769 44.8349 111.754 44.8768C111.739 44.9187 111.734 44.9635 111.739 45.0077C111.745 45.0519 111.76 45.0942 111.785 45.1311L112.035 45.5952C112.035 45.6235 112.041 45.6515 112.052 45.6775C112.063 45.7034 112.079 45.7269 112.1 45.7464C112.12 45.7659 112.144 45.781 112.17 45.7909C112.197 45.8009 112.225 45.8053 112.253 45.8041C112.318 45.8171 112.385 45.8171 112.45 45.8041C112.862 45.6394 113.221 45.3638 113.488 45.0073C113.661 44.7753 113.798 44.5175 113.892 44.2431C114.152 43.3061 114.271 42.335 114.245 41.3623V40.086H116.237V45.3245C116.237 45.5658 116.32 45.6494 116.544 45.6494H117.083C117.322 45.6494 117.405 45.5658 117.405 45.3245V39.3124C117.405 39.0819 117.322 39.003 117.083 39.003L117.046 38.9906ZM120.284 44.5726V42.4066H121.8C121.939 42.3975 122.078 42.4184 122.208 42.4678C122.337 42.5172 122.456 42.5941 122.554 42.6932C122.652 42.7923 122.728 42.9115 122.777 43.0427C122.826 43.1739 122.847 43.3141 122.838 43.454C122.838 43.7318 122.728 43.9982 122.534 44.1946C122.339 44.3911 122.075 44.5014 121.8 44.5014H120.284V44.5726ZM119.978 38.9164H119.356C119.127 38.9164 119.034 38.9999 119.034 39.2258V45.2719C119.034 45.5132 119.127 45.5968 119.356 45.5968H121.837C122.125 45.6045 122.412 45.5539 122.681 45.4479C122.949 45.3419 123.194 45.1826 123.401 44.9795C123.607 44.7764 123.772 44.5335 123.884 44.2653C123.996 43.997 124.054 43.7088 124.054 43.4177C124.054 43.1265 123.996 42.8383 123.884 42.5701C123.772 42.3018 123.607 42.059 123.401 41.8559C123.194 41.6528 122.949 41.4935 122.681 41.3875C122.412 41.2815 122.125 41.2308 121.837 41.2386H120.202V39.3124C120.202 39.0819 120.119 39.003 119.895 39.003L119.978 38.9164ZM130.273 39.003H129.734C129.506 39.003 129.427 39.0866 129.427 39.3124V41.7429H126.669V39.3124C126.669 39.0819 126.586 39.003 126.347 39.003H125.818C125.59 39.003 125.496 39.0866 125.496 39.3124V45.3461C125.496 45.5875 125.59 45.671 125.818 45.671H126.347C126.586 45.671 126.669 45.5875 126.669 45.3461V42.8367H129.427V45.3461C129.427 45.5875 129.51 45.671 129.734 45.671H130.273C130.502 45.671 130.595 45.5875 130.595 45.3461V39.3124C130.595 39.0819 130.502 39.003 130.273 39.003ZM133.616 44.5881V42.4221H135.131C135.27 42.413 135.409 42.4339 135.539 42.4833C135.669 42.5327 135.787 42.6095 135.885 42.7087C135.983 42.8078 136.059 42.927 136.108 43.0582C136.157 43.1894 136.178 43.3296 136.169 43.4695C136.169 43.607 136.142 43.7432 136.09 43.8703C136.038 43.9974 135.961 44.1129 135.865 44.2101C135.769 44.3074 135.654 44.3845 135.528 44.4372C135.403 44.4898 135.268 44.5169 135.131 44.5169H133.616V44.5881ZM133.335 38.9473H132.848C132.62 38.9473 132.526 39.0309 132.526 39.2567V45.3028C132.526 45.5442 132.62 45.6277 132.848 45.6277H135.318C135.607 45.6355 135.894 45.5848 136.162 45.4788C136.431 45.3728 136.676 45.2135 136.882 45.0104C137.089 44.8073 137.253 44.5645 137.365 44.2962C137.477 44.028 137.535 43.7398 137.535 43.4486C137.535 43.1575 137.477 42.8693 137.365 42.601C137.253 42.3328 137.089 42.0899 136.882 41.8868C136.676 41.6837 136.431 41.5244 136.162 41.4184C135.894 41.3124 135.607 41.2618 135.318 41.2695H133.694V39.3124C133.694 39.0819 133.611 39.003 133.372 39.003L133.335 38.9473ZM139.361 39.003H138.822C138.593 39.003 138.515 39.0866 138.515 39.3124V45.3461C138.515 45.5875 138.598 45.671 138.822 45.671H139.361C139.589 45.671 139.668 45.5875 139.668 45.3461V39.3124C139.668 39.0819 139.585 39.003 139.361 39.003ZM145.588 39.003H141.882C141.654 39.003 141.56 39.0866 141.56 39.3124V45.3461C141.56 45.5875 141.654 45.671 141.882 45.671H145.693C145.922 45.671 146 45.5875 146 45.3461V44.882C146 44.6515 145.917 44.5726 145.693 44.5726H142.736V42.8367H145.154C145.382 42.8367 145.461 42.7532 145.461 42.5273V42.0972C145.461 41.8559 145.378 41.7723 145.154 41.7723H142.736V40.086H145.589C145.818 40.086 145.911 40.0024 145.911 39.7611V39.297C145.911 39.0664 145.818 38.9875 145.589 38.9875L145.588 39.003ZM60.1027 38.9458H59.4805C59.2628 38.9458 59.2107 39.0401 59.315 39.2552L61.5769 43.666L60.7678 45.2997C60.6636 45.5194 60.7049 45.6246 60.921 45.6246H61.5585C61.9003 45.6246 61.9846 45.572 62.0873 45.3415L64.858 39.2536C64.9408 39.034 64.858 38.9442 64.7048 38.9442H64.1638C63.7592 38.9442 63.7041 38.9442 63.5937 39.2273L62.1716 42.3757L60.639 39.232C60.4735 38.9489 60.4521 38.9489 60.0996 38.9489L60.1027 38.9458ZM107.074 43.14L107.79 41.1488C107.924 40.7833 107.994 40.3969 107.997 40.0071H108.06V40.1618C108.102 40.5165 108.175 40.8669 108.277 41.2092L108.984 43.1895H107.062L107.074 43.14ZM108.288 38.9984H107.801C107.572 38.9984 107.494 38.9984 107.407 39.2598L105.071 45.3786C105.002 45.5849 105.074 45.688 105.289 45.688H105.715C106.099 45.688 106.224 45.6246 106.296 45.4049L106.731 44.1889H109.304L109.739 45.4049C109.811 45.6246 109.937 45.688 110.32 45.688H110.798C111.02 45.688 111.092 45.5849 111.016 45.3786L108.68 39.249C108.607 39.0541 108.515 39.003 108.288 39.003V38.9984ZM101.531 38.8669C101.19 38.8188 100.843 38.8471 100.514 38.9499C100.185 39.0526 99.8824 39.2272 99.6278 39.4613C99.3733 39.6954 99.1729 39.9832 99.041 40.3043C98.9091 40.6253 98.8488 40.9718 98.8645 41.319V43.4123C98.8471 43.7599 98.9063 44.1072 99.0376 44.4291C99.169 44.7509 99.3694 45.0395 99.6243 45.2739C99.8792 45.5083 100.182 45.6829 100.512 45.785C100.842 45.8871 101.19 45.9142 101.531 45.8644C102.085 45.9296 102.644 45.7978 103.112 45.4917C103.58 45.1856 103.928 44.7243 104.095 44.1874C104.113 44.1472 104.122 44.1035 104.12 44.0595C104.119 44.0154 104.108 43.9722 104.089 43.933C104.069 43.8938 104.04 43.8596 104.006 43.8329C103.971 43.8063 103.931 43.7878 103.888 43.7789L103.379 43.601C103.325 43.5877 103.268 43.5877 103.214 43.601C103.11 43.601 103.048 43.6737 102.975 43.8315C102.868 44.1189 102.669 44.3618 102.409 44.5214C102.149 44.681 101.844 44.748 101.542 44.7118C100.587 44.7118 100.048 44.2291 100.048 43.3597V41.2649C100.048 40.3954 100.587 39.9235 101.542 39.9235C101.843 39.8847 102.148 39.9493 102.408 40.1071C102.668 40.2649 102.868 40.5065 102.975 40.793C102.974 40.8243 102.98 40.8554 102.992 40.8844C103.004 40.9133 103.022 40.9394 103.044 40.961C103.067 40.9826 103.093 40.9994 103.123 41.0101C103.152 41.0209 103.183 41.0255 103.214 41.0235H103.367L103.887 40.8456C103.93 40.836 103.97 40.8165 104.005 40.7887C104.04 40.7608 104.068 40.7253 104.087 40.6848C104.106 40.6444 104.116 40.6001 104.115 40.5553C104.115 40.5105 104.104 40.4664 104.084 40.4263C103.901 39.9109 103.549 39.4737 103.087 39.1869C102.625 38.9001 102.08 38.7806 101.542 38.8483" fill="#A8A8A8"/>
<path d="M60.5582 53.8579V52.3108H61.8976C62.0016 52.306 62.1055 52.3219 62.2033 52.3578C62.3012 52.3936 62.391 52.4487 62.4677 52.5197C62.5376 52.5934 62.5919 52.6806 62.6275 52.776C62.663 52.8715 62.6791 52.9732 62.6746 53.0751C62.68 53.1787 62.6644 53.2824 62.6289 53.3797C62.5933 53.4771 62.5385 53.5661 62.4677 53.6414C62.391 53.7124 62.3012 53.7674 62.2033 53.8033C62.1055 53.8391 62.0016 53.8551 61.8976 53.8502H60.5582V53.8579ZM63.0393 49.3033H59.864C59.677 49.3033 59.605 49.376 59.605 49.5647V54.5C59.605 54.6779 59.677 54.7413 59.8548 54.7413H62.0003C62.2275 54.7599 62.4561 54.7307 62.6716 54.6557C62.887 54.5806 63.0848 54.4613 63.2523 54.3053C63.4199 54.1492 63.5536 53.9599 63.6451 53.7491C63.7365 53.5383 63.7838 53.3107 63.7838 53.0805C63.7838 52.8504 63.7365 52.6228 63.6451 52.412C63.5536 52.2012 63.4199 52.0118 63.2523 51.8558C63.0848 51.6998 62.887 51.5805 62.6716 51.5054C62.4561 51.4304 62.2275 51.4012 62.0003 51.4197H60.5582V50.2037H63.0393C63.2263 50.2037 63.2983 50.131 63.2983 49.9422V49.5694C63.2983 49.3806 63.2263 49.3079 63.0393 49.3079V49.3033ZM68.8629 49.3079H68.4031C68.3541 49.3038 68.305 49.3134 68.2609 49.3354C68.2169 49.3575 68.1797 49.3913 68.1533 49.4332L66.4201 52.0525C66.1115 52.543 65.8576 53.0666 65.663 53.6135C65.735 53.236 65.7871 52.9529 65.8086 52.7332C65.8276 52.4334 65.8276 52.1326 65.8086 51.8328V49.5694C65.8086 49.3806 65.7458 49.3079 65.5588 49.3079H65.1236C64.9366 49.3079 64.8538 49.3806 64.8538 49.5694V54.483C64.8538 54.6826 64.9366 54.7444 65.1236 54.7444H65.5588C65.6091 54.7491 65.6598 54.7398 65.7054 54.7178C65.751 54.6957 65.7898 54.6616 65.8178 54.6191L67.5511 51.9473C67.8526 51.4806 68.1092 50.9858 68.3173 50.4698C68.2453 50.8365 68.2039 51.1196 68.1824 51.3284C68.162 51.6251 68.162 51.9229 68.1824 52.2196V54.4613C68.1824 54.6609 68.2545 54.7228 68.4414 54.7228H68.8767C69.0636 54.7228 69.1265 54.6593 69.1265 54.4613V49.5694C69.1265 49.3806 69.0636 49.3079 68.8767 49.3079H68.8629ZM79.7943 49.3079H79.3591C79.1721 49.3079 79.1001 49.3806 79.1001 49.5694V51.5187H76.8013V49.5694C76.8013 49.3806 76.7293 49.3079 76.5423 49.3079H76.1086C75.9216 49.3079 75.8496 49.3806 75.8496 49.5694V54.483C75.8496 54.6826 75.9216 54.7444 76.1086 54.7444H76.5438C76.7308 54.7444 76.8028 54.681 76.8028 54.483V52.4439H79.0863V54.4876C79.0863 54.6872 79.1583 54.7491 79.3453 54.7491H79.7805C79.9675 54.7491 80.0395 54.6856 80.0395 54.4876V49.5694C80.0395 49.3806 79.9675 49.3079 79.7805 49.3079H79.7943ZM84.8133 49.3079H81.8034C81.6164 49.3079 81.5337 49.3806 81.5337 49.5694V54.483C81.5337 54.6826 81.6164 54.7444 81.8034 54.7444H84.9175C85.1044 54.7444 85.1765 54.681 85.1765 54.483V54.1055C85.1765 53.9167 85.1044 53.8533 84.9175 53.8533H82.4869V52.4393H84.4593C84.6462 52.4393 84.7183 52.3758 84.7183 52.1778V51.8003C84.7183 51.6116 84.6462 51.5481 84.4593 51.5481H82.4869V50.2068H84.8117C84.9987 50.2068 85.0815 50.1341 85.0815 49.9453V49.5694C85.0815 49.3806 84.9987 49.3079 84.8117 49.3079H84.8133ZM97.1623 49.3079H93.5915C93.4045 49.3079 93.3325 49.3806 93.3325 49.5694V49.9469C93.3325 50.1356 93.4045 50.2083 93.5915 50.2083H94.8987V54.483C94.8987 54.6826 94.9616 54.7444 95.1577 54.7444H95.593C95.7799 54.7444 95.852 54.681 95.852 54.483V50.2114H97.1592C97.3461 50.2114 97.409 50.1387 97.409 49.95V49.5694C97.409 49.3806 97.3461 49.3079 97.1592 49.3079H97.1623ZM101.767 49.3079H98.7607C98.5737 49.3079 98.5017 49.3806 98.5017 49.5694V54.483C98.5017 54.6826 98.5737 54.7444 98.7607 54.7444H101.875C102.072 54.7444 102.134 54.681 102.134 54.483V54.1055C102.134 53.9167 102.071 53.8533 101.875 53.8533H99.4564V52.4393H101.418C101.605 52.4393 101.677 52.3758 101.677 52.1778V51.8003C101.677 51.6116 101.605 51.5481 101.418 51.5481H99.4564V50.2068H101.771C101.968 50.2068 102.04 50.1341 102.04 49.9453V49.5694C102.04 49.3806 101.968 49.3079 101.771 49.3079H101.767ZM107.364 49.3079H106.835C106.555 49.3079 106.503 49.3079 106.357 49.5276L105.32 51.2139L104.282 49.5276C104.137 49.3389 104.085 49.3079 103.784 49.3079H103.275C103.088 49.3079 103.047 49.4332 103.141 49.5493L104.75 51.9689L103.081 54.4768C103.059 54.5013 103.046 54.5317 103.041 54.5642C103.037 54.5967 103.042 54.6297 103.057 54.659C103.072 54.6883 103.094 54.7125 103.123 54.7286C103.151 54.7446 103.183 54.7518 103.216 54.7491H103.694C104 54.7491 104.057 54.7491 104.203 54.5186L105.314 52.7162L106.483 54.5201C106.607 54.729 106.681 54.7506 106.992 54.7506H107.525C107.712 54.7506 107.764 54.6145 107.649 54.4783L105.864 51.9736L107.482 49.5539C107.502 49.5331 107.516 49.5066 107.521 49.4778C107.525 49.4491 107.521 49.4196 107.509 49.3933C107.496 49.367 107.476 49.3452 107.451 49.3307C107.426 49.3163 107.398 49.3099 107.369 49.3126L107.364 49.3079ZM112.558 49.3126H112.098C111.911 49.3126 111.839 49.3853 111.839 49.574V51.5234H109.585V49.5694C109.585 49.3806 109.513 49.3079 109.326 49.3079H108.891C108.704 49.3079 108.632 49.3806 108.632 49.5694V54.483C108.632 54.6826 108.704 54.7444 108.891 54.7444H109.326C109.513 54.7444 109.585 54.681 109.585 54.483V52.4439H111.827V54.4876C111.827 54.6872 111.899 54.7491 112.086 54.7491H112.521C112.708 54.7491 112.78 54.6856 112.78 54.4876V49.5694C112.78 49.3806 112.708 49.3079 112.521 49.3079L112.558 49.3126ZM123.678 49.3079H120.705C120.507 49.3079 120.435 49.3806 120.435 49.5694V51.2031C120.452 51.8353 120.388 52.4672 120.245 53.0828C120.201 53.2518 120.124 53.4098 120.017 53.547C119.902 53.7351 119.731 53.8819 119.529 53.9662C119.494 53.9747 119.462 53.9918 119.435 54.016C119.408 54.0402 119.387 54.0708 119.375 54.105C119.363 54.1392 119.359 54.1759 119.364 54.2119C119.37 54.2479 119.384 54.2821 119.405 54.3112L119.603 54.6996C119.604 54.723 119.61 54.746 119.62 54.7672C119.63 54.7883 119.644 54.8072 119.662 54.8228C119.679 54.8384 119.699 54.8503 119.721 54.8578C119.743 54.8653 119.767 54.8683 119.79 54.8667C119.841 54.8735 119.892 54.8735 119.943 54.8667C120.27 54.7305 120.554 54.5056 120.763 54.2169C120.903 54.0262 121.011 53.8141 121.085 53.5888C121.323 52.8194 121.438 52.0167 121.427 51.2109V50.1635H123.036V54.4381C123.036 54.6377 123.108 54.6996 123.295 54.6996H123.73C123.917 54.6996 123.989 54.6361 123.989 54.4381V49.5694C123.989 49.3806 123.917 49.3079 123.73 49.3079H123.678ZM133.943 49.3079H131.161C130.974 49.3079 130.902 49.3806 130.902 49.5694V54.483C130.902 54.6826 130.974 54.7444 131.161 54.7444H131.596C131.783 54.7444 131.855 54.681 131.855 54.483V50.2114H133.93C134.128 50.2114 134.189 50.1387 134.189 49.95V49.5694C134.189 49.3806 134.126 49.3079 133.93 49.3079H133.943ZM139.276 49.3079H138.816C138.767 49.3038 138.718 49.3134 138.674 49.3354C138.63 49.3575 138.592 49.3913 138.566 49.4332L136.864 52.0525C136.546 52.5284 136.282 53.0378 136.074 53.5717C136.146 53.1942 136.198 52.9111 136.22 52.6914C136.239 52.3916 136.239 52.0909 136.22 51.791V49.5694C136.22 49.3806 136.157 49.3079 135.97 49.3079H135.535C135.348 49.3079 135.265 49.3806 135.265 49.5694V54.483C135.265 54.6826 135.348 54.7444 135.535 54.7444H135.95C136 54.7491 136.051 54.7398 136.097 54.7178C136.142 54.6957 136.181 54.6616 136.209 54.6191L137.942 51.9473C138.243 51.4875 138.499 51.0001 138.709 50.4915C138.642 50.7743 138.594 51.0611 138.563 51.3501C138.543 51.6468 138.543 51.9445 138.563 52.2412V54.483C138.563 54.6826 138.635 54.7444 138.822 54.7444H139.257C139.444 54.7444 139.507 54.681 139.507 54.483V49.5694C139.507 49.3806 139.444 49.3079 139.257 49.3079H139.276ZM145.007 49.3079H144.561C144.505 49.2905 144.444 49.2923 144.389 49.313C144.334 49.3336 144.286 49.3721 144.255 49.4224L142.557 52.0447C142.24 52.5207 141.975 53.0301 141.768 53.564C141.84 53.1865 141.892 52.9034 141.913 52.6837C141.932 52.3839 141.932 52.0831 141.913 51.7833V49.5694C141.913 49.3806 141.85 49.3079 141.654 49.3079H141.228C141.03 49.3079 140.958 49.3806 140.958 49.5694V54.483C140.958 54.6826 141.03 54.7444 141.228 54.7444H141.663C141.714 54.7491 141.764 54.7398 141.81 54.7178C141.856 54.6957 141.894 54.6616 141.922 54.6191L143.656 51.9473C143.957 51.4899 144.211 51.002 144.413 50.4915C144.341 50.8581 144.299 51.1412 144.278 51.3501C144.257 51.6468 144.257 51.9445 144.278 52.2412V54.483C144.278 54.6826 144.35 54.7444 144.537 54.7444H144.963C145.161 54.7444 145.222 54.681 145.222 54.483V49.5694C145.222 49.3806 145.159 49.3079 144.963 49.3079H145.007ZM72.6773 49.1934C72.2238 49.133 71.7632 49.2255 71.3671 49.4566C70.9711 49.6877 70.6618 50.0444 70.4873 50.4713C70.4703 50.5029 70.4609 50.538 70.4597 50.5739C70.4585 50.6097 70.4656 50.6454 70.4805 50.678C70.4954 50.7106 70.5176 50.7393 70.5454 50.7617C70.5732 50.7841 70.6058 50.7996 70.6406 50.8071L71.0559 50.954H71.1908C71.2842 50.954 71.3364 50.8906 71.3885 50.7653C71.5647 50.2733 71.8973 50.0629 72.6344 50.0629C73.3715 50.0629 73.5539 50.3043 73.5539 50.8071C73.5623 50.9046 73.549 51.0028 73.5152 51.0945C73.4813 51.1863 73.4277 51.2693 73.3582 51.3375C73.2887 51.4058 73.205 51.4576 73.1132 51.4892C73.0214 51.5208 72.9238 51.5314 72.8275 51.5203H71.8835C71.6965 51.5203 71.6245 51.593 71.6245 51.7817V52.1267C71.6245 52.3155 71.6965 52.3882 71.8835 52.3882H72.921C73.0225 52.3781 73.1249 52.3911 73.2208 52.4261C73.3167 52.461 73.4036 52.5172 73.4753 52.5904C73.547 52.6637 73.6015 52.7521 73.635 52.8494C73.6685 52.9466 73.6801 53.0502 73.6688 53.1525C73.6688 53.6769 73.3363 53.926 72.6313 53.926C71.9264 53.926 71.4482 53.7063 71.272 53.2144C71.2727 53.1898 71.2683 53.1655 71.259 53.1428C71.2498 53.1201 71.2358 53.0997 71.2182 53.0829C71.2005 53.0661 71.1795 53.0533 71.1565 53.0453C71.1336 53.0372 71.1092 53.0342 71.085 53.0364H70.9502L70.5349 53.1834C70.5001 53.1912 70.4675 53.2068 70.4395 53.2289C70.4115 53.2511 70.3887 53.2793 70.3728 53.3114C70.357 53.3436 70.3484 53.379 70.3478 53.4149C70.3472 53.4508 70.3546 53.4864 70.3693 53.5191C70.5448 53.9617 70.8646 54.3307 71.2759 54.565C71.6872 54.7993 72.1653 54.885 72.6313 54.8079C73.9707 54.8079 74.6343 54.2107 74.6343 53.1741C74.66 52.9004 74.5983 52.6256 74.4582 52.3899C74.3181 52.1541 74.1071 51.9698 73.8558 51.8637C74.0552 51.7474 74.2177 51.5763 74.3243 51.3703C74.4309 51.1643 74.4773 50.9319 74.4581 50.7003C74.4581 49.7148 73.8144 49.1393 72.6313 49.1393L72.6773 49.1934ZM88.2813 49.1393C88.0012 49.1014 87.7162 49.1271 87.4471 49.2146C87.178 49.3021 86.9317 49.4491 86.7261 49.645C86.5205 49.8408 86.3609 50.0805 86.2587 50.3466C86.1566 50.6127 86.1146 50.8984 86.1358 51.183V52.8601C86.1207 53.1433 86.168 53.4265 86.2744 53.6891C86.3808 53.9517 86.5435 54.1871 86.751 54.3785C86.9584 54.5699 87.2054 54.7124 87.474 54.7957C87.7426 54.8791 88.0262 54.9012 88.3043 54.8605C88.7437 54.9152 89.1885 54.8175 89.5656 54.5833C89.9427 54.3491 90.2297 53.9924 90.3794 53.5717C90.3941 53.5383 90.4011 53.5019 90.3999 53.4653C90.3986 53.4287 90.3892 53.3929 90.3722 53.3606C90.3552 53.3282 90.3312 53.3002 90.3019 53.2786C90.2726 53.257 90.2388 53.2425 90.2031 53.236L89.7985 53.089H89.6637C89.5702 53.089 89.5181 53.1525 89.466 53.2778C89.3811 53.512 89.2199 53.7101 89.0089 53.8397C88.7978 53.9693 88.5494 54.0227 88.3043 53.991C87.5258 53.991 87.0906 53.6027 87.0906 52.9436V51.1753C87.0906 50.4729 87.5258 50.1279 88.3043 50.1279C88.548 50.0955 88.7955 50.1473 89.0063 50.2748C89.2172 50.4023 89.3792 50.5981 89.466 50.8303C89.5079 50.9561 89.5702 51.019 89.6529 51.019H89.7878L90.2031 50.872C90.239 50.8662 90.273 50.8519 90.3022 50.8301C90.3315 50.8084 90.3552 50.78 90.3714 50.7471C90.3876 50.7143 90.3958 50.6781 90.3953 50.6414C90.3948 50.6047 90.3857 50.5687 90.3686 50.5363C90.2187 50.1166 89.9313 49.7611 89.5539 49.5287C89.1766 49.2963 88.7319 49.2009 88.2936 49.2584L88.2813 49.1393ZM116.248 54.025C115.47 54.025 115.034 53.6475 115.034 52.9776V51.1861C115.034 50.4744 115.47 50.1387 116.248 50.1387C117.027 50.1387 117.462 50.527 117.462 51.1861V52.8724C117.462 53.5748 117.027 53.9198 116.248 53.9198V54.025ZM116.248 49.1532C115.973 49.125 115.694 49.1579 115.433 49.2497C115.171 49.3416 114.933 49.49 114.734 49.6848C114.535 49.8795 114.381 50.1158 114.282 50.377C114.184 50.6382 114.143 50.9181 114.162 51.1969V52.8632C114.198 53.4179 114.442 53.9381 114.844 54.3182C115.246 54.6983 115.776 54.9098 116.326 54.9098C116.877 54.9098 117.407 54.6983 117.809 54.3182C118.211 53.9381 118.454 53.4179 118.49 52.8632V51.1969C118.505 50.9145 118.458 50.6323 118.352 50.3705C118.246 50.1087 118.084 49.8738 117.878 49.6826C117.672 49.4914 117.426 49.3486 117.158 49.2646C116.891 49.1806 116.608 49.1573 116.331 49.1965L116.248 49.1532ZM127.374 53.9632C126.585 53.9632 126.16 53.5857 126.16 52.9158V51.1861C126.16 50.4744 126.586 50.1387 127.374 50.1387C128.162 50.1387 128.588 50.527 128.588 51.1861V52.8724C128.588 53.5748 128.153 53.9198 127.374 53.9198V53.9632ZM127.374 49.1532C127.096 49.1125 126.812 49.1346 126.544 49.218C126.275 49.3013 126.028 49.4438 125.821 49.6352C125.613 49.8265 125.451 50.062 125.344 50.3246C125.238 50.5872 125.191 50.8703 125.206 51.1536V52.8183C125.242 53.373 125.485 53.8933 125.887 54.2734C126.289 54.6535 126.819 54.865 127.37 54.865C127.92 54.865 128.45 54.6535 128.852 54.2734C129.254 53.8933 129.498 53.373 129.533 52.8183V51.1938C129.548 50.9115 129.501 50.6292 129.395 50.3674C129.29 50.1056 129.128 49.8707 128.921 49.6795C128.715 49.4883 128.469 49.3455 128.202 49.2615C127.934 49.1775 127.652 49.1542 127.374 49.1934" fill="#A8A8A8"/>
<path d="M122.246 0.268358C120.846 0.268358 120.407 0.751054 120.407 2.12488V6.0932C120.407 7.50725 120.843 7.98995 122.246 7.98995H128.764V29.7623C128.764 31.1346 129.199 31.6189 130.603 31.6189H135.544C136.945 31.6189 137.423 31.1362 137.423 29.7623V7.98995H143.895C145.295 7.98995 145.773 7.50725 145.773 6.0932V2.12333C145.773 0.751054 145.295 0.266811 143.895 0.266811L122.246 0.268358ZM108.599 21.8613C108.599 23.5801 107.68 24.4589 105.798 24.4589H100.722V19.2946H105.796C107.675 19.2946 108.599 20.0914 108.599 21.8613ZM107.634 9.80161C107.634 11.3936 106.762 12.1903 104.967 12.1903H100.722V7.33088H104.969C106.762 7.33088 107.634 8.16787 107.634 9.80316V9.80161ZM93.9454 0.184814C92.5447 0.184814 92.0666 0.667511 92.0666 2.08156V29.7623C92.0666 31.1346 92.5447 31.6189 93.9454 31.6189H106.898C109.674 31.752 112.413 30.9444 114.682 29.3245C115.652 28.5695 116.429 27.59 116.945 26.4685C117.462 25.347 117.704 24.1165 117.65 22.8808C117.65 19.1198 116.167 16.5949 113.24 15.2845V15.1035C114.27 14.3835 115.098 13.4068 115.644 12.2682C116.189 11.1296 116.434 9.86794 116.354 8.6057C116.354 3.262 112.774 0.223492 106.699 0.223492L93.9454 0.184814ZM68.495 2.12333C68.495 0.751054 67.997 0.266811 66.6054 0.266811H61.6554C60.2547 0.266811 59.8164 0.749507 59.8164 2.12333V20.0914C59.8164 27.6459 64.5488 32.2764 72.9868 32.2764C81.4248 32.2764 86.1986 27.6459 86.1986 20.0914V2.12333C86.1986 0.751054 85.7113 0.266811 84.309 0.266811H79.3759C77.9751 0.266811 77.5368 0.749507 77.5368 2.12333V20.489C77.5368 23.181 76.0043 24.5548 72.9914 24.5548C69.9785 24.5548 68.495 23.2367 68.495 20.489V2.12333Z" fill="#515151"/>
</svg>
