<svg width="60" height="54" viewBox="0 0 60 54" fill="none" xmlns="http://www.w3.org/2000/svg">
<path d="M14.135 21.7952H12.8213V25.3739H14.135V21.7952Z" fill="#484848"/>
<path d="M16.3996 21.7952H15.0859V25.3739H16.3996V21.7952Z" fill="#484848"/>
<path d="M18.6658 21.7952H17.3521V25.3739H18.6658V21.7952Z" fill="#484848"/>
<path d="M20.9763 21.7952H19.6626V25.3739H20.9763V21.7952Z" fill="#484848"/>
<path d="M23.241 21.7952H21.8369V25.3739H23.241V21.7952Z" fill="#484848"/>
<path d="M25.5062 21.7952H24.1021V25.3739H25.5062V21.7952Z" fill="#484848"/>
<path d="M27.7263 21.7952H26.4126V25.3739H27.7263V21.7952Z" fill="#484848"/>
<path d="M29.9914 21.7952H28.6777V25.3739H29.9914V21.7952Z" fill="#484848"/>
<path d="M32.2566 21.7952H30.9429V25.3739H32.2566V21.7952Z" fill="#484848"/>
<path d="M34.5671 21.7952H33.2534V25.3739H34.5671V21.7952Z" fill="#484848"/>
<path d="M36.8318 21.7952H35.4277V25.3739H36.8318V21.7952Z" fill="#484848"/>
<path d="M39.097 21.7952H37.6929V25.3739H39.097V21.7952Z" fill="#484848"/>
<path d="M41.3171 21.7952H40.0034V25.3739H41.3171V21.7952Z" fill="#484848"/>
<path d="M43.5832 21.7952H42.2695V25.3739H43.5832V21.7952Z" fill="#484848"/>
<path d="M45.8479 21.7952H44.5342V25.3739H45.8479V21.7952Z" fill="#484848"/>
<path d="M48.1584 21.7952H46.8447V25.3739H48.1584V21.7952Z" fill="#484848"/>
<path d="M14.135 25.7817H12.8213V27.1858H14.135V25.7817Z" fill="#484848"/>
<path d="M16.3996 25.7817H15.0859V27.1858H16.3996V25.7817Z" fill="#484848"/>
<path d="M18.6658 25.7817H17.3521V27.1858H18.6658V25.7817Z" fill="#484848"/>
<path d="M20.9763 25.7817H19.6626V27.1858H20.9763V25.7817Z" fill="#484848"/>
<path d="M21.8369 25.7817H23.241V27.2315H21.8369V25.7817Z" fill="#001C2A"/>
<path d="M24.1021 25.8274L25.5062 25.7817V27.2315H24.1021V25.8274Z" fill="#001C2A"/>
<path d="M27.7263 25.7817H26.4126V27.1858H27.7263V25.7817Z" fill="#484848"/>
<path d="M29.9914 25.7817H28.6777V27.1858H29.9914V25.7817Z" fill="#484848"/>
<path d="M32.2566 25.7817H30.9429V27.1858H32.2566V25.7817Z" fill="#484848"/>
<path d="M34.5671 25.7817H33.2534V27.1858H34.5671V25.7817Z" fill="#484848"/>
<path d="M35.4277 25.7817L36.8318 25.8274V27.2315H35.4277V25.7817Z" fill="#001C2A"/>
<path d="M37.6929 25.8274L39.097 25.7817V27.2315H37.6929V25.8274Z" fill="#001C2A"/>
<path d="M41.3171 25.7817H40.0034V27.1858H41.3171V25.7817Z" fill="#484848"/>
<path d="M43.5832 25.7817H42.2695V27.1858H43.5832V25.7817Z" fill="#484848"/>
<path d="M45.8479 25.7817H44.5342V27.1858H45.8479V25.7817Z" fill="#484848"/>
<path d="M48.1584 25.7817H46.8447V27.1858H48.1584V25.7817Z" fill="#484848"/>
<path d="M17.2153 18.9863H16.0376V19.4848H17.2153V18.9863Z" fill="#484848"/>
<path d="M19.073 18.9863H17.7593V19.4848H19.073V18.9863Z" fill="#484848"/>
<path d="M20.9309 18.9863H19.6172V19.4848H20.9309V18.9863Z" fill="#484848"/>
<path d="M22.6523 18.9863H21.4746V19.4848H22.6523V18.9863Z" fill="#484848"/>
<path d="M31.8039 18.9863H30.4902V19.4848H31.8039V18.9863Z" fill="#484848"/>
<path d="M29.946 18.9863H28.6323V19.4848H29.946V18.9863Z" fill="#484848"/>
<path d="M28.0888 18.9863H26.9111V19.4848H28.0888V18.9863Z" fill="#484848"/>
<path d="M24.5095 18.9863H23.1958V19.4848H24.5095V18.9863Z" fill="#484848"/>
<path d="M26.3674 18.9863H25.0537V19.4848H26.3674V18.9863Z" fill="#484848"/>
<path d="M42.6765 18.9863H41.3628V19.4848H42.6765V18.9863Z" fill="#484848"/>
<path d="M40.8196 18.9863H39.5059V19.4848H40.8196V18.9863Z" fill="#484848"/>
<path d="M38.9619 18.9863H37.7842V19.4848H38.9619V18.9863Z" fill="#484848"/>
<path d="M37.24 18.9863H35.9263V19.4848H37.24V18.9863Z" fill="#484848"/>
<path d="M35.3821 18.9863H34.0684V19.4848H35.3821V18.9863Z" fill="#484848"/>
<path d="M33.571 18.9863H32.3477V19.4848H33.571V18.9863Z" fill="#484848"/>
<path d="M17.2153 17.2654H16.0376V18.2623H17.2153V17.2654Z" fill="#484848"/>
<path d="M44.3984 18.9863H43.2207V19.4848H44.3984V18.9863Z" fill="#484848"/>
<path d="M19.073 17.2654H17.7593V18.2623H19.073V17.2654Z" fill="#484848"/>
<path d="M20.9309 17.2654H19.6172V18.2623H20.9309V17.2654Z" fill="#484848"/>
<path d="M22.6979 17.2654H21.4746V18.2623H22.6979V17.2654Z" fill="#484848"/>
<path d="M24.5095 17.2654H23.1958V18.2623H24.5095V17.2654Z" fill="#484848"/>
<path d="M26.3674 17.2654H25.0537V18.2623H26.3674V17.2654Z" fill="#484848"/>
<path d="M28.0888 17.2654H26.9111V18.2623H28.0888V17.2654Z" fill="#484848"/>
<path d="M29.946 17.2654H28.6323V18.2623H29.946V17.2654Z" fill="#484848"/>
<path d="M38.9619 17.2654H37.7842V18.2623H38.9619V17.2654Z" fill="#484848"/>
<path d="M37.24 17.2654H35.9263V18.2623H37.24V17.2654Z" fill="#484848"/>
<path d="M35.3821 17.2654H34.0684V18.2623H35.3821V17.2654Z" fill="#484848"/>
<path d="M33.571 17.2654H32.3477V18.2623H33.571V17.2654Z" fill="#484848"/>
<path d="M31.8039 17.2654H30.4902V18.2623H31.8039V17.2654Z" fill="#484848"/>
<path d="M44.3984 17.2654H43.2207V18.2623H44.3984V17.2654Z" fill="#484848"/>
<path d="M42.6765 17.2654H41.3628V18.2623H42.6765V17.2654Z" fill="#484848"/>
<path d="M40.8196 17.2654H39.5059V18.2623H40.8196V17.2654Z" fill="#484848"/>
<path d="M17.2153 15.4075H16.0376V16.4044H17.2153V15.4075Z" fill="#484848"/>
<path d="M19.073 15.4075H17.7593V16.4044H19.073V15.4075Z" fill="#484848"/>
<path d="M20.9309 15.4075H19.6172V16.4044H20.9309V15.4075Z" fill="#484848"/>
<path d="M22.6979 15.4075H21.4746V16.4044H22.6979V15.4075Z" fill="#484848"/>
<path d="M24.5095 15.4075H23.1958V16.4044H24.5095V15.4075Z" fill="#484848"/>
<path d="M26.3674 15.4075H25.0537V16.4044H26.3674V15.4075Z" fill="#484848"/>
<path d="M28.0888 15.4075H26.9111V16.4044H28.0888V15.4075Z" fill="#484848"/>
<path d="M29.946 15.4075H28.6323V16.4044H29.946V15.4075Z" fill="#484848"/>
<path d="M38.9619 15.4075H37.7842V16.4044H38.9619V15.4075Z" fill="#484848"/>
<path d="M37.24 15.4075H35.9263V16.4044H37.24V15.4075Z" fill="#484848"/>
<path d="M35.3821 15.4075H34.0684V16.4044H35.3821V15.4075Z" fill="#484848"/>
<path d="M33.571 15.4075H32.3477V16.4044H33.571V15.4075Z" fill="#484848"/>
<path d="M31.8039 15.4075H30.4902V16.4044H31.8039V15.4075Z" fill="#484848"/>
<path d="M44.3984 15.4075H43.2207V16.4044H44.3984V15.4075Z" fill="#484848"/>
<path d="M42.6765 15.4075H41.3628V16.4044H42.6765V15.4075Z" fill="#484848"/>
<path d="M40.8196 15.4075H39.5059V16.4044H40.8196V15.4075Z" fill="#484848"/>
<path d="M17.2153 13.6411H16.0376V14.638H17.2153V13.6411Z" fill="#484848"/>
<path d="M19.073 13.6411H17.7593V14.638H19.073V13.6411Z" fill="#484848"/>
<path d="M20.9309 13.6411H19.6172V14.638H20.9309V13.6411Z" fill="#484848"/>
<path d="M22.6979 13.6411H21.4746V14.638H22.6979V13.6411Z" fill="#484848"/>
<path d="M24.5095 13.6411H23.1958V14.638H24.5095V13.6411Z" fill="#484848"/>
<path d="M26.3674 13.6411H25.0537V14.638H26.3674V13.6411Z" fill="#484848"/>
<path d="M28.0888 13.6411H26.9111V14.638H28.0888V13.6411Z" fill="#484848"/>
<path d="M29.946 13.6411H28.6323V14.638H29.946V13.6411Z" fill="#484848"/>
<path d="M38.9619 13.6411H37.7842V14.638H38.9619V13.6411Z" fill="#484848"/>
<path d="M37.24 13.6411H35.9263V14.638H37.24V13.6411Z" fill="#484848"/>
<path d="M35.3821 13.6411H34.0684V14.638H35.3821V13.6411Z" fill="#484848"/>
<path d="M33.571 13.6411H32.3477V14.638H33.571V13.6411Z" fill="#484848"/>
<path d="M31.8039 13.6411H30.4902V14.638H31.8039V13.6411Z" fill="#484848"/>
<path d="M44.3984 13.6411H43.2207V14.638H44.3984V13.6411Z" fill="#484848"/>
<path d="M42.6765 13.6411H41.3628V14.638H42.6765V13.6411Z" fill="#484848"/>
<path d="M40.8196 13.6411H39.5059V14.638H40.8196V13.6411Z" fill="#484848"/>
<path d="M17.2153 11.8281H16.0376V12.825H17.2153V11.8281Z" fill="#484848"/>
<path d="M19.073 11.8281H17.7593V12.825H19.073V11.8281Z" fill="#484848"/>
<path d="M20.9309 11.8281H19.6172V12.825H20.9309V11.8281Z" fill="#484848"/>
<path d="M22.6979 11.8281H21.4746V12.825H22.6979V11.8281Z" fill="#484848"/>
<path d="M24.5095 11.8281H23.1958V12.825H24.5095V11.8281Z" fill="#484848"/>
<path d="M26.3674 11.8281H25.0537V12.825H26.3674V11.8281Z" fill="#484848"/>
<path d="M28.0888 11.8281H26.9111V12.825H28.0888V11.8281Z" fill="#484848"/>
<path d="M29.946 11.8281H28.6323V12.825H29.946V11.8281Z" fill="#484848"/>
<path d="M38.9619 11.8281H37.7842V12.825H38.9619V11.8281Z" fill="#484848"/>
<path d="M37.24 11.8281H35.9263V12.825H37.24V11.8281Z" fill="#484848"/>
<path d="M35.3821 11.8281H34.0684V12.825H35.3821V11.8281Z" fill="#484848"/>
<path d="M33.571 11.8281H32.3477V12.825H33.571V11.8281Z" fill="#484848"/>
<path d="M31.8039 11.8281H30.4902V12.825H31.8039V11.8281Z" fill="#484848"/>
<path d="M44.3984 11.8281H43.2207V12.825H44.3984V11.8281Z" fill="#484848"/>
<path d="M42.6765 11.8281H41.3628V12.825H42.6765V11.8281Z" fill="#484848"/>
<path d="M40.8196 11.8281H39.5059V12.825H40.8196V11.8281Z" fill="#484848"/>
<path d="M17.2153 9.97119H16.0376V10.9681H17.2153V9.97119Z" fill="#484848"/>
<path d="M19.073 9.97119H17.7593V10.9681H19.073V9.97119Z" fill="#484848"/>
<path d="M20.9309 9.97119H19.6172V10.9681H20.9309V9.97119Z" fill="#484848"/>
<path d="M22.6979 9.97119H21.4746V10.9681H22.6979V9.97119Z" fill="#484848"/>
<path d="M24.5095 9.97119H23.1958V10.9681H24.5095V9.97119Z" fill="#484848"/>
<path d="M26.3674 9.97119H25.0537V10.9681H26.3674V9.97119Z" fill="#484848"/>
<path d="M28.0888 9.97119H26.9111V10.9681H28.0888V9.97119Z" fill="#484848"/>
<path d="M29.946 9.97119H28.6323V10.9681H29.946V9.97119Z" fill="#484848"/>
<path d="M38.9619 9.97119H37.7842V10.9681H38.9619V9.97119Z" fill="#484848"/>
<path d="M37.24 9.97119H35.9263V10.9681H37.24V9.97119Z" fill="#484848"/>
<path d="M35.3821 9.97119H34.0684V10.9681H35.3821V9.97119Z" fill="#484848"/>
<path d="M33.571 9.97119H32.3477V10.9681H33.571V9.97119Z" fill="#484848"/>
<path d="M31.8039 9.97119H30.4902V10.9681H31.8039V9.97119Z" fill="#484848"/>
<path d="M44.3984 9.97119H43.2207V10.9681H44.3984V9.97119Z" fill="#484848"/>
<path d="M42.6765 9.97119H41.3628V10.9681H42.6765V9.97119Z" fill="#484848"/>
<path d="M40.8196 9.97119H39.5059V10.9681H40.8196V9.97119Z" fill="#484848"/>
<path d="M57.6721 27.6398V19.031H57.1281V19.4391H55.4063V18.9863H52.6877V19.4391H50.8291V19.031H50.421V19.8919L49.0169 20.7528H45.8454V9.42705H46.2982V6.70839H45.8454V6.25556H39.9603V5.80273H38.5562V6.25556H30.9452V3.53691H29.9483V1.67828H32.2133V0.275879H29.4946V3.62814H28.6337V6.3468H20.9323V5.89398H19.5282V6.3468H14.6349L14.1821 6.79964V9.65346H14.6349V7.79484H15.043V9.19894H15.4958V7.79484H15.9486V9.19894H16.4919V7.79484H16.8121V9.19894H17.3561V7.79484H17.673V9.19894H18.217V7.79484H18.6698V9.19894H19.2139V7.79484H19.5307V9.19894H20.0748V7.79484H20.3916V9.19894H20.9348V7.79484H21.3876V9.19894H21.9309V7.79484H22.2477V9.19894H22.7909V7.79484H23.1077V9.19894H23.6518V7.79484H24.1046V9.19894H24.6487V7.79484H24.9655V9.19894H25.5096V7.79484H25.8264V9.19894H26.3696V7.79484H26.8224V9.19894H27.3665V7.79484H27.6833V9.19894H28.2265V7.79484H28.5433V9.19894H29.0874V7.79484H29.5402V9.19894H30.0835V7.79484H30.4003V9.19894H30.9443V7.79484H31.2611V9.19894H31.8044V7.79484H32.2124V9.19894H32.7565V7.79484H33.0733V9.19894H33.6174V7.79484H33.9342V9.19894H34.4774V7.79484H34.9302V9.19894H35.4734V7.79484H35.7903V9.19894H36.3335V7.79484H36.6959V9.19894H37.2391V7.79484H37.692V9.19894H38.2361V7.79484H38.5529V9.19894H39.0961V7.79484H39.4129V9.19894H39.957V7.79484H40.365V9.19894H40.9082V7.79484H41.225V9.19894H41.7235V7.79484H42.0859V9.19894H42.63V7.79484H43.0828V9.19894H43.6261V7.79484H43.9429V9.19894H44.4861V7.79484H44.8029V9.19894H45.3461V7.79484H45.7989V9.51659H45.3909V20.9336H44.394V19.9823H43.2163V20.9336H42.6722V19.9823H41.3585V20.9336H40.8153V19.9823H39.5016V20.9336H38.9575V19.9823H37.7798V20.9336H37.2358V19.9823H35.9221V20.9336H35.3788V19.9823H34.0651V20.9336H33.5219V19.9823H32.3442V20.9336H31.8001V19.9823H30.4864V20.9336H29.9432V19.9823H28.6295V20.9336H28.0854V19.9823H26.9078V20.9336H26.3637V19.9823H25.05V20.9336H24.5068V19.9823H23.1931V20.9336H22.649V19.9823H21.4713V20.9336H20.9272V19.9823H19.6135V20.9336H19.0694V19.9823H17.7557V20.9336H17.2125V19.9823H16.0348V20.9336H15.0379V9.56221H14.6299L14.5843 20.9336H11.7752L10.4159 19.5295V19.0767H10.0078V19.4847H8.1492V19.0767H5.43056V19.5295H3.71724V19.1214H3.17401V27.7328H0V28.5937H59.802V27.7328L57.673 27.6424L57.6721 27.6398ZM15.4941 7.38847H14.9509V6.7971H15.4941V7.38847ZM16.4454 7.38847H15.9013V6.7971H16.4454V7.38847ZM17.3519 7.38847H16.8121V6.7971H17.3561L17.3519 7.38847ZM18.2128 7.38847H17.6696V6.7971H18.2128V7.38847ZM19.1641 7.38847H18.62V6.7971H19.1641V7.38847ZM20.0706 7.38847H19.5265V6.7971H20.0706V7.38847ZM20.9314 7.38847H20.3882V6.7971H20.9314V7.38847ZM21.8827 7.38847H21.3386V6.7971H21.881L21.8827 7.38847ZM22.2451 7.38847V6.7971H22.7892V7.38847H22.2451ZM23.6492 7.38847H23.106V6.7971H23.6492V7.38847ZM24.6005 7.38847H24.0565V6.7971H24.6005V7.38847ZM24.963 7.38847V6.7971H25.507V7.38847H24.963ZM25.8238 7.38847V6.7971H26.3671V7.38847H25.8238ZM27.3192 7.38847H26.776V6.7971H27.3192V7.38847ZM28.1801 7.38847H27.636V6.7971H28.1801V7.38847ZM29.0866 7.38847H28.5425V6.7971H29.0866V7.38847ZM30.0378 7.38847H29.4946V6.7971H30.0378V7.38847ZM29.0866 5.93875V5.39468H30.4003V5.93875H29.0866ZM30.8987 7.38847H30.3546V6.7971H30.8987V7.38847ZM31.2611 7.38847V6.7971H31.8052V7.38847H31.2611ZM32.7565 7.38847H32.2133V6.7971H32.7565V7.38847ZM33.6174 7.38847H33.0733V6.7971H33.6174V7.38847ZM34.5239 7.38847H33.9798V6.7971H34.5239V7.38847ZM35.4752 7.38847H34.9319V6.7971H35.4752V7.38847ZM36.336 7.38847H35.792V6.7971H36.336V7.38847ZM37.2425 7.38847H36.6985V6.7971H37.2425V7.38847ZM38.1938 7.38847H37.6506V6.7971H38.1938V7.38847ZM39.0547 7.38847H38.5106V6.7971H39.0547V7.38847ZM39.9603 7.38847H39.4171V6.7971H39.9603V7.38847ZM40.9116 7.38847H40.3684V6.7971H40.9116V7.38847ZM41.7725 7.38847H41.2293V6.7971H41.7725V7.38847ZM42.679 7.38847H42.1358V6.7971H42.679V7.38847ZM43.6303 7.38847H43.0871V6.7971H43.6303V7.38847ZM44.4911 7.38847H43.9479V6.7971H44.4911V7.38847ZM45.3976 7.38847H44.8544V6.7971H45.3976V7.38847ZM9.19933 27.6398V21.3425H8.7465V27.6398H7.74961V20.7967H8.15766V20.3887H5.43899V20.8415H5.98307V27.6846H5.03179V21.3873H4.57895V27.6846H3.7637V19.9832H10.0534V27.6846L9.19933 27.6398ZM48.9763 27.6398H11.9121V21.3425H48.9713L48.9763 27.6398ZM56.2706 27.6398V21.3425H55.7265V27.6398H54.8656V20.7967H55.4097V20.3439H52.691V20.7967H53.1396V27.6398H52.2788V21.3425H51.6874V27.6398H50.8265V19.9384H57.1239V27.6398H56.2706Z" fill="#484848"/>
<path d="M0.135742 33.2124H3.98648V38.06H3.0352V34.0277H1.13263V38.06H0.135742V33.2124Z" fill="#484848"/>
<path d="M5.02949 38.1053V33.2121H6.61522C7.00985 33.2014 7.40454 33.2316 7.79292 33.3024C8.07003 33.3835 8.30947 33.5601 8.46877 33.8009C8.66538 34.0776 8.76137 34.4133 8.7408 34.7522C8.75632 35.0212 8.69321 35.2889 8.55916 35.5227C8.46061 35.7162 8.32142 35.8863 8.15111 36.0211C8.0042 36.1333 7.83379 36.2107 7.65267 36.2475C7.32393 36.3088 6.99017 36.339 6.65578 36.3379H6.0213V38.1965H5.02441L5.02949 38.1053ZM5.98075 34.0729V35.4323H6.52398C6.78397 35.4431 7.04405 35.4126 7.29448 35.3419C7.41687 35.2932 7.52559 35.2155 7.61129 35.1154C7.68826 35.0114 7.72077 34.881 7.70168 34.753C7.70526 34.5915 7.65764 34.433 7.56565 34.3002C7.46502 34.1736 7.31825 34.0922 7.1576 34.0738C7.02158 34.0738 6.79517 34.0282 6.43273 34.0282H5.97992L5.98075 34.0729Z" fill="#484848"/>
<path d="M13.3195 38.1056H12.2778L11.825 36.9727H9.87682L9.46877 38.06H8.42627L10.3288 33.2124H11.3705L13.3195 38.1056ZM11.553 36.1575L10.8771 34.3453L10.2012 36.1575H11.553Z" fill="#484848"/>
<path d="M13.8635 33.2122H15.8117C16.0994 33.1993 16.3878 33.2146 16.6725 33.2578C16.8475 33.2903 17.0159 33.3514 17.171 33.4386C17.3251 33.541 17.4499 33.6816 17.5334 33.8466C17.6265 34.0296 17.6732 34.2327 17.6694 34.438C17.6794 34.6636 17.6156 34.8863 17.4878 35.0725C17.3657 35.2549 17.1923 35.3969 16.9894 35.4805C17.2652 35.5372 17.5078 35.6998 17.6652 35.9334C17.8075 36.1488 17.886 36.4001 17.8916 36.6582C17.8949 36.8773 17.8484 37.0942 17.7556 37.2927C17.672 37.4956 17.53 37.6691 17.3476 37.7911C17.1436 37.9195 16.9118 37.9971 16.6717 38.0176C16.4901 38.0176 16.1276 38.0632 15.494 38.0632H13.8179V33.2122H13.8635ZM14.8604 34.0274V35.1603H16.2197C16.2963 35.159 16.3719 35.1422 16.442 35.1112C16.5121 35.0801 16.5752 35.0354 16.6278 34.9795C16.7186 34.8811 16.7674 34.751 16.7638 34.6171C16.7674 34.4832 16.7186 34.3532 16.6278 34.2547C16.522 34.168 16.3982 34.1062 16.2653 34.0739H14.8612L14.8604 34.0274ZM14.8604 35.9756V37.2893H15.7669C15.9932 37.3084 16.2211 37.293 16.4427 37.2437C16.5756 37.2114 16.6995 37.1496 16.8052 37.0629C16.8539 37.0074 16.891 36.9427 16.9144 36.8726C16.9377 36.8025 16.9469 36.7285 16.9412 36.6548C16.9382 36.5288 16.9073 36.4051 16.8508 36.2924C16.7746 36.1826 16.6626 36.1025 16.534 36.066C16.253 35.9941 15.9629 35.9636 15.6731 35.9756H14.8604Z" fill="#484848"/>
<path d="M18.8018 33.2124H19.7083V36.4287L21.702 33.2124H22.699V38.06H21.7925V34.8885L19.8443 38.06H18.8474V33.2124H18.8018Z" fill="#484848"/>
<path d="M24.7363 38.105V34.0726H23.2866V33.2573H27.1374V34.0726H25.6876V38.105H24.7363Z" fill="#484848"/>
<path d="M27.8171 38.1056V33.2124H31.4414V34.0277H28.814V35.115H31.264V35.9302H28.814V37.2439H31.5327V38.0592H27.8154L27.8171 38.1056Z" fill="#484848"/>
<path d="M32.6642 33.2124H36.0621V38.06H35.0652V34.0277H33.6155V36.1118C33.6295 36.5348 33.6143 36.9582 33.5698 37.3791C33.5358 37.5836 33.441 37.7732 33.2978 37.9232C33.0857 38.0685 32.8284 38.1326 32.5729 38.1039C32.3606 38.1057 32.1484 38.0904 31.9385 38.0583V37.2878H32.1649C32.3071 37.3033 32.4505 37.2715 32.5729 37.1974C32.647 37.075 32.6788 36.9316 32.6633 36.7894V33.2124H32.6642Z" fill="#484848"/>
<path d="M37.1047 33.2124H38.1016V35.1606H39.4153C39.6612 35.1326 39.9102 35.1586 40.145 35.2369C40.3798 35.3151 40.5947 35.4436 40.7746 35.6134C40.9089 35.7509 41.0142 35.9139 41.0843 36.0929C41.1544 36.2718 41.1878 36.463 41.1827 36.6551C41.19 36.9643 41.0943 37.2671 40.9107 37.5159C40.7723 37.7312 40.5631 37.8913 40.3193 37.9688C40.0131 38.0718 39.6907 38.1179 39.368 38.1048H37.0591V33.2124H37.1047ZM38.1016 37.2895H39.0529C39.2655 37.3073 39.4795 37.2919 39.6873 37.2439C39.8181 37.212 39.9316 37.1309 40.0042 37.0175C40.0529 36.962 40.0901 36.8973 40.1134 36.8272C40.1368 36.7572 40.1459 36.6831 40.1402 36.6095C40.146 36.5142 40.1284 36.419 40.0889 36.3321C40.0494 36.2452 39.9893 36.1693 39.9138 36.111C39.6553 36.0062 39.377 35.9597 39.0985 35.975H38.1016V37.2887V37.2895Z" fill="#484848"/>
<path d="M44.9424 36.2924L45.8937 36.6092C45.7852 37.0696 45.531 37.4826 45.1688 37.7869C44.7904 38.0689 44.3268 38.2129 43.8551 38.1949C43.5577 38.2037 43.2618 38.1479 42.988 38.0312C42.7142 37.9145 42.4691 37.7398 42.2694 37.5191C41.8337 37.0185 41.6066 36.3699 41.6349 35.7069C41.5996 35.0155 41.8262 34.3362 42.2694 33.8044C42.4754 33.5793 42.7282 33.4021 43.0101 33.2854C43.2919 33.1686 43.596 33.115 43.9008 33.1285C44.1665 33.1173 44.4319 33.1598 44.6809 33.2532C44.93 33.3467 45.1577 33.4893 45.3505 33.6726C45.6038 33.9179 45.7775 34.2338 45.8489 34.5791L44.8977 34.8055C44.8802 34.6876 44.839 34.5744 44.7768 34.4728C44.7145 34.3712 44.6323 34.2832 44.5352 34.2141C44.3409 34.0666 44.1034 33.987 43.8594 33.9877C43.6939 33.9832 43.5297 34.0178 43.3801 34.0887C43.2305 34.1596 43.0997 34.2648 42.9985 34.3957C42.7498 34.7689 42.6379 35.2167 42.6817 35.663C42.6317 36.1244 42.7437 36.5888 42.9985 36.9767C43.0997 37.1077 43.2305 37.2129 43.3801 37.2838C43.5297 37.3547 43.6939 37.3893 43.8594 37.3847C44.1034 37.3854 44.3409 37.3059 44.5352 37.1583C44.7335 36.9035 44.8726 36.6077 44.9424 36.2924Z" fill="#484848"/>
<path d="M47.6602 38.105V34.0726H46.2104V33.2573H50.0612V34.0726H48.6114V38.105H47.6602Z" fill="#484848"/>
<path d="M50.6955 33.2122H52.6437C52.9315 33.1993 53.2198 33.2146 53.5046 33.2578C53.6795 33.2903 53.8479 33.3514 54.003 33.4386C54.1571 33.541 54.282 33.6816 54.3655 33.8466C54.4585 34.0297 54.5052 34.2327 54.5015 34.438C54.5117 34.6635 54.4482 34.8862 54.3207 35.0725C54.1986 35.2549 54.0251 35.3969 53.8222 35.4805C54.0981 35.5372 54.3407 35.6998 54.4981 35.9334C54.6404 36.1488 54.7189 36.4001 54.7245 36.6582C54.7278 36.8773 54.6813 37.0942 54.5885 37.2927C54.5049 37.4956 54.3628 37.6691 54.1804 37.7911C53.9765 37.9195 53.7447 37.9971 53.5046 38.0176C53.3238 38.0176 52.9614 38.0632 52.3269 38.0632H50.6499V33.2122H50.6955ZM51.6924 34.0274V35.1603H53.0517C53.1284 35.159 53.204 35.1422 53.2741 35.1112C53.3441 35.0801 53.4073 35.0354 53.4598 34.9795C53.5506 34.8811 53.5994 34.751 53.5958 34.6171C53.5994 34.4832 53.5506 34.3532 53.4598 34.2547C53.3541 34.168 53.2302 34.1062 53.0974 34.0739H51.6933L51.6924 34.0274ZM51.6924 35.9756V37.2893H52.5989C52.8252 37.3084 53.0531 37.293 53.2748 37.2437C53.4076 37.2114 53.5315 37.1496 53.6372 37.0629C53.686 37.0074 53.7231 36.9427 53.7465 36.8726C53.7699 36.8025 53.7789 36.7285 53.7732 36.6548C53.7702 36.5288 53.7394 36.4051 53.6828 36.2924C53.6066 36.1826 53.4947 36.1025 53.366 36.066C53.085 35.9941 52.795 35.9636 52.5051 35.9756H51.6924Z" fill="#484848"/>
<path d="M55.2712 35.7036C55.2682 35.2709 55.345 34.8413 55.4976 34.4364C55.6167 34.1913 55.7691 33.9639 55.9504 33.7605C56.1309 33.5703 56.3463 33.4165 56.5849 33.3077C56.9153 33.1741 57.2704 33.1122 57.6266 33.1261C57.9448 33.1126 58.2623 33.1657 58.5588 33.2821C58.8553 33.3985 59.1243 33.5756 59.3483 33.8019C59.7917 34.3164 60.0191 34.9824 59.9828 35.6606C60.011 36.3376 59.7847 37.0007 59.3483 37.5192C59.1269 37.7491 58.8584 37.9285 58.5612 38.0451C58.2641 38.1618 57.9453 38.2129 57.6266 38.195C57.3079 38.2129 56.989 38.1618 56.6919 38.0451C56.3947 37.9285 56.1263 37.7491 55.9048 37.5192C55.6801 37.277 55.5077 36.9911 55.3986 36.6793C55.2894 36.3675 55.2457 36.0365 55.2703 35.707L55.2712 35.7036ZM56.2681 35.658C56.2506 36.1083 56.3776 36.5523 56.6305 36.9253C56.7528 37.0546 56.9003 37.1576 57.0639 37.2278C57.2275 37.2979 57.4038 37.3339 57.5818 37.3333C57.761 37.3428 57.9401 37.311 58.105 37.2402C58.27 37.1694 58.4164 37.0617 58.5331 36.9253C58.8121 36.5651 58.9419 36.1113 58.8955 35.658C58.913 35.2078 58.786 34.7637 58.5331 34.3908C58.4135 34.2579 58.2666 34.1526 58.1023 34.0821C57.938 34.0117 57.7605 33.9778 57.5818 33.9827C57.3964 33.9776 57.2119 34.0112 57.0403 34.0815C56.8686 34.1518 56.7135 34.2571 56.5849 34.3908C56.3624 34.7751 56.2527 35.2142 56.2681 35.658Z" fill="#484848"/>
<path d="M5.70869 45.1278V40.2345H7.29442C7.68905 40.2238 8.08374 40.2541 8.47212 40.3249C8.74923 40.406 8.98867 40.5826 9.14797 40.8234C9.34458 41.1001 9.44057 41.4358 9.42 41.7746C9.43552 42.0437 9.37241 42.3114 9.23836 42.5451C9.13981 42.7387 9.00062 42.9087 8.83031 43.0436C8.6834 43.1557 8.51299 43.2331 8.33187 43.27C8.00313 43.3312 7.66937 43.3615 7.33498 43.3604H6.7005V45.1269H5.70361L5.70869 45.1278ZM6.70558 41.0954V42.4547H7.24964C7.50963 42.4656 7.76971 42.4351 8.02013 42.3643C8.14252 42.3156 8.25125 42.2379 8.33694 42.1379C8.41392 42.0339 8.44643 41.9035 8.42734 41.7755C8.43092 41.614 8.3833 41.4555 8.29131 41.3227C8.19068 41.1961 8.04391 41.1146 7.88326 41.0962C7.74724 41.0962 7.52082 41.0506 7.15839 41.0506H6.70558V41.0954Z" fill="#484848"/>
<path d="M10.0579 42.7259C10.0549 42.2931 10.1317 41.8636 10.2843 41.4586C10.4034 41.2135 10.5558 40.9861 10.7371 40.7828C10.9176 40.5925 11.133 40.4387 11.3716 40.3299C11.7021 40.1964 12.0571 40.1344 12.4133 40.1483C12.7315 40.1348 13.0491 40.1879 13.3456 40.3043C13.6421 40.4207 13.911 40.5978 14.135 40.8242C14.5783 41.3387 14.8057 42.0046 14.7695 42.6828C14.7977 43.3598 14.5714 44.0229 14.135 44.5414C13.9136 44.7713 13.6451 44.9507 13.3479 45.0673C13.0508 45.184 12.732 45.2351 12.4133 45.2173C12.0946 45.2351 11.7757 45.184 11.4786 45.0673C11.1815 44.9507 10.913 44.7713 10.6915 44.5414C10.2558 44.0408 10.0288 43.3922 10.057 42.7292L10.0579 42.7259ZM11.0548 42.6802C11.0373 43.1305 11.1643 43.5745 11.4172 43.9475C11.5395 44.0768 11.687 44.1797 11.8506 44.2499C12.0142 44.3201 12.1905 44.356 12.3685 44.3555C12.5477 44.365 12.7268 44.3332 12.8917 44.2624C13.0567 44.1917 13.2031 44.0839 13.3198 43.9475C13.5988 43.5873 13.7286 43.1335 13.6822 42.6802C13.6997 42.23 13.5727 41.7859 13.3198 41.413C13.2002 41.2801 13.0533 41.1748 12.889 41.1044C12.7247 41.0339 12.5471 41 12.3685 41.0049C12.1831 40.9998 11.9986 41.0335 11.827 41.1037C11.6553 41.174 11.5002 41.2793 11.3716 41.413C11.1496 41.7966 11.0398 42.2348 11.0548 42.6777V42.6802Z" fill="#484848"/>
<path d="M18.7559 43.3146L19.7072 43.6314C19.5986 44.0918 19.3444 44.5048 18.9823 44.8091C18.6038 45.0911 18.1403 45.2351 17.6686 45.2172C17.3711 45.226 17.0753 45.1701 16.8015 45.0534C16.5277 44.9367 16.2825 44.762 16.0829 44.5413C15.6472 44.0407 15.4201 43.3921 15.4484 42.7291C15.4131 42.0377 15.6396 41.3584 16.0829 40.8266C16.2888 40.6015 16.5417 40.4244 16.8235 40.3076C17.1054 40.1908 17.4094 40.1373 17.7142 40.1507C17.98 40.1396 18.2453 40.182 18.4944 40.2755C18.7434 40.3689 18.9711 40.5115 19.1639 40.6948C19.4172 40.9401 19.5909 41.256 19.6624 41.6013L18.7111 41.8277C18.6936 41.7098 18.6525 41.5967 18.5902 41.495C18.528 41.3934 18.4458 41.3054 18.3487 41.2363C18.1543 41.0888 17.9169 41.0092 17.6728 41.0099C17.5074 41.0054 17.3431 41.04 17.1935 41.1109C17.044 41.1818 16.9132 41.287 16.8119 41.418C16.5633 41.7912 16.4513 42.2389 16.4951 42.6852C16.4452 43.1466 16.5572 43.611 16.8119 43.9989C16.9132 44.1299 17.044 44.2351 17.1935 44.306C17.3431 44.3769 17.5074 44.4115 17.6728 44.407C17.9169 44.4076 18.1543 44.3281 18.3487 44.1805C18.547 43.9257 18.6861 43.6299 18.7559 43.3146Z" fill="#484848"/>
<path d="M23.7398 43.3146L24.6911 43.6314C24.5825 44.0918 24.3283 44.5048 23.9662 44.8091C23.5877 45.0911 23.1241 45.2351 22.6525 45.2172C22.355 45.226 22.0592 45.1701 21.7854 45.0534C21.5116 44.9367 21.2664 44.762 21.0667 44.5413C20.6311 44.0407 20.404 43.3921 20.4323 42.7291C20.397 42.0377 20.6235 41.3584 21.0667 40.8266C21.2727 40.6015 21.5255 40.4244 21.8074 40.3076C22.0893 40.1908 22.3933 40.1373 22.6981 40.1507C22.9639 40.1396 23.2292 40.182 23.4782 40.2755C23.7273 40.3689 23.955 40.5115 24.1478 40.6948C24.4011 40.9401 24.5748 41.256 24.6463 41.6013L23.695 41.8277C23.6775 41.7098 23.6364 41.5967 23.5741 41.495C23.5118 41.3934 23.4297 41.3054 23.3326 41.2363C23.1382 41.0888 22.9007 41.0092 22.6567 41.0099C22.4913 41.0055 22.3271 41.0401 22.1775 41.111C22.0279 41.1819 21.8971 41.287 21.7958 41.418C21.5472 41.7912 21.4352 42.2389 21.479 42.6852C21.4291 43.1466 21.541 43.611 21.7958 43.9989C21.8971 44.1298 22.0279 44.235 22.1775 44.3059C22.3271 44.3768 22.4913 44.4114 22.6567 44.407C22.9007 44.4076 23.1382 44.3281 23.3326 44.1805C23.5656 43.9486 23.7098 43.6421 23.7398 43.3146Z" fill="#484848"/>
<path d="M25.688 40.2346H26.5945V43.4509L28.5883 40.2346H29.5852V45.1279H28.6787V41.9564L26.7305 45.1279H25.7336V40.2346H25.688Z" fill="#484848"/>
<path d="M30.6714 40.2338H31.5779V43.4501L33.5717 40.2338H34.5686V45.1271H33.6621V41.9556L31.7139 45.1271H30.717V40.2338H30.6714ZM33.1628 39.0562H33.6156C33.5954 39.3267 33.4837 39.5824 33.2988 39.781C33.2036 39.8744 33.09 39.9468 32.9651 39.9937C32.8403 40.0405 32.7071 40.0607 32.574 40.0531C32.4408 40.0607 32.3076 40.0405 32.1828 39.9937C32.0579 39.9468 31.9443 39.8744 31.8491 39.781C31.6642 39.5824 31.5525 39.3267 31.5323 39.0562H31.9851C31.9982 39.1954 32.063 39.3247 32.1667 39.4186C32.2222 39.4673 32.2869 39.5045 32.357 39.5279C32.4271 39.5512 32.5011 39.5603 32.5748 39.5546C32.6484 39.5603 32.7225 39.5512 32.7926 39.5279C32.8627 39.5045 32.9273 39.4673 32.9828 39.4186C33.0415 39.3787 33.0888 39.3245 33.1203 39.261C33.1519 39.1975 33.1665 39.1269 33.1628 39.0562Z" fill="#484848"/>
<path d="M38.7354 43.3146L39.6867 43.6314C39.5782 44.0918 39.3239 44.5048 38.9618 44.8091C38.5833 45.0911 38.1197 45.2351 37.6481 45.2172C37.3506 45.226 37.0548 45.1701 36.781 45.0534C36.5072 44.9367 36.262 44.762 36.0624 44.5413C35.6267 44.0407 35.3996 43.3921 35.4279 42.7291C35.3926 42.0377 35.6191 41.3584 36.0624 40.8266C36.2683 40.6015 36.5212 40.4244 36.803 40.3076C37.0849 40.1908 37.3889 40.1373 37.6937 40.1507C37.9595 40.1395 38.2248 40.1819 38.4739 40.2754C38.7229 40.3689 38.9507 40.5115 39.1434 40.6948C39.3968 40.9401 39.5704 41.256 39.6419 41.6013L38.6906 41.8277C38.6731 41.7098 38.632 41.5967 38.5697 41.495C38.5075 41.3934 38.4253 41.3054 38.3282 41.2363C38.1338 41.0888 37.8963 41.0092 37.6523 41.0099C37.4868 41.0054 37.3226 41.04 37.173 41.1109C37.0234 41.1818 36.8927 41.287 36.7915 41.418C36.5428 41.7912 36.4308 42.2389 36.4746 42.6852C36.4247 43.1466 36.5367 43.611 36.7915 43.9989C36.8927 44.1299 37.0234 44.2351 37.173 44.306C37.3226 44.3769 37.4868 44.4115 37.6523 44.407C37.8963 44.4076 38.1338 44.3281 38.3282 44.1805C38.5265 43.9257 38.6656 43.6299 38.7354 43.3146Z" fill="#484848"/>
<path d="M40.6382 40.2345H41.6351V42.3187C41.719 42.3217 41.8026 42.3072 41.8805 42.276C41.9585 42.2449 42.0291 42.1979 42.0879 42.1379C42.2346 41.8941 42.356 41.6359 42.4503 41.3674C42.5427 40.9728 42.7664 40.6212 43.0848 40.3705C43.3938 40.2188 43.7391 40.1562 44.0817 40.1897H44.2177V40.9146H44.0817C43.9262 40.9134 43.772 40.9442 43.6289 41.005C43.5325 41.0561 43.4536 41.135 43.4025 41.2314C43.3568 41.3218 43.2664 41.5482 43.1304 41.8659C43.0873 42.009 43.0263 42.1461 42.9488 42.2739C42.8489 42.4013 42.7259 42.5088 42.5864 42.5907C42.8067 42.6392 43.0008 42.7685 43.1304 42.9532C43.3197 43.2018 43.4722 43.4764 43.5832 43.7684L44.2591 45.0821H43.0882L42.4968 43.8149C42.4721 43.7906 42.4561 43.7588 42.4512 43.7245C42.4101 43.6465 42.3647 43.571 42.3152 43.4981C42.1791 43.2717 42.0888 43.09 41.9984 43.0452C41.8857 42.9887 41.7619 42.9578 41.6359 42.9549V45.1294H40.639V40.2362L40.6382 40.2345Z" fill="#484848"/>
<path d="M44.6702 42.7259C44.6672 42.2931 44.744 41.8636 44.8966 41.4586C45.0157 41.2135 45.1681 40.9861 45.3494 40.7828C45.5299 40.5925 45.7453 40.4387 45.9839 40.3299C46.3144 40.1963 46.6694 40.1344 47.0256 40.1483C47.3438 40.1348 47.6614 40.1879 47.9579 40.3043C48.2544 40.4207 48.5233 40.5978 48.7473 40.8242C49.1907 41.3386 49.4181 42.0046 49.3818 42.6828C49.41 43.3598 49.1837 44.0229 48.7473 44.5414C48.5259 44.7713 48.2574 44.9507 47.9602 45.0673C47.6631 45.184 47.3443 45.2351 47.0256 45.2173C46.7069 45.2351 46.388 45.184 46.0909 45.0673C45.7938 44.9507 45.5253 44.7713 45.3038 44.5414C44.8681 44.0408 44.6411 43.3922 44.6694 42.7292L44.6702 42.7259ZM45.7119 42.6802C45.6944 43.1305 45.8214 43.5745 46.0743 43.9475C46.1966 44.0768 46.3441 44.1798 46.5077 44.25C46.6713 44.3202 46.8476 44.3561 47.0256 44.3555C47.2048 44.365 47.3838 44.3332 47.5488 44.2624C47.7137 44.1917 47.8602 44.0839 47.9768 43.9475C48.2559 43.5873 48.3857 43.1335 48.3393 42.6802C48.3567 42.23 48.2297 41.7859 47.9768 41.413C47.8573 41.2801 47.7103 41.1748 47.5461 41.1044C47.3818 41.0339 47.2042 41 47.0256 41.0049C46.8402 40.9998 46.6557 41.0335 46.484 41.1037C46.3124 41.174 46.1573 41.2793 46.0287 41.413C45.8062 41.7973 45.6964 42.2365 45.7119 42.6802Z" fill="#484848"/>
<path d="M50.2876 40.2338H51.1941V43.4501L53.1879 40.2338H54.1848V45.1271H53.2783V41.9556L51.3301 45.1271H50.3332V40.2338H50.2876ZM52.8221 39.0562H53.2749C53.2547 39.3267 53.143 39.5824 52.9581 39.781C52.8629 39.8744 52.7493 39.9468 52.6244 39.9937C52.4996 40.0405 52.3663 40.0607 52.2332 40.0531C52.1001 40.0607 51.9669 40.0405 51.842 39.9937C51.7172 39.9468 51.6036 39.8744 51.5084 39.781C51.3235 39.5824 51.2118 39.3267 51.1916 39.0562H51.6444C51.6575 39.1954 51.7223 39.3247 51.826 39.4186C51.8815 39.4673 51.9462 39.5045 52.0163 39.5279C52.0864 39.5512 52.1604 39.5603 52.2341 39.5546C52.3077 39.5603 52.3818 39.5512 52.4519 39.5279C52.5219 39.5045 52.5866 39.4673 52.6421 39.4186C52.7291 39.313 52.7912 39.1891 52.8238 39.0562H52.8221Z" fill="#484848"/>
<path d="M11.2811 51.5603V52.1517H10.3298V51.5603C10.0324 51.574 9.73515 51.5288 9.4552 51.4273C9.17526 51.3258 8.9181 51.1701 8.69847 50.969C8.37678 50.607 8.19938 50.1395 8.20003 49.6553C8.19113 49.1559 8.36887 48.6712 8.69847 48.2959C8.91585 48.0941 9.17388 47.9412 9.45525 47.8473C9.73663 47.7535 10.0348 47.7209 10.3298 47.7519V47.2534H11.2811V47.7519C11.5785 47.7382 11.8758 47.7835 12.1557 47.8849C12.4357 47.9864 12.6929 48.1422 12.9125 48.3432C13.2421 48.7185 13.4198 49.2032 13.4109 49.7026C13.4195 49.9437 13.3798 50.1841 13.2942 50.4097C13.2086 50.6353 13.0788 50.8415 12.9125 51.0163C12.4617 51.4056 11.8753 51.6012 11.2811 51.5603ZM10.3298 50.7451V48.5705C10.004 48.5415 9.6794 48.6389 9.42333 48.8425C9.32596 48.9535 9.25173 49.0827 9.20501 49.2227C9.1583 49.3627 9.14002 49.5106 9.15128 49.6578C9.15128 50.3827 9.51372 50.7451 10.329 50.7451H10.3298ZM11.2811 50.7451C11.5138 50.7524 11.7451 50.7058 11.957 50.6091C12.1313 50.5399 12.2757 50.4116 12.365 50.2466C12.4678 50.0517 12.5148 49.8321 12.501 49.6122C12.501 48.8873 12.093 48.5705 11.3233 48.5705V50.7451H11.2811Z" fill="#484848"/>
<path d="M14.271 52.1494V47.3018H17.8953V48.117H15.2679V49.2043H17.7179V50.0196H15.2679V51.3333H17.9882V52.1485H14.271V52.1494Z" fill="#484848"/>
<path d="M19.2991 47.2568H22.6513V51.2892H23.0594V53.1478H22.2441V52.1061H19.1639V53.1478H18.3486V51.2892H18.7567C18.9521 50.8247 19.0891 50.3377 19.1647 49.8395C19.2103 49.2954 19.2551 48.6162 19.2551 47.7553V47.2568H19.2991ZM20.2503 48.0721C20.306 49.1599 20.1679 50.2489 19.8423 51.2883H21.7009V48.0721H20.2503Z" fill="#484848"/>
<path d="M23.8757 52.1494V47.3018H27.5V48.117H24.8726V49.2043H27.3226V50.0196H24.8726V51.3333H27.5913V52.1485H23.874L23.8757 52.1494Z" fill="#484848"/>
<path d="M28.4971 52.149V47.3014H30.0828C30.4775 47.2907 30.8721 47.321 31.2605 47.3918C31.5376 47.4729 31.7771 47.6495 31.9364 47.8903C32.133 48.167 32.229 48.5027 32.2084 48.8415C32.2242 49.1105 32.1613 49.3782 32.0276 49.612C31.929 49.8056 31.7899 49.9756 31.6196 50.1105C31.4727 50.2226 31.3022 50.3 31.1211 50.3369C30.7924 50.3981 30.4586 50.4284 30.1242 50.4273H29.4897V52.2859H28.4971V52.149ZM29.494 48.1167V49.476H30.038C30.298 49.4868 30.5581 49.4563 30.8085 49.3856C30.9309 49.3369 31.0396 49.2592 31.1253 49.1592C31.2023 49.0551 31.2348 48.9248 31.2157 48.7968C31.2193 48.6352 31.1717 48.4767 31.0797 48.3439C30.9791 48.2174 30.8323 48.1359 30.6717 48.1175C30.5356 48.1175 30.3092 48.0719 29.9468 48.0719H29.494V48.1167Z" fill="#484848"/>
<path d="M36.9235 52.1494H35.832L35.4239 51.0621H33.4758L33.0677 52.1494H32.0303L33.9328 47.3018H34.9745L36.9235 52.1494ZM35.1114 50.2012L34.4355 48.389L33.7596 50.2012H35.1114Z" fill="#484848"/>
<path d="M37.5576 47.2568H38.5545V51.2892H40.4571V47.2568H41.454V51.2892H41.862V53.1478H41.0468V52.1061H37.6032V47.2568H37.5576Z" fill="#484848"/>
<path d="M42.6318 47.2568H43.5383V50.4731L45.5321 47.2568H46.529V52.1045H45.6225V48.933L43.6744 52.1045H42.6318V47.2568Z" fill="#484848"/>
<path d="M47.6143 47.2568H48.5208V50.4731L50.5145 47.2568H51.5115V52.1045H50.605V48.933L48.6568 52.1045H47.6143V47.2568Z" fill="#484848"/>
</svg>
