<svg width="61" height="54" viewBox="0 0 61 54" fill="none" xmlns="http://www.w3.org/2000/svg">
<path d="M53.9666 41.0146H26.9321C26.164 41.1278 25.4244 41.3858 24.7525 41.7749C23.9929 42.2146 23.3338 42.8086 22.8178 43.5186L17.3501 53.0043H60.8917L53.9641 41.0078" fill="#765330"/>
<path d="M38.7981 37.2356C39.5874 37.6848 40.4643 37.9585 41.3689 38.0382H52.2385L30.4326 0.274414L23.478 12.3157L36.7418 35.2951C37.2732 36.0872 37.9771 36.7486 38.8007 37.2297" fill="#765330"/>
<path d="M27.7982 27.3172C27.7993 26.4042 27.5973 25.5024 27.2068 24.6771L21.7873 15.2886L0 53.0076H13.9244L27.0826 30.2057C27.5522 29.3153 27.7975 28.3238 27.7974 27.3172" fill="#765330"/>
</svg>
