<svg width="110" height="101" viewBox="0 0 110 101" fill="none" xmlns="http://www.w3.org/2000/svg">
<path fill-rule="evenodd" clip-rule="evenodd" d="M35.5721 20.0936C34.4521 21.1216 34.103 22.8796 34.137 24.7936C34.1465 25.9102 34.2719 27.0229 34.511 28.1136C34.7433 29.3228 35.038 30.519 35.3941 31.6976C36.3927 34.8726 37.701 37.9416 39.3001 40.8606L39.8269 38.4236C38.6528 36.118 37.6825 33.7142 36.927 31.2396C36.5828 30.1156 36.302 28.9732 36.086 27.8176L36.0769 27.8007V27.7916C35.8583 26.8101 35.7445 25.8082 35.7371 24.8026V24.7606C35.7201 23.7166 35.8141 22.0346 36.6541 21.2786C39.1171 19.0366 44.6619 17.7296 50.7329 17.3386L51.7329 15.6826C44.8879 15.9916 38.4681 17.4606 35.5721 20.0936ZM56.2581 55.8356C63.7741 52.9146 71.3401 39.6756 73.7171 31.6936C74.0703 30.5148 74.3623 29.3186 74.5921 28.1096C74.8351 27.0195 74.9606 25.9065 74.9661 24.7897C75.0081 22.8787 74.66 21.1216 73.531 20.0896C70.762 17.5676 64.75 16.1066 58.231 15.7166L59.3941 17.4066C65.0661 17.8646 70.1359 19.1556 72.4629 21.2706C73.2949 22.0266 73.3971 23.7086 73.3721 24.7526V24.7946C73.365 25.8001 73.251 26.8021 73.032 27.7836V27.8096C72.811 28.9646 72.522 30.1096 72.191 31.2316C70.8181 35.528 68.8913 39.6272 66.459 43.4257C64.124 47.1617 59.895 52.8256 55.513 54.4136L56.2581 55.8356Z" fill="#02517A"/>
<path fill-rule="evenodd" clip-rule="evenodd" d="M56.7681 0.910703L62.186 6.3287L61.0562 7.4577L55.6382 2.0397C55.3519 1.7541 54.9639 1.59371 54.5596 1.59371C54.1552 1.59371 53.7672 1.7541 53.481 2.0397L48.0552 7.4577L46.9341 6.3287L52.3521 0.910703C52.9389 0.327402 53.7327 0 54.5601 0C55.3875 0 56.1813 0.327402 56.7681 0.910703ZM52.344 70.1497L46.926 64.7317L48.0471 63.6027L53.4731 69.0207C53.7594 69.3063 54.1471 69.4667 54.5515 69.4667C54.9559 69.4667 55.3439 69.3063 55.6301 69.0207L61.0481 63.6027L62.178 64.7317L56.76 70.1497C56.1732 70.733 55.3794 71.0604 54.552 71.0604C53.7246 71.0604 52.9308 70.733 52.344 70.1497ZM19.938 37.7497L25.356 43.1677L26.4861 42.0387L21.0681 36.6207C20.7825 36.3344 20.6221 35.9466 20.6221 35.5422C20.6221 35.1378 20.7825 34.75 21.0681 34.4637L26.4861 29.0457L25.356 27.9167L19.938 33.3347C19.3583 33.9212 19.0332 34.7126 19.0332 35.5372C19.0332 36.3618 19.3583 37.1532 19.938 37.7397V37.7497ZM89.1641 33.3257L83.7461 27.9077L82.6172 29.0367L88.043 34.4547C88.3245 34.7431 88.4822 35.1302 88.4822 35.5332C88.4822 35.9362 88.3245 36.3233 88.043 36.6117L82.6172 42.0297L83.7461 43.1587L89.1641 37.7407C89.7502 37.1536 90.0796 36.358 90.0798 35.5284C90.08 34.6988 89.751 33.903 89.165 33.3157L89.1641 33.3257Z" fill="#9CBAD6"/>
<path fill-rule="evenodd" clip-rule="evenodd" d="M50.4189 37.3489H55.6758C56.0418 37.3489 56.4318 37.3408 56.8398 37.3318C56.9338 37.1698 57.0396 37.0089 57.1396 36.8389C57.433 36.3643 57.7626 35.9129 58.125 35.4888C57.0041 35.6601 55.8706 35.7367 54.7368 35.7178H50.4189V37.3489ZM64.7368 30.2839C64.7788 29.6559 64.7881 29.0358 64.7881 28.4668C64.7881 26.4458 64.5669 23.8729 63.0479 22.3669C61.6799 20.9989 59.5061 20.7529 57.6641 20.7529H51.4487C49.6147 20.7529 47.44 20.9989 46.064 22.3669C44.646 23.7759 44.3567 26.1278 44.3237 28.0728V51.3059C44.9424 51.9523 45.6189 52.5408 46.3447 53.064V28.4558C46.3697 26.9018 46.4808 24.9319 47.5938 23.7349C48.6727 22.5629 50.421 22.377 51.916 22.377H57.1987C61.9357 22.377 62.7769 24.5769 62.7769 28.8979C62.7915 29.8437 62.6909 30.7874 62.4771 31.7087C63.5021 31.0057 64.3509 30.5039 64.7339 30.2839H64.7368Z" fill="#02517A"/>
<path fill-rule="evenodd" clip-rule="evenodd" d="M54.5517 58.8386C51.0839 58.8369 47.7051 57.741 44.8964 55.707C42.0877 53.6731 39.9922 50.8048 38.9086 47.5106C36.9646 41.5836 39.1559 34.3656 42.7089 27.5206C42.7009 27.6996 42.6928 27.8776 42.6928 28.0476V31.1726C40.4248 36.2416 38.8027 42.1186 40.4077 47.0186C41.3871 49.9977 43.2824 52.5917 45.8227 54.4305C48.363 56.2694 51.4186 57.2594 54.5546 57.2594C57.6906 57.2594 60.7468 56.2694 63.2871 54.4305C65.8274 52.5917 67.7221 49.9977 68.7016 47.0186C69.2386 45.3094 69.449 43.5145 69.3217 41.7275C69.7887 40.9035 70.2216 40.0806 70.6386 39.2566C71.1623 42.0026 71.0138 44.8346 70.205 47.5106C69.121 50.8064 67.024 53.6759 64.2133 55.71C61.4026 57.7441 58.0212 58.839 54.5517 58.8386ZM68.9877 38.9926C68.4662 36.4165 67.6571 33.9071 66.5756 31.5116L66.4907 31.3416L66.4741 31.2906L66.3808 31.0786L66.3549 31.0276C66.0069 30.2546 65.6418 29.5076 65.2768 28.7776L66.4057 27.5206L66.559 27.8265L66.5668 27.8436C66.6178 27.9436 66.6667 28.0436 66.7197 28.1436L66.728 28.1686L66.7368 28.1855L66.8466 28.4066L66.873 28.4486L66.915 28.5336L66.9409 28.5756L66.9589 28.6266L66.9838 28.6696L67.0009 28.7115L67.1098 28.9326L67.1279 28.9756C68.367 31.4567 69.3593 34.0535 70.0908 36.7286C69.7358 37.4936 69.3707 38.2496 68.9877 38.9966V38.9926ZM47.3759 19.6986C49.3889 16.6836 51.4598 13.9157 53.2758 11.5717C54.0068 10.6377 54.3378 10.4336 54.5498 10.4336C54.7618 10.4336 55.1017 10.6337 55.8237 11.5717C57.6497 13.9157 59.7239 16.6836 61.7329 19.6986C61.0049 19.4574 60.2537 19.2925 59.4916 19.2065C58.0566 17.1175 56.5446 15.0796 54.9916 13.0756C54.7916 12.8206 54.6518 12.7756 54.5498 12.7756C54.4478 12.7756 54.3039 12.8176 54.1079 13.0756C52.5629 15.0756 51.0509 17.1175 49.6079 19.2065C48.8488 19.2936 48.1011 19.4602 47.3769 19.7036L47.3759 19.6986Z" fill="#9CBAD6"/>
<path fill-rule="evenodd" clip-rule="evenodd" d="M55.2822 56.1155C53.2978 52.9267 52.4317 49.168 52.8202 45.4324C53.6012 38.6394 59.5452 32.5164 66.4072 27.5234L67.1284 28.9753C67.0344 29.0433 66.8141 29.1754 66.7211 29.2554C61.4631 33.1554 55.1461 39.0044 54.3901 45.6104C53.9834 49.1221 54.8451 52.6638 56.8193 55.5964C56.3311 55.8342 55.8145 56.0087 55.2822 56.1155Z" fill="url(#paint0_linear)"/>
<path d="M3.49 82.6365H4.679C7.592 82.6365 8.479 81.7105 8.479 78.9265C8.479 76.6495 7.664 75.6726 5.456 75.6726H3.023C0.807 75.6726 0 76.6495 0 78.9265V87.1208H1.265V78.9265C1.29 77.4135 1.613 76.7869 3.21 76.7869H5.273C6.92 76.7869 7.209 77.4585 7.209 79.0955C7.209 81.1425 6.36 81.5242 4.309 81.5242H3.49V82.6365ZM103.015 80.7273V78.9275C103.04 77.4145 103.363 76.7878 104.96 76.7878H109.113V75.6736H104.774C102.558 75.6736 101.751 76.6505 101.751 78.9275V83.9197C101.759 86.1537 102.575 87.1199 104.774 87.1199H109.079V85.9978H104.96C103.36 85.9978 103.041 85.3682 103.015 83.8572V80.7253V80.7273ZM91.615 75.6726H90.345V87.1208H92.366L98.888 76.6482V87.1208H100.162V75.6726H98.124L91.624 86.2478L91.615 75.6726ZM83.828 81.8474H85.671C87.335 81.8474 87.811 82.0253 87.811 83.8933C87.811 85.7613 87.089 85.9988 85.136 85.9988H81.607V76.7869H85.717C87.093 76.7869 87.475 77.2193 87.475 78.6023C87.475 80.2403 86.94 80.7263 85.242 80.7263H83.832L83.828 81.8474ZM80.338 87.1208H86.172C88.372 87.1208 89.072 85.8475 89.072 83.8005C89.072 82.2895 88.826 81.5251 87.314 81.1101C88.614 80.6511 88.741 79.7671 88.741 78.4851C88.741 76.4211 87.807 75.6726 85.841 75.6726H80.342L80.338 87.1208ZM69.214 87.1208H70.59L71.507 84.7595H77.281L78.139 87.1208H79.5L75.237 75.6726H73.387L69.214 87.1208ZM76.865 83.6453H71.816L74.338 76.6169L76.865 83.6453ZM62.548 82.6355H65.962C68.875 82.6355 69.762 81.7095 69.762 78.9255C69.762 76.6485 68.947 75.6716 66.739 75.6716H61.279V87.1199H62.544L62.548 82.6355ZM62.548 76.7859H66.556C68.203 76.7859 68.492 77.4575 68.492 79.0945C68.492 81.1415 67.643 81.5232 65.592 81.5232H62.551L62.548 76.7859ZM50.464 75.6716V87.1199H51.738V76.7859H58.43V87.1199H59.7V75.6716H50.464ZM39.564 81.4041C39.564 86.2611 40.532 87.239 44.364 87.239C48.236 87.239 49.164 86.2611 49.164 81.4041C49.164 76.5471 48.242 75.5457 44.4 75.5457C40.54 75.5457 39.572 76.533 39.572 81.405L39.564 81.4041ZM40.838 81.4041C40.838 77.3371 41.22 76.6658 44.379 76.6658C47.513 76.6658 47.895 77.3371 47.895 81.4041C47.895 85.4381 47.495 86.1267 44.379 86.1267C41.263 86.1267 40.846 85.44 40.846 81.405L40.838 81.4041ZM30.325 80.7253V75.6707H29.059V87.1189H30.333V81.8455H37.025V87.1189H38.29V75.6707H37.025V80.7253H30.325ZM22.538 81.8455H24.381C26.045 81.8455 26.521 82.0234 26.521 83.8914C26.521 85.7594 25.799 85.9968 23.846 85.9968H20.321V76.7849H24.431C25.807 76.7849 26.189 77.2173 26.189 78.6003C26.189 80.2383 25.654 80.7244 23.956 80.7244H22.546L22.538 81.8455ZM19.048 87.1189H24.89C27.09 87.1189 27.79 85.8456 27.79 83.7986C27.79 82.2876 27.544 81.5222 26.032 81.1072C27.332 80.6482 27.459 79.7642 27.459 78.4822C27.459 76.4182 26.525 75.6707 24.559 75.6707H19.056L19.048 87.1189ZM7.924 87.1189H9.307L10.224 84.7576H16L16.858 87.1189H18.217L13.954 75.6707H12.1L7.924 87.1189ZM15.575 83.6433H10.53L13.052 76.615L15.575 83.6433Z" fill="#02517A"/>
<path d="M105.231 81.8447H108.841V80.7256H105.231V81.8447Z" fill="#00633D"/>
<path d="M3.93099 93.2822H3.00599L2.66599 92.2822H1.28199L0.950992 93.2822H0.0419922L1.45199 89.4824H2.56399L3.93099 93.2822ZM2.46999 91.6777L1.98599 90.252H1.96099L1.48499 91.6777H2.46999ZM7.82799 91.8496V92.4346C7.83834 92.5704 7.8074 92.7063 7.73923 92.8242C7.67107 92.9422 7.56886 93.0368 7.44599 93.0957C7.09115 93.2416 6.70803 93.3064 6.32499 93.2842H4.74199V89.4834H6.27899C6.65576 89.4497 7.03482 89.5149 7.37899 89.6719C7.47664 89.7428 7.55392 89.838 7.60307 89.9482C7.65222 90.0585 7.6715 90.1798 7.65899 90.2998V90.7666C7.65747 90.8814 7.61202 90.9909 7.53199 91.0732C7.45468 91.161 7.35468 91.2262 7.24299 91.2607V91.2852C7.39176 91.307 7.53084 91.3715 7.64299 91.4717C7.70026 91.5168 7.7467 91.5742 7.77888 91.6396C7.81107 91.7051 7.82819 91.7767 7.82899 91.8496H7.82799ZM6.78299 90.6494V90.4619C6.78947 90.4159 6.78516 90.3683 6.77041 90.3242C6.75566 90.2801 6.73087 90.2409 6.69799 90.208C6.56311 90.1445 6.41286 90.1205 6.26499 90.1396H5.65399V91.0322H6.28199C6.42411 91.0519 6.5686 91.0208 6.68999 90.9443C6.72522 90.9049 6.75186 90.8589 6.76821 90.8086C6.78457 90.7583 6.79028 90.7049 6.78499 90.6523L6.78299 90.6494ZM6.91899 92.3115V92.0117C6.92587 91.9566 6.91948 91.9008 6.90034 91.8486C6.88121 91.7965 6.84989 91.7495 6.80899 91.7119C6.69436 91.6427 6.5601 91.6132 6.42699 91.6279H5.65399V92.6367H6.29899C6.46136 92.6498 6.62451 92.6239 6.77499 92.5615C6.82021 92.5385 6.85788 92.5028 6.88357 92.459C6.90927 92.4152 6.9219 92.3652 6.91999 92.3145L6.91899 92.3115ZM11.802 90.1387H10.642V93.2803H9.73299V90.1387H8.55899V89.4844H11.803L11.802 90.1387ZM16.243 90.5791V92.2451C16.2465 92.4397 16.1869 92.6302 16.073 92.7881C15.9572 92.9463 15.7976 93.067 15.614 93.1357C15.4302 93.2066 15.2395 93.2582 15.045 93.2891C14.8432 93.3235 14.6388 93.3407 14.434 93.3408C14.234 93.3408 14.043 93.3216 13.865 93.3076C13.6716 93.2748 13.4813 93.2265 13.296 93.1621C13.1077 93.0969 12.9423 92.9776 12.82 92.8203C12.6986 92.6533 12.636 92.4515 12.642 92.2451V90.5791C12.6385 90.399 12.6823 90.2204 12.769 90.0625C12.8484 89.9279 12.9554 89.8119 13.083 89.7217C13.2237 89.6389 13.3751 89.5764 13.533 89.5352C13.6859 89.4915 13.8421 89.4593 14 89.4404C14.136 89.4304 14.28 89.4248 14.433 89.4248C14.586 89.4248 14.739 89.4304 14.875 89.4404C15.033 89.4585 15.1893 89.4907 15.342 89.5352C15.5027 89.5765 15.6571 89.6389 15.801 89.7217C15.9286 89.8119 16.0356 89.9279 16.115 90.0625C16.2033 90.2209 16.2472 90.4008 16.242 90.582L16.243 90.5791ZM15.326 92.2451V90.5693C15.3318 90.491 15.3139 90.4127 15.2744 90.3447C15.235 90.2767 15.1759 90.2223 15.105 90.1885C14.8953 90.1029 14.6691 90.0659 14.443 90.0791C14.2149 90.067 13.9867 90.1006 13.772 90.1787C13.7009 90.2148 13.6421 90.2715 13.6028 90.3408C13.5635 90.4102 13.5455 90.4888 13.551 90.5684V92.2441C13.548 92.3299 13.5748 92.4133 13.627 92.4814C13.6841 92.5493 13.7616 92.5978 13.848 92.6182C13.9369 92.6453 14.0278 92.6647 14.12 92.6768C14.213 92.6858 14.32 92.6934 14.443 92.6934C14.566 92.6934 14.681 92.6858 14.774 92.6768C14.8661 92.6647 14.9571 92.6453 15.046 92.6182C15.1298 92.5976 15.2044 92.549 15.258 92.4814C15.3071 92.4136 15.3314 92.3316 15.327 92.248L15.326 92.2451ZM20.812 93.2793H19.895V91.6592H18.283V93.2793H17.374V89.4795H18.283V91.001H19.896V89.4795H20.813L20.812 93.2793ZM25.542 90.5801V92.2461C25.5455 92.4407 25.4859 92.6312 25.372 92.7891C25.2562 92.9473 25.0966 93.0679 24.913 93.1367C24.7292 93.2076 24.5385 93.2592 24.344 93.29C24.1422 93.3249 23.9378 93.342 23.733 93.3418C23.533 93.3418 23.342 93.3226 23.164 93.3086C22.9706 93.2758 22.7803 93.2274 22.595 93.1631C22.4079 93.0956 22.2431 92.9768 22.119 92.8213C21.9976 92.6542 21.935 92.4525 21.941 92.2461V90.5801C21.9375 90.3999 21.9813 90.2214 22.068 90.0635C22.1506 89.9284 22.2606 89.8124 22.391 89.7227C22.5287 89.6397 22.6776 89.5773 22.833 89.5361C22.9859 89.4924 23.1421 89.4603 23.3 89.4414C23.436 89.4314 23.58 89.4258 23.733 89.4258C23.886 89.4258 24.039 89.4314 24.175 89.4414C24.336 89.4594 24.4952 89.4916 24.651 89.5361C24.8084 89.579 24.9596 89.6414 25.101 89.7227C25.2408 89.8166 25.3546 89.9441 25.4319 90.0938C25.5091 90.2434 25.5474 90.4107 25.543 90.5791L25.542 90.5801ZM24.633 92.2461V90.5703C24.6368 90.4913 24.6171 90.4135 24.5763 90.3457C24.5355 90.2779 24.4756 90.2232 24.404 90.1895C24.1945 90.1031 23.9681 90.0661 23.742 90.0801C23.5168 90.0672 23.2913 90.1008 23.08 90.1797C23.0069 90.214 22.946 90.2693 22.9051 90.3389C22.8642 90.4085 22.8454 90.4888 22.851 90.5693V92.2451C22.848 92.3309 22.8748 92.4143 22.927 92.4824C22.9841 92.5503 23.0616 92.5987 23.148 92.6191C23.2394 92.6472 23.3331 92.6665 23.428 92.6777C23.6424 92.6998 23.8586 92.6998 24.073 92.6777C24.1651 92.6656 24.2561 92.6463 24.345 92.6191C24.4288 92.5986 24.5034 92.55 24.557 92.4824C24.6089 92.4152 24.636 92.3329 24.634 92.248L24.633 92.2461ZM31.053 93.2803H30.229V90.4805H30.212L29.252 93.2803H28.522L27.528 90.4805H27.511V93.2803H26.67V89.4805H27.97L28.904 92.1982L29.83 89.4805H31.053V93.2803ZM35.707 93.2803H34.79V91.6602H33.177V93.2803H32.268V89.4805H33.177V91.002H34.79V89.4805H35.707V93.2803ZM40.407 93.2803H39.481L39.141 92.2803H37.754L37.423 93.2803H36.523L37.923 89.4805H39.035L40.407 93.2803ZM38.946 91.6758L38.462 90.25H38.437L37.961 91.6758H38.946ZM41.978 93.2803H40.922L42.022 91.7188C41.445 91.6518 41.156 91.4126 41.156 91.0186V90.3477C41.1479 90.2161 41.1771 90.0854 41.2402 89.9697C41.3034 89.854 41.3979 89.7577 41.513 89.6934C41.8471 89.5279 42.2191 89.4545 42.591 89.4805H44.302V93.2803H43.393V91.7803H42.968L41.978 93.2803ZM42.054 90.5039V90.7764C42.0475 90.8368 42.0548 90.8979 42.0754 90.9551C42.096 91.0123 42.1294 91.0641 42.173 91.1064C42.31 91.1741 42.4626 91.2037 42.615 91.1924H43.396V90.1387H42.612C42.4634 90.1269 42.3144 90.1535 42.179 90.2158C42.1331 90.2478 42.0969 90.2916 42.0744 90.3428C42.0518 90.3939 42.0437 90.4504 42.051 90.5059L42.054 90.5039ZM51.654 93.2803H50.737V91.6602H49.117V93.2803H48.208V89.4805H49.117V91.002H50.73V89.4805H51.647L51.654 93.2803ZM55.815 93.2803H52.853V89.4805H55.753V90.1348H53.77V91.001H55.562V91.6543H53.77V92.6299H55.808L55.815 93.2803ZM56.826 93.2803V89.4805H57.718V91.002C57.8244 91.0058 57.9306 90.9913 58.032 90.959C58.1051 90.9169 58.1642 90.8537 58.202 90.7783L58.61 90.1191C58.7156 89.9119 58.87 89.7329 59.06 89.5986C59.2731 89.5039 59.5064 89.4632 59.739 89.4805H60.155V90.1348H59.909C59.7828 90.1229 59.6554 90.1372 59.535 90.1768C59.4449 90.2436 59.3722 90.3309 59.323 90.4316L59.085 90.8154C59.0328 90.9105 58.9652 90.9963 58.885 91.0693C58.8156 91.1258 58.7385 91.1726 58.656 91.207C58.8024 91.2538 58.934 91.338 59.038 91.4512C59.2181 91.628 59.3778 91.8245 59.514 92.0371L60.346 93.2764H59.281L58.559 92.1641C58.4643 91.9895 58.3305 91.8388 58.168 91.7246C58.0271 91.6502 57.8678 91.6179 57.709 91.6309V93.2764L56.826 93.2803ZM64.639 90.5811V92.2471C64.6425 92.4417 64.5829 92.6322 64.469 92.79C64.3532 92.9483 64.1936 93.0689 64.01 93.1377C63.8262 93.2086 63.6355 93.2602 63.441 93.291C63.2392 93.3259 63.0348 93.343 62.83 93.3428C62.63 93.3428 62.439 93.3236 62.261 93.3096C62.0676 93.2768 61.8773 93.2284 61.692 93.1641C61.5049 93.0966 61.3401 92.9777 61.216 92.8223C61.0946 92.6552 61.032 92.4535 61.038 92.2471V90.5811C61.0345 90.4009 61.0783 90.2224 61.165 90.0645C61.2476 89.9294 61.3576 89.8134 61.488 89.7236C61.6257 89.6407 61.7746 89.5782 61.93 89.5371C62.0829 89.4934 62.2391 89.4613 62.397 89.4424C62.533 89.4324 62.677 89.4268 62.83 89.4268C62.983 89.4268 63.136 89.4324 63.272 89.4424C63.433 89.4604 63.5922 89.4925 63.748 89.5371C63.9054 89.58 64.0566 89.6423 64.198 89.7236C64.3255 89.8139 64.4326 89.9299 64.512 90.0645C64.5972 90.2231 64.6382 90.4022 64.631 90.582L64.639 90.5811ZM63.73 92.2471V90.5713C63.7338 90.4923 63.7141 90.4145 63.6733 90.3467C63.6325 90.2789 63.5726 90.2242 63.501 90.1904C63.2913 90.1048 63.0651 90.0679 62.839 90.0811C62.6109 90.069 62.3827 90.1026 62.168 90.1807C62.0969 90.2168 62.0381 90.2734 61.9988 90.3428C61.9595 90.4121 61.9415 90.4908 61.947 90.5703V92.2461C61.944 92.3318 61.9708 92.4153 62.023 92.4834C62.0801 92.5513 62.1576 92.5997 62.244 92.6201C62.3329 92.6473 62.4238 92.6666 62.516 92.6787C62.609 92.6877 62.716 92.6953 62.847 92.6953C62.9549 92.6952 63.0627 92.6899 63.17 92.6787C63.2621 92.6666 63.3531 92.6473 63.442 92.6201C63.5258 92.5995 63.6004 92.551 63.654 92.4834C63.7032 92.4149 63.7276 92.3323 63.723 92.248L63.73 92.2471ZM70.15 93.2812H69.326V90.4814H69.302L68.342 93.2812H67.612L66.618 90.4814H66.601V93.2812H65.76V89.4814H67.06L67.994 92.2002L68.92 89.4814H70.142L70.15 93.2812ZM75.738 93.2812H74.914V90.4814H74.897L73.937 93.2812H73.207L72.222 90.4814H72.197V93.2812H71.365V89.4814H72.665L73.599 92.2002L74.525 89.4814H75.739L75.738 93.2812ZM79.908 93.2812H76.942V89.4814H79.842V90.1357H77.862V91.002H79.642V91.6553H77.862V92.6309H79.9L79.908 93.2812ZM83.942 90.3613V91.0752C83.9588 91.2262 83.9327 91.3789 83.8665 91.5156C83.8003 91.6524 83.6969 91.7672 83.568 91.8477C83.1754 92.0082 82.7512 92.0768 82.328 92.0479H81.828V93.2773H80.919V89.4775H82.439C82.8323 89.4536 83.2262 89.514 83.594 89.6553C83.7137 89.7271 83.8096 89.8331 83.8699 89.959C83.9301 90.0849 83.9521 90.225 83.933 90.3633L83.942 90.3613ZM83.059 91.0498V90.4375C83.0627 90.3878 83.0508 90.3385 83.025 90.2959C82.9992 90.2532 82.9607 90.22 82.915 90.2002C82.7473 90.1494 82.5718 90.1288 82.397 90.1406H81.828V91.4287H82.405C82.5763 91.4439 82.7486 91.4143 82.905 91.3428C82.9547 91.3133 82.9949 91.2696 83.0206 91.2178C83.0463 91.166 83.0565 91.1083 83.05 91.0508L83.059 91.0498ZM84.927 89.4863H85.844V91.0078C85.836 91.0742 85.8433 91.141 85.8653 91.2041C85.8873 91.2672 85.9235 91.3251 85.971 91.3721C86.1324 91.4572 86.3156 91.4916 86.497 91.4717C86.7079 91.4847 86.9192 91.4532 87.117 91.3789C87.1773 91.3505 87.2275 91.3038 87.2609 91.2461C87.2943 91.1884 87.3093 91.1221 87.304 91.0557V89.4854H88.213V93.2861H87.304V91.6553C87.2901 91.735 87.2548 91.8098 87.202 91.8711C87.1492 91.9324 87.0808 91.9784 87.004 92.0039C86.7327 92.0753 86.4521 92.1042 86.172 92.0898C85.8369 92.1176 85.5015 92.041 85.212 91.8701C85.1125 91.7903 85.0341 91.6865 84.9837 91.5693C84.9333 91.4522 84.9125 91.3244 84.923 91.1973L84.927 89.4863ZM92.383 93.2871H89.419V89.4863H92.319V90.1406H90.328V91.0068H92.12V91.6611H90.328V92.6357H92.375L92.383 93.2871ZM96.298 93.2207C95.8927 93.3023 95.4804 93.3448 95.067 93.3477C94.914 93.3477 94.761 93.3381 94.625 93.3291C94.4693 93.3131 94.3156 93.2812 94.166 93.2354C94.0131 93.1999 93.8669 93.1404 93.733 93.0586C93.6081 92.9739 93.5036 92.8624 93.427 92.7324C93.3421 92.5868 93.3008 92.4204 93.308 92.252V90.5771C93.308 89.8151 93.894 89.4333 95.066 89.4326C95.4706 89.4442 95.8737 89.4863 96.272 89.5586V90.2471C95.8795 90.1477 95.4768 90.0936 95.072 90.0859C94.945 90.0859 94.834 90.0857 94.749 90.0947C94.6591 90.103 94.5706 90.1228 94.486 90.1543C94.4041 90.181 94.3337 90.2349 94.286 90.3066C94.2386 90.3863 94.215 90.4776 94.218 90.5703V92.1826C94.218 92.5226 94.532 92.7021 95.161 92.7021C95.5452 92.685 95.9266 92.6272 96.299 92.5312L96.298 93.2207ZM97.275 93.2871V89.4863H98.167V91.0078C98.2734 91.0117 98.3796 90.9972 98.481 90.9648C98.5541 90.9228 98.6132 90.8605 98.651 90.7852L99.059 90.125C99.1649 89.9203 99.316 89.742 99.501 89.6045C99.7176 89.5108 99.9535 89.4702 100.189 89.4863H100.605V90.1406H100.359C100.233 90.1287 100.105 90.143 99.985 90.1826C99.8949 90.2494 99.8222 90.3367 99.773 90.4375L99.535 90.8213C99.4828 90.9164 99.4152 91.0031 99.335 91.0762C99.2686 91.1326 99.1941 91.1785 99.114 91.2129C99.2594 91.2617 99.3906 91.3456 99.496 91.457C99.6761 91.6339 99.8358 91.8304 99.972 92.043L100.804 93.2822H99.743L99.021 92.1699C98.9263 91.9954 98.7925 91.8446 98.63 91.7305C98.4884 91.658 98.3297 91.6257 98.171 91.6367V93.2822L97.275 93.2871ZM105.054 93.2871H104.128L103.788 92.2871H102.404L102.073 93.2871H101.173L102.573 89.4863H103.685L105.054 93.2871ZM103.593 91.6816L103.109 90.2559H103.084L102.608 91.6816H103.593ZM106.625 93.2871H105.562L106.662 91.7246C106.085 91.6576 105.796 91.4184 105.796 91.0244V90.3535C105.788 90.223 105.817 90.0929 105.878 89.9775C105.939 89.8621 106.031 89.7666 106.144 89.7002C106.482 89.5356 106.856 89.4613 107.231 89.4863H108.942V93.2871H108.033V91.7871H107.608L106.625 93.2871ZM106.701 90.5098V90.7822C106.694 90.8427 106.702 90.9047 106.722 90.9619C106.743 91.0191 106.776 91.07 106.82 91.1123C106.957 91.18 107.11 91.2096 107.262 91.1982H108.043V90.1445H107.262C107.113 90.1327 106.964 90.1594 106.829 90.2217C106.782 90.2519 106.745 90.2947 106.72 90.3447C106.696 90.3948 106.686 90.4504 106.691 90.5059L106.701 90.5098ZM34.928 96.3271V97.9922C34.9315 98.1868 34.8719 98.3773 34.758 98.5352C34.6426 98.694 34.4829 98.815 34.299 98.8838C34.1155 98.9572 33.9248 99.0113 33.73 99.0449C33.5274 99.0713 33.3233 99.085 33.119 99.0859C32.9288 99.0888 32.7386 99.0776 32.55 99.0527C32.3562 99.0221 32.1658 98.9731 31.981 98.9072C31.7942 98.8401 31.6295 98.723 31.505 98.5684C31.3833 98.4011 31.3207 98.1989 31.327 97.9922V96.3271C31.3236 96.1464 31.3673 95.9673 31.454 95.8086C31.5336 95.6769 31.6407 95.564 31.768 95.4775C31.9064 95.3888 32.0584 95.3239 32.218 95.2842C32.3708 95.24 32.527 95.2079 32.685 95.1895C32.821 95.1805 32.965 95.1719 33.118 95.1719C33.271 95.1719 33.424 95.1805 33.56 95.1895C33.721 95.2077 33.8802 95.2399 34.036 95.2842C34.195 95.3255 34.3468 95.3903 34.486 95.4775C34.6152 95.5616 34.7228 95.6751 34.8 95.8086C34.8839 95.9669 34.9246 96.1442 34.918 96.3232L34.928 96.3271ZM34.019 97.9922V96.3184C34.024 96.2389 34.0048 96.1602 33.9639 96.0918C33.9231 96.0234 33.8624 95.9688 33.79 95.9355C33.5799 95.8513 33.354 95.8147 33.128 95.8271C32.899 95.8139 32.67 95.8506 32.457 95.9355C32.3854 95.9691 32.3257 96.0243 32.2862 96.0928C32.2467 96.1613 32.2292 96.2396 32.236 96.3184V97.9922C32.2328 98.0783 32.2597 98.162 32.312 98.2305C32.3689 98.2984 32.4466 98.3456 32.533 98.3652C32.6208 98.3964 32.7122 98.4171 32.805 98.4258C32.898 98.4338 33.005 98.4414 33.136 98.4414C33.267 98.4414 33.365 98.4338 33.459 98.4258C33.5518 98.4171 33.6432 98.3964 33.731 98.3652C33.8148 98.3454 33.8895 98.298 33.943 98.2305C33.9928 98.16 34.0165 98.0743 34.01 97.9883L34.019 97.9922ZM39.08 96.1055V96.8281C39.0962 96.9781 39.0697 97.1291 39.0035 97.2646C38.9373 97.4002 38.8342 97.5143 38.706 97.5938C38.3164 97.7539 37.8952 97.8225 37.475 97.7939H36.965V99.0234H36.056V95.2285H37.576C37.9694 95.2032 38.3635 95.2637 38.731 95.4062C38.849 95.4769 38.9439 95.5805 39.0043 95.7041C39.0646 95.8277 39.0878 95.9661 39.071 96.1025L39.08 96.1055ZM38.197 96.7939V96.1934C38.2035 96.1432 38.1939 96.0931 38.1694 96.0488C38.1449 96.0046 38.1069 95.9684 38.061 95.9473C37.8906 95.8962 37.7125 95.8764 37.535 95.8877H36.966V97.1709H37.542C37.7132 97.1841 37.885 97.1546 38.042 97.085C38.0917 97.0549 38.1319 97.0111 38.1577 96.959C38.1836 96.9069 38.1941 96.8488 38.188 96.791L38.197 96.7939ZM42.604 95.8848H41.024V99.0264H40.107V95.2314H42.595L42.604 95.8848ZM47.02 99.0264H46.094L45.754 98.0264H44.361L44.03 99.0264H43.13L44.53 95.2314H45.642L47.02 99.0264ZM45.559 97.4268L45.075 96.001H45.058L44.574 97.4268H45.559ZM51.274 99.0264H50.357V97.4053H48.734V99.0264H47.825V95.2314H48.734V96.7529H50.347V95.2314H51.264L51.274 99.0264ZM53.465 99.0264H52.48V95.2314H53.342V97.8818L55.066 95.2314H56.042V99.0264H55.176V96.335L53.465 99.0264ZM60.004 97.5566V98.1855C60.004 98.7855 59.504 99.0859 58.484 99.0859C58.0178 99.0867 57.5523 99.0527 57.091 98.9854V98.2861C57.5125 98.3778 57.9418 98.428 58.373 98.4375C58.5577 98.445 58.7422 98.4165 58.916 98.3535C59.035 98.2935 59.094 98.2178 59.094 98.1338V97.6914C59.098 97.6413 59.084 97.5915 59.0545 97.5508C59.025 97.5101 58.9819 97.4815 58.933 97.4697C58.7543 97.4153 58.5675 97.3923 58.381 97.4023H57.574V96.7568H58.381C58.5314 96.7661 58.6821 96.7429 58.823 96.6895C58.8655 96.6736 58.9018 96.6447 58.9263 96.6064C58.9508 96.5682 58.9623 96.5228 58.959 96.4775V96.1221C58.9618 96.0737 58.9494 96.0254 58.9236 95.9844C58.8978 95.9433 58.8598 95.911 58.815 95.8926C58.6408 95.832 58.4557 95.8097 58.272 95.8262C58.23 95.8262 57.856 95.8496 57.172 95.8926V95.2305C57.698 95.1885 58.106 95.1709 58.372 95.1709C58.7453 95.1581 59.1178 95.2124 59.472 95.3311C59.5896 95.3756 59.6899 95.4562 59.7586 95.5615C59.8273 95.6669 59.8607 95.7914 59.854 95.917V96.5469C59.8558 96.5999 59.8469 96.6525 59.828 96.7021C59.8092 96.7518 59.7806 96.7975 59.744 96.8359C59.6688 96.9077 59.5791 96.9627 59.481 96.9971C59.816 97.1211 59.995 97.3077 59.995 97.5537L60.004 97.5566ZM64.666 99.0264H63.74L63.4 98.0264H62.007L61.667 99.0264H60.767L62.177 95.2314H63.277L64.666 99.0264ZM63.197 97.4268L62.721 96.001H62.696L62.22 97.4268H63.197ZM68.003 100.008V99.0303H65.463V95.2354H66.38V98.3867H67.993V95.2354H68.902V100.007L68.003 100.008ZM71.111 99.0303H70.126V95.2354H71.001V97.8857L72.716 95.2354H73.701V99.0303H72.826V96.3389L71.111 99.0303ZM75.671 99.0303H74.609L75.709 97.4688C75.132 97.4018 74.843 97.1684 74.843 96.7744V96.1025C74.8349 95.9722 74.8632 95.8418 74.9246 95.7266C74.986 95.6113 75.0783 95.5162 75.191 95.4502C75.5283 95.2847 75.9032 95.2104 76.278 95.2363H77.985V99.0312H77.076V97.5479H76.651L75.671 99.0303ZM75.747 96.2559V96.5264C75.7403 96.587 75.7475 96.6487 75.7682 96.7061C75.7888 96.7634 75.8222 96.815 75.866 96.8574C75.9999 96.9247 76.1495 96.9543 76.299 96.9434H77.089V95.8896H76.299C76.1531 95.879 76.0069 95.9056 75.874 95.9668C75.8295 95.9981 75.7938 96.0406 75.7707 96.0898C75.7476 96.1391 75.7376 96.1938 75.742 96.248L75.747 96.2559Z" fill="#00633D"/>
<defs>
<linearGradient id="paint0_linear" x1="65.8325" y1="29.9252" x2="47.8447" y2="41.2152" gradientUnits="userSpaceOnUse">
<stop stop-color="#9CBAD6"/>
<stop offset="0.439" stop-color="#73C231"/>
<stop offset="1" stop-color="#02517A"/>
</linearGradient>
</defs>
</svg>
