<svg width="130" height="22" viewBox="0 0 130 22" fill="none" xmlns="http://www.w3.org/2000/svg">
<path d="M33.3595 2.35631V3.10529H39.7828C40.0487 3.07478 40.318 3.09693 40.5753 3.1705C40.8327 3.24406 41.073 3.3676 41.2826 3.53404C41.6183 3.95749 41.7722 4.49692 41.7104 5.03378V11.4571C41.7722 11.9939 41.6183 12.5334 41.2826 12.9568C40.8591 13.2926 40.3197 13.4465 39.7828 13.3847H36.6784C36.1429 13.3847 35.4433 13.3847 35.1787 12.7962C35.0986 12.5232 35.0963 12.2333 35.1719 11.9591C35.2474 11.6848 35.3979 11.437 35.6065 11.2436L39.782 5.6769H33.3595L30.7906 9.10248C30.3403 9.56867 30.0579 10.1714 29.9878 10.8157C30.0532 11.4613 30.3363 12.0655 30.7906 12.5289L31.4328 13.3856C31.9767 14.251 32.7085 14.9828 33.5739 15.5266C34.6154 15.9152 35.7316 16.0615 36.8381 15.9545H39.6214C41.227 15.9545 43.6363 15.9545 45.2419 14.3489C46.8475 12.7433 46.8475 10.3878 46.8475 9.53123V6.95962C46.8475 6.103 46.8475 3.74753 45.2419 2.14193C43.6363 0.53633 41.2279 0.53633 39.6223 0.53633H35.1795C34.9304 0.506609 34.6778 0.529405 34.4381 0.603251C34.1983 0.677096 33.9766 0.800353 33.7874 0.965079C33.623 1.15431 33.5 1.37584 33.4263 1.61543C33.3526 1.85503 33.3299 2.10739 33.3595 2.35631Z" fill="#C4151C"/>
<path d="M25.6521 5.67505H32.0754L24.3676 15.9527H17.9443L25.653 5.67505" fill="#C4151C"/>
<path d="M0.599141 7.49508C0.569356 7.24603 0.592038 6.9935 0.665728 6.75375C0.739418 6.51399 0.862484 6.29231 1.02701 6.10298C1.21634 5.93845 1.43802 5.81539 1.67777 5.7417C1.91753 5.66801 2.17006 5.64532 2.41912 5.67511H13.1819C14.2884 5.56812 15.4046 5.71444 16.4461 6.10298C17.3106 6.64623 18.0418 7.37711 18.5854 8.24143L19.2276 9.09804C19.6819 9.56151 19.965 10.1657 20.0304 10.8113C19.9603 11.4556 19.6779 12.0583 19.2276 12.5245L16.6552 15.9527H10.2345L14.41 10.3861C14.6185 10.1926 14.769 9.94481 14.8446 9.67054C14.9202 9.39628 14.9178 9.10638 14.8378 8.83338C14.5732 8.24496 13.8745 8.24496 13.3381 8.24496H8.30956V21.0915H3.16899V8.24143H0.599141V7.49156" fill="#C4151C"/>
<path d="M52.9522 14.1029C52.5667 14.6269 52.1732 15.1439 51.7886 15.6599V15.9528H52.8763C53.4056 15.2471 53.6862 14.8739 53.6862 14.4531H54.7501V15.9528H55.7673V14.4531H56.8312C56.8312 14.8774 57.1091 15.2471 57.6402 15.9528H58.7271V15.6599L57.552 14.1029C58.5383 13.3627 58.5383 13.3627 58.5383 12.3914V12.0676H57.4285V12.3914C57.4285 13.5709 57.4285 13.5709 56.2719 13.5709H55.7629V12.0712H54.7457V13.5709H54.2367C53.0801 13.5709 53.0801 13.5709 53.0801 12.3914V12.0676H51.9703V12.3914C51.9703 13.3618 51.9703 13.3618 52.9496 14.1029" fill="#001C2A"/>
<path fill-rule="evenodd" clip-rule="evenodd" d="M60.6529 13.6643C60.6529 12.8086 60.6529 12.8086 61.6013 12.8086C62.5496 12.8086 62.5496 12.8086 62.5496 13.6643H60.6538H60.6529ZM60.6538 14.3577H61.6021C62.1427 14.3884 62.685 14.3651 63.221 14.2881L63.6136 14.1998V13.8223C63.6136 13.1827 63.6135 11.9802 61.7865 11.9802H61.4169C59.5898 11.9802 59.5898 13.1827 59.5898 13.8328V14.2034C59.5898 14.8968 59.6048 16.056 61.6189 16.056C62.1975 16.0653 62.775 16.0031 63.3383 15.8707V15.0379H63.1301L62.39 15.2232H61.6039C60.6529 15.2144 60.6529 15.2144 60.6529 14.3577H60.6538Z" fill="#001C2A"/>
<path d="M65.3313 12.0676C65.3751 13.3328 65.0369 14.5818 64.3608 15.652V15.9528H65.4936C66.039 15.0422 66.2743 13.9791 66.1641 12.9234H67.7599V15.9528H68.7771V12.0712H65.3313" fill="#001C2A"/>
<path fill-rule="evenodd" clip-rule="evenodd" d="M71.1205 13.6643C71.1205 12.8086 71.1205 12.8086 72.0688 12.8086C73.0172 12.8086 73.0172 12.8086 73.0172 13.6643H71.1205ZM71.1205 14.3577H72.0688C72.6094 14.3884 73.1517 14.3651 73.6877 14.2881L74.0803 14.1998V13.8223C74.0803 13.1827 74.0802 11.9802 72.2532 11.9802H71.8827C70.0556 11.9802 70.0557 13.1827 70.0557 13.8328V14.2034C70.0557 14.8968 70.0707 16.056 72.0847 16.056C72.6633 16.0653 73.2408 16.0031 73.8041 15.8707V15.0379H73.5959L72.8558 15.2232H72.0697C71.1205 15.2144 71.1205 15.2144 71.1205 14.3577Z" fill="#001C2A"/>
<path d="M77.819 14.0684V13.9529C78.605 13.7526 78.605 13.2665 78.605 13.0821C78.605 12.7116 78.605 11.9723 76.7321 11.9723C76.1717 11.9646 75.6124 12.0269 75.0674 12.1576V12.9904H75.2756L76.0158 12.8051H76.8715C77.4652 12.8051 77.4961 12.8051 77.4961 13.2365C77.4961 13.6679 77.4961 13.6608 76.8715 13.6608H76.0158V14.3542H76.8715C77.4652 14.3542 77.4961 14.3542 77.4961 14.7786C77.4961 15.2029 77.4961 15.21 76.8715 15.21H76.0158L75.2756 15.0247H75.0674V15.8575C75.6124 15.9881 76.1717 16.0504 76.7321 16.0428C78.598 16.0428 78.605 15.3026 78.605 14.933C78.605 14.7477 78.605 14.2625 77.819 14.0693" fill="#001C2A"/>
<path d="M82.8366 12.0686V13.5683H80.8014V12.0686H79.7842V15.9503H80.8014V14.4505H82.8366V15.9503H83.8537V12.0686H82.8366Z" fill="#001C2A"/>
<path fill-rule="evenodd" clip-rule="evenodd" d="M87.0688 14.0102C87.8786 14.0102 87.8786 14.0102 87.8786 14.6119C87.8786 15.2135 87.8786 15.2135 87.0688 15.2135H86.2598V14.0102H87.0688ZM90.699 12.0694H89.6818V15.9511H90.699V12.0694ZM87.2073 15.9511C88.4326 15.9511 88.9417 15.6811 88.9417 14.6331C88.9417 14.0552 88.9416 13.2215 87.3458 13.2215C86.9792 13.2241 86.6143 13.2706 86.2589 13.36V12.0676H85.2417V15.9493L87.2073 15.9511Z" fill="#001C2A"/>
<path fill-rule="evenodd" clip-rule="evenodd" d="M92.9961 13.6643C92.9961 12.8086 92.996 12.8086 93.9444 12.8086C94.8927 12.8086 94.8927 12.8086 94.8927 13.6643H92.9961ZM92.9961 14.3577H93.9444C94.485 14.3884 95.0273 14.3651 95.5632 14.2881L95.9558 14.1998V13.8223C95.9558 13.1827 95.9558 11.9802 94.1288 11.9802H93.7591C91.9321 11.9802 91.9321 13.1827 91.9321 13.8328V14.2034C91.9321 14.8968 91.9471 16.056 93.9612 16.056C94.5398 16.0653 95.1172 16.0031 95.6806 15.8707V15.0379H95.4724L94.7322 15.2232H93.9462C92.996 15.2144 92.9961 15.2144 92.9961 14.3577Z" fill="#001C2A"/>
<path fill-rule="evenodd" clip-rule="evenodd" d="M100.196 13.8716C100.196 12.8306 100.196 12.8544 101.576 12.8544C101.827 12.8566 102.078 12.8862 102.324 12.9427V14.6074L101.337 14.8535C100.197 14.8535 100.197 14.8535 100.197 13.8672L100.196 13.8716ZM99.5959 16.55V17.4322C100.11 17.5595 100.638 17.6217 101.168 17.6174C103.264 17.6174 103.334 16.7079 103.342 15.6766V12.0675H103.009L102.516 12.4372C102.177 11.9961 101.352 11.9819 101.09 11.9819C99.1319 11.9819 99.1318 13.217 99.1318 13.7781V13.9634C99.1318 14.6109 99.1319 15.6748 100.797 15.6748C101.341 15.6824 101.874 15.5209 102.323 15.2125V15.5363C102.323 16.7308 102.3 16.7388 101.074 16.7388H100.545L99.805 16.5535H99.5968L99.5959 16.55Z" fill="#001C2A"/>
<path fill-rule="evenodd" clip-rule="evenodd" d="M106.431 11.9758C104.466 11.9758 104.466 13.1324 104.466 13.8284V14.1981C104.466 14.8915 104.466 16.0507 106.431 16.0507H106.801C108.767 16.0507 108.767 14.8941 108.767 14.1981V13.8284C108.767 13.135 108.767 11.9758 106.801 11.9758H106.431ZM106.617 12.8316C107.703 12.8316 107.703 12.8316 107.703 14.0111C107.703 15.1906 107.703 15.1906 106.617 15.1906C105.53 15.1906 105.53 15.1906 105.53 14.0111C105.53 12.8316 105.53 12.8333 106.617 12.8333V12.8316Z" fill="#001C2A"/>
<path fill-rule="evenodd" clip-rule="evenodd" d="M113.037 14.011C113.037 15.1676 113.037 15.1676 111.905 15.1676C111.571 15.1805 111.237 15.1508 110.91 15.0794V13.1385L111.897 12.8924C113.038 12.8924 113.038 12.9074 113.038 14.0181L113.037 14.011ZM109.893 12.0773V17.5345H110.91V15.8381C111.361 15.9706 111.828 16.0407 112.298 16.0463C112.548 16.0825 112.802 16.0592 113.041 15.9781C113.28 15.897 113.496 15.7605 113.672 15.5798C113.848 15.3991 113.979 15.1793 114.054 14.9384C114.128 14.6974 114.145 14.4422 114.102 14.1936V13.8231C114.102 13.1756 114.102 11.9705 112.414 11.9705C111.815 11.9667 111.234 12.1741 110.773 12.5563L110.403 12.0631L109.893 12.0773Z" fill="#001C2A"/>
<path fill-rule="evenodd" clip-rule="evenodd" d="M117.161 11.9758C115.196 11.9758 115.196 13.1324 115.196 13.8284V14.1981C115.196 14.8915 115.196 16.0507 117.161 16.0507H117.531C119.496 16.0507 119.497 14.8941 119.497 14.1981V13.8284C119.497 13.135 119.496 11.9758 117.531 11.9758H117.161ZM117.347 12.8316C118.433 12.8316 118.433 12.8316 118.433 14.0111C118.433 15.1906 118.433 15.1906 117.347 15.1906C116.26 15.1906 116.26 15.1906 116.26 14.0111C116.26 12.8316 116.26 12.8333 117.345 12.8333L117.347 12.8316Z" fill="#001C2A"/>
<path d="M122.434 11.9759C121.896 11.9648 121.359 12.0271 120.838 12.1611V12.9939H121.046L121.786 12.8087H122.734C123.243 12.8087 123.243 12.8087 123.243 13.1016C123.243 13.3018 123.243 13.3662 122.851 13.4333L121.925 13.6644C121.396 13.795 120.653 13.9961 120.653 14.7971C120.653 15.3265 120.653 16.0454 122.526 16.0454C123.064 16.0564 123.601 15.9941 124.122 15.8602V15.0274H123.909C123.602 15.1156 123.309 15.1818 123.193 15.2127H122.223C121.714 15.2127 121.714 15.2127 121.714 14.9198C121.714 14.7433 121.714 14.7036 121.93 14.6428L122.446 14.5043L123.032 14.3578C123.561 14.2272 124.304 14.034 124.304 13.2251C124.304 12.6957 124.304 11.9759 122.431 11.9759" fill="#001C2A"/>
<path d="M129.063 16.0614L129.818 15.4986C129.541 15.129 129.541 15.1289 129.541 14.4735V12.0686H128.524V14.8916L127.537 15.1387C126.489 15.1387 126.489 15.1387 126.489 14.0677V12.0686H125.472V14.2194C125.472 14.9825 125.472 16.0464 127.021 16.0464C127.602 16.0414 128.163 15.8343 128.609 15.4607L129.064 16.0623" fill="#001C2A"/>
<path fill-rule="evenodd" clip-rule="evenodd" d="M51.9854 2.78784V8.24512H53.0952V6.74538H53.9774C55.4771 6.74538 56.6601 6.74539 56.6601 4.77191C56.6601 2.79843 55.4806 2.79137 53.9774 2.79137H51.9854V2.78784ZM53.0952 5.77408V3.75914H54.4361C55.4304 3.75914 55.4771 3.75914 55.4771 4.76926C55.4771 5.7485 55.4771 5.77144 54.4361 5.77144L53.0952 5.77408Z" fill="#001C2A"/>
<path fill-rule="evenodd" clip-rule="evenodd" d="M59.4729 4.26709C57.5073 4.26709 57.5073 5.42365 57.5073 6.11971V6.48935C57.5073 7.18276 57.5073 8.34196 59.4729 8.34196H59.8425C61.808 8.34196 61.808 7.1854 61.808 6.48935V6.11971C61.808 5.4263 61.808 4.26709 59.8425 4.26709H59.4729ZM59.6581 5.12282C60.745 5.12282 60.745 5.12282 60.745 6.30232C60.745 7.48182 60.745 7.48182 59.6581 7.48182C58.5712 7.48182 58.5713 7.48182 58.5713 6.30232C58.5713 5.12282 58.5712 5.12282 59.6581 5.12282Z" fill="#001C2A"/>
<path d="M64.8374 8.33751C65.4209 8.34607 66.0033 8.28386 66.5718 8.15225V7.31681H66.3636L65.6155 7.50207H65.1744C63.8873 7.50207 63.8873 7.50207 63.8873 6.29964C63.8873 5.0972 63.8873 5.0972 64.8356 5.0972C65.6375 5.0972 65.6376 5.0972 65.8299 5.8603L66.7553 5.62917C66.7553 5.25953 66.7553 4.2644 65.0209 4.2644H64.6513C62.8242 4.2644 62.8242 5.42097 62.8242 6.11702V6.48755C62.8242 7.18095 62.8242 8.34016 64.8365 8.34016" fill="#001C2A"/>
<path d="M69.7246 8.33751C70.3081 8.34606 70.8905 8.28386 71.459 8.15225V7.31681H71.2508L70.5036 7.50207H70.0625C68.7753 7.50207 68.7754 7.50207 68.7754 6.29964C68.7754 5.0972 68.7754 5.0972 69.7237 5.0972C70.5256 5.0972 70.5256 5.0972 70.7179 5.8603L71.6425 5.62917C71.6425 5.25953 71.6425 4.2644 69.9081 4.2644H69.5384C67.7114 4.2644 67.7114 5.42097 67.7114 6.11702V6.48755C67.7114 7.18095 67.7114 8.34016 69.7237 8.34016" fill="#001C2A"/>
<path d="M76.2759 8.35269L77.031 7.78985C76.754 7.42021 76.7541 7.42021 76.7541 6.76474V4.35986H75.736V7.1829L74.7488 7.42903C73.7008 7.42903 73.7008 7.42903 73.7008 6.35804V4.35986H72.6836V6.51066C72.6836 7.27377 72.6836 8.3377 74.2327 8.3377C74.814 8.33277 75.3755 8.12566 75.8207 7.75192L76.2759 8.35358" fill="#001C2A"/>
<path fill-rule="evenodd" clip-rule="evenodd" d="M79.8525 2.97223C79.3514 2.97223 79.3514 2.97223 79.1043 2.69434L78.6571 3.04104C78.8009 3.28596 79.0157 3.4813 79.2733 3.60107C79.5308 3.72084 79.8187 3.75936 80.0986 3.71151H80.268C80.5468 3.75917 80.8335 3.7205 81.0897 3.60067C81.3459 3.48084 81.5594 3.28558 81.7016 3.04104L81.2543 2.69434C81.0152 2.97223 81.0152 2.97223 80.5071 2.97223H79.8516H79.8525ZM81.7324 8.35364L82.4876 7.7908C82.2097 7.42115 82.2097 7.42116 82.2097 6.76568V4.35904H81.1925V7.18208L80.2053 7.42821C79.1802 7.42821 79.1573 7.42821 79.1573 6.35722V4.35904H78.1401V6.50984C78.1401 7.27295 78.1401 8.33688 79.6893 8.33688C80.2705 8.33195 80.832 8.12484 81.2772 7.7511L81.7324 8.35364Z" fill="#001C2A"/>
<path d="M85.5259 8.33751C86.1094 8.34609 86.6917 8.28388 87.2603 8.15225V7.31681H87.052L86.3048 7.50207H85.8637C84.5766 7.50207 84.5766 7.50207 84.5766 6.29964C84.5766 5.0972 84.5766 5.0972 85.525 5.0972C86.3269 5.0972 86.3269 5.0972 86.5192 5.8603L87.4438 5.62917C87.4438 5.25953 87.4438 4.2644 85.7094 4.2644H85.3397C83.5127 4.2644 83.5127 5.42097 83.5127 6.11702V6.48755C83.5127 7.18095 83.5127 8.34016 85.525 8.34016" fill="#001C2A"/>
<path d="M88.5859 4.35973V8.2414H89.6031V6.74167H90.8523C90.8523 7.166 91.1302 7.53564 91.6612 8.2414H92.7481V7.94851L91.5766 6.39143C92.5628 5.65127 92.5629 5.65127 92.5629 4.67997V4.3562H91.4531V4.67997C91.4531 5.85947 91.4531 5.85947 90.2965 5.85947H89.6031V4.35973H88.5859Z" fill="#001C2A"/>
<path d="M97.3674 8.35269L98.1225 7.78985C97.8455 7.42021 97.8456 7.42021 97.8456 6.76474V4.35986H96.8284V7.1829L95.8421 7.42903C94.794 7.42903 94.794 7.42903 94.794 6.35804V4.35986H93.7769V6.51066C93.7769 7.27377 93.7768 8.3377 95.326 8.3377C95.9073 8.33277 96.4687 8.12566 96.9139 7.75192L97.3691 8.35358" fill="#001C2A"/>
<path fill-rule="evenodd" clip-rule="evenodd" d="M100.133 5.95487C100.133 5.09914 100.133 5.09914 101.082 5.09914C102.03 5.09914 102.03 5.09914 102.03 5.95487H100.133ZM100.133 6.64828H101.077C101.618 6.67896 102.16 6.65561 102.696 6.57858L103.089 6.49036V6.11278C103.089 5.47231 103.089 4.27075 101.262 4.27075H100.892C99.0649 4.27075 99.0649 5.47319 99.0649 6.12337V6.49389C99.0649 7.1873 99.0799 8.34651 101.094 8.34651C101.673 8.35589 102.25 8.29366 102.813 8.16125V7.3161H102.605L101.865 7.50136H101.077C100.133 7.50489 100.133 7.50489 100.133 6.64916V6.64828Z" fill="#001C2A"/>
</svg>
