<svg width="111" height="35" viewBox="0 0 111 35" fill="none" xmlns="http://www.w3.org/2000/svg">
<path d="M30.7039 16.348V4.81506H19.2354L23.7011 0.349365H35.2014V11.8506L30.7039 16.348Z" fill="#141006"/>
<path d="M0.966797 11.8498V0.348633H12.4671L16.9328 4.81433H5.46427V16.3482L0.966797 11.8498Z" fill="#141006"/>
<path d="M45.6455 34.4508V20.7979H52.0326C52.6263 20.7727 53.2189 20.8678 53.7748 21.0776C54.3308 21.2874 54.8384 21.6076 55.2674 22.0187C55.6964 22.4298 56.0377 22.9235 56.2709 23.47C56.5041 24.0165 56.6243 24.6046 56.6243 25.1988C56.6243 25.793 56.5041 26.381 56.2709 26.9275C56.0377 27.4741 55.6964 27.9677 55.2674 28.3789C54.8384 28.79 54.3308 29.1101 53.7748 29.3199C53.2189 29.5297 52.6263 29.6248 52.0326 29.5996H48.5531V34.4517L45.6455 34.4508ZM53.6497 25.1984C53.6525 24.9415 53.6012 24.6869 53.4991 24.4511C53.3971 24.2154 53.2464 24.0038 53.0572 23.83C52.868 23.6563 52.6445 23.5244 52.4009 23.4427C52.1573 23.3611 51.8993 23.3317 51.6436 23.3563H48.5559V27.0413H51.6436C51.899 27.0642 52.1561 27.0336 52.399 26.9514C52.6418 26.8692 52.8649 26.7371 53.0537 26.5637C53.2426 26.3902 53.3931 26.1793 53.4957 25.9444C53.5983 25.7094 53.6508 25.4556 53.6497 25.1992" fill="#001C2A"/>
<path d="M57.7246 29.4974C57.7187 28.4614 58.0205 27.4469 58.592 26.5827C59.1634 25.7186 59.9788 25.0436 60.9344 24.6435C61.8901 24.2434 62.9432 24.1362 63.9599 24.3354C64.9766 24.5347 65.9113 25.0314 66.6453 25.7626C67.3792 26.4939 67.8794 27.4266 68.0825 28.4426C68.2855 29.4586 68.1822 30.512 67.7857 31.4691C67.3891 32.4263 66.7171 33.2441 65.855 33.8188C64.993 34.3935 63.9798 34.6992 62.9437 34.6971C62.252 34.727 61.5616 34.6132 60.9161 34.3628C60.2707 34.1123 59.6842 33.7307 59.1937 33.242C58.7032 32.7534 58.3193 32.1683 58.0664 31.5237C57.8136 30.8792 57.6973 30.1893 57.7246 29.4974ZM65.4818 29.4974C65.5171 29.1398 65.4781 28.7787 65.3674 28.4369C65.2567 28.095 65.0765 27.7797 64.8382 27.5107C64.5999 27.2417 64.3087 27.0248 63.9827 26.8736C63.6567 26.7224 63.303 26.6402 62.9437 26.6321C61.3266 26.6321 60.4259 27.9624 60.4259 29.4974C60.4259 31.0528 61.3266 32.384 62.9437 32.384C64.5608 32.384 65.4818 31.0528 65.4818 29.4974Z" fill="#001C2A"/>
<path d="M69.8794 29.4974C69.8561 28.8059 69.9763 28.117 70.2321 27.4742C70.488 26.8313 70.8742 26.2484 71.3663 25.762C71.8584 25.2756 72.4457 24.8963 73.0915 24.648C73.7373 24.3996 74.4275 24.2876 75.1187 24.3189C75.8659 24.2752 76.6126 24.4146 77.2938 24.7248C77.975 25.035 78.5703 25.5068 79.0279 26.0991L77.3287 27.6959C77.1011 27.3546 76.7896 27.0774 76.4241 26.8909C76.0586 26.7045 75.6514 26.615 75.2415 26.6311C74.5135 26.6821 73.8319 27.0073 73.3343 27.5411C72.8366 28.0748 72.56 28.7773 72.56 29.5071C72.56 30.2368 72.8366 30.9394 73.3343 31.4731C73.8319 32.0068 74.5135 32.332 75.2415 32.383C75.6499 32.3901 76.0537 32.2968 76.4177 32.1113C76.7816 31.9258 77.0945 31.6538 77.3287 31.3191L79.0279 32.8956C78.5751 33.4946 77.9814 33.9726 77.2994 34.2869C76.6175 34.6012 75.8682 34.742 75.1187 34.697C74.4259 34.7277 73.7341 34.6146 73.0872 34.3646C72.4403 34.1147 71.8523 33.7335 71.3601 33.2449C70.8678 32.7564 70.482 32.1712 70.2272 31.5262C69.9724 30.8812 69.8539 30.1904 69.8794 29.4974Z" fill="#001C2A"/>
<path d="M83.368 34.4507V26.8365H80.604V24.564H88.7501V26.8365H85.9872V34.4507H83.368Z" fill="#001C2A"/>
<path d="M89.7535 29.4974C89.7331 28.8171 89.8509 28.1397 90.1 27.5062C90.3491 26.8728 90.7244 26.2965 91.2028 25.8123C91.6812 25.3281 92.2528 24.9461 92.8832 24.6894C93.5136 24.4327 94.1895 24.3067 94.8701 24.3189C97.8175 24.3189 99.8236 26.5297 99.8236 29.7639V30.3373H92.475C92.5675 31.0103 92.9135 31.6225 93.4423 32.0488C93.9711 32.4752 94.6427 32.6834 95.32 32.631C96.2868 32.616 97.2192 32.269 97.9606 31.6482L99.1072 33.3244C97.9582 34.2558 96.5125 34.7428 95.0342 34.6962C94.3375 34.7349 93.6406 34.6276 92.9878 34.3811C92.3351 34.1346 91.7411 33.7544 91.2439 33.2649C90.7467 32.7754 90.3571 32.1874 90.1005 31.5386C89.8438 30.8899 89.7257 30.1946 89.7535 29.4974ZM94.8701 26.3859C94.2607 26.3689 93.6681 26.5868 93.2149 26.9945C92.7616 27.4023 92.4825 27.9686 92.4352 28.5764H97.3058C97.2927 28.2716 97.219 27.9726 97.0889 27.6967C96.9588 27.4208 96.7749 27.1736 96.5481 26.9696C96.3213 26.7656 96.0561 26.6089 95.768 26.5087C95.4799 26.4085 95.1745 26.3668 94.8701 26.3859Z" fill="#001C2A"/>
<path d="M107.827 34.4507L105.576 31.1143L103.304 34.4507H100.417L103.917 29.3737L100.622 24.564H103.526L105.573 27.6137L107.602 24.564H110.509L107.193 29.3737L110.734 34.4507H107.827Z" fill="#001C2A"/>
<path d="M35.2025 34.5841H23.7039L19.2373 30.1184H30.7059V18.6013L35.2051 23.1005L35.2025 34.5841Z" fill="#141006"/>
<path d="M0.966309 23.0995L5.4655 18.6003V30.1174H16.9341L12.4675 34.5831H0.968893L0.966309 23.0995Z" fill="#141006"/>
</svg>
