<svg width="82" height="40" viewBox="0 0 82 40" fill="none" xmlns="http://www.w3.org/2000/svg">
<path d="M25.7515 25.6143H30.8885V27.2905H28.4448V39.0837H25.7515V25.6125" fill="#0079C2"/>
<path d="M33.9338 34.029L34.3952 27.2935H34.5496L35.011 34.029H33.9338ZM30.9511 39.0867H33.588L33.8376 35.5094H35.1071L35.3577 39.0867H37.9937L36.5892 25.6155H32.3547L30.9502 39.0867" fill="#0079C2"/>
<path d="M41.8515 34.3712V36.911C41.8477 36.9681 41.8558 37.0254 41.8752 37.0792C41.8947 37.1331 41.9252 37.1822 41.9646 37.2237C42.0041 37.2652 42.0517 37.298 42.1045 37.3201C42.1573 37.3422 42.2142 37.3531 42.2714 37.3521C42.3287 37.3518 42.3854 37.3401 42.4382 37.3177C42.491 37.2952 42.5388 37.2625 42.5788 37.2215C42.6189 37.1805 42.6504 37.1319 42.6715 37.0786C42.6926 37.0253 42.703 36.9684 42.7019 36.911V33.7748C42.7019 33.3549 42.6243 32.8926 41.6195 32.8926H40.5264V31.4158H41.6636C42.4258 31.4158 42.7019 31.2394 42.7019 30.411V27.7388C42.703 27.6815 42.6926 27.6245 42.6715 27.5712C42.6504 27.5179 42.6189 27.4693 42.5788 27.4283C42.5388 27.3873 42.491 27.3546 42.4382 27.3322C42.3854 27.3098 42.3287 27.298 42.2714 27.2977C42.2139 27.2956 42.1565 27.3058 42.1032 27.3275C42.0499 27.3492 42.0018 27.382 41.9621 27.4237C41.9224 27.4654 41.892 27.5151 41.873 27.5694C41.8539 27.6237 41.8466 27.6814 41.8515 27.7388V29.9364H39.1572V28.0264C39.1572 27.0878 39.2675 25.6189 41.1563 25.6189H43.3865C45.2744 25.6189 45.3961 27.0878 45.3961 28.0264V30.1798C45.4234 30.4272 45.3947 30.6776 45.3123 30.9124C45.2298 31.1472 45.0956 31.3605 44.9196 31.5365C44.7436 31.7125 44.5303 31.8467 44.2955 31.9292C44.0607 32.0117 43.8103 32.0403 43.5629 32.0131V32.1454C43.8116 32.1065 44.0658 32.1266 44.3052 32.2042C44.5446 32.2818 44.7624 32.4146 44.9409 32.592C45.1194 32.7694 45.2536 32.9863 45.3327 33.2252C45.4118 33.4641 45.4335 33.7183 45.3961 33.9672V36.6834C45.3961 37.6327 45.2744 39.0909 43.3865 39.0909H41.1563C39.2684 39.0909 39.1572 37.6336 39.1572 36.6834V34.3712H41.8515Z" fill="#0079C2"/>
<path d="M47.1626 25.6145H53.4015V39.0856H50.7073V27.2933H49.8568V39.0866H47.1626V25.6154" fill="#0079C2"/>
<path d="M57.8617 33.024V27.2897H58.2146C58.5013 27.2897 58.7113 27.5323 58.7113 27.9637V32.3474C58.7113 32.7779 58.5013 33.0205 58.2146 33.0205L57.8617 33.024ZM55.1675 39.0865H57.8617V34.5035H59.4073C61.2846 34.5035 61.4055 33.0461 61.4055 32.0959V28.021C61.4055 27.0824 61.2838 25.6135 59.4073 25.6135H55.1675V39.0847" fill="#0079C2"/>
<path d="M66.718 36.911C66.7191 36.9684 66.7087 37.0253 66.6876 37.0786C66.6665 37.1319 66.635 37.1805 66.5949 37.2215C66.5549 37.2626 66.5071 37.2953 66.4543 37.3177C66.4015 37.3401 66.3449 37.3518 66.2875 37.3521C66.2303 37.3531 66.1735 37.3422 66.1207 37.3201C66.0679 37.298 66.0202 37.2652 65.9808 37.2237C65.9413 37.1823 65.9109 37.1331 65.8914 37.0793C65.8719 37.0254 65.8638 36.9682 65.8676 36.911V27.7362C65.8627 27.6788 65.87 27.6211 65.8891 27.5668C65.9081 27.5124 65.9385 27.4628 65.9782 27.4211C66.0179 27.3794 66.066 27.3466 66.1193 27.3249C66.1726 27.3032 66.23 27.293 66.2875 27.2951C66.3449 27.2954 66.4015 27.3072 66.4543 27.3296C66.5071 27.352 66.5549 27.3847 66.5949 27.4257C66.635 27.4667 66.6665 27.5153 66.6876 27.5686C66.7087 27.6219 66.7191 27.6788 66.718 27.7362V36.911ZM63.1733 36.679C63.1733 37.6283 63.2951 39.0866 65.1724 39.0866H67.4141C69.2914 39.0866 69.4131 37.6292 69.4131 36.679V28.022C69.4131 27.0834 69.2914 25.6145 67.4141 25.6145H65.1724C63.2951 25.6145 63.1733 27.0834 63.1733 28.022V36.679Z" fill="#0079C2"/>
<path d="M78.1797 25.6145H81.6909V39.0856H78.9966V30.6395H78.897L77.5057 39.0866H75.3523L73.9717 30.6395H73.8719V39.0866H71.1777V25.6154H74.6783L76.4339 35.0893L78.1788 25.6154" fill="#0079C2"/>
<path d="M22.2595 7.19579C21.6091 4.69077 20.535 2.31547 19.0836 0.172607C17.8235 2.07221 16.835 4.13861 16.1468 6.31184C15.3094 9.18434 15.0598 12.1962 15.4128 15.1673C15.6832 17.1161 16.1868 19.0253 16.9126 20.854C17.493 22.2379 18.2262 23.5525 19.0986 24.7736C21.0109 22.0305 22.25 18.8755 22.7156 15.5643C23.1317 12.7727 22.9765 9.92566 22.2595 7.19579ZM19.0836 23.8693C18.3713 22.4897 17.9964 20.9607 17.9897 19.4081C17.9899 17.867 18.3702 16.3498 19.0969 14.9909C19.7564 16.306 20.1198 17.7496 20.1617 19.2202C20.2034 20.8364 19.832 22.4366 19.0828 23.8693H19.0836ZM22.0205 13.3244C22.0027 14.5713 21.8672 15.8136 21.6155 17.035C21.6682 15.268 21.5175 13.5008 21.1665 11.7682C20.7225 9.79143 20.017 7.88259 19.0686 6.09215C18.131 7.88019 17.4356 9.78515 17.0008 11.7568C16.6626 13.5103 16.5022 15.2934 16.5217 17.0791C16.238 15.3757 16.1221 13.6486 16.1759 11.9226C16.2636 10.3403 16.5149 8.77132 16.9258 7.24078C17.4479 5.45529 18.1666 3.73328 19.0686 2.10637C19.9923 3.70318 20.7217 5.40468 21.2415 7.17463C21.7839 9.17907 22.0464 11.2489 22.0214 13.3253" fill="#0079C2"/>
<path d="M20.4831 25.6143H14.2124V29.8215C14.2177 29.8215 14.2221 29.81 14.2283 29.81C14.9391 29.1105 15.8975 28.72 16.8948 28.7236C17.8921 28.7273 18.8476 29.1247 19.5534 29.8294C20.2591 30.534 20.6579 31.489 20.663 32.4863C20.6681 33.4836 20.2791 34.4426 19.5806 35.1544C19.5736 35.1659 19.5674 35.1659 19.5603 35.1765C19.5524 35.1765 19.5444 35.1879 19.5383 35.1985C18.2068 36.5206 16.4313 37.3002 14.5569 37.3858C12.6825 37.4713 10.8433 36.8566 9.397 35.6613C7.95069 34.4659 7.00067 32.7754 6.7317 30.9185C6.46274 29.0615 6.89405 27.1709 7.94176 25.6143C8.21394 25.2101 8.52412 24.8329 8.86807 24.4878C9.56903 23.7853 10.4022 23.2287 11.3195 22.8502C12.2369 22.4716 13.2201 22.2786 14.2124 22.2823V12.1643C11.9809 12.1641 9.78443 12.7189 7.82071 13.7789C5.857 14.8388 4.18775 16.3705 2.96328 18.236C1.73882 20.1016 0.997585 22.2423 0.806341 24.4656C0.615097 26.6889 0.979846 28.9249 1.86774 30.9721C2.75564 33.0194 4.13879 34.8136 5.89266 36.1933C7.64652 37.573 9.71601 38.4948 11.9148 38.8757C14.1135 39.2566 16.3725 39.0846 18.4882 38.3752C20.604 37.6659 22.51 36.4414 24.0348 34.8121V25.6143H20.4831Z" fill="#0079C2"/>
</svg>
