<svg width="170" height="71" viewBox="0 0 170 71" fill="none" xmlns="http://www.w3.org/2000/svg">
<path d="M169.973 53.9104L167.005 49.1142L169.692 44.7192C169.778 44.5993 169.758 44.4465 169.535 44.4465H167.942C167.579 44.4465 167.479 44.4905 167.347 44.7399L165.828 47.4599L164.295 44.7399C164.158 44.4905 164.057 44.4465 163.701 44.4465H162.071C161.856 44.4465 161.812 44.5993 161.898 44.7054L164.615 49.1288L161.652 53.9095C161.574 54.0381 161.621 54.1909 161.795 54.1909H163.502C163.626 54.2101 163.752 54.1882 163.863 54.1285C163.973 54.0688 164.06 53.9746 164.112 53.8604L165.798 50.8573L167.486 53.8604C167.536 53.9745 167.622 54.0688 167.732 54.1286C167.841 54.1884 167.967 54.2103 168.09 54.1909H169.825C169.987 54.1926 170.039 54.039 169.973 53.9104Z" fill="#1E2E50"/>
<path d="M48.359 40.0721H49.3082C49.3755 40.0798 49.4434 40.0629 49.4992 40.0245C49.555 39.9862 49.5951 39.9289 49.6119 39.8632L50.3152 37.7922H54.2744L54.9864 39.8632C55.0493 40.0721 55.1443 40.0721 55.3117 40.0721H56.2523C56.4249 40.0721 56.4697 39.9228 56.4137 39.7976L53.2467 30.7574C53.1129 30.3355 52.9878 30.1982 52.4873 30.1982H52.067C51.6295 30.2051 51.5139 30.3087 51.3499 30.7574L48.1751 39.7976C48.1354 39.9418 48.1751 40.0721 48.359 40.0721ZM51.6062 33.6267L52.2396 31.6359H52.3104L52.9714 33.7018L53.9275 36.6522H50.6484L51.6062 33.6267Z" fill="#1E2E50"/>
<path d="M57.7075 40.0728H58.4125C58.6214 40.0728 58.6991 40.0219 58.6991 39.7984V32.4297C58.6991 31.7005 59.0313 31.3708 59.8053 31.3708H63.5643C63.7827 31.3708 63.8232 31.3009 63.8232 31.0809V30.501C63.8232 30.3094 63.7844 30.2111 63.5643 30.2111H59.795C59.4701 30.1727 59.1408 30.2092 58.8323 30.3177C58.5237 30.4262 58.244 30.6038 58.0146 30.837C57.7851 31.0701 57.6121 31.3527 57.5086 31.663C57.4051 31.9733 57.374 32.3032 57.4175 32.6273V39.8027C57.4175 40.0219 57.5228 40.0728 57.7075 40.0728Z" fill="#1E2E50"/>
<path d="M67.4139 40.0726H71.3256C71.5491 40.0726 71.5914 39.9639 71.5914 39.7757V39.1777C71.5914 38.9688 71.5491 38.8843 71.3256 38.8843H67.4312C66.6261 38.8843 66.3197 38.4528 66.3197 37.8315V35.3851H70.7975C71.002 35.3851 71.0418 35.2901 71.0418 35.102V34.5678C71.0418 34.3556 71.0012 34.2779 70.7975 34.2779H66.3197V32.4424C66.3197 31.7184 66.6554 31.3663 67.4312 31.3663H71.2549C71.4646 31.3663 71.5069 31.3016 71.5069 31.0945V30.5017C71.5069 30.3101 71.4646 30.2065 71.2549 30.2065H67.4131C67.0908 30.1793 66.7665 30.2236 66.4632 30.336C66.16 30.4485 65.8852 30.6263 65.6586 30.857C65.4319 31.0877 65.2589 31.3656 65.1518 31.6708C65.0447 31.976 65.0063 32.301 65.0391 32.6228V37.6649C64.995 37.9886 65.0257 38.3181 65.1289 38.6281C65.2321 38.938 65.4051 39.2201 65.6345 39.4527C65.8639 39.6853 66.1436 39.8621 66.4521 39.9696C66.7606 40.077 67.0897 40.1123 67.4139 40.0726Z" fill="#1E2E50"/>
<path d="M73.4496 40.0743H74.2263C74.4247 40.0743 74.4972 40.0217 74.4972 39.8353V35.4343H79.4479V39.8353C79.4479 40.0217 79.5394 40.0743 79.731 40.0743H80.4852C80.6819 40.0743 80.7493 40.0217 80.7493 39.8353V30.4551C80.7493 30.2635 80.6828 30.2307 80.4852 30.2307H79.731C79.5394 30.2307 79.4479 30.2644 79.4479 30.4551V34.3185H74.4972V30.4551C74.4972 30.2635 74.4247 30.2307 74.2263 30.2307H73.4496C73.2934 30.2307 73.1855 30.2644 73.1855 30.4551V39.8353C73.1855 40.0208 73.2926 40.0743 73.4496 40.0743Z" fill="#1E2E50"/>
<path d="M89.0995 30.229H82.2123C82.0398 30.229 82.0156 30.2937 82.0156 30.4491V31.1394C82.0156 31.3034 82.0389 31.3595 82.2123 31.3595H84.9574V39.8353C84.9574 40.0217 85.0437 40.0743 85.2163 40.0743H86.0283C86.2095 40.0743 86.2759 40.0217 86.2759 39.8353V31.3595H89.0995C89.2721 31.3595 89.2946 31.3034 89.2946 31.1394V30.4491C89.298 30.2937 89.279 30.229 89.0995 30.229Z" fill="#1E2E50"/>
<path d="M93.7549 40.219C94.7863 40.2594 95.8115 40.0414 96.7372 39.5847C96.8727 39.4915 96.9305 39.432 96.8166 39.2137L96.5422 38.6139C96.5016 38.5328 96.4326 38.4224 96.2203 38.5052C95.5196 38.8323 94.7568 39.005 93.9836 39.0118C91.6312 39.0118 90.8908 37.3273 90.8908 35.2881C90.8908 33.249 91.777 31.2901 93.9206 31.2901C94.6254 31.2952 95.3215 31.4465 95.9648 31.7346C96.1176 31.7889 96.1582 31.7397 96.2238 31.6258L96.5456 30.9786C96.644 30.7922 96.5931 30.7094 96.4878 30.6654C95.6747 30.2506 94.7698 30.0487 93.8576 30.0786C91.2972 30.0786 89.5713 32.1194 89.5713 35.2881C89.567 38.6907 91.1298 40.219 93.7549 40.219Z" fill="#1E2E50"/>
<path d="M97.8943 31.3577H100.642V39.8336C100.642 40.02 100.72 40.0726 100.901 40.0726H101.711C101.884 40.0726 101.962 40.02 101.962 39.8336V31.3577H104.787C104.96 31.3577 104.981 31.3017 104.981 31.1377V30.4473C104.981 30.2929 104.959 30.2273 104.787 30.2273H97.8917C97.7303 30.2273 97.7104 30.292 97.7104 30.4473V31.1377C97.713 31.3017 97.732 31.3577 97.8943 31.3577Z" fill="#1E2E50"/>
<path d="M106.956 40.0719H110.281C110.686 40.1034 111.094 40.0512 111.478 39.9187C111.863 39.7862 112.216 39.5762 112.516 39.3016C112.816 39.027 113.056 38.6937 113.222 38.3225C113.388 37.9512 113.476 37.5497 113.481 37.1431C113.518 36.611 113.38 36.0813 113.089 35.6345C112.798 35.1877 112.369 34.8481 111.867 34.6673V34.5672C112.23 34.3865 112.536 34.1071 112.748 33.761C112.96 33.4149 113.071 33.016 113.067 32.61C113.067 30.898 111.816 30.1877 110.094 30.1877L106.956 30.2102C106.41 30.2102 106.235 30.4389 106.235 30.9239V39.3703C106.235 39.8631 106.457 40.0719 106.956 40.0719ZM107.527 31.3691H110.229C110.416 31.3463 110.605 31.3636 110.785 31.4198C110.965 31.476 111.13 31.5699 111.271 31.6952C111.411 31.8205 111.523 31.9742 111.6 32.1463C111.676 32.3183 111.715 32.5047 111.713 32.6929C111.721 32.8997 111.685 33.1058 111.606 33.2972C111.527 33.4886 111.408 33.6607 111.257 33.8019C111.105 33.9431 110.925 34.05 110.729 34.1153C110.533 34.1807 110.324 34.203 110.119 34.1806H107.53L107.527 31.3691ZM107.527 35.2601H110.152C110.405 35.2238 110.662 35.243 110.906 35.3162C111.15 35.3895 111.376 35.5151 111.566 35.6843C111.757 35.8535 111.909 36.0622 112.01 36.296C112.112 36.5297 112.162 36.7829 112.156 37.0378C112.168 37.2973 112.123 37.5562 112.024 37.7965C111.925 38.0368 111.775 38.2526 111.584 38.4288C111.393 38.6051 111.166 38.7376 110.919 38.817C110.672 38.8965 110.41 38.921 110.152 38.8888H107.527V35.2601Z" fill="#1E2E50"/>
<path d="M122.834 35.1087C122.834 31.9684 121.393 30.063 118.638 30.063C116.24 30.063 114.46 31.8985 114.46 35.1544C114.46 38.4103 115.86 40.2216 118.612 40.2216C121.387 40.2199 122.834 38.3827 122.834 35.1087ZM115.763 35.1087C115.763 33.0108 116.673 31.2297 118.685 31.2297C120.974 31.2297 121.503 33.0988 121.503 35.1526C121.503 37.178 120.826 39.0661 118.627 39.0661C116.428 39.0661 115.764 37.4283 115.764 35.1087H115.763Z" fill="#1E2E50"/>
<path d="M52.537 54.3474C53.6626 54.3937 54.7785 54.1219 55.7566 53.5629C55.9232 53.4646 55.9585 53.3697 55.8429 53.103L55.3665 52.1149C55.2854 51.8966 55.194 51.8319 54.9394 51.9423C54.2615 52.2336 53.5364 52.3991 52.7993 52.4308C50.9871 52.4308 50.3942 51.1856 50.3942 49.3889C50.3942 47.5767 51.2115 46.2029 52.7397 46.2029C53.387 46.2055 54.0283 46.3275 54.6313 46.5627C54.8902 46.6663 54.9532 46.6137 55.0395 46.3513L55.4839 45.3969C55.6108 45.0915 55.5806 45.0242 55.3665 44.9137C54.5244 44.4818 53.5854 44.2737 52.6397 44.3096C49.974 44.3096 48.167 46.3436 48.167 49.3854C48.1644 52.4739 49.5132 54.3474 52.537 54.3474Z" fill="#1E2E50"/>
<path d="M61.038 54.1917C61.321 54.1917 61.3702 54.1373 61.3702 53.9052V46.2604H63.8917C64.085 46.2604 64.1696 46.1741 64.1696 45.9859V44.7381C64.1696 44.506 64.1152 44.4517 63.8917 44.4517H56.7724C56.5636 44.4517 56.5049 44.506 56.5049 44.7381V45.9859C56.5049 46.1741 56.5679 46.2604 56.7724 46.2604H59.2352V53.9052C59.2352 54.1218 59.3354 54.1917 59.5503 54.1917H61.038Z" fill="#1E2E50"/>
<path d="M72.8702 47.4827C72.8807 47.0621 72.8019 46.644 72.6392 46.256C72.4764 45.8681 72.2333 45.519 71.9258 45.2318C71.6184 44.9446 71.2537 44.7258 70.8555 44.5897C70.4574 44.4537 70.035 44.4035 69.6161 44.4425H66.1962C65.5335 44.4425 65.3652 44.7678 65.3652 45.2882V53.9047C65.3652 54.1213 65.4567 54.1912 65.6871 54.1912H67.1455C67.4251 54.1912 67.4906 54.1524 67.4906 53.9047V50.6591H69.3348C72.469 50.66 72.8702 48.4302 72.8702 47.4827ZM69.308 48.954H67.4829V46.2979H69.295C69.4734 46.2906 69.6514 46.3193 69.8184 46.3823C69.9854 46.4453 70.1381 46.5413 70.2672 46.6646C70.3963 46.7879 70.4992 46.9359 70.5698 47.0998C70.6404 47.2638 70.6773 47.4403 70.6783 47.6188C70.6792 47.7973 70.6442 47.9741 70.5752 48.1388C70.5063 48.3035 70.4049 48.4525 70.2771 48.5772C70.1493 48.7018 69.9977 48.7994 69.8313 48.8641C69.665 48.9288 69.4873 48.9594 69.3088 48.954H69.308Z" fill="#1E2E50"/>
<path d="M80.9477 53.91L78.0577 45.1942C77.8342 44.5039 77.5883 44.4297 76.973 44.4297H76.1325C75.5612 44.4478 75.3144 44.5479 75.1254 45.1942L72.2242 53.91C72.175 54.0558 72.2242 54.1931 72.4262 54.1931H74.0493C74.3082 54.1931 74.3815 54.1068 74.4411 53.9255L74.977 52.1548H78.163L78.7067 53.9669C78.7645 54.1654 78.8982 54.1905 79.1148 54.1905H80.7656C80.9676 54.1931 80.9866 54.0291 80.9477 53.91ZM75.4706 50.4323L76.0065 48.6745L76.532 46.6768H76.6252L77.1318 48.6745L77.6659 50.4323H75.4706Z" fill="#1E2E50"/>
<path d="M83.6563 54.1917H85.144C85.4253 54.1917 85.4814 54.1373 85.4814 53.9052V46.2604H88.0012C88.1962 46.2604 88.2808 46.1741 88.2808 45.9859V44.7381C88.2808 44.506 88.2247 44.4517 88.0012 44.4517H80.8785C80.6783 44.4517 80.6152 44.506 80.6152 44.7381V45.9859C80.6152 46.1741 80.6921 46.2604 80.8785 46.2604H83.3456V53.9052C83.3413 54.1218 83.4345 54.1917 83.6563 54.1917Z" fill="#1E2E50"/>
<path d="M96.1585 54.1928C96.3889 54.1928 96.4467 54.0945 96.4467 53.8623V52.6844C96.4467 52.4065 96.3993 52.3574 96.1585 52.3574H92.4945C91.9077 52.3574 91.591 52.1606 91.591 51.522V49.929H95.5812C95.7978 49.929 95.8401 49.8341 95.8401 49.6089V48.5259C95.8401 48.2619 95.7943 48.2006 95.5812 48.2006H91.5901V47.1227C91.5901 46.6317 91.7696 46.2598 92.4936 46.2598H96.0205C96.2302 46.2598 96.2931 46.1821 96.2931 45.9474V44.7678C96.2931 44.5089 96.2509 44.4459 96.0205 44.4459H92.0345C91.6893 44.4135 91.3412 44.4574 91.0148 44.5747C90.6885 44.6919 90.392 44.8795 90.1463 45.1242C89.9006 45.3689 89.7118 45.6647 89.5932 45.9905C89.4747 46.3164 89.4293 46.6644 89.4603 47.0097V51.6299C89.4177 51.9789 89.4556 52.333 89.5711 52.665C89.6866 52.9971 89.8766 53.2983 90.1265 53.5456C90.3764 53.7928 90.6796 53.9796 91.0129 54.0915C91.3462 54.2034 91.7007 54.2375 92.0492 54.1911L96.1585 54.1928Z" fill="#1E2E50"/>
<path d="M100.553 44.4424C100.208 44.4088 99.8598 44.4523 99.5336 44.5696C99.2074 44.6869 98.9112 44.8751 98.6665 45.1207C98.4219 45.3663 98.2347 45.6631 98.1187 45.9897C98.0026 46.3164 97.9604 46.6647 97.9953 47.0096V53.9054C97.9953 54.122 98.1005 54.1919 98.3171 54.1919H99.7936C100.073 54.1919 100.115 54.1531 100.115 53.9054V47.127C100.115 46.6188 100.288 46.2641 101.019 46.2641H104.569C104.789 46.2641 104.847 46.1864 104.847 45.9569V44.7721C104.847 44.5132 104.793 44.4467 104.569 44.4467L100.553 44.4424Z" fill="#1E2E50"/>
<path d="M106.918 54.1902H107.475C108.041 54.1902 108.192 54.0883 108.516 53.5783L110.868 49.7685L112.112 47.681H112.175V53.9244C112.175 54.1375 112.228 54.1902 112.479 54.1902H113.97C114.183 54.1902 114.262 54.1211 114.262 53.9244V45.408C114.262 44.6943 114.035 44.4458 113.354 44.4458H112.786C112.227 44.4458 112.076 44.5321 111.761 45.0594L109.344 49.0168L108.16 50.9653H108.089V44.7064C108.089 44.4915 108.04 44.4475 107.794 44.4475H106.297C106.094 44.4475 106.013 44.5071 106.013 44.7064V53.2315C106.014 53.8114 106.196 54.1902 106.918 54.1902Z" fill="#1E2E50"/>
<path d="M119.806 50.8952C120.357 50.8969 120.906 50.8539 121.45 50.7666V53.925C121.45 54.1217 121.515 54.1916 121.749 54.1916H123.262C123.512 54.1916 123.57 54.1372 123.57 53.925V44.7061C123.57 44.4904 123.512 44.4473 123.262 44.4473H121.749C121.515 44.4473 121.45 44.5077 121.45 44.7061V48.9035C120.993 48.9893 120.529 49.0317 120.064 49.0303C118.663 49.0303 117.986 48.5126 117.986 47.2035V44.707C117.986 44.4912 117.933 44.4481 117.693 44.4481H116.163C115.957 44.4481 115.871 44.5085 115.871 44.707V47.4097C115.871 49.5559 116.908 50.8952 119.806 50.8952Z" fill="#1E2E50"/>
<path d="M132.344 54.1925C132.562 54.1925 132.625 54.0941 132.625 53.862V52.6841C132.625 52.4062 132.574 52.357 132.344 52.357H128.674C128.087 52.357 127.767 52.1603 127.767 51.5217V49.9287H131.761C131.99 49.9287 132.02 49.8338 132.02 49.6086V48.5256C132.02 48.2615 131.986 48.2002 131.761 48.2002H127.767V47.1224C127.767 46.6314 127.948 46.2594 128.674 46.2594H132.212C132.414 46.2594 132.471 46.1818 132.471 45.9471V44.7674C132.471 44.5085 132.425 44.4455 132.212 44.4455H128.214C127.869 44.4137 127.522 44.4582 127.197 44.5759C126.871 44.6935 126.576 44.8814 126.332 45.1263C126.088 45.3711 125.9 45.6668 125.783 45.9922C125.666 46.3177 125.622 46.665 125.655 47.0094V51.6296C125.611 51.9779 125.647 52.3317 125.761 52.6637C125.876 52.9957 126.064 53.297 126.314 53.5445C126.563 53.7919 126.865 53.9789 127.198 54.091C127.531 54.203 127.885 54.2372 128.233 54.1908L132.344 54.1925Z" fill="#1E2E50"/>
<path d="M140.819 52.1143C140.744 51.896 140.661 51.8313 140.394 51.9417C139.717 52.2328 138.992 52.3983 138.256 52.4302C136.444 52.4302 135.849 51.1849 135.849 49.3883C135.849 47.5761 136.665 46.2023 138.205 46.2023C138.851 46.2055 139.49 46.3275 140.092 46.5621C140.361 46.6657 140.411 46.613 140.512 46.3507L140.943 45.3963C141.077 45.0908 141.043 45.0235 140.822 44.9131C139.984 44.4807 139.048 44.2726 138.106 44.309C135.437 44.309 133.625 46.3429 133.625 49.3848C133.625 52.469 134.978 54.3441 138.003 54.3441C139.128 54.3897 140.243 54.1179 141.221 53.5597C141.394 53.4614 141.434 53.3665 141.307 53.0998L140.819 52.1143Z" fill="#1E2E50"/>
<path d="M149.902 50.6872C149.864 50.2963 149.708 49.9261 149.456 49.625C149.204 49.3238 148.867 49.1058 148.489 48.9993V48.9328C148.796 48.7412 149.06 48.4871 149.263 48.187C149.467 47.8868 149.604 47.5474 149.668 47.1906L150.319 44.7061C150.341 44.6095 150.356 44.4283 150.115 44.4283H148.558C148.496 44.4203 148.434 44.4361 148.384 44.4723C148.333 44.5085 148.299 44.5624 148.287 44.6233L147.661 46.9757C147.606 47.3493 147.409 47.6872 147.111 47.9191C146.813 48.1511 146.437 48.2591 146.061 48.2209H144.944V44.6828C144.973 44.4895 144.906 44.4542 144.73 44.4542H143.099C142.923 44.4542 142.847 44.4895 142.847 44.6828V53.9733C142.847 54.1718 142.923 54.1951 143.099 54.1951H144.714C144.894 54.1951 144.962 54.1726 144.962 53.9733L144.945 49.8363H146.086C147.069 49.8363 147.547 50.0512 147.828 51.0073L148.678 53.9975C148.689 54.0594 148.724 54.1145 148.775 54.1512C148.826 54.1878 148.89 54.2033 148.952 54.1942H150.562C150.808 54.1942 150.786 54.0164 150.761 53.9129L149.902 50.6872Z" fill="#1E2E50"/>
<path d="M159.572 44.4473H158.994C158.445 44.4473 158.284 44.5336 157.965 45.0608L155.557 49.0183L154.379 50.9668H154.298V44.7061C154.298 44.4913 154.25 44.4473 153.999 44.4473H152.519C152.303 44.4473 152.228 44.5068 152.228 44.7061V53.2312C152.228 53.8111 152.395 54.1916 153.128 54.1916H153.687C154.251 54.1916 154.411 54.0898 154.722 53.5798L157.075 49.7699L158.317 47.6825H158.389V53.9258C158.389 54.139 158.445 54.1916 158.688 54.1916H160.18C160.388 54.1916 160.47 54.1226 160.47 53.9258V45.4094C160.469 44.6975 160.248 44.4473 159.572 44.4473Z" fill="#1E2E50"/>
<path d="M56.3409 58.5723H55.7644C55.2121 58.5723 55.0594 58.6655 54.7461 59.1858L52.3299 63.1433L51.1451 65.0892H51.0691V58.82C51.0691 58.618 51.0286 58.5723 50.774 58.5723H49.2846C49.0792 58.5723 48.9946 58.6474 48.9946 58.82V67.3631C48.9946 67.9447 49.1793 68.3124 49.9068 68.3124H50.4591C50.6737 68.3453 50.8932 68.3043 51.0814 68.1959C51.2696 68.0875 51.4153 67.9182 51.4946 67.716L53.8418 63.8898L55.0801 61.8066H55.1508V68.0603C55.1508 68.2674 55.2087 68.3124 55.4581 68.3124H56.9527C57.1693 68.3124 57.2426 68.2484 57.2426 68.0603V59.5422C57.2469 58.8096 57.0217 58.5723 56.3409 58.5723Z" fill="#1E2E50"/>
<path d="M67.0075 58.5764H65.5482C65.3126 58.5764 65.2315 58.6472 65.2315 58.8698V62.3319H61.4536V58.8698C61.4536 58.6343 61.3957 58.5764 61.1213 58.5764H59.6448C59.4231 58.5764 59.3281 58.6472 59.3281 58.8698V68.017C59.3281 68.2405 59.4231 68.3173 59.6448 68.3173H61.124C61.3984 68.3173 61.4561 68.2578 61.4561 68.017V64.1243H65.2342V68.0239C65.2342 68.2474 65.3153 68.3242 65.5509 68.3242H67.0101C67.2879 68.3242 67.3457 68.2647 67.3457 68.0239V58.8767C67.3432 58.6343 67.2854 58.5764 67.0075 58.5764Z" fill="#1E2E50"/>
<path d="M76.7758 58.5723H76.2028C75.6505 58.5723 75.5029 58.6655 75.1724 59.1858L72.764 63.1433L71.5912 65.0892H71.5049V58.82C71.5049 58.618 71.4609 58.5723 71.2219 58.5723H69.7221C69.515 58.5723 69.4321 58.6474 69.4321 58.82V67.3631C69.4321 67.9447 69.6185 68.3124 70.3408 68.3124H70.8931C71.108 68.3476 71.3285 68.3075 71.5172 68.1988C71.7059 68.0902 71.8513 67.9196 71.9286 67.716L74.2862 63.8898L75.5237 61.8066H75.5952V68.0603C75.5952 68.2674 75.6514 68.3124 75.8973 68.3124H77.3799C77.5844 68.3124 77.6784 68.2484 77.6784 68.0603V59.5422C77.6793 58.8096 77.4532 58.5723 76.7758 58.5723Z" fill="#1E2E50"/>
<path d="M88.4523 66.5251L87.7619 66.4475V58.8199C87.7619 58.618 87.7265 58.561 87.4573 58.561H85.9221C85.7271 58.561 85.6494 58.6352 85.6494 58.8199V66.4854H81.8922V58.8199C81.8922 58.618 81.8396 58.561 81.579 58.561H80.0602C79.8436 58.561 79.7607 58.6352 79.7607 58.8199V67.382C79.7607 67.9982 80.0067 68.3209 80.6539 68.3209H87.0397L87.1259 70.3238C87.1311 70.537 87.2027 70.6259 87.4055 70.6259H88.5714C88.7526 70.6259 88.819 70.5223 88.8302 70.3497L88.9743 67.1309C88.9925 66.7987 88.9571 66.5614 88.4523 66.5251Z" fill="#1E2E50"/>
<path d="M97.4499 58.5723H96.8838C96.341 58.5723 96.1719 58.6655 95.8621 59.1858L93.4458 63.1433L92.2697 65.0892H92.1782V58.82C92.1782 58.618 92.1462 58.5723 91.8951 58.5723H90.4057C90.1926 58.5723 90.1123 58.6474 90.1123 58.82V67.3631C90.1123 67.9447 90.2935 68.3124 91.0054 68.3124H91.5715C92.1462 68.3124 92.2886 68.2208 92.6071 67.716L94.9664 63.8898L96.1952 61.8066H96.2763V68.0603C96.2763 68.2674 96.3359 68.3124 96.5818 68.3124H98.0747C98.2749 68.3124 98.3612 68.2484 98.3612 68.0603V59.5422C98.3621 58.8096 98.1377 58.5723 97.4499 58.5723Z" fill="#1E2E50"/>
<path d="M105.151 59.3166C104.929 58.6323 104.688 58.5555 104.066 58.5555H103.236C103.118 58.5338 102.997 58.5365 102.881 58.5636C102.764 58.5907 102.654 58.6416 102.558 58.7131C102.462 58.7845 102.382 58.8749 102.322 58.9788C102.263 59.0826 102.225 59.1976 102.212 59.3166L99.3146 68.0323C99.281 68.1833 99.3146 68.3257 99.5148 68.3257H101.147C101.406 68.3257 101.47 68.2394 101.526 68.0582L102.077 66.2874H105.254L105.803 68.0996C105.863 68.2791 105.995 68.3214 106.213 68.3214H107.869C107.903 68.3216 107.937 68.3127 107.967 68.2957C107.997 68.2787 108.022 68.2541 108.04 68.2244C108.057 68.1947 108.067 68.1609 108.067 68.1264C108.067 68.092 108.059 68.058 108.042 68.028L105.151 59.3166ZM102.582 64.5573L103.104 62.7848L103.628 60.8H103.721L104.229 62.7848L104.763 64.5573H102.582Z" fill="#1E2E50"/>
<path d="M115.097 58.5771H107.967C107.771 58.5771 107.708 58.6333 107.708 58.8688V60.1012C107.708 60.3048 107.784 60.3807 107.967 60.3807H110.432V68.0169C110.432 68.2456 110.534 68.3232 110.764 68.3232H112.244C112.527 68.3232 112.58 68.2637 112.58 68.0169V60.3807H115.096C115.283 60.3807 115.374 60.3057 115.374 60.1012V58.8688C115.375 58.6333 115.312 58.5771 115.097 58.5771Z" fill="#1E2E50"/>
<path d="M123.914 58.5723H123.35C122.787 58.5723 122.629 58.6655 122.314 59.1858L119.908 63.1433L118.73 65.0892H118.643V58.82C118.643 58.618 118.61 58.5723 118.352 58.5723H116.862C116.665 58.5723 116.576 58.6474 116.576 58.82V67.3631C116.576 67.9447 116.757 68.3124 117.481 68.3124H118.031C118.61 68.3124 118.754 68.2208 119.081 67.716L121.433 63.8898L122.667 61.8066H122.735V68.0603C122.735 68.2674 122.791 68.3124 123.049 68.3124H124.529C124.738 68.3124 124.819 68.2484 124.819 68.0603V59.5422C124.815 58.8096 124.59 58.5723 123.914 58.5723Z" fill="#1E2E50"/>
<path d="M133.065 62.9879V62.8878C133.39 62.6971 133.659 62.4249 133.847 62.0981C134.034 61.7714 134.133 61.4014 134.134 61.0247C134.134 59.2773 132.834 58.561 131.146 58.561H127.738C127.068 58.561 126.899 58.8337 126.899 59.424V67.4657C126.899 68.0586 127.071 68.3045 127.738 68.3045H131.229C133.1 68.3045 134.559 67.1197 134.559 65.3489C134.583 64.8494 134.453 64.3547 134.185 63.9322C133.918 63.5097 133.526 63.1799 133.065 62.9879ZM129.016 60.4103H130.98C131.105 60.3945 131.232 60.4062 131.352 60.4446C131.472 60.4829 131.583 60.5469 131.676 60.6323C131.769 60.7176 131.842 60.8222 131.89 60.9387C131.939 61.0552 131.961 61.1808 131.956 61.3069C131.962 61.4419 131.938 61.5766 131.887 61.7015C131.836 61.8265 131.757 61.9387 131.658 62.0303C131.559 62.122 131.441 62.1908 131.312 62.2321C131.183 62.2733 131.047 62.286 130.913 62.2691H129.015L129.016 60.4103ZM131.032 66.4423H129.016V63.963H131.032C131.203 63.9495 131.375 63.9715 131.538 64.0276C131.7 64.0838 131.848 64.1729 131.974 64.2893C132.1 64.4057 132.201 64.547 132.27 64.7042C132.339 64.8614 132.374 65.0311 132.374 65.2027C132.374 65.3742 132.339 65.5439 132.27 65.7011C132.201 65.8583 132.1 65.9996 131.974 66.116C131.848 66.2324 131.7 66.3215 131.538 66.3777C131.375 66.4338 131.203 66.4558 131.032 66.4423Z" fill="#1E2E50"/>
<path d="M26.1143 4.98291L43.531 15.0155L52.2269 9.98884L26.1143 4.98291Z" fill="#6AB0E1"/>
<path d="M0 0L17.4194 10.0214L26.1153 4.98955L0 0Z" fill="#E8483F"/>
<path d="M17.4307 20.0938L34.838 30.1151L43.5373 25.0816L17.4307 20.0938Z" fill="#C4C6C9"/>
<path d="M52.2225 9.98877L43.5283 25.0808V15.0154L52.2225 9.98877Z" fill="#014C94"/>
<path d="M43.5372 25.0811L34.8483 40.1826L34.8379 30.1155L43.5372 25.0811Z" fill="#778692"/>
<path d="M26.1149 4.98291L17.4293 20.0974L17.4189 10.0285L26.1149 4.98291Z" fill="#B42C2D"/>
</svg>
