<svg width="112" height="22" viewBox="0 0 112 22" fill="none" xmlns="http://www.w3.org/2000/svg">
<path d="M21.0483 9.13214C21.0483 9.13214 21.5723 3.21414 21.6223 2.63214C21.6378 2.29561 21.5854 1.9594 21.4682 1.64354C21.351 1.32769 21.1715 1.03864 20.9403 0.793622C20.709 0.548599 20.4309 0.352608 20.1223 0.21732C19.8138 0.0820324 19.4812 0.0102135 19.1443 0.00614061H13.8003H4.20034C3.51213 -0.0409521 2.83297 0.184231 2.30922 0.63316C1.78547 1.08209 1.45906 1.71882 1.40035 2.40614C1.33335 3.10614 0.100345 17.4061 0.0193446 18.2341C-0.0243365 18.5844 0.00615331 18.9398 0.108832 19.2775C0.21151 19.6152 0.38408 19.9275 0.61533 20.1941C0.84658 20.4607 1.13134 20.6757 1.4511 20.8251C1.77086 20.9744 2.11847 21.0549 2.47135 21.0611H17.3213C17.6921 21.1063 18.0683 21.0707 18.4241 20.957C18.7799 20.8432 19.1069 20.654 19.3828 20.4021C19.6586 20.1503 19.8768 19.8418 20.0224 19.4979C20.168 19.1539 20.2376 18.7825 20.2263 18.4091C20.3263 17.4461 20.8143 11.6211 20.8143 11.6211H11.8373L11.4493 16.1211H9.17635L10.1553 4.94314H12.4263L12.0663 9.12714L21.0483 9.13214Z" fill="#007881"/>
<path d="M34.8984 1.81528C34.5784 2.73728 31.9664 10.9153 31.9664 10.9153L33.1284 0.00927734H24.1544L22.2734 21.0653H29.0364C29.5983 21.1166 30.1606 20.9717 30.6277 20.6552C31.0948 20.3387 31.4378 19.8701 31.5984 19.3293C31.9364 18.4063 34.4274 11.5293 34.4274 11.5293L33.5114 21.0663H42.4914L44.3424 0.0102768H37.2944C36.7522 0.00599968 36.2237 0.180489 35.7906 0.506762C35.3575 0.833034 35.0439 1.29291 34.8984 1.81528Z" fill="#007881"/>
<path d="M80.3763 0.0102539L79.5363 9.61025H77.2603L78.1003 0.0102539H69.1223C69.1223 0.0102539 68.2613 10.1763 68.1703 11.1573C68.1196 11.5166 68.1482 11.8826 68.2539 12.2297C68.3597 12.5768 68.5401 12.8965 68.7825 13.1666C69.0248 13.4366 69.3233 13.6503 69.6571 13.7928C69.9908 13.9352 70.3516 14.003 70.7143 13.9913H79.1523L78.9653 16.1273H67.7353L67.3013 21.0653H85.1673C85.8321 21.0722 86.4726 20.8153 86.9484 20.3508C87.4241 19.8863 87.6963 19.2521 87.7053 18.5873C87.8053 17.5023 89.3523 0.0102539 89.3523 0.0102539H80.3763Z" fill="#007881"/>
<path d="M103.805 0.010013H91.6134L89.7734 21.065H98.7504L99.3204 14.55H108.041C108.396 14.5808 108.753 14.5359 109.089 14.4185C109.425 14.301 109.732 14.1136 109.991 13.8687C110.249 13.6237 110.452 13.3267 110.587 12.9973C110.722 12.668 110.786 12.3137 110.773 11.958C110.838 11.258 111.547 3.27701 111.594 2.57201C111.613 2.22145 111.557 1.87091 111.428 1.54433C111.299 1.21776 111.101 0.922845 110.848 0.679723C110.594 0.436601 110.292 0.250999 109.96 0.135593C109.629 0.0201864 109.276 -0.0223059 108.926 0.0110143L103.805 0.010013ZM99.7054 10.172L100.162 4.94901H102.411L101.954 10.172H99.7054Z" fill="#007881"/>
<path d="M54.9881 7.08328L55.1761 4.94728H66.4211L66.8531 0.00927734H46.6291L44.7881 21.0643H62.7041C63.031 21.0737 63.3566 21.0179 63.6617 20.9001C63.9668 20.7823 64.2454 20.6049 64.4811 20.3781C64.7168 20.1514 64.905 19.88 65.0347 19.5797C65.1643 19.2794 65.2328 18.9563 65.2361 18.6293C65.3571 17.3083 65.9101 11.0483 66.0111 9.91228C66.0604 9.53854 66.025 9.1585 65.9074 8.80033C65.7898 8.44217 65.593 8.11508 65.3318 7.84333C65.0705 7.57159 64.7514 7.36216 64.3981 7.23058C64.0448 7.099 63.6665 7.04866 63.2911 7.08328H54.9881ZM56.4391 16.6833H54.1481L54.6041 11.4603H56.8951L56.4391 16.6833Z" fill="#007881"/>
</svg>
