<svg width="71" height="100" viewBox="0 0 71 100" fill="none" xmlns="http://www.w3.org/2000/svg">
<g clip-path="url(#clip0)">
<path d="M60.1236 45.7575C61.3321 42.8787 60.5768 39.3938 58.4619 37.1211C56.9513 35.4544 51.513 29.9999 47.4343 26.0605H47.7364C49.7002 26.0605 51.513 24.8484 52.2683 22.8787C53.0236 21.0605 52.5704 18.7878 51.2109 17.4241L36.8598 2.87868C35.8023 1.81807 34.5938 1.36353 33.3853 1.36353C32.1768 1.36353 30.8172 1.81807 29.9109 2.87868L15.4087 17.5756C14.0492 19.0908 13.596 21.212 14.3513 23.0302C15.1066 24.8484 16.9194 26.212 18.8832 26.212C14.6534 30.4544 9.51724 35.7575 8.15767 37.2726C5.89171 39.8484 5.43852 43.0302 6.49597 45.7575C7.25129 47.5756 9.06405 49.8484 13.747 49.8484H21.3002V57.2726C21.3002 61.6666 24.7747 65.1514 29.0045 65.1514H37.7662C41.996 65.1514 45.4704 61.6666 45.4704 57.2726V49.9999H53.0236C57.5555 49.9999 59.3683 47.7272 60.1236 45.7575ZM38.3704 42.1211V56.212H28.5513V42.1211H16.013L33.5364 24.2423L51.0598 42.1211H38.3704Z" fill="#088A35"/>
<path d="M0.302128 82.1213C0.151064 82.1213 0.151064 82.2729 0 82.2729V86.6668C0.453191 86.6668 3.47447 84.8486 7.70425 84.8486C10.1213 84.8486 13.1426 85.4547 14.0489 88.182H4.98511V91.6668H14.0489C12.9915 94.2426 10.2723 94.8486 8.15745 95.0001C3.92766 95.1517 0.453191 93.182 0.151064 93.182V97.5759C0.151064 97.5759 0.302128 97.7274 0.453191 97.7274C7.55319 100.758 20.9979 99.2426 20.8468 89.8486C20.6957 81.2123 8.15745 78.788 0.302128 82.1213Z" fill="#088A35"/>
<path d="M71.0001 98.9393H70.3958H64.3532L62.8426 95.4545H54.0809L52.5703 98.9393H46.2256L53.4767 81.8181H63.5979L68.8852 94.0909L70.849 98.6363L71.0001 98.9393ZM61.332 91.5151L59.2171 86.0605H58.0086L55.7426 91.5151H61.332Z" fill="#088A35"/>
<path d="M45.6212 81.6665H38.6723L32.6297 87.8786H29.7595V81.6665H23.5659V98.7877H29.7595V92.2726H32.3276L38.8234 98.9392H46.0744L37.6149 89.9998L45.6212 81.6665Z" fill="#088A35"/>
</g>
<defs>
<clipPath id="clip0">
<rect width="71" height="100" fill="white"/>
</clipPath>
</defs>
</svg>
