<svg width="21" height="26" viewBox="0 0 21 26" fill="none" xmlns="http://www.w3.org/2000/svg">
<g clip-path="url(#clip0)">
<path d="M0.311881 0H14.9703L15.1782 0.206349L20.7921 5.77778C21.0416 6.0254 21.0347 6.15608 21 6.19048V25.5873C21 25.9175 20.7228 26 20.5842 26H0.207921C0.0415842 26 0 25.7937 0 25.6905V0.309524C0 0.0619048 0.207921 0 0.311881 0Z" fill="#0079C2"/>
<path d="M0.317768 -0.000365488H14.872H14.8763H14.88H14.8806H14.8849H14.888H14.8892H14.8935H14.896H14.8978H14.9021H14.904H14.9058L14.9101 0.000245587H14.912H14.9144L14.9181 0.000856661H14.9193L14.9224 0.00146774L14.9261 0.00207881H14.9273L14.9304 0.00268988L14.9384 0.00452311L14.9421 0.00513418H14.9427L14.9464 0.00574526L14.9501 0.00635633L14.9538 0.00696741L14.9574 0.00818956L14.9611 0.0094117L14.9648 0.0106339L14.9685 0.011856L14.9722 0.0130782L14.9759 0.0143003L14.9789 0.0155224H14.9796L14.9832 0.0167446L14.9863 0.0179667H14.9869L14.9906 0.0191889L14.9937 0.020411H14.9943L14.998 0.0216332L15.0011 0.0228553H15.0017L15.0054 0.0246886L15.0084 0.0259107H15.009L15.0127 0.0277439L15.0158 0.0289661H15.0164L15.0195 0.0307993L15.0226 0.0326325L15.0256 0.0344658L15.0287 0.036299L15.0318 0.0381322L15.0324 0.0387433L15.0453 0.0466872L15.0484 0.0485205H15.049L15.052 0.0503537L15.0551 0.052798L15.0557 0.0534091L15.0582 0.0552423L15.0613 0.0576866L15.0625 0.0582977L15.065 0.0601309L15.068 0.0625752L15.0693 0.0631863L15.0711 0.0644084L15.0742 0.0668527L15.0754 0.0680749L15.0772 0.069297L15.0803 0.0717413L15.0822 0.0729635L15.0834 0.0741856L15.0865 0.0766299L15.0883 0.0784631L15.0889 0.0790742L15.092 0.0815185L15.0944 0.0839628L15.0951 0.0845739L15.0975 0.0870182L15.1006 0.0894625L20.9094 5.86717L20.9119 5.87023L20.9143 5.87267L20.9149 5.87328L20.9174 5.87573L20.918 5.87634L20.9198 5.87878L20.9205 5.87939L20.9223 5.88123L20.9229 5.88245L20.9248 5.88428L20.926 5.8855L20.9272 5.88734L20.9284 5.88856L20.9297 5.89039L20.9309 5.89223L20.9321 5.89345L20.9334 5.89528L20.9346 5.8965L20.9358 5.89834L20.9364 5.89956L20.9383 5.90139L20.9389 5.90261L20.9407 5.90506L20.9413 5.90567L20.9432 5.90811L20.9438 5.90873L20.9456 5.91117L20.9463 5.91178L20.9481 5.91423L20.9487 5.91484L20.9506 5.91789V5.9185L20.9524 5.92156V5.92217L20.9542 5.92522L20.9561 5.92828L20.9579 5.93133L20.9598 5.93439L20.9616 5.93745L20.9635 5.9405L20.9653 5.94356L20.9671 5.94661V5.94722L20.969 5.95028V5.95089L20.9708 5.95395V5.95456L20.9721 5.95761V5.95822L20.9733 5.96128V5.96189L20.9745 5.96494V5.96556L20.9757 5.96861V5.96922L20.977 5.97228V5.97289L20.9782 5.97594V5.97655L20.9794 5.97961V5.98022L20.9807 5.98328V5.98389L20.9819 5.98694V5.98755L20.9831 5.99061V5.99122L20.9843 5.99428V5.99489L20.9856 5.99794V5.99855L20.9868 6.00161V6.00222L20.988 6.00589L20.9893 6.00955L20.9905 6.01322L20.9911 6.01689L20.9917 6.02055L20.9923 6.02422L20.9929 6.02788V6.0285L20.9942 6.03583V6.03644L20.9948 6.03949V6.04011L20.9954 6.04316V6.04438L20.996 6.04744V6.04866L20.9966 6.05111V6.05233V6.05477V6.05661V6.05905V6.06088V6.06272V6.06455V6.06638V6.06883V6.07066V6.0731V6.07433V6.07738V6.0786V6.08166V6.08227V6.08533V6.08594V6.0896V6.09327V25.6819C20.9966 25.8566 20.8541 25.9984 20.6784 25.9984H0.315311C0.139603 25.9984 -0.00292969 25.8566 -0.00292969 25.6819V0.31556C-0.00292969 0.140793 0.139603 -0.000976562 0.315311 -0.000976562L0.317768 -0.000365488ZM9.72429 18.3832C8.50355 18.0624 7.41674 17.0321 6.93508 16.3887C6.3029 15.5411 5.93059 14.531 5.86178 13.4799C5.79298 12.4283 6.03135 11.3797 6.54803 10.4582C7.03153 9.58923 7.74297 8.86572 8.60676 8.36402C9.47117 7.86233 10.4566 7.6014 11.4593 7.60812C15.8452 7.62096 18.6977 12.5407 15.8962 16.4217C15.4465 17.0437 14.3498 18.0269 13.1862 18.3661V18.9081C15.8477 18.1101 17.9647 15.4959 17.4708 12.2266C17.0156 9.20608 14.1127 6.55219 10.5033 7.15532C9.35383 7.34781 8.15889 7.866 7.36698 8.59318C5.94472 9.89721 5.05267 11.7897 5.38074 14.0226C5.55952 15.1647 6.06268 16.2328 6.83125 17.103C7.60043 17.9726 8.60308 18.6087 9.72306 18.9362V18.3826L9.72429 18.3832ZM15.5982 14.1564C15.8692 14.5408 16.1604 14.501 16.4786 14.1778C16.2224 14.0116 15.8778 13.8643 15.5982 14.1564ZM6.4055 14.1619C6.58059 14.5518 7.0985 14.5004 7.25639 14.1167C6.88777 13.9523 6.73295 13.9089 6.4055 14.1619ZM12.2069 10.8554C12.551 10.6916 12.8563 10.4857 12.8238 9.96076C12.3482 10.1105 12.2168 10.3066 12.2069 10.8554ZM11.09 11.3827C11.1828 11.2526 11.2448 11.1041 11.2725 10.9476C11.2995 10.7912 11.2915 10.6305 11.2479 10.4771C11.2375 10.4252 11.2147 10.3763 11.1828 10.3347C11.1502 10.2932 11.1084 10.259 11.0605 10.2357C11.0028 10.4148 10.8756 10.5957 10.8633 10.8218C10.8584 10.9177 10.8725 11.0136 10.9063 11.1035C10.9401 11.1933 10.9911 11.2758 11.0581 11.3455C11.0648 11.3534 11.0796 11.3693 11.09 11.3827ZM10.389 12.7937C10.3565 12.3128 9.99154 12.1765 9.46073 12.1991C9.59281 12.6409 9.83242 12.8634 10.389 12.7937ZM12.6278 9.42118C12.7451 9.36252 12.6505 9.43951 12.742 9.34663L12.9681 8.90727C13.0093 8.66712 12.9429 8.36647 12.8133 8.22531C12.511 8.53512 12.3292 8.97204 12.6278 9.42057V9.42118ZM11.9741 13.8918C12.5534 13.9004 12.696 13.7311 12.7943 13.1909C12.2469 13.1347 11.9925 13.3834 11.9741 13.8918ZM10.8897 13.8906C10.8971 13.3932 10.5776 13.1371 10.0622 13.1964C10.1445 13.7176 10.3227 13.9071 10.8897 13.8906ZM9.53506 11.7848C9.37533 11.2226 9.30898 11.0466 8.63441 11.0729C8.73332 11.5777 8.94712 11.8264 9.53506 11.7848ZM13.2901 11.8148C13.8706 11.7683 14.1268 11.607 14.2165 11.0729C13.5782 11.0393 13.4111 11.2544 13.2901 11.8148ZM8.73516 10.1288C8.79046 9.56417 8.53427 9.24825 8.02496 9.18164C7.9752 9.77377 8.24982 9.98765 8.73516 10.1288ZM7.30923 10.4252C7.51381 10.8322 8.13984 10.958 8.54348 10.6922C8.25596 10.24 7.92298 10.2975 7.30923 10.4252ZM14.1237 10.1227C14.6288 9.99193 14.8794 9.79883 14.8346 9.17981C14.3271 9.25619 14.0635 9.55928 14.1237 10.1227ZM12.2911 12.7454C12.8674 12.9404 13.2557 12.6348 13.3927 12.2071C12.7193 12.1435 12.4994 12.2847 12.2911 12.7454ZM14.3173 10.6922C14.4168 10.7631 14.5317 10.8114 14.6533 10.8322C14.7744 10.8535 14.8991 10.8474 15.0176 10.815C15.1282 10.7937 15.2327 10.7478 15.323 10.6806C15.4133 10.6134 15.4864 10.5266 15.5374 10.4276C14.9703 10.2901 14.5606 10.24 14.3179 10.6922H14.3173ZM14.4881 13.3626C14.9341 13.2422 15.1675 12.889 15.0539 12.2993C14.8266 12.278 14.6429 12.4656 14.563 12.6116C14.4408 12.8377 14.4709 13.1127 14.4881 13.3626ZM8.36962 13.3589C8.38682 13.1041 8.41078 12.8322 8.29344 12.6098C8.2148 12.4613 8.03848 12.2798 7.80502 12.3C7.68153 12.8933 7.92482 13.2404 8.36962 13.3589ZM15.5435 12.5517C16.0479 12.5053 16.3029 12.1392 16.2402 11.5575C15.7549 11.6553 15.4956 11.9846 15.5435 12.5517ZM7.31844 12.5529C7.36329 11.9889 7.10464 11.6265 6.61192 11.5551C6.57383 12.1307 6.78272 12.4772 7.31844 12.5529ZM10.3528 10.5682C10.6637 10.2871 10.5684 9.54156 10.1679 9.36924C9.79187 9.84649 10.0444 10.2914 10.3528 10.5682ZM14.6103 15.1463C14.4303 14.5817 14.1047 14.4748 13.4547 14.619C13.6163 15.1549 14.1158 15.1848 14.6103 15.1463ZM11.2024 9.3558C11.2012 8.73372 11.0347 8.46485 10.4879 8.32919C10.4363 8.92682 10.6354 9.28613 11.2024 9.3558ZM8.24613 15.1463C8.66082 15.1738 9.2156 15.2081 9.40543 14.619C8.70752 14.4815 8.42245 14.5787 8.24613 15.1463ZM11.6872 8.10065C11.5698 8.54673 11.9299 8.66773 11.5901 10.2137C11.4353 10.9128 11.3462 11.5642 11.2141 12.2651L9.86866 10.7448C9.66039 10.4295 9.52216 10.0744 9.46257 9.70289C9.37103 9.18836 9.52155 8.70745 8.99074 8.79483C8.69584 9.51406 9.16768 10.7356 9.53138 11.2006C10.0646 11.8777 10.4769 12.2272 10.8406 12.9477C11.5115 14.278 11.1957 16.9838 11.1981 18.6038L10.7183 18.5916L10.7404 15.865C10.7392 14.872 10.4093 14.3251 9.98109 13.6767C9.46196 12.8921 8.29651 10.5339 6.92218 10.8939C6.75077 11.3736 7.07331 11.2465 7.86154 11.7567C8.20374 11.9779 8.56253 12.4136 8.79844 12.7778C8.99012 13.0607 9.14064 13.3687 9.24693 13.6932C8.24244 13.5093 7.39094 13.6657 6.74155 12.7436C6.53697 12.4539 6.5769 12.223 6.11675 12.3427C6.09033 12.4381 6.0848 12.5377 6.09954 12.6348C6.1149 12.7326 6.14992 12.8255 6.20399 12.9086C6.38891 13.2172 6.70592 13.6028 7.00757 13.7592C7.24349 13.8814 7.30124 13.8466 7.56726 14.0122C7.57647 14.0183 7.5949 14.0311 7.60842 14.0409C7.48002 14.2432 7.10649 14.5689 7.19925 14.8628C7.23796 14.9875 7.21584 14.9154 7.26745 14.974C7.74972 15.1916 7.82529 14.5634 8.13432 14.3422C8.44334 14.121 9.03743 14.11 9.42939 14.2847C10.2189 14.6367 10.1943 15.7709 10.1943 16.7791C10.1943 17.5363 10.1715 18.2867 10.1715 19.0474L10.9598 20.5928L11.2608 20.3655H11.6466L11.9489 20.5928L12.7371 19.0474L12.7359 19.0248H12.7371C12.7371 18.9099 12.7322 18.7786 12.7267 18.6337C12.6646 17.2558 12.3869 14.7406 13.4252 14.2835C13.7975 14.1197 14.4223 14.11 14.7209 14.3409C15.0281 14.5799 15.0944 15.1916 15.589 14.9752L15.6683 14.7369C15.6517 14.6465 15.6185 14.5597 15.5706 14.4809L15.3334 14.1558C15.2407 14.0372 15.3322 14.1772 15.2462 14.0409C15.7432 13.6938 15.8483 14.0323 16.599 12.9807C16.7526 12.7668 16.814 12.622 16.7329 12.3458C16.2992 12.2077 16.3207 12.4185 16.1419 12.713C15.5859 13.6327 14.4383 13.5441 13.6015 13.6975C13.9142 12.7906 14.5169 11.981 15.3703 11.5214C15.734 11.3253 16.1075 11.34 15.9287 10.8963C15.3826 10.7454 14.6509 11.266 14.3769 11.5147C13.8583 11.9871 12.9939 13.4671 12.5971 14.1344C12.2622 14.7015 12.0699 15.1451 12.1148 15.9279L12.2118 18.583L11.7646 18.6282L11.6921 13.9205C11.6909 13.2771 11.858 12.9184 12.1553 12.479L13.0621 11.4909C13.4369 11.0809 14.3584 9.51345 13.8215 8.74778C12.9282 8.75694 13.9554 9.55195 12.6886 11.0601L12.0466 11.7622C11.9471 11.893 11.8389 12.0182 11.724 12.1368C11.8002 10.9452 12.5946 9.23908 12.1 8.11837L11.6866 8.10248L11.6872 8.10065ZM2.38879 23.5761H3.23477V24.4469H2.38879V23.5761ZM2.38879 21.8834H3.23477V22.7542H2.38879V21.8834ZM2.38879 20.1908H3.23477V21.0615H2.38879V20.1908ZM2.38879 18.4981H3.23477V19.3689H2.38879V18.4981ZM2.38879 16.8054H3.23477V17.6762H2.38879V16.8054ZM2.38879 15.1127H3.23477V15.9835H2.38879V15.1127ZM2.38879 13.4201H3.23477V14.2908H2.38879V13.4201ZM2.38879 11.7274H3.23477V12.5982H2.38879V11.7274ZM2.38879 10.0347H3.23477V10.9055H2.38879V10.0347ZM2.38879 8.34202H3.23477V9.2128H2.38879V8.34202ZM2.38879 6.64935H3.23477V7.52013H2.38879V6.64935ZM2.38879 4.95667H3.23477V5.82745H2.38879V4.95667ZM2.38879 3.26399H3.23477V4.13478H2.38879V3.26399ZM2.38879 1.57132H3.23477V2.4421H2.38879V1.57132ZM15.1903 1.07757V5.77429H19.9123L15.1903 1.07757ZM14.5532 6.09083V0.629652H0.636008V25.3623H20.362V6.40736H14.8714C14.6957 6.40736 14.5532 6.26559 14.5532 6.09083Z" fill="#F6F7FC"/>
</g>
<defs>
<clipPath id="clip0">
<rect width="20.6316" height="26" fill="white"/>
</clipPath>
</defs>
</svg>
