<svg width="20" height="20" viewBox="0 0 20 20" fill="none" xmlns="http://www.w3.org/2000/svg">
<g clip-path="url(#clip0)">
<path d="M10.2103 1.48759C12.4781 1.54245 14.5264 2.48416 16.0213 3.97903C17.5161 5.47389 18.4576 7.5219 18.5127 9.78996H20.0003V10.2103H18.5127C18.4579 12.4781 17.5161 14.5264 16.0213 16.0213C14.5264 17.5161 12.4781 18.4576 10.2103 18.5127V20.0003H9.78996V18.5127C7.5222 18.4579 5.47389 17.5161 3.97903 16.0213C2.48416 14.5264 1.54275 12.4781 1.48759 10.2103H0V9.78996H1.48759C1.54245 7.5222 2.48416 5.47389 3.97903 3.97903C5.47389 2.48416 7.5219 1.54275 9.78996 1.48759V0H10.2103V1.48759ZM8.46937 2.95669H9.02798V3.53499H8.46937V2.95669ZM7.14212 3.36405H7.70072V3.94235H7.14212V3.36405ZM6.01218 3.95538H6.57079V4.53369H6.01218V3.95538ZM4.94772 4.7701H5.50632V5.34841H4.94772V4.7701ZM4.06723 5.86094H4.62583V6.43924H4.06723V5.86094ZM3.44952 7.00421H4.00812V7.58252H3.44952V7.00421ZM3.0946 8.17385H3.6532V8.75216H3.0946V8.17385ZM3.05519 10.815H3.6138V11.3933H3.05519V10.815ZM3.48892 12.0501H4.04752V12.6284H3.48892V12.0501ZM4.05389 13.2592H4.61249V13.8375H4.05389V13.2592ZM4.90801 14.3367H5.46661V14.915H4.90801V14.3367ZM5.98885 15.1775H6.54745V15.7558H5.98885V15.1775ZM7.17152 15.7294H7.73012V16.3077H7.17152V15.7294ZM8.3542 16.1237H8.9128V16.702H8.3542V16.1237ZM10.9299 16.1368H11.4885V16.7151H10.9299V16.1368ZM12.2177 15.7424H12.7763V16.3207H12.2177V15.7424ZM13.3477 15.1381H13.9063V15.7164H13.3477V15.1381ZM14.4646 14.3103H15.0232V14.8886H14.4646V14.3103ZM15.2663 13.154H15.8249V13.7323H15.2663V13.154ZM15.8576 12.0501H16.4162V12.6284H15.8576V12.0501ZM16.1992 10.9332H16.7578V11.5115H16.1992V10.9332ZM16.265 8.22629H16.8236V8.80459H16.265V8.22629ZM15.8446 6.97784H16.4032V7.55615H15.8446V6.97784ZM15.3057 5.87397H15.8643V6.45228H15.3057V5.87397ZM14.4646 4.78314H15.0232V5.36144H14.4646V4.78314ZM13.3213 3.94205H13.8799V4.52035H13.3213V3.94205ZM12.1911 3.37708H12.7497V3.95538H12.1911V3.37708ZM10.9426 2.95669H11.5012V3.53499H10.9426V2.95669ZM15.3745 9.78965H18.0917C18.0369 7.63798 17.1424 5.69484 15.7236 4.27606C14.3049 2.85727 12.3617 1.96284 10.21 1.90798V4.62522H9.78965V1.90798C7.63798 1.96284 5.69484 2.85727 4.27606 4.27606C2.85727 5.69484 1.96284 7.63768 1.90798 9.78965H4.62522V10.21H1.90798C1.96284 12.3617 2.85727 14.3049 4.27606 15.7236C5.69484 17.1424 7.63768 18.0369 9.78965 18.0917V15.3745H10.21V18.0917C12.3617 18.0369 14.3049 17.1424 15.7236 15.7236C17.1424 14.3049 18.0369 12.3617 18.0917 10.21H15.3745V9.78965ZM10 8.31782C10.4643 8.31782 10.885 8.50605 11.1893 8.81035C11.4937 9.11466 11.6819 9.53536 11.6819 9.9997C11.6819 10.4631 11.4937 10.8832 11.1893 11.1881L11.1884 11.189C10.8838 11.4933 10.4634 11.6816 10 11.6816C9.53566 11.6816 9.11496 11.4933 8.81066 11.189C8.50635 10.8847 8.31813 10.464 8.31813 9.9997C8.31813 9.53596 8.50635 9.11557 8.81066 8.81126L8.81157 8.81035C9.11587 8.50605 9.53627 8.31782 10 8.31782ZM10.892 9.10769C10.6638 8.87946 10.3483 8.73822 10 8.73822C9.65144 8.73822 9.33562 8.87946 9.10769 9.10739C8.87976 9.33562 8.73852 9.65114 8.73852 9.9997C8.73852 10.348 8.87976 10.6635 9.10799 10.8917C9.33622 11.1199 9.65174 11.2612 10 11.2612C10.3489 11.2612 10.6644 11.1202 10.892 10.8926L10.8929 10.8917C11.1205 10.6641 11.2615 10.3486 11.2615 9.9997C11.2615 9.65144 11.1202 9.33592 10.892 9.10769Z" fill="#98C22A"/>
</g>
<defs>
<clipPath id="clip0">
<rect width="20" height="20" fill="white"/>
</clipPath>
</defs>
</svg>
