<svg width="67" height="63" viewBox="0 0 67 63" fill="none" xmlns="http://www.w3.org/2000/svg">
<path fill-rule="evenodd" clip-rule="evenodd" d="M27.3264 40.5873C22.9693 39.4371 19.0912 35.7419 17.3743 33.433C15.1186 30.3917 13.7892 26.7694 13.5445 22.9976C13.2997 19.2259 14.1498 15.4636 15.9936 12.1589C17.7175 9.04222 20.2559 6.44687 23.3405 4.64734C26.425 2.84782 29.9411 1.911 33.5168 1.93596C49.1679 1.98314 59.3443 19.6309 49.349 33.5531C47.7442 35.7848 43.8315 39.3128 39.6814 40.5272V42.4715C49.1765 39.609 56.7303 30.231 54.9699 18.5022C53.3449 7.66557 42.9861 -1.85464 30.1089 0.309386C26.0062 1.00027 21.744 2.85878 18.9184 5.46822C13.8443 10.1463 10.6605 16.9357 11.8305 24.9442C12.4681 29.0417 14.2633 32.8745 17.0069 35.9957C19.7505 39.1169 23.3294 41.398 27.3264 42.5728V40.5873Z" fill="#008DD2"/>
<path fill-rule="evenodd" clip-rule="evenodd" d="M34.3295 3.70361C33.911 5.30445 35.1964 5.73798 33.9843 11.2828C33.4321 13.7903 33.1127 16.1282 32.6424 18.6433L27.841 13.1885C27.098 12.0582 26.604 10.7843 26.3914 9.4504C26.0637 7.60508 26.6026 5.87952 24.709 6.19295C23.6564 8.77237 25.3391 13.1545 26.6371 14.8237C28.5397 17.2526 30.0106 18.5061 31.3093 21.0898C33.7034 25.8622 32.5775 35.5702 32.5861 41.3806L30.8735 41.3377L30.9511 31.5569C30.9468 27.9936 29.7692 26.0335 28.242 23.7071C26.3911 20.8918 22.2326 12.4326 17.3276 13.7247C16.7151 15.4456 17.8669 14.9906 20.6796 16.8191C21.9003 17.6129 23.1817 19.1752 24.0231 20.4814C24.7063 21.4971 25.2449 22.6019 25.6237 23.7645C22.039 23.1047 19.0018 23.6655 16.6849 20.357C15.9553 19.3183 16.0983 18.4899 14.4547 18.9191C14.361 19.2603 14.3402 19.6173 14.3937 19.9669C14.4472 20.3166 14.5739 20.6512 14.7654 20.9492C15.4254 22.0565 16.5563 23.4386 17.6341 24.0008C18.4755 24.4386 18.6821 24.3142 19.6312 24.9064C19.6644 24.9279 19.7308 24.9751 19.7782 25.0094C19.3208 25.7352 17.9873 26.9022 18.3189 27.958C18.4572 28.4044 18.3793 28.1467 18.5607 28.3572C20.2819 29.1382 20.5505 26.885 21.6535 26.0912C22.7566 25.2974 24.8761 25.2585 26.2737 25.8853C29.0906 27.147 29.0043 31.2157 29.0043 34.8338C29.0043 37.5505 28.9225 40.2414 28.9225 42.9709L31.7351 48.5158L32.8093 47.7002H34.1853L35.2637 48.5158L38.0764 42.9709L38.0721 42.8894H38.0764C38.0764 42.4773 38.0591 42.0052 38.0376 41.4859C37.8177 36.5419 36.8254 27.5205 40.5312 25.8801C41.8601 25.2921 44.0901 25.2578 45.1556 26.0859C46.25 26.9438 46.4884 29.1375 48.2531 28.3605L48.5377 27.5063C48.477 27.1819 48.3587 26.8709 48.1885 26.5878L47.3431 25.4205C47.0115 24.9955 47.3388 25.4977 47.0323 25.0084C48.8053 23.7639 49.1807 24.9783 51.8597 21.2059C52.4075 20.4375 52.6274 19.9192 52.3386 18.9271C50.7898 18.4322 50.8674 19.1887 50.229 20.2445C48.2448 23.5438 44.1507 23.2271 41.1656 23.7764C42.2826 20.5233 44.4313 17.6179 47.4771 15.9699C48.7755 15.2661 50.1087 15.3176 49.4703 13.7263C47.5202 13.1856 44.9101 15.0523 43.9318 15.9451C42.0812 17.6403 38.9967 22.9493 37.5816 25.3439C36.3877 27.3783 35.7009 28.9706 35.8604 31.7776L36.2053 41.3011L34.6091 41.4641L34.3501 24.5762C34.3458 22.2666 34.9414 20.9799 36.0023 19.4045L39.2378 15.8593C40.575 14.3872 43.8622 8.76577 41.947 6.01842C38.7589 6.05141 42.4259 8.90236 37.905 14.3143L35.6143 16.8336C35.2581 17.3043 34.8734 17.7529 34.4625 18.1771C34.7341 13.9025 37.5683 7.78258 35.804 3.76103L34.3295 3.70361Z" fill="#98C22A"/>
<path fill-rule="evenodd" clip-rule="evenodd" d="M22.0518 28.9781C23.5315 29.0771 25.5118 29.201 26.189 27.0855C23.6994 26.5913 22.6819 26.9394 22.0518 28.9781Z" fill="#98C22A"/>
<path fill-rule="evenodd" clip-rule="evenodd" d="M32.6006 8.20582C32.5966 5.97416 32.001 5.00844 30.0512 4.52344C29.8659 6.668 30.5776 7.95672 32.6006 8.20582Z" fill="#98C22A"/>
<path fill-rule="evenodd" clip-rule="evenodd" d="M44.7599 28.9775C44.1175 26.9517 42.9569 26.5691 40.6357 27.0851C41.2135 29.0086 42.9952 29.1151 44.7599 28.9775Z" fill="#98C22A"/>
<path fill-rule="evenodd" clip-rule="evenodd" d="M29.5679 12.5538C30.6769 11.5452 30.3361 8.87138 28.908 8.25342C27.5666 9.96577 28.4679 11.5623 29.5679 12.5538Z" fill="#98C22A"/>
<path fill-rule="evenodd" clip-rule="evenodd" d="M18.7403 19.6732C18.9001 17.6517 17.9775 16.3511 16.2198 16.0938C16.0832 18.1585 16.8293 19.4027 18.7403 19.6732Z" fill="#98C22A"/>
<path fill-rule="evenodd" clip-rule="evenodd" d="M48.0886 19.6696C49.8877 19.5023 50.7981 18.1889 50.5733 16.103C48.8411 16.4551 47.9174 17.6356 48.0886 19.6696Z" fill="#98C22A"/>
<path fill-rule="evenodd" clip-rule="evenodd" d="M22.4905 22.5659C22.5509 21.6517 22.6371 20.6774 22.2189 19.8789C21.9384 19.3467 21.3088 18.6944 20.476 18.7673C20.0356 20.8964 20.9029 22.141 22.4905 22.5659Z" fill="#98C22A"/>
<path fill-rule="evenodd" clip-rule="evenodd" d="M44.3219 22.5789C45.9138 22.146 46.7468 20.8798 46.3409 18.7639C45.5304 18.6867 44.8739 19.3601 44.5897 19.8837C44.1536 20.695 44.2609 21.6822 44.3219 22.5789Z" fill="#98C22A"/>
<path fill-rule="evenodd" clip-rule="evenodd" d="M43.7129 12.9994C44.0695 13.2543 44.479 13.4263 44.9112 13.5028C45.3434 13.5793 45.7875 13.5584 46.2106 13.4416C46.6057 13.3654 46.978 13.2005 47.2994 12.9596C47.6208 12.7186 47.8829 12.4078 48.0653 12.0509C46.0427 11.558 44.5801 11.3772 43.7129 12.9994Z" fill="#98C22A"/>
<path fill-rule="evenodd" clip-rule="evenodd" d="M36.4834 20.3642C38.5396 21.0639 39.9257 19.9682 40.4132 18.4327C38.0105 18.2054 37.2256 18.7119 36.4834 20.3642Z" fill="#98C22A"/>
<path fill-rule="evenodd" clip-rule="evenodd" d="M43.0235 10.9565C44.8267 10.4887 45.7202 9.79351 45.5601 7.57471C43.749 7.84921 42.808 8.93502 43.0235 10.9565Z" fill="#98C22A"/>
<path fill-rule="evenodd" clip-rule="evenodd" d="M18.709 12.0426C19.4386 13.5016 21.6729 13.9526 23.1139 12.9995C22.0868 11.3775 20.9005 11.5833 18.709 12.0426Z" fill="#98C22A"/>
<path fill-rule="evenodd" clip-rule="evenodd" d="M23.7971 10.9779C23.9961 8.95213 23.0807 7.81912 21.2646 7.57959C21.0878 9.70403 22.0669 10.4725 23.7971 10.9779Z" fill="#98C22A"/>
<path fill-rule="evenodd" clip-rule="evenodd" d="M40.0503 17.0257C42.1214 16.8585 43.035 16.2791 43.355 14.3652C41.0783 14.2444 40.4814 15.0168 40.0503 17.0257Z" fill="#98C22A"/>
<path fill-rule="evenodd" clip-rule="evenodd" d="M26.6512 16.9184C26.0815 14.9011 25.8444 14.2706 23.437 14.365C23.7909 16.176 24.5543 17.0688 26.6512 16.9184Z" fill="#98C22A"/>
<path fill-rule="evenodd" clip-rule="evenodd" d="M31.4848 24.4713C31.511 22.6861 30.3718 21.7679 28.5332 21.9823C28.827 23.8537 29.4618 24.5317 31.4848 24.4713Z" fill="#98C22A"/>
<path fill-rule="evenodd" clip-rule="evenodd" d="M35.3545 24.4763C37.4206 24.5063 37.9301 23.9005 38.2797 21.9612C36.3256 21.7593 35.4185 22.6517 35.3545 24.4763Z" fill="#98C22A"/>
<path fill-rule="evenodd" clip-rule="evenodd" d="M37.6862 8.43819C38.105 8.22802 37.768 8.50418 38.092 8.17193L38.8987 6.59684C39.0457 5.73406 38.8085 4.65684 38.3472 4.15039C37.268 5.26226 36.6206 6.82878 37.6862 8.43819Z" fill="#98C22A"/>
<path fill-rule="evenodd" clip-rule="evenodd" d="M29.6979 20.5363C29.5815 18.8107 28.2784 18.3218 26.3848 18.403C26.855 19.9866 27.7094 20.7847 29.6979 20.5363Z" fill="#98C22A"/>
<path fill-rule="evenodd" clip-rule="evenodd" d="M32.1995 15.4755C32.5307 15.0099 32.7533 14.4765 32.8508 13.9144C32.9484 13.3524 32.9185 12.7757 32.7634 12.2266C32.7262 12.0407 32.6465 11.8659 32.5305 11.7156C32.4145 11.5653 32.2653 11.4436 32.0944 11.3599C31.8875 12.0036 31.4344 12.6516 31.3913 13.4629C31.3729 13.8068 31.4249 14.1508 31.5442 14.4741C31.6635 14.7974 31.8478 15.0932 32.0855 15.3435C32.1091 15.3725 32.1611 15.4283 32.1995 15.4755Z" fill="#98C22A"/>
<path fill-rule="evenodd" clip-rule="evenodd" d="M36.1846 13.5838C37.414 12.9962 38.5013 12.2578 38.3849 10.3735C36.6896 10.91 36.2194 11.6137 36.1846 13.5838Z" fill="#98C22A"/>
<path fill-rule="evenodd" clip-rule="evenodd" d="M15.4844 25.445C16.1098 26.8439 17.9564 26.6594 18.5215 25.282C17.2056 24.6914 16.6534 24.5364 15.4844 25.445Z" fill="#98C22A"/>
<path fill-rule="evenodd" clip-rule="evenodd" d="M48.2852 25.4247C49.2522 26.8025 50.2911 26.6606 51.426 25.5019C50.5114 24.9057 49.2821 24.3775 48.2852 25.4247Z" fill="#98C22A"/>
<path fill-rule="evenodd" clip-rule="evenodd" d="M34.6546 49.8661L33.3822 52.9734L32.1094 49.8661L32.8559 49.4111H33.9085L34.6546 49.8661Z" fill="#FEFEFE"/>
<path fill-rule="evenodd" clip-rule="evenodd" d="M31.8932 51.603C31.8798 51.5531 31.8625 51.5043 31.8414 51.4571C31.4979 50.7643 31.0008 50.1582 30.3875 49.6843C28.4289 48.1666 25.6292 47.9299 23.235 48.1104C21.7901 48.2411 20.3595 48.498 18.9599 48.8782C17.4284 49.2691 15.9141 49.7358 14.3958 50.1911C13.3777 50.4963 12.282 50.8221 11.1474 51.1191C10.4099 51.3121 9.65504 51.4878 8.89559 51.6336H31.2286V52.5132H0V51.6336H1.9716C1.71723 51.5604 1.46253 51.479 1.21248 51.3804L0.781344 51.2174L1.12227 50.3674L1.5534 50.5349C2.11396 50.7462 2.69516 50.8987 3.28755 50.9899C4.40821 51.1509 5.5449 51.1695 6.67028 51.0453C8.78625 50.7838 10.8734 50.3283 12.9051 49.6846C12.2581 49.8397 11.5938 49.99 10.9153 50.1315C7.50734 50.8402 3.78866 51.2355 0.764431 49.8702L0.333298 49.6769L0.72596 48.8189L1.15709 49.0116C1.71821 49.2601 2.30369 49.4501 2.90417 49.5786C4.03682 49.8031 5.19372 49.8826 6.3466 49.8145C8.13833 49.6992 9.91663 49.4293 11.6615 49.008C8.39149 49.6128 4.83664 49.9004 1.98089 48.5444L1.56667 48.3465L1.96464 47.5265L2.37454 47.7247C2.90958 47.9732 3.46906 48.1657 4.04402 48.2995C5.132 48.5403 6.24671 48.6402 7.36042 48.5966C9.93163 48.5276 12.6063 47.9055 14.815 47.4089C17.7096 46.7527 20.8718 45.9499 23.8443 45.9416C26.4642 45.9288 29.3876 46.4364 31.3808 48.2586C32.0364 48.8594 32.5886 49.9285 32.9942 50.7434L33.4386 51.6362H33.568L34.008 50.7434C34.4136 49.9281 34.9658 48.8594 35.6215 48.2586C37.6189 46.435 40.5394 45.9288 43.158 45.9416C46.1302 45.9499 49.2967 46.7527 52.1872 47.4089C54.396 47.9071 57.0749 48.5306 59.6418 48.5966C60.7556 48.6402 61.8703 48.5403 62.9582 48.2995C63.5336 48.167 64.0932 47.9745 64.6277 47.7247L65.0419 47.5265L65.4346 48.3465L65.0204 48.5444C62.1646 49.9004 58.6141 49.6128 55.3441 49.008C57.0874 49.4296 58.8643 49.6995 60.6547 49.8145C61.809 49.8826 62.9673 49.8031 64.1014 49.5786C64.7005 49.4501 65.2845 49.2601 65.8442 49.0116L66.2753 48.8189L66.668 49.6769L66.2368 49.8702C63.2169 51.2355 59.4943 50.8402 56.086 50.1315C55.4088 49.99 54.7445 49.8398 54.0962 49.6811C56.1282 50.3283 58.2165 50.785 60.334 51.0456C61.4577 51.1698 62.5927 51.1512 63.7117 50.9902C64.3041 50.899 64.8853 50.7465 65.4459 50.5353L65.8817 50.3677L66.2183 51.2177L65.7871 51.3807C65.5371 51.4797 65.2824 51.5607 65.028 51.634H66.9996V52.5136H35.7714V51.634H58.109C57.3462 51.4885 56.5904 51.3124 55.8538 51.1194C54.7193 50.8225 53.6236 50.4924 52.6054 50.1915C51.0912 49.7365 49.5769 49.2678 48.0414 48.8785C46.6431 48.4987 45.214 48.2418 43.7705 48.1107C41.3721 47.9302 38.5721 48.1663 36.618 49.6846C36.002 50.157 35.5028 50.7634 35.1588 51.4574C35.1416 51.5049 35.1257 51.5565 35.1071 51.6033L35.0985 51.6336H35.2709V52.5132H31.729V51.6336H31.9058L31.8932 51.603Z" fill="#02517A"/>
<path d="M2.52378 58.8573C2.09265 58.8573 1.87244 58.6647 1.87244 58.2773C1.87161 58.1484 1.895 58.0204 1.94142 57.9C1.96912 57.822 2.00237 57.7462 2.04091 57.6729H5.22466C5.175 57.3484 5.0699 57.0345 4.91391 56.7453C4.77043 56.4795 4.57714 56.2437 4.34449 56.0503C4.11613 55.8599 3.85438 55.713 3.57243 55.6172C3.2783 55.5159 2.96903 55.4649 2.65776 55.4664C2.41637 55.4649 2.17576 55.4941 1.94175 55.5531C1.7355 55.5995 1.53458 55.6666 1.34215 55.7538C1.17889 55.8252 1.02333 55.9129 0.877852 56.0155C0.768358 56.0938 0.667133 56.1833 0.575727 56.2819C0.520706 56.2495 0.468757 56.2119 0.42052 56.1701C0.357651 56.1153 0.299929 56.0549 0.248067 55.9897C0.193762 55.9171 0.149169 55.8379 0.115411 55.7538C0.0777819 55.6672 0.0586946 55.5737 0.0593636 55.4793C0.0697078 55.3597 0.109703 55.2447 0.175769 55.1442C0.276969 54.9817 0.416108 54.8458 0.581365 54.7483C0.82777 54.5982 1.09736 54.4896 1.37929 54.4267C1.80616 54.3281 2.24388 54.2836 2.68197 54.2946C3.20897 54.2915 3.7322 54.3832 4.22642 54.5653C4.7003 54.7353 5.13359 55.0009 5.49893 55.3459C5.87011 55.7009 6.16258 56.1294 6.35754 56.6035C6.57584 57.1374 6.68302 57.7097 6.6726 58.286C6.68363 58.8659 6.5734 59.4417 6.34892 59.9769C6.14819 60.4435 5.84957 60.8623 5.47306 61.2048C5.09862 61.5371 4.66173 61.792 4.18762 61.9552C3.69001 62.1287 3.16614 62.216 2.63886 62.213C2.3056 62.216 1.97271 62.19 1.64394 62.1357C1.38591 62.0925 1.13108 62.0323 0.881168 61.9552C0.694153 61.8996 0.513437 61.825 0.341921 61.7323C0.224158 61.6679 0.110015 61.5973 0 61.5206L0.58236 60.5124C0.809924 60.6572 1.05674 60.7698 1.31562 60.8465C1.70632 60.9681 2.11417 61.0259 2.52345 61.0183C2.85052 61.0193 3.17601 60.9733 3.48985 60.8817C3.78372 60.7927 4.05962 60.6531 4.30502 60.4693C4.54644 60.2816 4.7499 60.0502 4.90463 59.7872C5.07308 59.5003 5.1856 59.1843 5.23627 58.856L2.52378 58.8573Z" fill="#98C22A"/>
<path d="M7.41118 58.9127V62.0142H6.11279V55.0917C6.11279 54.7053 6.32869 54.5124 6.76413 54.5124C6.90201 54.5105 7.03961 54.5249 7.17403 54.5556C7.25497 54.5715 7.33435 54.5945 7.41118 54.6245V57.7482H7.86419C8.12824 57.7568 8.39078 57.7055 8.63191 57.5981C8.84424 57.4934 9.03346 57.3476 9.18844 57.1692C9.47637 56.844 9.73607 56.4951 9.96479 56.1263C10.1591 55.8039 10.3359 55.5255 10.4911 55.2847C10.6202 55.0764 10.7785 54.8874 10.9614 54.7237C11.1377 54.578 11.3624 54.503 11.5915 54.5133C11.7519 54.5068 11.912 54.5333 12.0617 54.591C12.1694 54.6369 12.2709 54.6957 12.3639 54.7666C12.1136 55.1528 11.8245 55.5894 11.4966 56.0757C11.173 56.5647 10.8281 57.0581 10.4656 57.5646C10.3578 57.7154 10.2454 57.8562 10.1376 57.9805C10.0303 58.1006 9.91184 58.2102 9.78371 58.3079C10.0036 58.5563 10.2367 58.8308 10.4782 59.1327C10.7196 59.4346 10.9614 59.7425 11.2078 60.0645C11.4542 60.3865 11.6824 60.716 11.9109 61.0469C12.1394 61.3778 12.3509 61.7036 12.5493 62.0167H11.0393C10.8712 61.763 10.6901 61.4932 10.4914 61.2187C10.2928 60.9441 10.0858 60.6645 9.87026 60.39C9.6547 60.1154 9.44311 59.8497 9.22755 59.587C9.01198 59.3303 8.8004 59.0849 8.59345 58.8579C8.48998 58.875 8.38652 58.8876 8.27874 58.8969C8.16706 58.909 8.05477 58.9145 7.94244 58.9136L7.41118 58.9127Z" fill="#98C22A"/>
<path d="M15.0775 54.2953C16.1481 54.2799 17.1813 54.6872 17.9505 55.4282C18.3148 55.7881 18.6049 56.2153 18.8048 56.6857C19.2129 57.6922 19.2129 58.8168 18.8048 59.8233C18.6063 60.2947 18.3159 60.7224 17.9505 61.0815C17.3613 61.6271 16.6283 61.995 15.8371 62.1422C15.0459 62.2895 14.2289 62.2099 13.4813 61.9131C13.0061 61.7195 12.5726 61.4373 12.2041 61.0815C11.839 60.7224 11.5488 60.2948 11.3502 59.8237C11.0355 59.09 10.9487 58.2796 11.1009 57.4964C11.2531 56.7132 11.6373 55.993 12.2041 55.4288C12.5729 55.0731 13.0063 54.7905 13.4813 54.596C13.9883 54.3922 14.5307 54.29 15.0775 54.2953ZM15.0775 61.0203C15.4406 61.0224 15.8002 60.9508 16.1344 60.8096C16.4504 60.6778 16.7353 60.482 16.9711 60.2348C17.2123 59.9837 17.4015 59.6879 17.5279 59.3642C17.8041 58.6486 17.8041 57.8566 17.5279 57.141C17.4025 56.8153 17.2132 56.5176 16.9711 56.2653C16.7357 56.0186 16.4506 55.8243 16.1344 55.6947C15.4554 55.4197 14.6953 55.4197 14.0163 55.6947C13.6963 55.828 13.4071 56.0251 13.1667 56.274C12.9264 56.5228 12.7399 56.818 12.6187 57.1413C12.3542 57.859 12.3542 58.6468 12.6187 59.3645C12.7417 59.6867 12.9289 59.9806 13.1691 60.229C13.4093 60.4774 13.6974 60.6751 14.0163 60.8099C14.3518 60.9514 14.713 61.023 15.0775 61.0203Z" fill="#98C22A"/>
<path d="M21.8289 57.0628C21.7728 57.3034 21.7035 57.5785 21.6298 57.8877C21.5562 58.1968 21.4836 58.5109 21.4096 58.8369C21.3357 59.1629 21.2632 59.4763 21.1899 59.7854C21.1166 60.0896 21.0572 60.3643 21.0044 60.6051H24.4551V55.4074C24.3526 55.3865 24.2489 55.3718 24.1447 55.3639C23.9942 55.3481 23.843 55.3414 23.6917 55.3436C23.464 55.3409 23.2367 55.3653 23.0149 55.4164C22.826 55.4654 22.6514 55.5582 22.5054 55.687C22.3466 55.8377 22.2177 56.0166 22.1257 56.2148C22.0003 56.4876 21.9009 56.7716 21.8289 57.0628ZM18.809 61.8005V61.2424C18.8045 61.1566 18.8179 61.0709 18.8483 60.9905C18.8787 60.9101 18.9255 60.8368 18.9858 60.7752C19.1226 60.6555 19.3012 60.5941 19.4832 60.6038H19.6384C19.7846 59.9905 19.9369 59.3499 20.0868 58.6854C20.2423 58.0203 20.3888 57.3989 20.5311 56.8228C20.6239 56.3804 20.7778 55.9528 20.9884 55.5524C21.1557 55.2374 21.3862 54.96 21.6656 54.7372C21.933 54.5291 22.2418 54.3797 22.5715 54.299C22.9422 54.2056 23.3236 54.1611 23.706 54.1669C24.0117 54.1637 24.3172 54.1812 24.6206 54.2191C24.8706 54.2495 25.0474 54.2745 25.1512 54.2881C25.3079 54.3194 25.4544 54.3885 25.5781 54.4891C25.6436 54.5542 25.6935 54.6329 25.7242 54.7198C25.7548 54.8067 25.7653 54.8993 25.7551 54.9908V60.6051H25.8978C26.0799 60.5945 26.2588 60.6561 26.3952 60.7765C26.4563 60.8375 26.5035 60.9106 26.534 60.9911C26.5645 61.0716 26.5775 61.1578 26.5721 61.2437V61.8018H18.809V61.8005ZM28.1788 59.741C28.7008 58.9986 29.2271 58.2633 29.7578 57.5355C30.2844 56.8014 30.819 56.0665 31.354 55.3156C31.4534 55.1836 31.548 55.0493 31.6432 54.9302C31.7345 54.812 31.8368 54.7025 31.9489 54.6035C32.0589 54.5108 32.1826 54.4357 32.3157 54.3805C32.4582 54.3232 32.611 54.2954 32.7647 54.2987C32.8877 54.2962 33.0106 54.3063 33.1315 54.329C33.2138 54.3483 33.2944 54.3743 33.3726 54.4063V61.8002H32.0831V56.2383C31.781 56.6507 31.4574 57.1011 31.1081 57.5993C30.7589 58.0975 30.4093 58.5992 30.0598 59.1014C29.7102 59.6036 29.374 60.0973 29.0506 60.5652C28.7273 61.033 28.4464 61.4494 28.2006 61.8005H26.8894V54.8783C26.8832 54.7943 26.8958 54.7101 26.9264 54.6315C26.9569 54.5529 27.0046 54.482 27.0661 54.424C27.2091 54.3177 27.3855 54.2656 27.5636 54.2771C27.6947 54.2761 27.8254 54.2938 27.9516 54.3293C28.0683 54.3679 28.1456 54.3954 28.1804 54.4066L28.1788 59.741ZM35.0723 58.6983V61.7998H33.7695V54.8777C33.7695 54.491 33.9852 54.2984 34.421 54.2984C34.5603 54.2959 34.6994 54.3104 34.8352 54.3415C34.9556 54.3719 35.0341 54.3931 35.072 54.4076V57.5365H35.5207C35.7721 57.5496 36.0231 57.5036 36.2533 57.4021C36.4834 57.3006 36.6861 57.1465 36.8451 56.9523C37.1339 56.6278 37.3938 56.2789 37.6219 55.9097C37.8156 55.5913 37.993 55.3085 38.1482 55.072C38.2784 54.8616 38.4381 54.6709 38.6225 54.5055C38.7988 54.3635 39.0212 54.2903 39.2479 54.3C39.4081 54.2934 39.568 54.3196 39.7178 54.3767C39.8252 54.4234 39.9267 54.4824 40.02 54.5529C39.7699 54.9396 39.481 55.378 39.1577 55.8626C38.8343 56.3473 38.4848 56.8449 38.1263 57.3473C38.0146 57.5014 37.9022 57.6425 37.7947 57.7636C37.6876 57.8845 37.5692 57.9949 37.4412 58.0936C37.6611 58.343 37.8941 58.6175 38.1356 58.9184C38.377 59.2193 38.6231 59.5282 38.8652 59.8496C39.1073 60.1709 39.3442 60.4984 39.5684 60.8326C39.7926 61.1668 40.0127 61.4886 40.2114 61.8021H38.7014C38.5286 61.5451 38.3475 61.2786 38.1492 60.9995C37.9502 60.7256 37.7436 60.446 37.5324 60.1708C37.3161 59.9016 37.1012 59.6307 36.885 59.3737C36.6694 59.1097 36.4578 58.8712 36.2505 58.6436C36.147 58.6564 36.0436 58.6694 35.9359 58.6822C35.8324 58.6898 35.7202 58.6996 35.5995 58.6996L35.0723 58.6983ZM42.9842 55.4712H40.7798C40.3487 55.4712 40.1285 55.2733 40.1285 54.8774C40.1259 54.7481 40.1495 54.6198 40.1978 54.4997C40.2253 54.4228 40.2585 54.3478 40.2972 54.2758H46.5914C47.0269 54.2758 47.2427 54.4737 47.2427 54.8696C47.2433 54.9978 47.2229 55.1254 47.1822 55.2469C47.156 55.3253 47.1213 55.4004 47.0787 55.4712H44.2962V61.8008H42.9855L42.9842 55.4712ZM44.8952 61.8008C45.0809 61.3118 45.2835 60.7837 45.512 60.2169C45.7405 59.65 45.9786 59.0667 46.2284 58.4705C46.4781 57.8743 46.7377 57.2686 47.005 56.6559C47.2723 56.0432 47.5396 55.4427 47.8075 54.8583C47.8984 54.6172 48.0554 54.406 48.2606 54.2491C48.4516 54.1306 48.6741 54.0722 48.899 54.0815C48.9933 54.0807 49.0875 54.0906 49.1796 54.1112C49.262 54.1302 49.3427 54.1562 49.4207 54.1885C49.4897 54.2188 49.5506 54.2446 49.5974 54.2697C49.6265 54.2839 49.6541 54.3013 49.6797 54.3212C49.7964 54.5275 49.9516 54.8276 50.137 55.2311C50.3223 55.6346 50.5296 56.0854 50.7452 56.5873C50.9608 57.0842 51.1856 57.6101 51.4085 58.1538C51.6313 58.6975 51.8486 59.214 52.0423 59.7046C52.2413 60.1892 52.4093 60.6185 52.5559 60.9959C52.7025 61.3734 52.8063 61.6404 52.8664 61.8027H51.4072C51.374 61.7169 51.3249 61.5933 51.2645 61.4303C51.2041 61.2673 51.1435 61.095 51.0749 60.9109C51.0016 60.7215 50.9326 60.5328 50.8593 60.3445C50.7861 60.1561 50.7167 59.988 50.6603 59.8425H46.9652C46.8056 60.2407 46.6588 60.6146 46.5341 60.9528C46.4094 61.2909 46.2969 61.5767 46.2193 61.8027L44.8952 61.8008ZM50.2186 58.6858C50.1191 58.4152 49.9983 58.1186 49.869 57.7926C49.7396 57.4667 49.6061 57.1495 49.4764 56.8357C49.3473 56.5278 49.2265 56.2447 49.1142 55.9861C48.9975 55.7329 48.9069 55.5398 48.8423 55.4067C48.7475 55.6129 48.6397 55.844 48.5233 56.1024C48.4069 56.3607 48.2815 56.6378 48.1565 56.9272C48.0315 57.2165 47.9104 57.5104 47.7854 57.8107C47.6603 58.1109 47.539 58.403 47.4319 58.6864L50.2186 58.6858ZM53.083 54.8786C53.0762 54.7938 53.0895 54.7085 53.1217 54.6296C53.154 54.5507 53.2044 54.4804 53.2688 54.4243C53.4166 54.319 53.5961 54.2671 53.7777 54.2774C53.9076 54.2762 54.037 54.2938 54.1618 54.3296C54.2825 54.3683 54.3598 54.3942 54.3939 54.4069V57.2945H58.2767V54.8786C58.2701 54.7942 58.2832 54.7093 58.3146 54.6306C58.3461 54.5518 58.3952 54.4813 58.4582 54.4243C58.6028 54.3189 58.7797 54.2669 58.9586 54.2774C59.0931 54.2755 59.2272 54.2931 59.3567 54.3296C59.4362 54.3536 59.5137 54.3836 59.5887 54.4192V61.8008H58.2774V58.4886H54.3939V61.8008H53.0827L53.083 54.8786ZM62.7463 55.4725H60.5418C60.1061 55.4725 59.8906 55.2746 59.8906 54.8786C59.8888 54.7499 59.9106 54.622 59.9552 54.501C59.9828 54.4241 60.0161 54.3491 60.0548 54.2771H66.3528C66.7842 54.2771 67 54.4753 67.0002 54.8712C67.0031 54.9996 66.9824 55.1272 66.9392 55.2482C66.9171 55.328 66.8821 55.4037 66.8357 55.4725H64.0576V61.8021H62.7463V55.4725Z" fill="#008DD2"/>
</svg>
