<svg width="107" height="13" viewBox="0 0 107 13" fill="none" xmlns="http://www.w3.org/2000/svg">
<path d="M4.16007 7.49169C3.44941 7.49169 3.08643 7.17553 3.08643 6.53976C3.08506 6.32822 3.12362 6.11799 3.20014 5.92048C3.24579 5.79241 3.30059 5.668 3.36413 5.54765H8.61205C8.53019 5.015 8.35695 4.49987 8.09983 4.0251C7.86332 3.58891 7.54471 3.2019 7.16122 2.88437C6.78481 2.57191 6.35336 2.33077 5.8886 2.1736C5.40378 2.00725 4.89399 1.92356 4.38092 1.9261C3.98302 1.92351 3.58641 1.97157 3.20068 2.06836C2.86071 2.14451 2.52952 2.2547 2.21232 2.39783C1.94322 2.51498 1.6868 2.65885 1.447 2.82726C1.26652 2.95589 1.09967 3.10264 0.948998 3.26461C0.858304 3.2114 0.772674 3.14966 0.693162 3.0811C0.589533 2.99111 0.494387 2.89203 0.4089 2.78495C0.319386 2.66581 0.245883 2.53574 0.190237 2.39783C0.128211 2.25563 0.096749 2.10217 0.0978518 1.94726C0.114903 1.75096 0.180829 1.56212 0.289729 1.39726C0.456541 1.13049 0.685891 0.907459 0.958291 0.747302C1.36445 0.500915 1.80883 0.322735 2.27355 0.219513C2.97718 0.0576342 3.6987 -0.0153638 4.42082 0.00268576C5.2895 -0.00249094 6.15196 0.148118 6.96661 0.446917C7.74772 0.725951 8.46193 1.16199 9.06414 1.72831C9.67598 2.31098 10.1581 3.01425 10.4794 3.7924C10.8393 4.66876 11.0159 5.60811 10.9988 6.55404C11.0169 7.5058 10.8352 8.45091 10.4652 9.32943C10.1343 10.0953 9.64212 10.7827 9.0215 11.3449C8.4043 11.8902 7.68415 12.3086 6.90265 12.5766C6.08242 12.8613 5.21889 13.0045 4.34976 12.9996C3.80043 13.0045 3.25171 12.9619 2.70978 12.8727C2.28447 12.8019 1.86442 12.703 1.45247 12.5766C1.1442 12.4853 0.846322 12.3627 0.563604 12.2106C0.36949 12.1049 0.181342 11.9891 0 11.8631L0.959931 10.2084C1.33503 10.446 1.74187 10.6309 2.16859 10.7568C2.81261 10.9562 3.48488 11.0512 4.15952 11.0387C4.69864 11.0403 5.23517 10.9648 5.75248 10.8144C6.23688 10.6683 6.69166 10.4392 7.09617 10.1375C7.49411 9.82944 7.82948 9.44977 8.08452 9.01794C8.3622 8.54715 8.54767 8.02852 8.63118 7.48957L4.16007 7.49169Z" fill="#98C22A"/>
<path d="M12.0172 8.03648V12.9959H10V1.92662C10 1.30883 10.3354 1.00027 11.012 1.00027C11.2262 0.9972 11.44 1.02033 11.6488 1.06931C11.7745 1.09478 11.8979 1.13167 12.0172 1.17956V6.17451H12.7211C13.1313 6.18827 13.5392 6.10614 13.9138 5.93443C14.2437 5.76697 14.5377 5.5339 14.7785 5.24868C15.2258 4.72867 15.6293 4.17072 15.9847 3.58095C16.2866 3.06551 16.5612 2.62035 16.8024 2.23523C17.0029 1.90209 17.2489 1.59997 17.533 1.33825C17.807 1.10518 18.1561 0.98532 18.512 1.00182C18.7613 0.991399 19.0099 1.03379 19.2426 1.12598C19.4099 1.1994 19.5675 1.29345 19.712 1.40677C19.3232 2.02438 18.874 2.72242 18.3646 3.50006C17.8617 4.28193 17.3259 5.07102 16.7627 5.88084C16.5952 6.12194 16.4206 6.34708 16.2531 6.54598C16.0865 6.7379 15.9024 6.91325 15.7033 7.06943C16.0449 7.46669 16.4071 7.90564 16.7823 8.38837C17.1574 8.8711 17.533 9.36344 17.9158 9.87835C18.2987 10.3933 18.6532 10.9201 19.0082 11.4492C19.3632 11.9784 19.6919 12.4993 20 13H17.6541C17.3928 12.5943 17.1115 12.1628 16.8029 11.7238C16.4942 11.2849 16.1727 10.8377 15.8378 10.3987C15.5029 9.95977 15.1741 9.53476 14.8392 9.11481C14.5043 8.70436 14.1756 8.31186 13.8541 7.94889C13.6933 7.97633 13.5326 7.99646 13.3651 8.01123C13.1916 8.03055 13.0171 8.03942 12.8426 8.03802L12.0172 8.03648Z" fill="#98C22A"/>
<path d="M24.5131 0.000693107C26.235 -0.0246136 27.8966 0.643967 29.1338 1.86034C29.7196 2.45106 30.1863 3.15246 30.5077 3.92467C31.1641 5.57687 31.1641 7.42298 30.5077 9.07518C30.1884 9.84887 29.7215 10.551 29.1338 11.1406C28.1862 12.0362 27.0074 12.64 25.7348 12.8817C24.4623 13.1235 23.1483 12.9929 21.9459 12.5057C21.1817 12.1879 20.4844 11.7246 19.8919 11.1406C19.3045 10.551 18.8378 9.84907 18.5184 9.07571C18.0123 7.87134 17.8727 6.54103 18.1175 5.2554C18.3622 3.96977 18.9801 2.78745 19.8919 1.86139C20.4849 1.27734 21.182 0.81355 21.9459 0.494165C22.7613 0.159677 23.6337 -0.0080695 24.5131 0.000693107ZM24.5131 11.0401C25.097 11.0436 25.6755 10.926 26.213 10.6942C26.7212 10.4779 27.1794 10.1565 27.5587 9.7506C27.9466 9.33841 28.2509 8.85294 28.4542 8.32149C28.8983 7.14684 28.8983 5.84666 28.4542 4.67202C28.2524 4.13735 27.948 3.64859 27.5587 3.23444C27.1799 2.82954 26.7214 2.51054 26.213 2.29774C25.1209 1.84645 23.8984 1.84645 22.8063 2.29774C22.2917 2.51659 21.8266 2.84024 21.44 3.24872C21.0534 3.6572 20.7535 4.14171 20.5586 4.67254C20.1332 5.85065 20.1332 7.14391 20.5586 8.32201C20.7565 8.85087 21.0576 9.33334 21.4438 9.74108C21.8301 10.1488 22.2936 10.4733 22.8063 10.6947C23.346 10.927 23.9269 11.0445 24.5131 11.0401Z" fill="#98C22A"/>
<path d="M34.8264 4.63437C34.7369 5.00813 34.6261 5.43572 34.5085 5.91613C34.3908 6.39653 34.2747 6.88461 34.1566 7.39116C34.0384 7.89771 33.9226 8.38478 33.8055 8.86519C33.6884 9.3379 33.5935 9.76466 33.5092 10.1389H39.0225V2.06182C38.8588 2.02937 38.6932 2.00651 38.5266 1.99423C38.2862 1.96971 38.0446 1.95934 37.8029 1.96269C37.439 1.95854 37.0759 1.99643 36.7214 2.07584C36.4197 2.15202 36.1407 2.29623 35.9074 2.49642C35.6536 2.73048 35.4478 3.00859 35.3007 3.31655C35.1003 3.74044 34.9416 4.18176 34.8264 4.63437ZM30.0014 11.9965V11.1293C29.9942 10.996 30.0156 10.8627 30.0642 10.7378C30.1128 10.6128 30.1876 10.4989 30.2839 10.4033C30.5026 10.2172 30.7879 10.1217 31.0787 10.1369H31.3266C31.5603 9.18382 31.8035 8.18842 32.043 7.15583C32.2915 6.12222 32.5256 5.15654 32.753 4.26135C32.9012 3.5739 33.147 2.90931 33.4836 2.28713C33.7509 1.79762 34.1191 1.36657 34.5656 1.02039C34.9929 0.697028 35.4863 0.464905 36.013 0.339455C36.6053 0.194279 37.2147 0.125124 37.8257 0.134172C38.3141 0.129193 38.8023 0.156361 39.287 0.215284C39.6865 0.262453 39.969 0.30141 40.1348 0.322431C40.385 0.371193 40.6192 0.478574 40.8168 0.634861C40.9214 0.735983 41.0012 0.858363 41.0502 0.993355C41.0992 1.12835 41.116 1.27224 41.0996 1.41443V10.1389H41.3276C41.6186 10.1225 41.9044 10.2181 42.1224 10.4053C42.2199 10.5001 42.2955 10.6136 42.3441 10.7388C42.3928 10.8639 42.4137 10.9978 42.4049 11.1313V11.9985H30.0014V11.9965ZM44.9721 8.79609C45.8061 7.6425 46.6472 6.4999 47.495 5.36888C48.3364 4.22811 49.1906 3.08605 50.0453 1.91913C50.2042 1.71405 50.3553 1.50539 50.5074 1.3203C50.6533 1.13656 50.8168 0.966491 50.9959 0.812606C51.1717 0.668643 51.3693 0.551854 51.5819 0.466129C51.8096 0.377065 52.0538 0.333778 52.2994 0.338954C52.4959 0.335138 52.6922 0.350841 52.8854 0.386019C53.0169 0.416082 53.1457 0.456391 53.2706 0.506184V11.996H51.2104V3.3531C50.7276 3.99398 50.2105 4.69383 49.6525 5.46801C49.0946 6.2422 48.536 7.02189 47.9775 7.80222C47.419 8.58256 46.8817 9.34984 46.3651 10.0769C45.8485 10.8039 45.3996 11.451 45.007 11.9965H42.9121V1.23969C42.9021 1.10912 42.9222 0.978266 42.971 0.856166C43.0199 0.734065 43.0961 0.623795 43.1943 0.533722C43.4227 0.368529 43.7046 0.287465 43.9892 0.305408C44.1987 0.303929 44.4074 0.331307 44.6091 0.38652C44.7956 0.446506 44.919 0.489253 44.9747 0.506685L44.9721 8.79609ZM55.9863 7.17586V11.9955H53.9048V1.23869C53.9048 0.637801 54.2494 0.338453 54.9457 0.338453C55.1683 0.334649 55.3905 0.357133 55.6075 0.405546C55.7998 0.452715 55.9254 0.485628 55.9858 0.508187V5.37038H56.7027C57.1044 5.39075 57.5055 5.31936 57.8732 5.16159C58.2409 5.00382 58.5648 4.76437 58.8189 4.46263C59.2802 3.95834 59.6956 3.41617 60.06 2.8424C60.3695 2.34764 60.6529 1.90822 60.9009 1.54061C61.1088 1.21374 61.3641 0.917407 61.6587 0.660396C61.9404 0.439592 62.2957 0.325974 62.6579 0.340957C62.914 0.330807 63.1694 0.371497 63.4088 0.460121C63.5803 0.532725 63.7425 0.624383 63.8916 0.733998C63.492 1.33489 63.0305 2.01613 62.5138 2.7693C61.9972 3.52246 61.4388 4.29562 60.866 5.07647C60.6874 5.31591 60.5078 5.5352 60.3361 5.72336C60.1649 5.91113 59.9758 6.0828 59.7713 6.23607C60.1226 6.62367 60.4949 7.05025 60.8807 7.51783C61.2665 7.98542 61.6597 8.46545 62.0465 8.96482C62.4334 9.4642 62.8118 9.97305 63.17 10.4924C63.5282 11.0118 63.88 11.5119 64.1974 11.999H61.7847C61.5086 11.5996 61.2193 11.1855 60.9024 10.7518C60.5845 10.3262 60.2545 9.89161 59.9169 9.46401C59.5714 9.04564 59.228 8.6247 58.8825 8.22531C58.5381 7.81514 58.2 7.44451 57.8688 7.09074C57.7035 7.11074 57.5383 7.13083 57.3661 7.15083C57.2008 7.16262 57.0216 7.17787 56.8287 7.17787L55.9863 7.17586ZM68.6276 2.16096H65.1055C64.4167 2.16096 64.0649 1.85344 64.0649 1.23819C64.0608 1.03731 64.0985 0.837916 64.1756 0.651384C64.2196 0.531835 64.2726 0.415274 64.3345 0.303405H74.3911C75.0869 0.303405 75.4318 0.610928 75.4318 1.22617C75.4327 1.42533 75.4002 1.62357 75.335 1.81248C75.2932 1.9342 75.2378 2.05095 75.1697 2.16096H70.7239V11.997H68.6297L68.6276 2.16096ZM71.6809 11.997C71.9777 11.2372 72.3013 10.4164 72.6664 9.53561C73.0315 8.65478 73.4121 7.74833 73.8111 6.82188C74.2101 5.89542 74.6249 4.95409 75.0519 4.00199C75.479 3.0499 75.9061 2.11665 76.3342 1.20865C76.4794 0.833968 76.7303 0.50576 77.0581 0.261848C77.3633 0.077734 77.7187 -0.0129406 78.0781 0.00148969C78.2288 0.000141779 78.3794 0.0155452 78.5265 0.0475531C78.6581 0.077143 78.787 0.117465 78.9117 0.167718C79.0219 0.214887 79.1193 0.254926 79.194 0.293892C79.2406 0.316032 79.2846 0.342968 79.3254 0.374002C79.5119 0.694443 79.7599 1.16091 80.0561 1.78795C80.3523 2.41499 80.6834 3.11552 81.0279 3.89535C81.3723 4.66748 81.7316 5.48476 82.0876 6.3297C82.4437 7.17464 82.7909 7.97712 83.1003 8.73951C83.4182 9.49268 83.6868 10.1597 83.921 10.7463C84.1552 11.3328 84.3211 11.7477 84.417 12H82.0856C82.0326 11.8667 81.9541 11.6745 81.8576 11.4212C81.7612 11.1679 81.6643 10.9002 81.5546 10.6141C81.4375 10.3198 81.3274 10.0266 81.2103 9.73388C81.0932 9.44113 80.9824 9.17991 80.8923 8.95381H74.9883C74.7334 9.57264 74.4988 10.1537 74.2996 10.6792C74.1003 11.2047 73.9206 11.6488 73.7966 12L71.6809 11.997ZM80.1865 7.15634C80.0275 6.73592 79.8345 6.27498 79.6279 5.76843C79.4212 5.26187 79.2079 4.76896 79.0007 4.28138C78.7944 3.80285 78.6014 3.36302 78.4219 2.96106C78.2354 2.56765 78.0907 2.26761 77.9875 2.06082C77.836 2.38126 77.6638 2.74036 77.4778 3.14181C77.2918 3.54326 77.0915 3.97393 76.8918 4.42357C76.692 4.87322 76.4985 5.3299 76.2988 5.79646C76.099 6.26303 75.9051 6.71692 75.734 7.15734L80.1865 7.15634ZM84.7632 1.24019C84.7524 1.10828 84.7735 0.97574 84.825 0.853162C84.8765 0.730583 84.957 0.621387 85.0599 0.534223C85.2962 0.370493 85.583 0.289815 85.8731 0.305909C86.0806 0.303977 86.2875 0.331369 86.4868 0.38702C86.6797 0.447178 86.8032 0.487361 86.8576 0.507186V4.99436H93.0615V1.24019C93.0509 1.10892 93.0718 0.977029 93.122 0.854664C93.1723 0.732298 93.2508 0.622727 93.3515 0.534223C93.5824 0.370383 93.8651 0.289529 94.151 0.305909C94.3659 0.30289 94.5802 0.330283 94.7869 0.38702C94.914 0.424258 95.0379 0.470952 95.1577 0.526212V11.997H93.0625V6.84991H86.8576V11.997H84.7627L84.7632 1.24019ZM100.203 2.16296H96.6806C95.9843 2.16296 95.64 1.85544 95.64 1.24019C95.6371 1.04005 95.6721 0.841332 95.7432 0.653387C95.7873 0.533902 95.8406 0.417353 95.9023 0.305408H105.965C106.654 0.305408 106.999 0.613432 107 1.22868C107.004 1.42812 106.971 1.62648 106.902 1.81448C106.867 1.93854 106.811 2.05611 106.737 2.16296H102.298V11.999H100.203V2.16296Z" fill="#008DD2"/>
</svg>
