<svg width="339" height="305" viewBox="0 0 339 305" fill="none" xmlns="http://www.w3.org/2000/svg">
<g filter="url(#filter0_di)">
<path fill-rule="evenodd" clip-rule="evenodd" d="M142.55 194.722C123.163 189.592 105.924 173.14 98.2968 162.857C88.2607 149.312 82.3571 133.19 81.2708 116.406C80.1846 99.6227 83.9629 82.8628 92.157 68.1594C99.8317 54.2834 111.119 42.724 124.839 34.7105C138.559 26.6969 154.192 22.5365 170.108 22.631C239.723 22.8438 284.968 101.419 240.526 163.4C233.395 173.329 215.991 189.048 197.524 194.462V203.114C239.747 190.372 273.35 148.602 265.534 96.3842C258.308 48.1373 212.236 5.75288 154.971 15.3739C136.717 18.4469 117.755 26.7205 105.192 38.3508C82.6168 59.1767 68.4718 89.4108 73.667 125.058C76.5007 143.307 84.4824 160.375 96.691 174.274C108.9 188.174 124.816 198.315 142.597 203.563V194.722H142.55Z" fill="white"/>
</g>
<g filter="url(#filter1_di)">
<path fill-rule="evenodd" clip-rule="evenodd" d="M173.702 30.5C171.836 37.6389 177.551 39.5537 172.167 64.2563C169.711 75.4138 168.294 85.8385 166.192 97.0197L144.845 72.7426C141.539 67.7075 139.343 62.0342 138.398 56.1009C136.934 47.8745 139.343 40.1919 130.912 41.5866C126.237 53.0751 133.723 72.5771 139.484 80.0234C147.938 90.8263 154.48 96.4287 160.265 107.917C170.915 129.169 165.909 172.38 165.933 198.265L158.305 198.076L158.659 154.533C158.636 138.671 153.393 129.949 146.616 119.595C138.375 107.066 119.884 69.3859 98.0648 75.1538C95.3492 82.8128 100.473 80.7798 112.965 88.9352C118.397 92.4811 124.088 99.4309 127.843 105.246C130.889 109.761 133.274 114.678 134.95 119.855C119.011 116.924 105.503 119.406 95.1839 104.679C91.9487 100.045 92.5627 96.3578 85.2658 98.2726C84.8408 99.7855 84.7463 101.393 84.9825 102.929C85.2186 104.49 85.7854 105.979 86.6355 107.303C89.5637 112.243 94.5935 118.389 99.3872 120.895C103.118 122.833 104.039 122.29 108.266 124.937C108.408 125.032 108.715 125.244 108.927 125.386C106.897 128.625 100.969 133.825 102.433 138.506C103.047 140.492 102.693 139.357 103.52 140.279C111.171 143.754 112.375 133.731 117.287 130.185C122.199 126.663 131.621 126.474 137.831 129.263C150.371 134.889 149.969 152.996 149.969 169.095C149.969 181.198 149.615 193.159 149.615 205.333L162.131 230.012L166.901 226.371H173.017L177.811 230.012L190.326 205.333L190.303 204.978H190.326C190.326 203.134 190.255 201.031 190.161 198.738C189.193 176.73 184.777 136.567 201.26 129.263C207.163 126.639 217.081 126.497 221.828 130.185C226.692 134.015 227.755 143.777 235.595 140.302L236.87 136.497C236.61 135.055 236.067 133.66 235.312 132.407L231.557 127.207C230.093 125.315 231.533 127.561 230.164 125.363C238.051 119.831 239.727 125.221 251.629 108.437C254.061 105.01 255.053 102.717 253.754 98.2962C246.859 96.0978 247.213 99.4545 244.379 104.159C235.548 118.838 217.341 117.444 204.07 119.878C209.029 105.388 218.593 92.4574 232.147 85.1294C237.933 81.9854 243.86 82.2218 241.003 75.1301C232.336 72.719 220.718 81.0399 216.373 85.0112C208.131 92.552 194.411 116.191 188.13 126.852C182.817 135.906 179.771 142.997 180.479 155.502L182.014 197.91L174.906 198.643L173.749 123.448C173.725 113.165 176.37 107.444 181.093 100.424L195.474 84.633C201.425 78.085 216.042 53.0515 207.517 40.8302C193.349 40.972 209.643 53.6661 189.547 77.7541L179.369 88.9589C177.787 91.0627 176.063 93.0484 174.245 94.9395C175.449 75.9102 188.059 48.6546 180.219 30.76L173.654 30.5H173.702ZM235.784 127.207C240.082 133.353 244.71 132.714 249.764 127.561C245.702 124.914 240.223 122.55 235.784 127.207ZM89.8943 127.301C92.6807 133.518 100.899 132.714 103.402 126.568C97.5453 123.944 95.0894 123.259 89.8943 127.301ZM181.967 74.4919C187.445 71.868 192.263 68.5822 191.743 60.1904C184.21 62.5779 182.108 65.7219 181.967 74.4919ZM164.232 82.9073C165.696 80.8271 166.688 78.4632 167.137 75.9575C167.562 73.4518 167.444 70.8988 166.759 68.4403C166.594 67.613 166.239 66.8329 165.72 66.171C165.2 65.5091 164.539 64.9654 163.784 64.5872C162.863 67.4475 160.855 70.3315 160.667 73.9482C160.596 75.4847 160.808 77.0212 161.351 78.4632C161.871 79.9052 162.697 81.229 163.76 82.34C163.854 82.4582 164.091 82.7182 164.256 82.931L164.232 82.9073ZM153.11 105.435C152.59 97.7525 146.805 95.5777 138.375 95.9323C140.476 102.977 144.278 106.546 153.11 105.435ZM188.65 51.5622C190.515 50.6167 189.004 51.8459 190.444 50.3803L194.034 43.3595C194.695 39.5064 193.632 34.7314 191.578 32.462C186.784 37.4025 183.903 44.376 188.65 51.5622ZM178.283 122.975C187.469 123.117 189.736 120.422 191.294 111.77C182.604 110.872 178.566 114.843 178.283 122.975ZM161.068 122.952C161.186 115.009 156.109 110.919 147.938 111.865C149.237 120.186 152.071 123.212 161.068 122.952ZM139.579 89.3134C137.052 80.3307 135.989 77.5177 125.292 77.9432C126.874 86.004 130.251 89.9753 139.579 89.3134ZM199.182 89.7862C208.391 89.0534 212.453 86.4531 213.87 77.9432C203.739 77.3995 201.094 80.8507 199.182 89.7862ZM126.898 62.8616C127.772 53.8315 123.71 48.7965 115.634 47.7327C114.855 57.1883 119.2 60.6159 126.898 62.8616ZM104.275 67.5893C107.511 74.09 117.452 76.0993 123.875 71.8443C119.318 64.6109 114.028 65.5328 104.275 67.5893ZM212.406 62.767C220.434 60.6868 224.402 57.5901 223.693 47.7091C215.641 48.9383 211.461 53.7606 212.406 62.767ZM183.313 104.655C192.451 107.775 198.615 102.882 200.787 96.0505C190.09 95.034 186.619 97.3034 183.313 104.655ZM215.475 71.868C217.058 73.0026 218.876 73.7591 220.812 74.1137C222.725 74.4446 224.709 74.3501 226.598 73.83C228.345 73.4991 230.022 72.7663 231.439 71.6789C232.879 70.6151 234.036 69.2204 234.839 67.6366C225.842 65.4382 219.348 64.6345 215.475 71.868ZM218.191 114.512C225.275 112.598 228.983 106.948 227.165 97.5161C223.552 97.1615 220.647 100.164 219.372 102.504C217.435 106.121 217.908 110.517 218.191 114.512ZM121.089 114.465C121.349 110.399 121.75 106.05 119.884 102.504C118.633 100.14 115.846 97.2325 112.139 97.5634C110.179 107.043 114.028 112.574 121.089 114.465ZM234.934 101.582C242.939 100.826 246.977 94.9868 245.985 85.6967C238.287 87.2569 234.178 92.5283 234.934 101.582ZM104.393 101.606C105.102 92.5993 100.993 86.8077 93.1766 85.6731C92.5627 94.8686 95.8923 100.4 104.393 101.606ZM152.543 69.906C157.479 65.4146 155.967 53.5006 149.615 50.7585C143.641 58.3702 147.655 65.4855 152.543 69.906ZM220.104 143.021C217.247 133.991 212.075 132.289 201.756 134.605C204.329 143.163 212.24 143.636 220.104 143.021ZM166.027 50.5457C166.003 40.6174 163.359 36.3152 154.692 34.1404C153.866 43.6905 157.03 49.4347 166.027 50.5457ZM119.105 143.021C125.694 143.47 134.502 144.014 137.501 134.605C126.426 132.407 121.892 133.967 119.105 143.021Z" fill="white"/>
</g>
<g filter="url(#filter2_di)">
<path fill-rule="evenodd" clip-rule="evenodd" d="M162.859 243.749C162.788 243.536 162.717 243.3 162.623 243.111C161.088 240.037 158.892 237.319 156.153 235.215C147.439 228.454 134.994 227.414 124.344 228.218C117.921 228.809 111.545 229.944 105.334 231.646C98.5335 233.395 91.7798 235.475 85.026 237.484C80.4921 238.856 75.6275 240.297 70.5741 241.621C67.2917 242.472 63.9384 243.252 60.5616 243.914H159.884V247.838H20.9839V243.914H29.7448C28.6113 243.583 27.4778 243.229 26.368 242.78L24.4552 242.047L25.9665 238.265L27.8793 239.021C30.3824 239.967 32.9564 240.652 35.6012 241.054C40.5838 241.763 45.6373 241.858 50.6435 241.29C60.0657 240.132 69.3461 238.099 78.3668 235.239C75.4858 235.924 72.534 236.61 69.5114 237.224C54.351 240.368 37.8209 242.141 24.3607 236.066L22.448 235.215L24.1954 231.386L26.1082 232.237C28.6113 233.348 31.2089 234.199 33.8773 234.766C38.9072 235.759 44.0551 236.113 49.1794 235.806C57.1375 235.286 65.0483 234.08 72.8174 232.213C58.271 234.908 42.473 236.184 29.7684 230.156L27.9265 229.282L29.6976 225.641L31.5159 226.516C33.9009 227.627 36.3805 228.478 38.9308 229.069C43.7718 230.133 48.7308 230.582 53.6898 230.393C65.1191 230.086 77.0208 227.32 86.8444 225.098C99.7142 222.166 113.788 218.597 127.012 218.573C138.654 218.526 151.666 220.772 160.521 228.88C162.245 230.464 163.827 232.78 165.173 235.168L167.062 234.01H171.738L174.43 235.641C175.871 233.088 177.524 230.558 179.365 228.88C188.244 220.772 201.232 218.502 212.898 218.573C226.122 218.621 240.196 222.19 253.066 225.098C262.889 227.32 274.815 230.086 286.22 230.393C291.179 230.582 296.138 230.133 300.979 229.069C303.53 228.478 306.033 227.627 308.394 226.516L310.236 225.641L311.984 229.282L310.142 230.156C297.437 236.184 281.639 234.908 267.116 232.213C274.862 234.08 282.773 235.286 290.731 235.806C295.855 236.113 301.027 235.759 306.057 234.766C308.725 234.199 311.323 233.348 313.802 232.237L315.715 231.386L317.462 235.215L315.549 236.066C302.113 242.141 285.559 240.392 270.399 237.224C267.376 236.586 264.424 235.924 261.543 235.215C270.588 238.099 279.868 240.132 289.29 241.29C294.297 241.834 299.326 241.763 304.309 241.054C306.954 240.652 309.528 239.967 312.031 239.021L313.967 238.265L315.455 242.047L313.542 242.78C312.432 243.229 311.299 243.583 310.165 243.914H318.926V247.838H180.027V243.914H279.372C275.972 243.276 272.619 242.472 269.336 241.621C264.283 240.297 259.418 238.832 254.884 237.484C248.154 235.452 241.424 233.371 234.576 231.646C228.365 229.967 221.989 228.809 215.59 228.218C204.916 227.414 192.471 228.454 183.781 235.215C181.042 237.319 178.822 240.014 177.287 243.111C177.217 243.323 177.146 243.56 177.051 243.772L177.004 243.914H177.76V247.838H170.203L169.377 249.895L168.55 247.838H162.033V243.914H162.812L162.765 243.772L162.859 243.749Z" fill="white"/>
</g>
<g filter="url(#filter3_di)">
<path d="M32.2243 276.06C30.3115 276.06 29.3197 275.209 29.3197 273.484C29.3197 272.916 29.4142 272.349 29.6267 271.805C29.7448 271.451 29.8865 271.12 30.0754 270.789H44.244C44.0315 269.347 43.5592 267.952 42.8507 266.652C42.2132 265.47 41.363 264.406 40.324 263.555C39.3086 262.704 38.1515 262.042 36.8999 261.617C35.6011 261.168 34.2079 260.931 32.8383 260.955C31.752 260.955 30.6893 261.073 29.6503 261.333C28.7294 261.546 27.832 261.83 26.9819 262.232C26.2498 262.539 25.565 262.941 24.9274 263.39C24.4315 263.744 23.9829 264.146 23.5814 264.572C23.3453 264.43 23.1091 264.265 22.8966 264.075C22.6132 263.839 22.3535 263.555 22.1409 263.272C21.9048 262.941 21.6923 262.586 21.5506 262.232C21.3853 261.853 21.2908 261.428 21.2908 261.002C21.3381 260.482 21.5034 259.962 21.8103 259.513C22.259 258.78 22.873 258.189 23.605 257.74C24.6913 257.078 25.8956 256.582 27.1472 256.298C29.0363 255.849 30.9963 255.66 32.9327 255.707C35.2705 255.684 37.6084 256.109 39.8045 256.913C41.9062 257.669 43.8425 258.851 45.4719 260.388C46.5346 261.404 47.4555 262.563 48.2112 263.815V259.253C48.2112 257.527 49.1794 256.676 51.1158 256.676C51.7297 256.676 52.3437 256.724 52.9341 256.866C53.2883 256.936 53.6425 257.031 53.9967 257.173V271.073H56.0039C57.1847 271.12 58.3418 270.883 59.428 270.411C60.3726 269.938 61.2227 269.3 61.9075 268.496C63.1827 267.054 64.3398 265.494 65.3552 263.863C66.229 262.421 67.0082 261.191 67.6931 260.104C68.2598 259.182 68.9682 258.331 69.7947 257.598C70.574 256.96 71.5894 256.606 72.6048 256.653C73.3133 256.629 74.0217 256.747 74.7065 257.007C75.1788 257.22 75.6275 257.48 76.0525 257.787C74.9427 259.513 73.6439 261.451 72.2034 263.626C70.7629 265.801 69.228 267.999 67.6222 270.245C67.1499 270.907 66.654 271.545 66.1581 272.089C65.6858 272.633 65.1427 273.105 64.576 273.555C65.5442 274.666 66.5832 275.895 67.6694 277.219C68.7557 278.566 69.8184 279.937 70.9046 281.379C71.9909 282.821 73.0063 284.287 74.0217 285.752C75.0371 287.218 75.9817 288.683 76.8554 290.078H70.149C69.3933 288.943 68.5904 287.738 67.7167 286.532C66.8429 285.303 65.922 284.074 64.9538 282.845C63.9856 281.615 63.0646 280.433 62.0965 279.275C61.1283 278.141 60.2073 277.029 59.2863 276.037C58.8377 276.108 58.3654 276.178 57.8931 276.202C57.3972 276.249 56.9013 276.273 56.4054 276.273H54.044V290.078H48.2584V283.034C47.4792 284.31 46.511 285.469 45.4011 286.485C43.7245 287.974 41.7881 289.109 39.6864 289.818C37.4667 290.598 35.1525 290.976 32.791 290.976C31.3033 291 29.8392 290.882 28.3751 290.622C27.218 290.433 26.0845 290.173 24.9747 289.818C24.1482 289.582 23.3453 289.227 22.566 288.825C22.0465 288.542 21.527 288.234 21.0547 287.88L23.6523 283.388C24.6677 284.027 25.7539 284.523 26.9111 284.878C28.6585 285.421 30.4532 285.681 32.2715 285.634C33.7356 285.634 35.1761 285.421 36.5693 285.019C37.8681 284.618 39.0961 284.003 40.2059 283.176C41.2922 282.348 42.1895 281.308 42.8744 280.15C43.63 278.873 44.1259 277.455 44.3385 276.013H32.2715L32.2243 276.06ZM88.0486 255.755C92.8187 255.684 97.3999 257.504 100.824 260.79C102.453 262.397 103.729 264.288 104.626 266.392C106.444 270.883 106.444 275.871 104.626 280.363C103.752 282.466 102.453 284.358 100.824 285.965C98.2028 288.4 94.944 290.031 91.4255 290.693C87.907 291.355 84.2703 291 80.9407 289.676C78.8154 288.825 76.9027 287.549 75.2497 285.965C73.6203 284.358 72.3451 282.466 71.4477 280.363C70.0545 277.1 69.653 273.484 70.3379 270.009C71.0227 266.51 72.7229 263.319 75.2497 260.813C76.879 259.229 78.8154 257.977 80.9407 257.102C83.1841 256.204 85.6164 255.731 88.0486 255.755ZM88.0486 285.705C89.6544 285.705 91.2602 285.398 92.7479 284.759C94.1411 284.168 95.4163 283.294 96.479 282.206C97.5416 281.095 98.3917 279.772 98.9585 278.33C100.186 275.138 100.186 271.616 98.9585 268.425C98.3917 266.983 97.5652 265.659 96.479 264.525C95.4399 263.437 94.1648 262.563 92.7479 261.972C89.7253 260.742 86.3484 260.742 83.3258 261.972C81.9089 262.563 80.6101 263.437 79.5475 264.548C78.4848 265.659 77.6583 266.959 77.1152 268.401C75.9345 271.593 75.9345 275.115 77.1152 278.306C77.6583 279.748 78.4848 281.048 79.5711 282.159C80.6337 283.27 81.9089 284.145 83.3494 284.736C84.8371 285.374 86.4429 285.681 88.0723 285.681L88.0486 285.705Z" fill="white"/>
</g>
<g filter="url(#filter4_di)">
<path d="M118.087 268.074C117.827 269.138 117.52 270.367 117.213 271.738C116.883 273.109 116.552 274.504 116.245 275.97C115.915 277.412 115.584 278.806 115.277 280.201C114.946 281.548 114.687 282.778 114.45 283.841H129.8V260.699C129.351 260.604 128.879 260.534 128.43 260.51C127.769 260.439 127.084 260.415 126.423 260.415C125.408 260.415 124.392 260.51 123.424 260.746C122.574 260.959 121.818 261.385 121.157 261.952C120.449 262.614 119.882 263.417 119.457 264.292C118.89 265.498 118.465 266.774 118.134 268.074H118.087ZM104.651 289.16V286.678C104.627 286.3 104.698 285.922 104.816 285.567C104.958 285.212 105.17 284.882 105.43 284.598C106.044 284.054 106.823 283.794 107.65 283.841H108.334C108.996 281.123 109.657 278.263 110.318 275.308C111.003 272.353 111.664 269.587 112.302 267.011C112.703 265.049 113.388 263.134 114.332 261.361C115.088 259.966 116.103 258.713 117.355 257.72C118.536 256.799 119.905 256.137 121.393 255.758C123.046 255.333 124.746 255.144 126.447 255.167C127.816 255.144 129.162 255.238 130.508 255.404C131.618 255.546 132.397 255.64 132.87 255.711C133.578 255.853 134.216 256.16 134.759 256.609C135.042 256.893 135.278 257.248 135.42 257.626C135.562 258.004 135.609 258.43 135.562 258.832V283.818H136.199C137.002 283.771 137.805 284.054 138.419 284.574C138.679 284.834 138.891 285.165 139.033 285.52C139.175 285.874 139.222 286.253 139.198 286.654V289.137H104.674L104.651 289.16ZM146.33 279.988C148.644 276.679 150.982 273.417 153.343 270.178C155.681 266.916 158.066 263.63 160.451 260.297C160.9 259.706 161.325 259.115 161.75 258.571C162.151 258.051 162.6 257.555 163.12 257.106C163.616 256.704 164.159 256.349 164.749 256.113C165.387 255.853 166.071 255.735 166.756 255.758C167.299 255.758 167.843 255.782 168.386 255.9C168.74 255.995 169.118 256.113 169.448 256.255V289.184H163.71V264.41C162.364 266.254 160.924 268.263 159.365 270.462C157.806 272.684 156.248 274.906 154.713 277.152C153.154 279.397 151.667 281.596 150.226 283.676C148.786 285.756 147.534 287.624 146.448 289.184H140.615V258.359C140.592 257.981 140.639 257.602 140.781 257.271C140.922 256.917 141.135 256.609 141.394 256.349C142.032 255.877 142.811 255.64 143.614 255.688C144.205 255.688 144.771 255.758 145.338 255.924C145.858 256.089 146.212 256.208 146.353 256.279V280.036L146.33 279.988ZM176.981 275.355V289.16H171.196V258.335C171.196 256.609 172.164 255.758 174.1 255.758C174.714 255.758 175.328 255.806 175.942 255.948C176.485 256.089 176.816 256.184 177.005 256.231V270.155H178.989C180.098 270.225 181.232 270.013 182.247 269.564C183.263 269.114 184.184 268.429 184.869 267.554C186.144 266.112 187.301 264.552 188.316 262.921C189.166 261.503 189.969 260.25 190.654 259.186C191.244 258.241 191.953 257.39 192.756 256.657C193.535 256.019 194.527 255.688 195.542 255.735C196.251 255.711 196.959 255.829 197.644 256.066C198.116 256.279 198.565 256.539 198.99 256.846C197.88 258.572 196.581 260.51 195.164 262.685C193.724 264.836 192.165 267.058 190.583 269.304C190.087 269.989 189.591 270.627 189.119 271.147C188.647 271.691 188.127 272.187 187.537 272.613C188.505 273.724 189.544 274.953 190.63 276.277C191.693 277.624 192.803 278.995 193.866 280.414C194.952 281.856 195.991 283.298 196.983 284.787C197.974 286.276 198.966 287.718 199.84 289.113H193.134C192.354 287.978 191.551 286.773 190.678 285.543C189.804 284.314 188.883 283.085 187.938 281.856C186.97 280.65 186.026 279.445 185.057 278.31C184.089 277.128 183.168 276.064 182.247 275.071C181.799 275.119 181.326 275.19 180.854 275.237C180.405 275.261 179.886 275.308 179.366 275.308H177.029L176.981 275.355ZM212.167 260.983H202.367C200.454 260.983 199.462 260.108 199.462 258.335C199.462 257.768 199.557 257.177 199.769 256.657C199.887 256.302 200.029 255.971 200.218 255.664H228.201C230.137 255.664 231.105 256.539 231.105 258.311C231.105 258.879 231.011 259.446 230.846 259.99C230.728 260.344 230.586 260.675 230.397 260.983H218.023V289.16H212.19V260.983H212.167ZM220.668 289.16C221.494 286.985 222.392 284.622 223.407 282.116C224.423 279.586 225.485 276.986 226.595 274.339C227.705 271.691 228.862 268.996 230.043 266.254C231.224 263.536 232.428 260.841 233.609 258.241C234.01 257.177 234.718 256.231 235.616 255.522C236.466 255.002 237.458 254.742 238.45 254.766C238.875 254.766 239.276 254.813 239.701 254.907C240.055 255.002 240.433 255.097 240.764 255.262C241.071 255.404 241.33 255.522 241.543 255.617C241.685 255.688 241.803 255.758 241.921 255.853C242.44 256.775 243.125 258.099 243.952 259.895C244.778 261.692 245.699 263.701 246.667 265.923C247.635 268.145 248.627 270.485 249.619 272.897C250.611 275.308 251.579 277.624 252.429 279.799C253.303 281.95 254.059 283.865 254.72 285.543C255.381 287.222 255.83 288.404 256.089 289.137H249.595C249.454 288.758 249.241 288.191 248.958 287.482C248.698 286.749 248.415 285.993 248.108 285.165C247.777 284.314 247.47 283.487 247.14 282.636C246.809 281.808 246.502 281.052 246.266 280.39H229.83C229.122 282.163 228.461 283.818 227.918 285.331C227.374 286.844 226.855 288.12 226.524 289.113H220.644L220.668 289.16ZM244.353 275.284C243.904 274.079 243.361 272.755 242.795 271.313C242.228 269.871 241.614 268.453 241.047 267.058C240.48 265.687 239.937 264.434 239.441 263.276C238.922 262.141 238.52 261.29 238.237 260.699C237.812 261.621 237.34 262.637 236.82 263.796C236.301 264.954 235.734 266.183 235.191 267.46C234.624 268.76 234.104 270.06 233.538 271.384C232.971 272.731 232.451 274.031 231.956 275.284H244.353ZM257.081 258.335C257.058 257.957 257.105 257.579 257.247 257.224C257.388 256.869 257.624 256.562 257.908 256.302C258.569 255.829 259.372 255.593 260.175 255.64C260.741 255.64 261.332 255.711 261.875 255.877C262.418 256.042 262.749 256.16 262.914 256.231V269.091H280.176V258.335C280.152 257.957 280.2 257.579 280.341 257.224C280.483 256.869 280.696 256.562 280.979 256.302C281.617 255.829 282.419 255.593 283.199 255.64C283.789 255.64 284.403 255.711 284.97 255.877C285.324 255.971 285.678 256.113 286.009 256.279V289.137H280.176V274.386H262.914V289.137H257.081V258.311V258.335ZM300.059 260.983H290.259C288.323 260.983 287.355 260.108 287.355 258.335C287.355 257.768 287.449 257.2 287.638 256.657C287.756 256.326 287.922 255.971 288.087 255.664H316.094C318.006 255.664 318.974 256.539 318.974 258.311C318.998 258.879 318.904 259.446 318.691 259.99C318.597 260.344 318.431 260.675 318.242 260.983H305.892V289.16H300.059V260.983Z" fill="white"/>
</g>
<defs>
<filter id="filter0_di" x="68.5923" y="14" width="202.077" height="197.563" filterUnits="userSpaceOnUse" color-interpolation-filters="sRGB">
<feFlood flood-opacity="0" result="BackgroundImageFix"/>
<feColorMatrix in="SourceAlpha" type="matrix" values="0 0 0 0 0 0 0 0 0 0 0 0 0 0 0 0 0 0 127 0" result="hardAlpha"/>
<feOffset dy="4"/>
<feGaussianBlur stdDeviation="2"/>
<feComposite in2="hardAlpha" operator="out"/>
<feColorMatrix type="matrix" values="0 0 0 0 0 0 0 0 0 0 0 0 0 0 0 0 0 0 0.25 0"/>
<feBlend mode="normal" in2="BackgroundImageFix" result="effect1_dropShadow"/>
<feBlend mode="normal" in="SourceGraphic" in2="effect1_dropShadow" result="shape"/>
<feColorMatrix in="SourceAlpha" type="matrix" values="0 0 0 0 0 0 0 0 0 0 0 0 0 0 0 0 0 0 127 0" result="hardAlpha"/>
<feOffset/>
<feGaussianBlur stdDeviation="1"/>
<feComposite in2="hardAlpha" operator="arithmetic" k2="-1" k3="1"/>
<feColorMatrix type="matrix" values="0 0 0 0 0 0 0 0 0 0 0 0 0 0 0 0 0 0 0.3 0"/>
<feBlend mode="normal" in2="shape" result="effect2_innerShadow"/>
</filter>
<filter id="filter1_di" x="80.856" y="30.5" width="177.472" height="207.512" filterUnits="userSpaceOnUse" color-interpolation-filters="sRGB">
<feFlood flood-opacity="0" result="BackgroundImageFix"/>
<feColorMatrix in="SourceAlpha" type="matrix" values="0 0 0 0 0 0 0 0 0 0 0 0 0 0 0 0 0 0 127 0" result="hardAlpha"/>
<feOffset dy="4"/>
<feGaussianBlur stdDeviation="2"/>
<feComposite in2="hardAlpha" operator="out"/>
<feColorMatrix type="matrix" values="0 0 0 0 0 0 0 0 0 0 0 0 0 0 0 0 0 0 0.25 0"/>
<feBlend mode="normal" in2="BackgroundImageFix" result="effect1_dropShadow"/>
<feBlend mode="normal" in="SourceGraphic" in2="effect1_dropShadow" result="shape"/>
<feColorMatrix in="SourceAlpha" type="matrix" values="0 0 0 0 0 0 0 0 0 0 0 0 0 0 0 0 0 0 127 0" result="hardAlpha"/>
<feOffset/>
<feGaussianBlur stdDeviation="1"/>
<feComposite in2="hardAlpha" operator="arithmetic" k2="-1" k3="1"/>
<feColorMatrix type="matrix" values="0 0 0 0 0 0 0 0 0 0 0 0 0 0 0 0 0 0 0.3 0"/>
<feBlend mode="normal" in2="shape" result="effect2_innerShadow"/>
</filter>
<filter id="filter2_di" x="16.9839" y="218.572" width="305.942" height="39.3231" filterUnits="userSpaceOnUse" color-interpolation-filters="sRGB">
<feFlood flood-opacity="0" result="BackgroundImageFix"/>
<feColorMatrix in="SourceAlpha" type="matrix" values="0 0 0 0 0 0 0 0 0 0 0 0 0 0 0 0 0 0 127 0" result="hardAlpha"/>
<feOffset dy="4"/>
<feGaussianBlur stdDeviation="2"/>
<feComposite in2="hardAlpha" operator="out"/>
<feColorMatrix type="matrix" values="0 0 0 0 0 0 0 0 0 0 0 0 0 0 0 0 0 0 0.25 0"/>
<feBlend mode="normal" in2="BackgroundImageFix" result="effect1_dropShadow"/>
<feBlend mode="normal" in="SourceGraphic" in2="effect1_dropShadow" result="shape"/>
<feColorMatrix in="SourceAlpha" type="matrix" values="0 0 0 0 0 0 0 0 0 0 0 0 0 0 0 0 0 0 127 0" result="hardAlpha"/>
<feOffset/>
<feGaussianBlur stdDeviation="1"/>
<feComposite in2="hardAlpha" operator="arithmetic" k2="-1" k3="1"/>
<feColorMatrix type="matrix" values="0 0 0 0 0 0 0 0 0 0 0 0 0 0 0 0 0 0 0.3 0"/>
<feBlend mode="normal" in2="shape" result="effect2_innerShadow"/>
</filter>
<filter id="filter3_di" x="17.0547" y="255.7" width="92.9351" height="43.3174" filterUnits="userSpaceOnUse" color-interpolation-filters="sRGB">
<feFlood flood-opacity="0" result="BackgroundImageFix"/>
<feColorMatrix in="SourceAlpha" type="matrix" values="0 0 0 0 0 0 0 0 0 0 0 0 0 0 0 0 0 0 127 0" result="hardAlpha"/>
<feOffset dy="4"/>
<feGaussianBlur stdDeviation="2"/>
<feComposite in2="hardAlpha" operator="out"/>
<feColorMatrix type="matrix" values="0 0 0 0 0 0 0 0 0 0 0 0 0 0 0 0 0 0 0.25 0"/>
<feBlend mode="normal" in2="BackgroundImageFix" result="effect1_dropShadow"/>
<feBlend mode="normal" in="SourceGraphic" in2="effect1_dropShadow" result="shape"/>
<feColorMatrix in="SourceAlpha" type="matrix" values="0 0 0 0 0 0 0 0 0 0 0 0 0 0 0 0 0 0 127 0" result="hardAlpha"/>
<feOffset/>
<feGaussianBlur stdDeviation="1"/>
<feComposite in2="hardAlpha" operator="arithmetic" k2="-1" k3="1"/>
<feColorMatrix type="matrix" values="0 0 0 0 0 0 0 0 0 0 0 0 0 0 0 0 0 0 0.3 0"/>
<feBlend mode="normal" in2="shape" result="effect2_innerShadow"/>
</filter>
<filter id="filter4_di" x="100.646" y="254.764" width="222.332" height="42.4197" filterUnits="userSpaceOnUse" color-interpolation-filters="sRGB">
<feFlood flood-opacity="0" result="BackgroundImageFix"/>
<feColorMatrix in="SourceAlpha" type="matrix" values="0 0 0 0 0 0 0 0 0 0 0 0 0 0 0 0 0 0 127 0" result="hardAlpha"/>
<feOffset dy="4"/>
<feGaussianBlur stdDeviation="2"/>
<feComposite in2="hardAlpha" operator="out"/>
<feColorMatrix type="matrix" values="0 0 0 0 0 0 0 0 0 0 0 0 0 0 0 0 0 0 0.25 0"/>
<feBlend mode="normal" in2="BackgroundImageFix" result="effect1_dropShadow"/>
<feBlend mode="normal" in="SourceGraphic" in2="effect1_dropShadow" result="shape"/>
<feColorMatrix in="SourceAlpha" type="matrix" values="0 0 0 0 0 0 0 0 0 0 0 0 0 0 0 0 0 0 127 0" result="hardAlpha"/>
<feOffset/>
<feGaussianBlur stdDeviation="1"/>
<feComposite in2="hardAlpha" operator="arithmetic" k2="-1" k3="1"/>
<feColorMatrix type="matrix" values="0 0 0 0 0 0 0 0 0 0 0 0 0 0 0 0 0 0 0.3 0"/>
<feBlend mode="normal" in2="shape" result="effect2_innerShadow"/>
</filter>
</defs>
</svg>
