<svg width="151" height="140" viewBox="0 0 151 140" fill="none" xmlns="http://www.w3.org/2000/svg">
<g opacity="0.2" clip-path="url(#clip0)">
<path fill-rule="evenodd" clip-rule="evenodd" d="M61.591 91.3395C51.7672 88.7469 43.0322 80.4315 39.1673 75.2344C34.0819 68.3885 31.0905 60.2404 30.5401 51.7577C29.9897 43.275 31.9042 34.8043 36.0563 27.373C39.9451 20.3599 45.6647 14.5176 52.6167 10.4674C59.5688 6.4172 67.4901 4.31446 75.5549 4.36225C110.83 4.46977 133.756 44.183 111.237 75.5092C107.623 80.5271 98.8042 88.4722 89.4471 91.2081V95.5809C110.842 89.1412 127.869 68.0301 123.908 41.6382C120.247 17.2535 96.9017 -4.16822 67.8849 0.694384C58.6355 2.24755 49.027 6.42915 42.6613 12.3073C31.2221 22.833 24.0547 38.1137 26.6871 56.1305C28.123 65.3539 32.1674 73.9799 38.3537 81.005C44.5399 88.0301 52.6048 93.1556 61.6149 95.8079V91.3395H61.591Z" fill="#008DD2"/>
<path fill-rule="evenodd" clip-rule="evenodd" d="M77.3756 8.33936C76.4303 11.9475 79.326 12.9152 76.5978 25.4003C75.3534 31.0395 74.6354 36.3083 73.5705 41.9594L62.7535 29.6894C61.0783 27.1446 59.9655 24.2772 59.4869 21.2784C58.745 17.1207 59.9655 13.2378 55.6938 13.9427C53.3246 19.7492 57.1177 29.6058 60.0373 33.3692C64.321 38.8292 67.6355 41.6607 70.5671 47.4672C75.9636 58.2079 73.4269 80.0478 73.4389 93.1303L69.5739 93.0347L69.7534 71.0275C69.7415 63.0108 67.0851 58.6022 63.6509 53.3692C59.4749 47.0371 50.1058 27.9929 39.0495 30.9081C37.6735 34.779 40.27 33.7515 46.5999 37.8734C49.352 39.6655 52.2357 43.1781 54.1382 46.1171C55.6818 48.3991 56.8903 50.8842 57.7399 53.5006C49.6631 52.0192 42.8187 53.2736 37.5897 45.8304C35.9504 43.4887 36.2615 41.6249 32.5641 42.5926C32.3488 43.3573 32.3009 44.1697 32.4205 44.9463C32.5402 45.7348 32.8274 46.4875 33.2581 47.1566C34.7419 49.6536 37.2906 52.7599 39.7196 54.0263C41.6102 55.006 42.0768 54.7312 44.2187 56.0693C44.2905 56.1171 44.446 56.2247 44.5537 56.2963C43.5247 57.9331 40.5213 60.5616 41.2632 62.9272C41.5743 63.9308 41.3948 63.3573 41.8136 63.8232C45.6905 65.5795 46.3007 60.5138 48.7896 58.7217C51.2784 56.9415 56.0527 56.8459 59.1997 58.2557C65.5535 61.0992 65.3501 70.2509 65.3501 78.3871C65.3501 84.5042 65.1706 90.5496 65.1706 96.7026L71.5124 109.176L73.9295 107.336H77.0286L79.4576 109.176L85.7994 96.7026L85.7874 96.5233H85.7994C85.7994 95.5914 85.7635 94.5281 85.7156 93.3692C85.225 82.2462 82.9875 61.9475 91.3395 58.2557C94.3309 56.9296 99.3565 56.8579 101.762 58.7217C104.227 60.6572 104.765 65.5914 108.738 63.8352L109.384 61.9116C109.252 61.1828 108.977 60.4779 108.594 59.8447L106.691 57.2163C105.95 56.2605 106.679 57.3955 105.985 56.2844C109.982 53.4887 110.832 56.2127 116.862 47.73C118.095 45.9977 118.597 44.8388 117.939 42.6046C114.445 41.4935 114.625 43.19 113.189 45.5676C108.714 52.9869 99.4881 52.282 92.7634 53.5126C95.2762 46.1888 100.122 39.6536 106.991 35.9499C109.922 34.3609 112.926 34.4803 111.478 30.8961C107.086 29.6775 101.199 33.883 98.9975 35.8901C94.8215 39.7014 87.8695 51.6488 84.6866 57.0371C81.9943 61.613 80.4507 65.1972 80.8097 71.5174L81.5875 92.9511L77.9858 93.3214L77.3995 55.3167C77.3875 50.1195 78.7277 47.2282 81.1208 43.6799L88.4079 35.699C91.4233 32.3895 98.83 19.7372 94.5104 13.5604C87.331 13.6321 95.5873 20.0478 85.4045 32.2223L80.2473 37.8854C79.4456 38.9487 78.5721 39.9523 77.6508 40.9081C78.261 31.2904 84.6507 17.515 80.6781 8.47078L77.3516 8.33936H77.3756ZM108.833 57.2163C111.011 60.3226 113.356 60 115.917 57.3955C113.859 56.0574 111.083 54.8627 108.833 57.2163ZM34.9094 57.2641C36.3214 60.4063 40.4854 60 41.7538 56.8937C38.7863 55.5676 37.5419 55.2211 34.9094 57.2641ZM81.5636 30.5735C84.3396 29.2474 86.7806 27.5867 86.5173 23.3453C82.7003 24.552 81.6353 26.141 81.5636 30.5735ZM72.5773 34.8268C73.3192 33.7754 73.8218 32.5807 74.0491 31.3143C74.2645 30.0478 74.2047 28.7575 73.8577 27.515C73.7739 27.0968 73.5944 26.7026 73.3312 26.368C73.0679 26.0335 72.7329 25.7587 72.35 25.5676C71.8833 27.0132 70.8662 28.4708 70.7705 30.2987C70.7346 31.0753 70.8423 31.8519 71.1175 32.5807C71.3808 33.3095 71.7996 33.9785 72.338 34.5401C72.3859 34.5998 72.5055 34.7312 72.5893 34.8388L72.5773 34.8268ZM66.9415 46.2127C66.6783 42.3298 63.7467 41.2306 59.4749 41.4098C60.5399 44.9702 62.4663 46.7742 66.9415 46.2127ZM84.9498 18.9845C85.8951 18.5066 85.1293 19.1279 85.8592 18.3871L87.678 14.8388C88.013 12.8913 87.4746 10.4779 86.4336 9.33099C84.0046 11.828 82.5447 15.3525 84.9498 18.9845ZM79.6969 55.0777C84.3515 55.1494 85.5003 53.7874 86.29 49.4146C81.8866 48.9606 79.8405 50.9678 79.6969 55.0777ZM70.9739 55.0658C71.0338 51.0514 68.4611 48.9845 64.321 49.4624C64.9791 53.6679 66.415 55.1972 70.9739 55.0658ZM60.0852 38.0646C58.8048 33.5245 58.2664 32.1028 52.8459 32.3179C53.6476 36.3919 55.3587 38.3991 60.0852 38.0646ZM90.2865 38.3035C94.9531 37.9331 97.0112 36.6189 97.7292 32.3179C92.5959 32.0431 91.2557 33.7874 90.2865 38.3035ZM53.6596 24.6954C54.1023 20.1315 52.0442 17.5867 47.952 17.049C47.5571 21.828 49.7588 23.5604 53.6596 24.6954ZM42.1965 27.0849C43.8358 30.3704 48.8733 31.386 52.128 29.2354C49.8186 25.5795 47.1383 26.0455 42.1965 27.0849ZM96.9873 24.6476C101.056 23.5962 103.066 22.0311 102.707 17.0371C98.6266 17.6584 96.5087 20.0956 96.9873 24.6476ZM82.2456 45.8184C86.8763 47.3955 89.9993 44.9224 91.1002 41.4696C85.6797 40.9558 83.9208 42.1028 82.2456 45.8184ZM98.5428 29.2474C99.3445 29.8208 100.266 30.2032 101.247 30.3824C102.216 30.5496 103.221 30.5018 104.179 30.239C105.064 30.0717 105.914 29.7014 106.632 29.1518C107.362 28.6141 107.948 27.9093 108.355 27.1088C103.796 25.9977 100.505 25.5914 98.5428 29.2474ZM99.9189 50.8005C103.509 49.8328 105.387 46.9774 104.466 42.2103C102.635 42.0311 101.163 43.5484 100.517 44.7312C99.536 46.5592 99.7753 48.7814 99.9189 50.8005ZM50.7161 50.7766C50.8477 48.7217 51.0511 46.5233 50.1058 44.7312C49.4716 43.5365 48.0597 42.067 46.1811 42.2342C45.1879 47.0251 47.1383 49.8208 50.7161 50.7766ZM108.403 44.2653C112.459 43.883 114.505 40.9319 114.002 36.2366C110.102 37.0251 108.02 39.6894 108.403 44.2653ZM42.2563 44.2772C42.6153 39.7253 40.5333 36.7981 36.5726 36.2247C36.2615 40.8722 37.9487 43.6679 42.2563 44.2772ZM66.6543 28.2557C69.1551 25.9857 68.3893 19.9642 65.1706 18.5783C62.1433 22.4254 64.1774 26.0216 66.6543 28.2557ZM100.888 65.2091C99.4403 60.6452 96.8198 59.785 91.5908 60.9558C92.895 65.2808 96.9035 65.5198 100.888 65.2091ZM73.4867 18.4708C73.4748 13.4529 72.1346 11.2784 67.7432 10.1793C67.3244 15.006 68.9278 17.9092 73.4867 18.4708ZM49.7109 65.2091C53.0494 65.4361 57.5126 65.7109 59.0322 60.9558C53.4203 59.8447 51.1229 60.6333 49.7109 65.2091Z" fill="#98C22A"/>
<path fill-rule="evenodd" clip-rule="evenodd" d="M71.8814 116.118C71.8456 116.011 71.8097 115.891 71.7618 115.796C70.984 114.243 69.8712 112.869 68.4832 111.805C64.0679 108.388 57.762 107.863 52.3654 108.269C49.1108 108.568 45.88 109.141 42.7331 110.001C39.287 110.885 35.8648 111.937 32.4426 112.952C30.1452 113.645 27.6803 114.374 25.1196 115.043C23.4564 115.473 21.7573 115.867 20.0462 116.202H70.3738V118.185H-0.00830078V116.202H4.43096C3.85661 116.035 3.28226 115.856 2.71987 115.629L1.75065 115.258L2.51646 113.347L3.48568 113.729C4.75404 114.207 6.05829 114.553 7.39845 114.756C9.92321 115.115 12.4839 115.163 15.0206 114.876C19.7949 114.29 24.4974 113.263 29.0683 111.817C27.6085 112.164 26.1128 112.51 24.5812 112.821C16.8992 114.41 8.52322 115.306 1.70279 112.235L0.733571 111.805L1.61903 109.87L2.58825 110.3C3.85661 110.862 5.17283 111.292 6.52496 111.578C9.07364 112.08 11.6822 112.259 14.2787 112.104C18.3111 111.841 22.3196 111.232 26.2563 110.288C18.8855 111.65 10.8805 112.295 4.44293 109.249L3.50961 108.807L4.40703 106.967L5.32839 107.409C6.53692 107.97 7.79332 108.4 9.08561 108.699C11.5386 109.237 14.0514 109.464 16.5642 109.368C22.3555 109.213 28.3862 107.815 33.364 106.692C39.8852 105.21 47.0168 103.406 53.7176 103.394C59.6166 103.37 66.2097 104.505 70.6968 108.603C71.5703 109.404 72.372 110.575 73.0541 111.781L74.0113 111.196H76.3805L77.7446 112.02C78.4745 110.73 79.3121 109.452 80.2455 108.603C84.7445 104.505 91.3257 103.359 97.2367 103.394C103.937 103.418 111.069 105.222 117.59 106.692C122.568 107.815 128.611 109.213 134.39 109.368C136.903 109.464 139.416 109.237 141.869 108.699C143.161 108.4 144.429 107.97 145.626 107.409L146.559 106.967L147.445 108.807L146.511 109.249C140.074 112.295 132.069 111.65 124.71 110.288C128.635 111.232 132.643 111.841 136.676 112.104C139.272 112.259 141.893 112.08 144.441 111.578C145.793 111.292 147.11 110.862 148.366 110.3L149.335 109.87L150.221 111.805L149.251 112.235C142.443 115.306 134.055 114.422 126.373 112.821C124.842 112.498 123.346 112.164 121.886 111.805C126.469 113.263 131.171 114.29 135.946 114.876C138.482 115.151 141.031 115.115 143.556 114.756C144.896 114.553 146.2 114.207 147.469 113.729L148.45 113.347L149.204 115.258L148.234 115.629C147.672 115.856 147.098 116.035 146.523 116.202H150.963V118.185H80.5805V116.202H130.92C129.197 115.879 127.498 115.473 125.835 115.043C123.274 114.374 120.809 113.633 118.512 112.952C115.101 111.925 111.691 110.873 108.221 110.001C105.074 109.153 101.843 108.568 98.6008 108.269C93.1923 107.863 86.8864 108.388 82.483 111.805C81.095 112.869 79.9702 114.231 79.1925 115.796C79.1566 115.903 79.1207 116.023 79.0728 116.13L79.0489 116.202H79.4318V118.185H75.6028L75.184 119.225L74.7652 118.185H71.4626V116.202H71.8575L71.8336 116.13L71.8814 116.118Z" fill="#02517A"/>
<path d="M5.6871 132.449C4.71789 132.449 4.21533 132.019 4.21533 131.147C4.21533 130.86 4.26319 130.574 4.37088 130.299C4.43071 130.12 4.5025 129.952 4.59823 129.785H11.7776C11.6699 129.056 11.4306 128.352 11.0717 127.694C10.7486 127.097 10.3178 126.559 9.79133 126.129C9.2768 125.699 8.69049 125.365 8.05631 125.15C7.3982 124.923 6.69222 124.803 5.99821 124.815C5.44779 124.815 4.90934 124.875 4.38285 125.006C3.91619 125.114 3.46149 125.257 3.03073 125.46C2.65979 125.616 2.31279 125.819 1.98971 126.046C1.73843 126.225 1.51109 126.428 1.30767 126.643C1.18801 126.571 1.06836 126.488 0.960666 126.392C0.817078 126.273 0.685456 126.129 0.577764 125.986C0.458108 125.819 0.350417 125.639 0.278623 125.46C0.194863 125.269 0.147 125.054 0.147 124.839C0.170932 124.576 0.254691 124.313 0.410245 124.086C0.637593 123.716 0.9487 123.417 1.31964 123.19C1.87006 122.856 2.48031 122.605 3.11449 122.461C4.07174 122.234 5.06489 122.139 6.04608 122.163C7.23068 122.151 8.41528 122.366 9.52808 122.772C10.593 123.154 11.5742 123.752 12.3998 124.528C12.9383 125.042 13.405 125.628 13.7879 126.261V123.955C13.7879 123.083 14.2785 122.653 15.2596 122.653C15.5707 122.653 15.8819 122.676 16.181 122.748C16.3605 122.784 16.54 122.832 16.7194 122.903V129.929H17.7365C18.3348 129.952 18.9211 129.833 19.4716 129.594C19.9502 129.355 20.3809 129.033 20.7279 128.626C21.3741 127.898 21.9604 127.109 22.4749 126.285C22.9177 125.556 23.3125 124.935 23.6595 124.385C23.9467 123.919 24.3057 123.489 24.7245 123.119C25.1193 122.796 25.6339 122.617 26.1484 122.641C26.5074 122.629 26.8663 122.688 27.2133 122.82C27.4527 122.927 27.68 123.059 27.8954 123.214C27.333 124.086 26.6749 125.066 25.945 126.165C25.2151 127.264 24.4373 128.375 23.6236 129.51C23.3843 129.845 23.133 130.168 22.8818 130.442C22.6425 130.717 22.3672 130.956 22.0801 131.183C22.5707 131.745 23.0972 132.366 23.6476 133.035C24.198 133.716 24.7364 134.409 25.2869 135.138C25.8373 135.866 26.3518 136.607 26.8663 137.348C27.3809 138.089 27.8595 138.829 28.3022 139.534H24.904C24.5211 138.961 24.1142 138.352 23.6715 137.742C23.2288 137.121 22.7621 136.5 22.2715 135.878C21.7809 135.257 21.3143 134.66 20.8237 134.074C20.3331 133.501 19.8664 132.939 19.3998 132.438C19.1724 132.473 18.9331 132.509 18.6938 132.521C18.4425 132.545 18.1912 132.557 17.9399 132.557H16.7434V139.534H13.8118V135.974C13.4169 136.619 12.9263 137.205 12.3639 137.718C11.5144 138.471 10.5332 139.044 9.46826 139.403C8.34348 139.797 7.17085 139.988 5.97428 139.988C5.22044 140 4.47857 139.941 3.7367 139.809C3.15038 139.714 2.57603 139.582 2.01364 139.403C1.59485 139.283 1.18801 139.104 0.793147 138.901C0.529902 138.758 0.266657 138.602 0.0273438 138.423L1.34357 136.153C1.85809 136.476 2.40851 136.727 2.99483 136.906C3.88029 137.181 4.78968 137.312 5.71104 137.288C6.45291 137.288 7.18281 137.181 7.88879 136.978C8.5469 136.774 9.16911 136.464 9.7315 136.046C10.2819 135.628 10.7366 135.102 11.0836 134.516C11.4665 133.871 11.7178 133.154 11.8255 132.426H5.71104L5.6871 132.449ZM33.9739 122.187C36.391 122.151 38.7123 123.071 40.4474 124.731C41.273 125.544 41.9191 126.5 42.3738 127.563C43.2952 129.833 43.2952 132.354 42.3738 134.624C41.9311 135.687 41.273 136.643 40.4474 137.455C39.1192 138.686 37.4679 139.51 35.685 139.845C33.9021 140.179 32.0594 140 30.3723 139.331C29.2954 138.901 28.3261 138.256 27.4886 137.455C26.6629 136.643 26.0168 135.687 25.5621 134.624C24.8561 132.975 24.6527 131.147 24.9997 129.391C25.3467 127.623 26.2082 126.01 27.4886 124.743C28.3142 123.943 29.2954 123.31 30.3723 122.868C31.509 122.414 32.7415 122.175 33.9739 122.187ZM33.9739 137.324C34.7876 137.324 35.6013 137.169 36.3551 136.846C37.0611 136.547 37.7072 136.105 38.2457 135.556C38.7841 134.994 39.2149 134.325 39.5021 133.596C40.1243 131.984 40.1243 130.203 39.5021 128.59C39.2149 127.862 38.7961 127.193 38.2457 126.619C37.7192 126.07 37.0731 125.628 36.3551 125.329C34.8235 124.708 33.1124 124.708 31.5808 125.329C30.8629 125.628 30.2048 126.07 29.6663 126.631C29.1278 127.193 28.709 127.85 28.4338 128.579C27.8356 130.191 27.8356 131.972 28.4338 133.584C28.709 134.313 29.1278 134.97 29.6783 135.532C30.2167 136.093 30.8629 136.536 31.5928 136.834C32.3466 137.157 33.1603 137.312 33.9859 137.312L33.9739 137.324Z" fill="#98C22A"/>
<path d="M49.195 128.413C49.0634 128.951 48.9079 129.572 48.7523 130.265C48.5848 130.958 48.4173 131.663 48.2617 132.404C48.0942 133.132 47.9267 133.837 47.7711 134.542C47.6036 135.223 47.472 135.844 47.3523 136.382H55.13V124.686C54.9027 124.638 54.6634 124.602 54.436 124.59C54.101 124.554 53.754 124.542 53.4189 124.542C52.9044 124.542 52.3899 124.59 51.8993 124.709C51.4685 124.817 51.0856 125.032 50.7506 125.319C50.3916 125.653 50.1044 126.06 49.889 126.502C49.6019 127.111 49.3865 127.756 49.219 128.413H49.195ZM42.3866 139.07V137.816C42.3746 137.625 42.4105 137.433 42.4703 137.254C42.5421 137.075 42.6498 136.908 42.7814 136.764C43.0925 136.49 43.4874 136.358 43.9062 136.382H44.2532C44.5883 135.008 44.9233 133.563 45.2583 132.069C45.6053 130.576 45.9404 129.178 46.2634 127.876C46.4669 126.884 46.8139 125.916 47.2925 125.02C47.6754 124.315 48.1899 123.682 48.8241 123.18C49.4224 122.714 50.1164 122.38 50.8702 122.189C51.7078 121.974 52.5694 121.878 53.4309 121.89C54.1249 121.878 54.8069 121.926 55.489 122.009C56.0514 122.081 56.4462 122.129 56.6855 122.165C57.0445 122.236 57.3676 122.392 57.6428 122.619C57.7864 122.762 57.906 122.941 57.9778 123.132C58.0496 123.324 58.0736 123.539 58.0496 123.742V136.37H58.3727C58.7795 136.346 59.1864 136.49 59.4975 136.752C59.6291 136.884 59.7368 137.051 59.8086 137.23C59.8804 137.41 59.9043 137.601 59.8923 137.804V139.058H42.3985L42.3866 139.07ZM63.506 134.435C64.6786 132.762 65.8632 131.113 67.0598 129.477C68.2444 127.828 69.4529 126.167 70.6614 124.482C70.8888 124.184 71.1042 123.885 71.3196 123.61C71.523 123.347 71.7503 123.097 72.0136 122.87C72.2648 122.666 72.5401 122.487 72.8392 122.368C73.1623 122.236 73.5093 122.177 73.8563 122.189C74.1315 122.189 74.4067 122.201 74.6819 122.26C74.8614 122.308 75.0528 122.368 75.2204 122.439V139.082H72.3127V126.561C71.6307 127.493 70.9008 128.509 70.111 129.62C69.3213 130.743 68.5316 131.866 67.7538 133.001C66.9641 134.136 66.2102 135.247 65.4803 136.298C64.7504 137.35 64.1162 138.294 63.5658 139.082H60.6103V123.503C60.5983 123.312 60.6223 123.12 60.694 122.953C60.7658 122.774 60.8735 122.619 61.0052 122.487C61.3282 122.248 61.7231 122.129 62.1299 122.153C62.4291 122.153 62.7162 122.189 63.0034 122.272C63.2667 122.356 63.4462 122.416 63.5179 122.451V134.459L63.506 134.435ZM79.0374 132.093V139.07H76.1058V123.491C76.1058 122.619 76.5964 122.189 77.5776 122.189C77.8887 122.189 78.1998 122.212 78.5109 122.284C78.7861 122.356 78.9537 122.404 79.0494 122.428V129.465H80.0545C80.6169 129.5 81.1912 129.393 81.7058 129.166C82.2203 128.939 82.6869 128.592 83.034 128.15C83.6801 127.422 84.2664 126.633 84.7809 125.809C85.2117 125.092 85.6185 124.459 85.9655 123.921C86.2647 123.443 86.6237 123.013 87.0305 122.643C87.4254 122.32 87.9279 122.153 88.4424 122.177C88.8014 122.165 89.1604 122.224 89.5074 122.344C89.7467 122.451 89.974 122.583 90.1894 122.738C89.627 123.61 88.9689 124.59 88.251 125.689C87.5211 126.776 86.7313 127.899 85.9296 129.034C85.6784 129.381 85.4271 129.704 85.1878 129.966C84.9485 130.241 84.6852 130.492 84.3861 130.707C84.8767 131.269 85.4032 131.89 85.9536 132.559C86.492 133.24 87.0544 133.933 87.5929 134.65C88.1433 135.379 88.6698 136.107 89.1723 136.86C89.6749 137.613 90.1775 138.341 90.6202 139.046H87.2219C86.8271 138.473 86.4202 137.864 85.9775 137.242C85.5348 136.621 85.0681 136 84.5895 135.379C84.0989 134.769 83.6203 134.16 83.1297 133.586C82.6391 132.989 82.1724 132.451 81.7058 131.95C81.4784 131.974 81.2391 132.009 80.9998 132.033C80.7724 132.045 80.5092 132.069 80.2459 132.069H79.0613L79.0374 132.093ZM96.8663 124.829H91.9005C90.9313 124.829 90.4287 124.387 90.4287 123.491C90.4287 123.204 90.4766 122.905 90.5843 122.643C90.6441 122.463 90.7159 122.296 90.8116 122.141H104.991C105.972 122.141 106.463 122.583 106.463 123.479C106.463 123.766 106.415 124.052 106.331 124.327C106.271 124.506 106.199 124.674 106.104 124.829H99.8338V139.07H96.8782V124.829H96.8663ZM101.174 139.07C101.593 137.971 102.047 136.776 102.562 135.51C103.076 134.232 103.615 132.917 104.177 131.579C104.74 130.241 105.326 128.879 105.924 127.493C106.523 126.119 107.133 124.757 107.731 123.443C107.935 122.905 108.293 122.428 108.748 122.069C109.179 121.806 109.681 121.675 110.184 121.687C110.399 121.687 110.603 121.711 110.818 121.758C110.998 121.806 111.189 121.854 111.357 121.938C111.512 122.009 111.644 122.069 111.752 122.117C111.823 122.153 111.883 122.189 111.943 122.236C112.206 122.702 112.553 123.371 112.972 124.279C113.391 125.187 113.858 126.203 114.348 127.326C114.839 128.449 115.341 129.632 115.844 130.85C116.346 132.069 116.837 133.24 117.268 134.339C117.71 135.426 118.093 136.394 118.428 137.242C118.763 138.091 118.991 138.688 119.122 139.058H115.832C115.76 138.867 115.652 138.58 115.509 138.222C115.377 137.852 115.234 137.469 115.078 137.051C114.91 136.621 114.755 136.203 114.587 135.773C114.42 135.355 114.264 134.972 114.145 134.638H105.817C105.458 135.534 105.123 136.37 104.847 137.135C104.572 137.899 104.309 138.545 104.141 139.046H101.162L101.174 139.07ZM113.175 132.057C112.948 131.448 112.673 130.779 112.386 130.05C112.099 129.321 111.787 128.604 111.5 127.899C111.213 127.207 110.938 126.573 110.687 125.988C110.423 125.414 110.22 124.984 110.076 124.686C109.861 125.152 109.622 125.665 109.358 126.251C109.095 126.836 108.808 127.457 108.533 128.103C108.246 128.76 107.982 129.417 107.695 130.086C107.408 130.767 107.145 131.424 106.893 132.057H113.175ZM119.625 123.491C119.613 123.3 119.637 123.109 119.709 122.929C119.781 122.75 119.9 122.595 120.044 122.463C120.379 122.224 120.786 122.105 121.192 122.129C121.48 122.129 121.779 122.165 122.054 122.248C122.329 122.332 122.497 122.392 122.58 122.428V128.927H131.327V123.491C131.315 123.3 131.339 123.109 131.411 122.929C131.483 122.75 131.591 122.595 131.734 122.463C132.057 122.224 132.464 122.105 132.859 122.129C133.158 122.129 133.469 122.165 133.756 122.248C133.936 122.296 134.115 122.368 134.283 122.451V139.058H131.327V131.603H122.58V139.058H119.625V123.479V123.491ZM141.402 124.829H136.437C135.456 124.829 134.965 124.387 134.965 123.491C134.965 123.204 135.013 122.917 135.109 122.643C135.168 122.475 135.252 122.296 135.336 122.141H149.527C150.496 122.141 150.987 122.583 150.987 123.479C150.999 123.766 150.951 124.052 150.843 124.327C150.796 124.506 150.712 124.674 150.616 124.829H144.358V139.07H141.402V124.829Z" fill="#008DD2"/>
</g>
<defs>
<clipPath id="clip0">
<rect width="151" height="140" fill="white"/>
</clipPath>
</defs>
</svg>
