<svg width="18" height="29" viewBox="0 0 18 29" fill="none" xmlns="http://www.w3.org/2000/svg">
<circle cx="9" cy="14" r="8.25" fill="white" stroke="#02517A" stroke-width="1.5"/>
<path d="M7.73438 16.6562C7.73438 15.9635 7.82031 15.4115 7.99219 15C8.16406 14.5885 8.5026 14.138 9.00781 13.6484C9.51823 13.1536 9.84115 12.8021 9.97656 12.5938C10.1849 12.276 10.2891 11.9323 10.2891 11.5625C10.2891 11.0729 10.1667 10.7005 9.92188 10.4453C9.68229 10.1849 9.32812 10.0547 8.85938 10.0547C8.41146 10.0547 8.04948 10.1823 7.77344 10.4375C7.5026 10.6875 7.36719 11.0286 7.36719 11.4609H5.46875C5.47917 10.5391 5.79167 9.8099 6.40625 9.27344C7.02604 8.73698 7.84375 8.46875 8.85938 8.46875C9.90625 8.46875 10.7214 8.73438 11.3047 9.26562C11.8932 9.79688 12.1875 10.5391 12.1875 11.4922C12.1875 12.3411 11.7917 13.1771 11 14L10.0391 14.9453C9.69531 15.3359 9.51823 15.9062 9.50781 16.6562H7.73438ZM7.60156 19.0859C7.60156 18.7786 7.69792 18.5312 7.89062 18.3438C8.08333 18.151 8.34375 18.0547 8.67188 18.0547C9.00521 18.0547 9.26823 18.1536 9.46094 18.3516C9.65365 18.5443 9.75 18.7891 9.75 19.0859C9.75 19.3724 9.65625 19.612 9.46875 19.8047C9.28125 19.9974 9.01562 20.0938 8.67188 20.0938C8.32812 20.0938 8.0625 19.9974 7.875 19.8047C7.69271 19.612 7.60156 19.3724 7.60156 19.0859Z" fill="#02517A"/>
</svg>
