<svg width="90" height="90" viewBox="0 0 90 90" fill="none" xmlns="http://www.w3.org/2000/svg">
<g clip-path="url(#clip0)">
<path d="M44.9998 0C57.4259 0 68.6763 5.03695 76.8194 13.1806C84.9625 21.3235 89.9995 32.5737 89.9995 45.0003C89.9995 57.4269 84.9625 68.6772 76.8194 76.8201C68.6763 84.9631 57.4259 90.0007 44.9998 90.0007C32.5736 90.0007 21.3232 84.9637 13.1801 76.8201C5.03704 68.6772 0 57.4269 0 45.0003C0 32.5737 5.03704 21.3235 13.1801 13.1806C21.3232 5.03763 32.5736 0 44.9998 0V0ZM25.2279 37.6819C27.2484 37.6819 29.0791 38.5016 30.4026 39.8251C31.7268 41.1492 32.5465 42.9792 32.5465 44.9997C32.5465 47.0201 31.7268 48.8501 30.4026 50.1743C29.0791 51.4977 27.2484 52.3174 25.2279 52.3174C23.2074 52.3174 21.3767 51.4977 20.0532 50.1743C18.7291 48.8501 17.9093 47.0201 17.9093 44.9997C17.9093 42.9792 18.7291 41.1492 20.0532 39.8251C21.3767 38.5016 23.2074 37.6819 25.2279 37.6819ZM64.7723 37.6819C66.7928 37.6819 68.6235 38.5016 69.947 39.8251C71.2711 41.1492 72.0909 42.9792 72.0909 44.9997C72.0909 47.0201 71.2711 48.8501 69.947 50.1743C68.6235 51.4977 66.7928 52.3174 64.7723 52.3174C62.7518 52.3174 60.9211 51.4977 59.5976 50.1743C58.2734 48.8501 57.4537 47.0201 57.4537 44.9997C57.4537 42.9792 58.2734 41.1492 59.5976 39.8251C60.9211 38.5016 62.7518 37.6819 64.7723 37.6819ZM68.4946 41.2774C67.5427 40.3254 66.226 39.7356 64.7723 39.7356C63.3186 39.7356 62.0019 40.3254 61.0499 41.2774C60.098 42.2293 59.5081 43.546 59.5081 44.9997C59.5081 46.4533 60.098 47.7693 61.0499 48.7219C62.0019 49.6739 63.3186 50.2637 64.7723 50.2637C66.226 50.2637 67.5427 49.6739 68.4946 48.7219C69.4466 47.77 70.0365 46.4533 70.0365 44.9997C70.0365 43.546 69.4466 42.23 68.4946 41.2774ZM45.0004 37.6819C47.021 37.6819 48.8516 38.5016 50.1751 39.8251C51.4993 41.1492 52.319 42.9792 52.319 44.9997C52.319 47.0201 51.4993 48.8501 50.1751 50.1743C48.8516 51.4977 47.021 52.3174 45.0004 52.3174C42.9799 52.3174 41.1493 51.4977 39.8258 50.1743C38.5016 48.8501 37.6819 47.0201 37.6819 44.9997C37.6819 42.9792 38.5016 41.1492 39.8258 39.8251C41.1493 38.5016 42.9799 37.6819 45.0004 37.6819ZM48.7228 41.2774C47.7708 40.3254 46.4541 39.7356 45.0004 39.7356C43.5468 39.7356 42.23 40.3254 41.2781 41.2774C40.3261 42.2293 39.7363 43.546 39.7363 44.9997C39.7363 46.4533 40.3261 47.7693 41.2781 48.7219C42.23 49.6739 43.5468 50.2637 45.0004 50.2637C46.4541 50.2637 47.7708 49.6739 48.7228 48.7219C49.6747 47.77 50.2646 46.4533 50.2646 44.9997C50.2646 43.546 49.6747 42.23 48.7228 41.2774ZM28.9509 41.2774C27.999 40.3254 26.6823 39.7356 25.2286 39.7356C23.7749 39.7356 22.4582 40.3254 21.5062 41.2774C20.5543 42.2293 19.9644 43.546 19.9644 44.9997C19.9644 46.4533 20.5543 47.7693 21.5062 48.7219C22.4582 49.6739 23.7749 50.2637 25.2286 50.2637C26.6823 50.2637 27.999 49.6739 28.9509 48.7219C29.9029 47.77 30.4928 46.4533 30.4928 44.9997C30.4928 43.546 29.9029 42.23 28.9509 41.2774ZM53.7822 82.5527L51.0084 83.0951L50.4667 80.3221L53.2405 79.7803L53.7822 82.5527ZM39.5349 9.67659L36.7611 10.2183L36.22 7.44728L38.9938 6.90352L39.5349 9.67659ZM60.7462 80.2054L58.1256 81.2638L57.0672 78.644L59.6885 77.5863L60.7462 80.2048V80.2054ZM32.9343 11.3547L30.3138 12.4124L29.2567 9.79388L31.8773 8.73415L32.935 11.3547H32.9343ZM67.6688 76.2018L65.3228 77.7782L63.7471 75.4329L66.0938 73.8572L67.6688 76.2018ZM26.2551 14.5664L23.9092 16.1421L22.3348 13.7975L24.6801 12.2205L26.2551 14.5664ZM73.2571 71.2482L71.2589 73.2463L69.2608 71.2489L71.2596 69.2508L73.2571 71.2482ZM20.7414 18.7497L18.7426 20.7478L16.7458 18.7511L18.7433 16.7516L20.7414 18.7497ZM77.688 65.4695L76.1007 67.808L73.7629 66.2221L75.3501 63.8837L77.6873 65.4695H77.688ZM16.24 23.7779L14.6528 26.1163L12.3156 24.5305L13.9022 22.1913L16.24 23.7779ZM81.2666 58.1253L80.2082 60.7458L77.589 59.6874L78.648 57.0669L81.2666 58.1253ZM12.4146 30.3132L11.3555 32.9338L8.73701 31.8761L9.79541 29.2549L12.4146 30.3132ZM83.1189 50.8726L82.586 53.6484L79.8122 53.1161L80.3451 50.3404L83.1189 50.8726ZM10.1907 36.8852L9.65777 39.6603L6.88465 39.1288L7.41622 36.3523L10.1907 36.8852ZM82.6247 36.5225L83.1447 39.3003L80.3682 39.8196L79.8482 37.0418L82.6247 36.5225ZM9.63472 50.1804L10.1534 52.9582L7.37758 53.4775L6.85685 50.699L9.63404 50.1804H9.63472ZM80.2299 29.3037L81.2849 31.9256L78.6643 32.9792L77.6093 30.3573L80.2299 29.3037ZM11.3393 57.0195L12.3936 59.642L9.77371 60.6956L8.71803 58.0731L11.3393 57.0195ZM76.2411 22.3832L77.8134 24.7312L75.4661 26.3028L73.8937 23.9548L76.2411 22.3832ZM14.5375 63.6958L16.1098 66.0445L13.7632 67.6161L12.1902 65.2675L14.5375 63.6958ZM71.3688 16.854L73.3588 18.8603L71.3532 20.8496L69.3632 18.8433L71.3688 16.854ZM18.6497 69.1491L20.6397 71.156L18.6348 73.1446L16.6434 71.1384L18.649 69.1491H18.6497ZM65.1927 12.1412L67.5447 13.708L65.9785 16.0587L63.6271 14.4918L65.1933 12.1412H65.1927ZM24.0251 73.9406L26.3765 75.5075L24.8109 77.8582L22.4582 76.2913L24.0244 73.9406H24.0251ZM58.087 8.72127L60.7082 9.77693L59.6525 12.3975L57.0313 11.3418L58.0863 8.72127H58.087ZM30.3511 77.6026L32.9723 78.6582L31.9173 81.2781L29.2954 80.2224L30.3511 77.6019V77.6026ZM50.746 6.86352L53.5232 7.38626L53.0004 10.162L50.2233 9.6393L50.746 6.86352ZM37.0045 79.8366L39.7817 80.36L39.2589 83.1358L36.4811 82.6131L37.0038 79.8373L37.0045 79.8366ZM6.46157 46.4126V43.5867H9.28621V46.4126H6.46157ZM80.7187 46.4126V43.5867H83.5434V46.4126H80.7187ZM43.5895 6.45942H46.4155V9.28402H43.5895V6.45942ZM43.5895 80.7153H46.4155V83.5399H43.5895V80.7153ZM75.3698 14.6329C67.5983 6.86148 56.8618 2.05438 45.0025 2.05438C33.1432 2.05438 22.4067 6.86148 14.6351 14.6329C6.86431 22.4036 2.05645 33.1406 2.05645 44.9997C2.05645 56.8588 6.86364 67.5958 14.6351 75.3665C22.4067 83.1378 33.1432 87.9449 45.0025 87.9449C56.8618 87.9449 67.5983 83.1378 75.3698 75.3665C83.1406 67.5958 87.9485 56.8588 87.9485 44.9997C87.9485 33.1406 83.1413 22.4036 75.3698 14.6329Z" fill="#008DD2"/>
</g>
<defs>
<clipPath id="clip0">
<rect width="90" height="90" fill="white"/>
</clipPath>
</defs>
</svg>
