<svg width="90" height="90" viewBox="0 0 90 90" fill="none" xmlns="http://www.w3.org/2000/svg">
<g clip-path="url(#clip0)">
<path d="M45 0C57.4263 0 68.6766 5.03722 76.8199 13.1804C84.9627 21.323 90 32.5736 90 45.0002C90 57.4268 84.9627 68.6773 76.8199 76.82C68.6766 84.9631 57.4263 90.0004 45 90.0004C32.5737 90.0004 21.3234 84.9631 13.1801 76.82C5.03731 68.6773 0 57.4268 0 45.0002C0 32.5736 5.03731 21.323 13.1801 13.1804C21.3234 5.03722 32.5737 0 45 0V0ZM36.377 32.4047V57.9371C36.377 58.6617 36.5406 59.2715 36.8227 59.7163C36.9839 59.9703 37.1824 60.1683 37.4053 60.2969C37.6167 60.4194 37.8659 60.4854 38.1419 60.4854C38.5556 60.4854 39.0334 60.3361 39.5509 60.0071L60.441 46.7478C60.9795 46.4058 61.3856 46.0313 61.6233 45.6463C61.7749 45.401 61.8572 45.1527 61.8581 44.9122C61.8591 44.6687 61.7763 44.4038 61.5989 44.124C61.322 43.6883 60.8375 43.2387 60.1138 42.791L40.9025 30.9187C39.9526 30.3319 39.0936 30.0655 38.3772 30.0655C37.9902 30.0655 37.6554 30.143 37.3847 30.2874C37.1231 30.4266 36.905 30.6346 36.7414 30.8986C36.5071 31.2784 36.377 31.7882 36.377 32.4043V32.4047ZM34.3227 57.9371V32.4047C34.3227 31.4061 34.5643 30.5299 35 29.8235C35.3554 29.2481 35.838 28.7923 36.4219 28.4814C36.9964 28.1753 37.6569 28.0108 38.3772 28.0108C39.45 28.0108 40.6796 28.3748 41.9777 29.1768L61.189 41.0491C62.1972 41.6728 62.8989 42.3414 63.3327 43.0244C63.7249 43.6428 63.9066 44.2794 63.9047 44.9122C63.9028 45.5483 63.7134 46.1571 63.3647 46.7215C62.9568 47.382 62.3312 47.9789 61.5401 48.4811L40.65 61.7404C39.7852 62.2894 38.931 62.5391 38.1414 62.5391C37.501 62.5391 36.9045 62.3741 36.3779 62.0694C35.8633 61.7719 35.4257 61.3453 35.089 60.8149C34.6035 60.0492 34.3227 59.0611 34.3227 57.9366V57.9371ZM53.7818 82.5531L51.0077 83.0955L50.4658 80.3224L53.2399 79.781L53.7818 82.5531ZM39.5346 9.67651L36.761 10.2179L36.2201 7.44678L38.9937 6.90346L39.5346 9.67651ZM60.7456 80.2057L58.1251 81.2641L57.0667 78.6446L59.6877 77.5867L60.7456 80.2052V80.2057ZM32.9333 11.3548L30.3128 12.4127L29.2558 9.79417L31.8763 8.7343L32.9338 11.3548H32.9333ZM67.6679 76.202L65.3219 77.778L63.7464 75.433L66.0929 73.8575L67.6679 76.202ZM26.2541 14.5669L23.9076 16.1423L22.3331 13.7978L24.6786 12.2205L26.2541 14.5664V14.5669ZM73.2562 71.2485L71.2579 73.2468L69.2596 71.2495L71.2584 69.2512L73.2557 71.2485H73.2562ZM20.7404 18.7499L18.7416 20.7482L16.7448 18.7513L18.7426 16.7517L20.7409 18.7499H20.7404ZM77.687 65.4695L76.1001 67.8078L73.7622 66.2218L75.3496 63.8835L77.687 65.4695ZM16.2388 23.7776L14.6513 26.1159L12.3144 24.5299L13.9009 22.1906L16.2388 23.7771V23.7776ZM81.2655 58.1246L80.2071 60.7451L77.588 59.6866L78.6469 57.0662L81.2655 58.1246ZM12.4134 30.3123L11.3545 32.9328L8.73589 31.8748L9.79434 29.2538L12.4134 30.3123ZM83.1179 50.8715L82.5851 53.647L79.8111 53.1146L80.3439 50.3392L83.1179 50.8715ZM10.1899 36.8843L9.65707 39.6592L6.88397 39.1274L7.41582 36.351L10.1904 36.8838L10.1899 36.8843ZM82.6243 36.5217L83.1442 39.2996L80.3678 39.819L79.8479 37.0412L82.6243 36.5217ZM9.63411 50.1799L10.1531 52.9578L7.37756 53.4772L6.85718 50.6989L9.63459 50.1799H9.63411ZM80.2291 29.3036L81.2837 31.9255L78.6632 32.9796L77.6086 30.3577L80.2291 29.3036ZM11.3382 57.0198L12.3924 59.6422L9.77234 60.6963L8.71676 58.0739L11.3378 57.0198H11.3382ZM76.2402 22.3834L77.8123 24.7317L75.4649 26.3034L73.8928 23.955L76.2402 22.3834ZM14.5365 63.6965L16.1087 66.0449L13.7622 67.6165L12.1891 65.2681L14.5365 63.6965ZM71.3679 16.8545L73.358 18.8609L71.3521 20.8505L69.3624 18.8441L71.3679 16.855V16.8545ZM18.6488 69.1494L20.6385 71.1562L18.634 73.1449L16.6429 71.1385L18.6488 69.1489V69.1494ZM65.1913 12.1411L67.5435 13.7079L65.9771 16.0586L63.6254 14.4918L65.1913 12.1411ZM24.0238 73.9407L26.3755 75.5081L24.8101 77.8588L22.4574 76.292L24.0238 73.9412V73.9407ZM58.0854 8.72091L60.7069 9.77647L59.6513 12.397L57.0303 11.3414L58.0854 8.72091ZM30.3496 77.6024L32.9706 78.6585L31.916 81.2785L29.294 80.2229L30.3496 77.6024ZM50.7442 6.86328L53.5216 7.38604L52.9988 10.162L50.2214 9.6392L50.7442 6.86328ZM37.0026 79.837L39.78 80.3602L39.2577 83.1356L36.4803 82.6129L37.0031 79.837H37.0026ZM6.45973 46.413V43.5869H9.28448V46.413H6.45973ZM80.7169 46.413V43.5869H83.5417V46.413H80.7169ZM43.5876 6.45962H46.4138V9.28432H43.5876V6.45962ZM43.5876 80.7155H46.4138V83.5403H43.5876V80.7155ZM75.3678 14.6329C67.5966 6.86185 56.8596 2.0542 45.0005 2.0542C33.1414 2.0542 22.4048 6.86137 14.6332 14.6329C6.86197 22.404 2.05472 33.1408 2.05472 45.0002C2.05472 56.8595 6.86197 67.5964 14.6332 75.3674C22.4043 83.1385 33.1414 87.9462 45.0005 87.9462C56.8596 87.9462 67.5961 83.139 75.3678 75.3674C83.139 67.5964 87.9462 56.8595 87.9462 45.0002C87.9462 33.1408 83.139 22.404 75.3678 14.6329Z" fill="#008DD2"/>
</g>
<defs>
<clipPath id="clip0">
<rect width="90" height="90" fill="white"/>
</clipPath>
</defs>
</svg>
