<svg width="90" height="90" viewBox="0 0 90 90" fill="none" xmlns="http://www.w3.org/2000/svg">
<g clip-path="url(#clip0)">
<path d="M45.0009 0C57.4275 0 68.6777 5.03684 76.8213 13.1803C84.9649 21.3237 90.0018 32.5737 90.0018 45.0001C90.0018 57.4265 84.9649 68.6766 76.8213 76.82C68.6777 84.9634 57.4275 90.0003 45.0009 90.0003C32.5743 90.0003 21.3241 84.9634 13.1805 76.82C5.03693 68.6766 0 57.4265 0 45.0001C0 32.5737 5.03693 21.3237 13.1805 13.1803C21.3241 5.03684 32.5743 0 45.0009 0ZM25.7419 25.6959H65.2852V36.7365H24.7148V25.6959H25.7419ZM25.7419 41.1014H66.2467L45.0009 70.9874L23.7551 41.1014H25.7419ZM45.0009 43.1555H27.7304L45.0009 67.451L62.2714 43.1555H45.0009ZM63.2311 27.75H26.7689V34.6824H63.2311V27.75ZM53.7818 82.5524L51.0084 83.0951L50.4658 80.3217L53.2392 79.7809L53.7818 82.5524ZM39.5342 9.6767L36.7608 10.2175L36.22 7.446L38.9934 6.90335L39.5342 9.6767ZM60.7454 80.2052L58.125 81.2632L57.067 78.6428L59.6874 77.5848L60.7454 80.2034V80.2052ZM32.933 11.3556L30.3126 12.4136L29.2564 9.79507L31.8769 8.73526L32.9349 11.3556H32.933ZM67.6671 76.2027L65.3216 77.7778L63.7464 75.4324L66.0937 73.8572L67.6689 76.2027H67.6671ZM26.2536 14.5679L23.9081 16.143L22.3329 13.7994L24.6784 12.2224L26.2536 14.5679ZM73.2558 71.2496L71.2581 73.2472L69.2605 71.2496L71.2599 69.252L73.2576 71.2496H73.2558ZM20.7395 18.7507L18.7401 20.7483L16.7424 18.7507L18.7401 16.7512L20.7377 18.7488L20.7395 18.7507ZM77.6863 65.4698L76.1002 67.8079L73.762 66.2219L75.3499 63.8837L77.6881 65.4698H77.6863ZM16.238 23.7784L14.6501 26.1165L12.3137 24.5305L13.8998 22.1905L16.238 23.7766V23.7784ZM81.2646 58.1258L80.2066 60.7462L77.588 59.6882L78.6478 57.0678L81.2664 58.1258H81.2646ZM12.4139 30.3139L11.354 32.9343L8.73541 31.8763L9.79342 29.2559L12.412 30.3139H12.4139ZM83.1184 50.8728L82.5866 53.648L79.8132 53.1163L80.345 50.3411L83.1184 50.8728ZM10.1904 36.8858L9.65684 39.661L6.88343 39.1293L7.41517 36.3523L10.1904 36.8858ZM82.6249 36.5235L83.1439 39.3005L80.3668 39.8194L79.8478 37.0424L82.6249 36.5235ZM9.63499 50.1808L10.154 52.9578L7.37875 53.4768L6.85794 50.698L9.63499 50.179V50.1808ZM80.2303 29.3051L81.2846 31.9273L78.6642 32.9816L77.6098 30.3594L80.2303 29.3051ZM11.3395 57.0204L12.3938 59.6427L9.77338 60.697L8.7172 58.0748L11.3376 57.0204H11.3395ZM76.2404 22.3835L77.812 24.7308L75.4647 26.3023L73.8931 23.955L76.2404 22.3835ZM14.5372 63.6962L16.1087 66.0452L13.7614 67.6167L12.188 65.2677L14.5353 63.6962H14.5372ZM71.3674 16.855L73.3577 18.8617L71.3528 20.8521L69.3624 18.8454L71.3674 16.8568V16.855ZM18.649 69.15L20.6394 71.1567L18.6344 73.1452L16.6441 71.1385L18.649 69.1482V69.15ZM65.1905 12.1423L67.5432 13.7084L65.9772 16.0592L63.6262 14.4932L65.1923 12.1423H65.1905ZM24.0228 73.941L26.3738 75.5089L24.8077 77.8598L22.4549 76.2937L24.021 73.9428L24.0228 73.941ZM58.0849 8.72251L60.7072 9.77868L59.651 12.3991L57.0305 11.3429L58.0849 8.72251ZM30.349 77.603L32.9695 78.6592L31.9151 81.2796L29.2928 80.2234L30.349 77.603ZM50.7444 6.86511L53.5214 7.38773L52.9988 10.1629L50.2218 9.64028L50.7444 6.86511ZM37.003 79.8374L39.7801 80.36L39.2574 83.1352L36.4804 82.6125L37.003 79.8374ZM6.46096 46.4132V43.587H9.28535V46.4132H6.46096ZM80.7183 46.4132V43.587H83.5427V46.4132H80.7183ZM43.5896 6.46085H46.4158V9.28519H43.5896V6.46085ZM43.5896 80.7169H46.4158V83.5412H43.5896V80.7169ZM75.37 14.6352C67.5979 6.86329 56.8612 2.05589 45.0027 2.05589C33.1443 2.05589 22.4076 6.86329 14.6355 14.6352C6.86523 22.4054 2.05775 33.1437 2.05775 45.002C2.05775 56.862 6.86523 67.5985 14.6355 75.3687C22.4076 83.1406 33.1443 87.948 45.0027 87.948C56.8612 87.948 67.5979 83.1406 75.37 75.3687C83.1402 67.5985 87.9477 56.8602 87.9477 45.002C87.9477 33.1419 83.1402 22.4054 75.37 14.6352Z" fill="#008DD2"/>
</g>
<defs>
<clipPath id="clip0">
<rect width="90" height="90" fill="white"/>
</clipPath>
</defs>
</svg>
