<svg width="90" height="90" viewBox="0 0 90 90" fill="none" xmlns="http://www.w3.org/2000/svg">
<path d="M44.9984 0C57.4233 0 68.6753 5.03787 76.8171 13.1796C84.9589 21.3213 89.9969 32.573 89.9969 44.9977C89.9969 57.4254 84.9589 68.6741 76.8171 76.8158C68.6753 84.9575 57.4233 89.9953 44.9984 89.9953C32.5736 89.9953 21.3216 84.9575 13.1798 76.8158C5.03795 68.6741 0 57.4223 0 44.9977C0 32.5699 5.03795 21.3213 13.1798 13.1796C21.3216 5.03787 32.5736 0 44.9984 0ZM53.7798 82.5524L51.0065 83.0952L50.4638 80.322L53.237 79.7792L53.7798 82.5524ZM39.5331 9.67645L36.7599 10.2192L36.2202 7.44918L38.9934 6.9064L39.5331 9.67957V9.67645ZM60.7456 80.2035L58.1252 81.2609L57.0677 78.6406L59.688 77.5832L60.7456 80.2003V80.2035ZM32.9323 11.3547L30.3119 12.4122L29.2544 9.79499L31.8748 8.73438L32.9323 11.3547ZM67.6677 76.2012L65.3218 77.7766L63.7465 75.4307L66.0923 73.8554L67.6677 76.2012ZM26.2535 14.5677L23.9077 16.143L22.3323 13.7972L24.6782 12.2188L26.2535 14.5646V14.5677ZM73.2547 71.2476L71.2551 73.2472L69.2555 71.2507L71.2551 69.2512L73.2515 71.2476H73.2547ZM20.7383 18.7508L18.7387 20.7504L16.7422 18.754L18.7387 16.7544L20.7383 18.754V18.7508ZM77.6843 65.4704L76.0965 67.81L73.76 66.2253L75.3478 63.8858L77.6843 65.4704ZM16.2369 23.7794L14.6491 26.1189L12.3126 24.5343L13.9004 22.1947L16.2369 23.7825V23.7794ZM81.2623 58.1273L80.2048 60.7476L77.5845 59.6901L78.642 57.0698L81.2592 58.1273H81.2623ZM12.4124 30.3145L11.3549 32.9349L8.73765 31.8774L9.79515 29.2571L12.4155 30.3145H12.4124ZM83.1153 50.8747L82.5819 53.6509L79.8087 53.1175L80.3421 50.3412L83.1153 50.8747ZM10.1882 36.8872L9.65478 39.6635L6.88156 39.1332L7.41187 36.3569L10.1851 36.8903L10.1882 36.8872ZM82.6224 36.5253L83.1434 39.3047L80.3671 39.8257L79.8461 37.0463L82.6224 36.5253ZM9.63294 50.1821L10.1508 52.9615L7.37444 53.4825L6.85349 50.7031L9.62982 50.1853L9.63294 50.1821ZM80.2267 29.307L81.2811 31.9273L78.6607 32.9817L77.6063 30.3613L80.2267 29.307ZM11.3362 57.023L12.3906 59.6465L9.7702 60.7008L8.71582 58.0774L11.3362 57.023ZM76.2369 22.3881L77.8091 24.737L75.4601 26.3092L73.8879 23.9603L76.2369 22.3881ZM14.5336 63.7017L16.1059 66.0506L13.76 67.6228L12.1878 65.2739L14.5368 63.7017H14.5336ZM71.3643 16.8605L73.3545 18.8663L71.3486 20.8565L69.3584 18.8507L71.3643 16.8605ZM18.6451 69.1545L20.6353 71.1603L18.6295 73.1505L16.6393 71.1447L18.6451 69.1545ZM65.1877 12.147L67.5398 13.713L65.9738 16.065L63.6217 14.4991L65.1877 12.147ZM24.02 73.9459L26.372 75.5119L24.8061 77.8608L22.454 76.2948L24.02 73.9428V73.9459ZM58.0815 8.72814L60.7019 9.78251L59.6475 12.4028L57.0271 11.3485L58.0815 8.72814ZM30.3463 77.6081L32.9666 78.6625L31.9122 81.2828L29.2919 80.2284L30.3463 77.6081ZM50.7414 6.86897L53.5177 7.39303L52.9937 10.1693L50.2173 9.64525L50.7414 6.86897ZM37.0001 79.8416L39.7764 80.3657L39.2555 83.142L36.4792 82.6179L37.0032 79.8416H37.0001ZM6.45732 46.417V43.5908H9.28044V46.417H6.45732ZM80.7133 46.417V43.5908H83.5364V46.417H80.7133ZM43.5853 6.46344H46.4116V9.28652H43.5853V6.46344ZM43.5853 80.7182H46.4116V83.5412H43.5853V80.7182ZM20.5667 62.5725C22.3791 54.1251 27.1706 48.2076 33.1008 44.8791C34.255 44.2303 35.4497 43.6813 36.6757 43.2321C36.3013 42.9295 35.9426 42.6082 35.6026 42.2682C33.1975 39.8631 31.7095 36.5409 31.7095 32.8725C31.7095 29.204 33.1975 25.8818 35.6026 23.4768C38.0077 21.0717 41.3299 19.5837 44.9984 19.5837C48.6669 19.5837 51.9892 21.0717 54.3943 23.4768C56.7994 25.8818 58.2874 29.204 58.2874 32.8725C58.2874 36.5409 56.7994 39.8631 54.3943 42.2682C54.1042 42.5583 53.8016 42.8359 53.4865 43.0979C54.8903 43.5939 56.2504 44.2241 57.5543 44.9852C63.238 48.3105 67.7675 54.1656 69.4395 62.5912L67.4243 62.9843C65.8802 55.1888 61.7251 49.7953 56.5187 46.7508C54.8778 45.79 53.1278 45.0601 51.3247 44.5641C49.4437 45.5841 47.2881 46.1643 44.9984 46.1643C42.7898 46.1643 40.706 45.6247 38.8718 44.6701C37.2247 45.1505 35.6244 45.8181 34.1021 46.6728C28.6524 49.7298 24.2446 55.1919 22.5694 63.003L20.5636 62.5787L20.5667 62.5725ZM52.9437 24.9273C50.9098 22.8934 48.1023 21.6363 45.0016 21.6363C41.9008 21.6363 39.0902 22.8934 37.0594 24.9273C35.0255 26.958 33.7683 29.7686 33.7683 32.8694C33.7683 35.9701 35.0255 38.7807 37.0594 40.8114C39.0902 42.8453 41.9008 44.1024 45.0016 44.1024C48.1023 44.1024 50.913 42.8453 52.9437 40.8114C54.9776 38.7775 56.2348 35.9701 56.2348 32.8694C56.2348 29.7686 54.9776 26.958 52.9437 24.9273ZM75.3665 14.6363C67.5959 6.86585 56.8587 2.05882 44.9984 2.05882C33.1382 2.05882 22.4041 6.86585 14.6303 14.6363C6.85973 22.4068 2.05262 33.1439 2.05262 45.0039C2.05262 56.8639 6.85973 67.601 14.6303 75.3715C22.401 83.142 33.1382 87.949 44.9984 87.949C56.8587 87.949 67.5928 83.142 75.3665 75.3715C83.1372 67.601 87.9443 56.8639 87.9443 45.0039C87.9443 33.1439 83.1372 22.4068 75.3665 14.6363Z" fill="#008DD2"/>
</svg>
