<svg width="421" height="54" viewBox="0 0 421 54" fill="none" xmlns="http://www.w3.org/2000/svg">
<path fill-rule="evenodd" clip-rule="evenodd" d="M40.0967 5.04114L39.02 7.92513C34.7747 7.99274 31.426 8.09196 28.9738 8.22275C27.379 8.29346 25.7922 8.49029 24.2284 8.81134C23.2124 10.4728 22.3016 12.136 21.496 13.7794C20.6904 15.4228 19.4811 18.0737 17.8671 21.7198C16.5731 24.8042 15.0126 27.7699 13.2032 30.5832C12.1551 32.2778 10.7869 33.7521 9.17522 34.9238C7.96194 35.7057 6.56579 36.1578 5.1245 36.2356C4.34023 36.2725 3.55545 36.1743 2.80439 35.9455C2.09168 35.7457 1.42184 35.4164 0.828331 34.974C0.607737 34.8379 0.419395 34.6555 0.276361 34.4393C0.133327 34.2231 0.0390294 33.9784 0 33.7221C0.00812346 33.6065 0.0393024 33.4937 0.0917155 33.3903C0.144129 33.287 0.216706 33.1952 0.305169 33.1203L1.80831 31.3404C1.94162 31.1657 2.13719 31.0493 2.35423 31.0153C2.51528 31.0294 2.67136 31.0782 2.81186 31.1582C2.95235 31.2381 3.07394 31.3475 3.16833 31.4787C3.51923 31.8945 3.95903 32.2262 4.45524 32.4493C4.95145 32.6724 5.4914 32.7812 6.03529 32.7677C7.40574 32.6931 8.64257 31.8064 9.74576 30.1074C11.119 27.8907 12.3059 25.5639 13.2942 23.1508C15.2344 18.2935 17.6778 13.6527 20.5843 9.30413C17.7012 9.93218 14.2463 11.7143 10.2196 14.6504L8.28242 11.6688C9.28387 10.8851 10.3552 10.195 11.483 9.60742C12.9627 8.85284 14.5067 8.23151 16.0967 7.75078C18.337 7.07965 20.6212 6.56505 22.9328 6.21068C26.0574 5.71889 29.2064 5.39774 32.3658 5.24869C34.214 5.14823 36.7915 5.07905 40.0986 5.04114H40.0967ZM31.2067 29.2904C30.695 29.6003 29.8448 30.0411 28.6639 30.605C27.902 31.0326 27.0759 31.3344 26.2178 31.4986C26.0445 31.5232 25.8679 31.5025 25.7051 31.4384C25.5423 31.3742 25.3989 31.2689 25.2889 31.1328C25.0971 30.8786 24.985 30.5732 24.9667 30.2552C25.0303 29.2856 25.2602 28.334 25.6463 27.4423C26.1201 26.1059 26.8035 24.4691 27.6631 22.5338C28.5227 20.5985 29.5472 18.4149 30.7054 15.9944C31.8635 13.5738 32.9468 11.3276 33.9344 9.26526L30.6959 9.44065C29.9187 10.7087 28.9694 12.3904 27.8479 14.4855C26.7352 16.5826 25.6248 18.8013 24.5165 21.1416C23.4083 23.4819 22.4921 25.6712 21.768 27.7095C21.1633 29.1536 20.8221 30.6943 20.7606 32.2587C20.8598 34.0854 21.8391 34.9485 23.6986 34.8481C24.8113 34.7565 25.9006 34.4784 26.921 34.0254C28.1005 33.5316 29.2353 32.9374 30.313 32.2492L31.203 29.2904H31.2067ZM39.184 12.3976C37.4464 16.0996 35.7534 20.0552 34.105 24.2645C32.4565 28.4738 31.0532 32.2256 29.895 35.52C28.735 38.8176 27.8008 41.5622 27.0925 43.7541L30.1689 44.3483C31.0409 41.9757 31.8105 39.8787 32.4777 38.0571C33.1449 36.2356 33.8314 34.5565 34.5372 33.0199C35.2542 31.467 36.0844 29.969 37.0212 28.5379C38.062 26.9702 39.2352 25.4945 40.5279 24.127C41.0306 23.471 41.7605 23.0267 42.5741 22.8817C43.0233 22.857 43.2641 23.0058 43.283 23.3432L43.302 23.6873C43.2733 23.8718 43.2164 24.0508 43.1333 24.218C43.0319 24.4351 42.8272 24.8123 42.5125 25.3724C42.1978 25.9325 41.8775 26.5343 41.5401 27.2006C40.6956 28.5628 40.1987 30.1116 40.0929 31.7109C40.0922 31.9968 40.1547 32.2793 40.2759 32.5382C40.3971 32.7972 40.574 33.0262 40.7939 33.2088C41.0138 33.3914 41.2714 33.5232 41.5482 33.5948C41.825 33.6663 42.1141 33.6758 42.395 33.6226C43.3858 33.4839 44.3337 33.1278 45.1709 32.58C46.2041 31.9994 47.2 31.3546 48.1526 30.6495L48.9241 27.7257C48.3763 28.0233 47.8086 28.336 47.2134 28.6639C46.6182 28.9919 46.132 29.244 45.733 29.4278C45.456 29.5801 45.1534 29.68 44.8402 29.7226C44.72 29.723 44.6032 29.6822 44.5094 29.6069C44.4476 29.5606 44.3975 29.5006 44.3632 29.4314C44.3288 29.3623 44.311 29.2861 44.3114 29.2089C44.2965 28.9796 44.3371 28.7501 44.4298 28.5398C44.5246 28.3303 44.8364 27.7143 45.3586 26.6992C45.8808 25.6842 46.2998 24.8161 46.6125 24.0948C47.1483 23.0491 47.4745 21.9087 47.5726 20.7379C47.5454 20.1643 47.3188 19.6182 46.9319 19.194C46.7398 18.9776 46.4996 18.8094 46.2306 18.7027C45.9617 18.5961 45.6715 18.5539 45.3833 18.5798C44.2318 18.7811 43.1696 19.3305 42.34 20.154C40.5302 21.7741 38.8329 23.5157 37.26 25.3667L36.8241 25.1297L42.0273 13.5947L39.1792 12.3957L39.184 12.3976ZM64.1099 17.1847L67.0196 18.4718L62.9651 27.2669C62.8383 27.5337 62.7701 27.8246 62.7651 28.1199C62.7897 28.5692 63.0125 28.79 63.4285 28.7672C64.0968 28.5927 64.7278 28.2982 65.2908 27.8982C65.7126 27.6214 66.3893 27.2347 67.3342 26.723L66.5627 29.6467C65.5699 30.3385 64.5327 30.9645 63.4579 31.5205C62.5947 32.0631 61.6379 32.4398 60.6364 32.6313C60.2086 32.6537 59.7854 32.5329 59.4337 32.2881C59.2353 32.1488 59.0672 31.9707 58.9398 31.7644C58.8124 31.5581 58.7283 31.3281 58.6926 31.0883L58.6518 30.3367C58.7066 29.6971 58.8809 29.0735 59.1655 28.4981C59.6308 27.5448 60.1524 26.6201 60.7274 25.7287L60.5474 25.5344C60.245 25.8112 59.6726 26.4206 58.8357 27.3608C55.4598 31.1234 52.9147 33.0504 51.2006 33.1421C50.9314 33.1553 50.6625 33.1108 50.412 33.0113C50.1616 32.9119 49.9353 32.7599 49.7485 32.5657C49.5617 32.3714 49.4187 32.1393 49.3291 31.8852C49.2396 31.631 49.2055 31.3605 49.2292 31.0921C49.2357 30.3646 49.3708 29.6439 49.6282 28.9635C49.9249 28.0669 50.504 26.6613 51.3655 24.7326C52.227 22.8039 53.588 19.8489 55.4636 15.8294L58.4016 17.1563L53.9803 26.7286C53.8411 27.0201 53.7279 27.3233 53.642 27.6347L53.6534 27.8451C53.6989 28.1739 53.8628 28.3341 54.1443 28.3189C54.5981 28.2472 55.0178 28.0347 55.3442 27.7114C55.8098 27.3266 56.6773 26.4762 57.9467 25.1601C58.9678 24.1113 59.7876 23.2447 60.4061 22.5604C61.0798 21.805 61.7126 21.0141 62.3016 20.191C62.982 19.2342 63.5869 18.2259 64.1109 17.1752L64.1099 17.1847ZM81.9391 21.497L79.1546 20.0479C79.4282 19.5839 79.5997 19.067 79.6579 18.5315C79.6515 18.4442 79.6244 18.3596 79.5787 18.285C79.5331 18.2103 79.4702 18.1476 79.3954 18.1022C79.1987 17.9827 78.9684 17.9307 78.7395 17.9543C78.0438 17.9922 77.1805 18.5675 76.155 19.6726C75.0874 20.8378 74.1971 22.1539 73.5126 23.5783C72.853 24.7676 72.5039 26.1041 72.4976 27.4641C72.5538 28.5041 73.1582 28.9928 74.3106 28.9303C75.7929 28.85 78.4151 27.8457 82.177 25.9173L81.4056 28.8412C79.7695 29.7204 78.0791 30.4943 76.3445 31.1584C75.1455 31.6161 73.8851 31.8934 72.6047 31.9811C69.8575 32.1302 68.4102 30.8697 68.263 28.1995C68.2266 26.713 68.5636 25.2411 69.243 23.9185C70.0106 22.3315 71.015 20.8705 72.2218 19.5854C73.4106 18.2753 74.7891 17.1507 76.3114 16.2493C77.5822 15.4531 79.0257 14.9737 80.5203 14.8514C80.9384 14.791 81.3649 14.835 81.7618 14.9796C82.1587 15.1241 82.5136 15.3646 82.795 15.6797C83.2859 16.3027 83.5642 17.0667 83.5892 17.8596C83.5753 18.5462 83.4211 19.2226 83.1362 19.8475C82.8513 20.4724 82.4417 21.0324 81.9325 21.4932L81.9391 21.497ZM95.6664 13.4458C94.4931 15.5941 93.1489 17.7951 91.6337 20.0489C90.3429 22.0009 88.9231 23.8645 87.384 25.6273C86.0679 27.0938 85.0866 27.8444 84.4403 27.8792C83.7939 27.9143 83.4546 27.5096 83.4091 26.667C83.3999 26.5091 83.4031 26.3506 83.4186 26.1931C83.4316 26.0025 83.4543 25.8128 83.4868 25.6245C83.5257 25.4255 83.5408 25.3184 83.5399 25.3042L80.345 27.084C80.1827 27.6498 80.1265 28.2407 80.1792 28.8269C80.1703 29.2243 80.2611 29.6175 80.4432 29.9708C80.6253 30.3241 80.8929 30.6262 81.2217 30.8495C81.8708 31.2613 82.6347 31.4546 83.4015 31.4011C84.5083 31.3116 85.5592 30.8778 86.4068 30.1605C87.4377 29.3362 88.3594 28.3839 89.1497 27.3266C90.0026 26.2092 91.0054 24.7743 92.1654 23.02L92.6393 23.2551C92.5568 23.4219 92.4166 23.6968 92.2185 24.0673C91.808 24.825 91.4663 25.618 91.1978 26.4367C90.9133 27.1646 90.7711 27.9403 90.7788 28.7218C90.7739 29.041 90.8438 29.3568 90.9829 29.6442C91.1219 29.9315 91.3263 30.1823 91.5797 30.3765C92.0387 30.728 92.6079 30.9044 93.1852 30.8741C94.0843 30.8255 95.8468 29.842 98.4727 27.9237L99.2451 25.0065C98.5352 25.4858 97.7964 25.921 97.0331 26.3097C96.6468 26.5236 96.2477 26.7136 95.838 26.8784L95.4162 26.9011C94.9038 26.8019 94.6356 26.5346 94.6116 26.0993C94.5604 25.1579 95.1467 23.2352 96.3706 20.3313L98.6898 14.7585L95.6569 13.443L95.6664 13.4458ZM105.618 12.9066L108.651 14.2571L105.161 21.6496C104.484 22.8768 103.958 24.1816 103.595 25.5354C103.616 25.9221 103.785 26.1098 104.083 26.0936L104.427 26.0747C105.039 25.8901 105.6 25.5682 106.068 25.1336C106.9 24.4246 107.671 23.6472 108.373 22.8096C109.345 21.6522 110.251 20.4409 111.086 19.1816C112.095 17.6683 113.024 16.1033 113.87 14.4931L116.852 15.8114C115.709 18.1353 114.509 20.6643 113.25 23.3982C111.989 26.1372 110.749 29.0023 109.554 31.9982C108.512 34.5233 107.614 37.1056 106.865 39.7327L103.283 39.1641C103.761 37.2859 104.395 35.4508 105.178 33.6776C106.109 31.4851 107.163 29.2907 108.338 27.0944C108.717 26.3836 108.971 25.905 109.096 25.6577C109.221 25.4103 109.434 25.0189 109.716 24.4891L109.42 24.3716C108.078 25.8951 106.635 27.3269 105.1 28.6573C104.154 29.5872 102.935 30.1891 101.621 30.3746C101.138 30.3731 100.673 30.1955 100.311 29.8752C100.055 29.6356 99.8541 29.3431 99.722 29.0181C99.59 28.6931 99.5301 28.3433 99.5465 27.9929C99.5527 27.6305 99.5946 27.2696 99.6716 26.9153C99.8543 26.0792 100.092 25.2559 100.383 24.4512C100.766 23.317 101.374 21.8006 102.209 19.9019C103.043 18.0033 104.181 15.6702 105.621 12.9028L105.618 12.9066ZM122.07 12.227L116.207 25.1013C115.853 25.9063 115.685 26.7813 115.718 27.6603C115.758 28.125 115.926 28.5695 116.203 28.9445C116.398 29.1811 116.653 29.3611 116.941 29.4657C117.23 29.5704 117.541 29.596 117.842 29.5397C118.563 29.4919 119.258 29.2444 119.847 28.825C120.522 28.3561 121.144 27.816 121.704 27.2139C122.297 26.5821 123.731 24.9964 126.006 22.4571L126.35 22.6988C126.217 22.9831 125.999 23.3868 125.704 23.91C124.986 24.953 124.527 26.1518 124.364 27.4072C124.373 27.6525 124.439 27.8922 124.558 28.1073C124.676 28.3224 124.843 28.5069 125.045 28.6459C125.434 28.9454 125.917 29.0966 126.407 29.0724C127.378 28.9124 128.264 28.4184 128.91 27.6755C129.834 26.7871 131.459 25.048 133.785 22.4581L134.133 22.6476C133.949 23.0172 133.726 23.4588 133.47 23.9801C133.22 24.4823 133.003 25.0003 132.82 25.5307C132.658 25.9624 132.577 26.4208 132.583 26.8821C132.599 27.1313 132.67 27.374 132.79 27.5928C132.91 27.8117 133.077 28.0013 133.279 28.1483C133.691 28.4889 134.217 28.6585 134.75 28.6222C135.909 28.5597 137.972 27.5598 140.972 25.6217L141.702 22.6997C140.302 23.5885 138.811 24.3237 137.254 24.8928C137.174 24.8968 137.094 24.8826 137.02 24.8513C136.947 24.8199 136.881 24.7722 136.828 24.7118C136.706 24.5722 136.637 24.3941 136.632 24.2085C136.637 23.7169 136.756 23.233 136.978 22.7945L140.445 15.1234L137.849 13.9112C136.733 15.5571 135.079 17.7054 132.886 20.3559C130.693 23.0065 129.334 24.3485 128.81 24.382C128.764 24.3902 128.717 24.3877 128.672 24.3747C128.628 24.3617 128.586 24.3385 128.552 24.3069C128.518 24.2754 128.491 24.2363 128.474 24.1928C128.457 24.1493 128.451 24.1024 128.455 24.0559L128.443 23.838C128.5 23.4955 128.611 23.164 128.77 22.8552L132.697 14.187L130.02 13.1444C128.938 14.894 127.697 16.7393 126.296 18.6803C125.13 20.3364 123.868 21.9225 122.515 23.4305C121.391 24.6625 120.587 25.2823 120.109 25.3079C120.061 25.3123 120.012 25.3042 119.968 25.2844C119.924 25.2647 119.885 25.234 119.856 25.1952C119.8 25.1392 119.761 25.0675 119.746 24.9895C119.787 24.6587 119.887 24.3378 120.04 24.0417L124.873 13.4212L122.06 12.2204L122.07 12.227ZM158.102 11.6281L161.224 13.0658L157.9 20.518C157.466 21.3197 157.186 22.1952 157.074 23.0997C157.102 23.6058 157.299 23.8579 157.657 23.8361C158.312 23.6744 158.936 23.4048 159.502 23.0381C160.433 22.5225 161.245 22.0486 161.933 21.6098L161.204 24.5317C160.368 25.2412 159.474 25.8788 158.531 26.4377C157.727 26.9943 156.801 27.3517 155.832 27.4802C155.216 27.5365 154.601 27.3555 154.114 26.9741C153.893 26.8127 153.712 26.604 153.583 26.3634C153.455 26.1228 153.381 25.8564 153.369 25.5837C153.361 25.2833 153.393 24.9832 153.463 24.6909C153.546 24.3375 153.649 23.9893 153.773 23.6484C153.896 23.2968 153.969 23.0883 153.987 23.0238C153.999 22.9945 154.031 22.9291 154.081 22.8343C154.138 22.7269 154.181 22.6134 154.211 22.4959L154.033 22.4637C153.932 22.5508 153.841 22.648 153.76 22.7538C153.665 22.8864 153.595 22.967 153.562 23.004C153.024 23.6779 152.434 24.3083 151.797 24.889C150.95 25.6804 150.025 26.3843 149.036 26.9902C148.156 27.5669 147.147 27.917 146.098 28.0091C145.657 28.0257 145.216 27.9505 144.805 27.7884C144.393 27.6262 144.02 27.3806 143.708 27.067C142.906 26.2235 142.47 25.0973 142.495 23.9337C142.501 22.6451 142.832 21.3788 143.458 20.2526C144.214 18.7532 145.159 17.3569 146.27 16.0977C147.378 14.7958 148.664 13.6565 150.089 12.7132C151.24 11.8937 152.586 11.3928 153.992 11.2612C154.668 11.1878 155.351 11.2679 155.991 11.4955C156.631 11.7231 157.211 12.0924 157.688 12.5758L158.103 11.6281H158.102ZM155.002 18.3912L156.932 14.2277C156.691 13.9551 156.39 13.7423 156.052 13.6065C155.715 13.4706 155.35 13.4152 154.987 13.4449C153.737 13.6767 152.578 14.2603 151.647 15.1272C150.279 16.2033 149.084 17.4817 148.103 18.9182C147.221 20.0277 146.728 21.3964 146.7 22.8135C146.763 24.0222 147.204 24.6044 148.021 24.5601C148.916 24.3807 149.743 23.9538 150.407 23.3281C151.445 22.5132 152.412 21.6122 153.298 20.6346C153.965 19.9678 154.539 19.2138 155.003 18.3931L155.002 18.3912ZM177.139 11.0613L180.049 12.3484L175.994 21.1435C175.864 21.4091 175.796 21.7007 175.794 21.9965C175.819 22.4457 176.035 22.6665 176.458 22.6438C177.126 22.4692 177.757 22.1747 178.32 21.7747C178.742 21.498 179.419 21.1113 180.364 20.5995L179.592 23.5233C178.599 24.2151 177.562 24.841 176.487 25.3971C175.624 25.9398 174.667 26.3165 173.666 26.5078C173.238 26.5304 172.815 26.4096 172.463 26.1647C172.262 26.0277 172.093 25.85 171.965 25.6434C171.838 25.4367 171.755 25.2055 171.722 24.9648L171.681 24.2133C171.736 23.5737 171.91 22.95 172.195 22.3746C172.657 21.4212 173.177 20.4965 173.75 19.6053L173.578 19.4101C173.276 19.6868 172.702 20.2956 171.858 21.2364C168.482 24.999 165.937 26.9261 164.223 27.0177C163.769 27.0284 163.324 26.8863 162.961 26.614C162.723 26.4139 162.535 26.1609 162.411 25.8753C162.288 25.5896 162.234 25.2792 162.252 24.9686C162.258 24.2411 162.393 23.5204 162.651 22.84C162.948 21.9434 163.527 20.5379 164.388 18.6092C165.25 16.6805 166.611 13.7254 168.486 9.70599L171.433 11.0329L167.005 20.6052C166.866 20.8961 166.755 21.1994 166.673 21.5112L166.685 21.7216C166.723 22.0505 166.887 22.2107 167.168 22.1955C167.624 22.124 168.046 21.9112 168.375 21.5871C168.833 21.2029 169.701 20.3528 170.978 19.0367C171.999 17.9878 172.817 17.1216 173.431 16.4379C174.104 15.6826 174.737 14.8917 175.326 14.0685C176.012 13.1136 176.619 12.1051 177.143 11.0528L177.139 11.0613ZM171.22 1.6927L174.674 1.33637C174.778 3.25462 175.595 4.16828 177.138 4.08488C178.431 4.01475 179.92 2.84584 181.606 0.578175L183.358 1.83581C183.186 2.03579 183.04 2.19126 182.933 2.3031C182.826 2.41493 182.687 2.58738 182.523 2.81105C181.737 3.78706 180.819 4.64838 179.794 5.37C178.654 6.11851 177.325 6.52983 175.961 6.5566C172.982 6.71772 171.4 5.09582 171.216 1.69085L171.22 1.6927ZM194.961 15.3735L192.176 13.9244C192.45 13.4605 192.621 12.9435 192.68 12.4081C192.673 12.3208 192.646 12.2362 192.6 12.1616C192.555 12.0869 192.492 12.0242 192.417 11.9787C192.22 11.8591 191.989 11.8072 191.76 11.8309C191.065 11.8688 190.201 12.444 189.176 13.5491C188.108 14.7144 187.218 16.0304 186.533 17.4549C185.873 18.6441 185.524 19.9806 185.517 21.3406C185.574 22.3806 186.178 22.8694 187.33 22.8068C188.813 22.7266 191.435 21.7226 195.197 19.7949L194.425 22.7187C192.789 23.5979 191.099 24.3719 189.364 25.0359C188.165 25.4937 186.905 25.771 185.625 25.8586C182.877 26.0071 181.43 24.7465 181.284 22.077C181.247 20.5905 181.584 19.1187 182.264 17.796C183.031 16.209 184.036 14.748 185.243 13.4629C186.431 12.1528 187.81 11.0283 189.332 10.1268C190.603 9.33076 192.046 8.85131 193.54 8.72885C193.958 8.66835 194.385 8.71226 194.781 8.85663C195.178 9.001 195.533 9.24132 195.815 9.55622C196.306 10.1792 196.584 10.9433 196.609 11.7361C196.595 12.4227 196.441 13.0992 196.156 13.7241C195.871 14.3489 195.462 14.909 194.952 15.3698L194.961 15.3735ZM211.553 8.563L211.22 9.42642C210.92 8.87271 210.469 8.41556 209.92 8.10845C209.371 7.80133 208.745 7.65691 208.117 7.69201C206.637 7.81124 205.232 8.38978 204.098 9.34676C202.797 10.3585 201.717 11.6257 200.924 13.0705C200.201 14.2451 199.821 15.598 199.825 16.9772C199.841 17.571 200.064 18.1406 200.454 18.5884C200.697 18.8227 200.992 18.9973 201.314 19.0984C201.636 19.1996 201.977 19.2245 202.311 19.1712C203.154 19.1268 203.971 18.8614 204.68 18.4016L204.863 18.6528C203.86 19.6736 202.794 20.6305 201.671 21.5179C201.04 22.0416 200.269 22.3676 199.453 22.4552C199.187 22.4971 198.914 22.4589 198.67 22.3455C198.425 22.2321 198.22 22.0486 198.08 21.8183C197.818 21.358 197.669 20.8417 197.646 20.3123C197.648 19.7381 197.715 19.166 197.843 18.6063L194.419 20.3066C194.342 20.7713 194.314 21.2426 194.332 21.7131C194.341 22.2054 194.454 22.6902 194.664 23.1355C194.874 23.5808 195.176 23.9766 195.55 24.2967C196.435 24.9802 197.552 25.2892 198.662 25.1572C201.189 25.0201 204.098 22.7771 207.388 18.4282C207.427 18.3694 207.672 18.032 208.146 17.415L208.497 17.6501C208.394 17.9429 208.253 18.2209 208.077 18.4765C207.7 19.1517 207.392 19.8625 207.156 20.5985C206.887 21.2614 206.744 21.9684 206.733 22.6836C206.737 22.9655 206.805 23.2427 206.934 23.4936C207.063 23.7444 207.247 23.9622 207.474 24.1299C207.995 24.4869 208.625 24.6474 209.253 24.5829C210.194 24.4549 211.096 24.1272 211.9 23.6219C212.919 23.0582 213.874 22.3876 214.751 21.6212L215.481 18.6993C214.805 19.2046 214.098 19.6664 213.364 20.082C212.765 20.49 212.09 20.7734 211.38 20.9151C211.268 20.9343 211.154 20.9274 211.045 20.8949C210.937 20.8624 210.837 20.8052 210.755 20.7278C210.672 20.6504 210.608 20.5549 210.569 20.4488C210.529 20.3426 210.515 20.2288 210.527 20.1161C210.52 19.8279 210.556 19.5403 210.636 19.2631C210.72 18.962 210.824 18.6669 210.948 18.3798L211.279 17.615L214.534 9.79316L211.557 8.56109L211.553 8.563ZM210.352 11.376C209.856 12.916 208.999 14.3154 207.853 15.4579C207.158 16.201 206.235 16.692 205.23 16.854C205.081 16.8639 204.931 16.8444 204.789 16.7964C204.648 16.7484 204.517 16.673 204.404 16.5744C204.167 16.3847 204.007 16.1152 203.954 15.8162L203.931 15.3944C203.993 14.5968 204.276 13.8322 204.749 13.1871C205.249 12.4418 205.88 11.794 206.612 11.2755C207.176 10.8279 207.854 10.5449 208.569 10.4576C208.921 10.4332 209.274 10.506 209.588 10.6679C209.903 10.8298 210.167 11.0747 210.351 11.376H210.352ZM236.964 6.38318L239.873 7.91663L235.648 16.4322L235.856 16.5052C236.204 16.1552 236.776 15.5322 237.574 14.6362C238.88 13.1375 240.266 11.71 241.725 10.3599C243.469 8.79872 245.336 7.38043 247.308 6.11876L248.932 8.77906C245.953 10.3368 243.172 12.2476 240.65 14.4703C240.346 14.7142 240.077 14.999 239.85 15.3167L239.911 15.5252C240.238 15.428 240.575 15.3672 240.916 15.3442C241.703 15.3018 242.123 15.7722 242.176 16.7554C242.184 16.8994 242.166 17.0437 242.121 17.181C242.06 17.3761 241.983 17.5662 241.892 17.7496C241.777 17.9818 241.715 18.1183 241.696 18.1694C241.585 18.5059 241.507 18.8521 241.462 19.2034L241.481 19.5475C241.512 20.1028 241.752 20.3645 242.194 20.3408C243.218 20.11 244.186 19.679 245.043 19.0727C246.127 18.4547 247.152 17.7387 248.105 16.9335L247.334 19.8574C244.996 22.1541 242.68 23.3648 240.386 23.4892C240.03 23.546 239.665 23.5116 239.326 23.3895C238.987 23.2674 238.684 23.0614 238.446 22.7907C238.054 22.2918 237.826 21.6834 237.795 21.0497C237.759 20.38 237.869 19.7107 238.118 19.0878C238.179 18.9146 238.252 18.7458 238.337 18.5827C238.388 18.4981 238.43 18.4085 238.463 18.3154C238.49 18.1845 238.506 18.0517 238.512 17.9183L238.504 17.7572C238.483 17.683 238.436 17.619 238.371 17.5771C238.307 17.5352 238.229 17.5183 238.153 17.5297C237.886 17.5442 237.432 17.886 236.792 18.5552C236.057 19.3299 235.367 20.146 234.726 20.9995C233.988 21.9557 233.353 22.8428 232.819 23.6465L229.743 22.9253L236.964 6.38318ZM266.636 9.21505L265.436 7.48353C267.307 6.06636 269.518 5.16646 271.848 4.87431C273.457 4.78712 274.298 5.44395 274.371 6.84473C274.429 7.65095 274.212 8.45293 273.754 9.11931C273.04 10.0952 272.261 11.0226 271.424 11.8953C268.652 14.8428 267.288 16.7276 267.333 17.5496C267.341 17.6546 267.37 17.757 267.419 17.8501C267.467 17.9433 267.535 18.0252 267.618 18.0908C267.713 18.1693 267.823 18.2282 267.941 18.2641C268.059 18.3001 268.183 18.3123 268.306 18.3002C269.157 18.1341 269.974 17.8252 270.723 17.3866C271.813 16.8474 272.863 16.2301 273.864 15.5395L273.135 18.4613C272.126 19.2183 271.047 19.8762 269.912 20.426C268.859 21.0079 267.698 21.3682 266.5 21.4847C265.65 21.5887 264.791 21.3769 264.086 20.8895C263.807 20.6777 263.579 20.406 263.418 20.0944C263.257 19.7828 263.168 19.4392 263.158 19.0888C263.058 17.2482 264.617 14.5989 267.836 11.1409C268.316 10.6499 268.73 10.233 269.068 9.88988C269.379 9.57391 269.671 9.24037 269.943 8.89093C270.138 8.68204 270.259 8.41618 270.29 8.13274C270.291 8.04513 270.26 7.96022 270.203 7.89343C270.147 7.82664 270.068 7.78239 269.981 7.76877L269.518 7.79341C268.511 8.16643 267.545 8.64286 266.636 9.21505ZM286.421 2.94282L287.228 5.35108C285.472 6.00598 283.867 7.011 282.512 8.30518C281.253 9.45779 280.208 10.8241 279.426 12.3408C278.813 13.4097 278.479 14.6155 278.453 15.8474C278.44 16.1566 278.49 16.4653 278.601 16.754C278.713 17.0427 278.883 17.3052 279.101 17.525C279.281 17.6847 279.491 17.8072 279.719 17.8856C279.946 17.964 280.187 17.9967 280.428 17.9818C281.398 17.8629 282.293 17.3994 282.95 16.6758C283.89 15.7377 284.609 14.6007 285.053 13.3482C285.598 11.9029 285.827 10.3573 285.723 8.81602C285.706 8.50705 285.651 8.00948 285.559 7.3451L289.302 6.08556C289.449 6.70525 289.538 7.33732 289.567 7.97349C289.679 10.0732 289.236 12.1655 288.282 14.0391C287.382 15.9073 286.059 17.5399 284.418 18.8073C283.007 19.9507 281.282 20.6388 279.472 20.7805C276.416 20.946 274.805 19.5137 274.639 16.4834C274.575 14.6664 275.049 12.8709 276.001 11.3219C277.102 9.48159 278.539 7.86446 280.238 6.55469C282.12 5.06809 284.2 3.85261 286.419 2.94375L286.421 2.94282ZM303.208 2.20262C302.034 4.35086 300.69 6.55185 299.175 8.80561C297.884 10.7576 296.465 12.6213 294.925 14.3841C293.61 15.8506 292.629 16.6015 291.983 16.6369C291.336 16.672 290.997 16.2673 290.951 15.4247C290.942 15.2668 290.945 15.1083 290.961 14.9509C290.974 14.7603 290.997 14.5705 291.029 14.3822C291.068 14.1832 291.083 14.0761 291.082 14.0619L287.888 15.8418C287.726 16.4074 287.669 16.9984 287.721 17.5847C287.713 17.9819 287.803 18.375 287.986 18.7281C288.168 19.0812 288.435 19.3831 288.764 19.6062C289.413 20.018 290.177 20.2113 290.944 20.1578C292.051 20.0685 293.102 19.6346 293.949 18.9172C294.98 18.0929 295.902 17.1407 296.692 16.0834C297.545 14.966 298.548 13.5311 299.707 11.7768L300.181 12.0119C300.098 12.1787 299.958 12.4535 299.76 12.8241C299.349 13.5818 299.008 14.3747 298.739 15.1935C298.455 15.921 298.313 16.6964 298.32 17.4776C298.315 17.7969 298.385 18.1128 298.525 18.4002C298.664 18.6875 298.868 18.9383 299.122 19.1323C299.581 19.4838 300.15 19.6603 300.728 19.6299C301.627 19.5813 303.389 18.5978 306.015 16.6795L306.787 13.7624C306.077 14.2417 305.338 14.6769 304.574 15.0656C304.188 15.2796 303.789 15.4695 303.379 15.6342L302.958 15.6569C302.445 15.5577 302.176 15.2905 302.153 14.8551C302.102 13.9137 302.688 11.991 303.912 9.08709L306.231 3.51428L303.198 2.1988L303.208 2.20262ZM319.344 1.16005L320.151 3.56831C318.395 4.22329 316.79 5.22836 315.435 6.52247C314.176 7.67512 313.131 9.04136 312.349 10.558C311.736 11.6269 311.402 12.8328 311.376 14.0647C311.363 14.3739 311.413 14.6826 311.524 14.9713C311.636 15.26 311.806 15.5225 312.024 15.7423C312.204 15.902 312.414 16.0245 312.642 16.1029C312.869 16.1813 313.11 16.214 313.351 16.1991C314.321 16.0802 315.216 15.6167 315.873 14.8931C316.813 13.9553 317.532 12.8185 317.976 11.5664C318.521 10.1212 318.75 8.57564 318.647 7.0343C318.63 6.72533 318.575 6.22775 318.483 5.56338L322.226 4.30377C322.373 4.92349 322.462 5.55554 322.491 6.1917C322.603 8.29143 322.16 10.3837 321.206 12.2574C320.306 14.1255 318.983 15.7581 317.342 17.0255C315.931 18.1689 314.207 18.8569 312.396 18.9987C309.34 19.1643 307.729 17.7319 307.563 14.7016C307.499 12.8846 307.973 11.0892 308.925 9.54014C310.026 7.69969 311.463 6.08254 313.162 4.77291C315.044 3.28603 317.124 2.07026 319.343 1.16103L319.344 1.16005ZM337.201 7.66928L334.416 6.22017C334.69 5.75619 334.862 5.2392 334.92 4.70372C334.913 4.61641 334.886 4.53187 334.841 4.45718C334.795 4.38249 334.732 4.31982 334.657 4.27439C334.46 4.15489 334.23 4.10296 334.001 4.12653C333.306 4.16444 332.442 4.73977 331.417 5.84486C330.349 7.01007 329.459 8.32605 328.774 9.75053C328.115 10.9398 327.766 12.2763 327.759 13.6363C327.816 14.6763 328.42 15.1651 329.572 15.1025C331.055 15.0223 333.677 14.0183 337.439 12.0905L336.667 15.0144C335.031 15.8936 333.341 16.6676 331.606 17.3316C330.407 17.7894 329.147 18.0666 327.866 18.1543C325.119 18.3028 323.672 17.0423 323.526 14.3727C323.489 12.8862 323.826 11.4143 324.506 10.0917C325.273 8.50465 326.278 7.0436 327.485 5.75861C328.673 4.44853 330.052 3.324 331.574 2.42249C332.845 1.62622 334.288 1.14682 335.783 1.02458C336.201 0.964076 336.628 1.00793 337.024 1.1523C337.421 1.29667 337.776 1.53705 338.058 1.85195C338.549 2.47502 338.827 3.23896 338.852 4.03178C338.838 4.71838 338.684 5.39486 338.399 6.01973C338.114 6.64459 337.704 7.20463 337.195 7.66546L337.201 7.66928ZM343.888 0C342.453 2.76934 341.315 5.10241 340.476 6.99918C339.637 8.89596 339.029 10.4124 338.651 11.5485C338.36 12.3533 338.122 13.1764 337.939 14.0126C337.862 14.3668 337.82 14.7278 337.814 15.0902C337.798 15.4406 337.858 15.7904 337.99 16.1154C338.122 16.4404 338.323 16.7328 338.579 16.9724C338.94 17.2929 339.406 17.4706 339.889 17.4719C341.202 17.2864 342.422 16.6844 343.368 15.7546C344.902 14.4242 346.345 12.9923 347.688 11.4688L347.984 11.5873C347.699 12.1171 347.498 12.5085 347.364 12.7549C347.229 13.0013 346.985 13.4799 346.605 14.1917C345.435 16.3829 344.381 18.5773 343.446 20.7748C342.663 22.548 342.029 24.3832 341.55 26.2614L345.133 26.83C345.882 24.2029 346.779 21.6205 347.821 19.0954C349.019 16.0995 350.259 13.2345 351.518 10.4955C352.776 7.75646 353.982 5.23259 355.119 2.90869L352.138 1.59037C351.292 3.20061 350.363 4.76556 349.355 6.27888C348.519 7.5381 347.613 8.74935 346.642 9.90689C345.939 10.7442 345.168 11.5213 344.337 12.2299C343.869 12.6646 343.307 12.9864 342.696 13.171L342.352 13.19C342.05 13.2061 341.885 13.0184 341.864 12.6317C342.227 11.2779 342.752 9.97308 343.43 8.74591L346.919 1.35343L343.888 0Z" fill="#98C22A"/>
<path fill-rule="evenodd" clip-rule="evenodd" d="M276.727 26.7648L279.533 27.9656L276.373 35.1979L276.689 35.4348C280.523 30.6328 283.263 28.1895 284.91 28.1049C285.225 28.0807 285.541 28.127 285.836 28.2402C286.132 28.3535 286.398 28.531 286.616 28.7598C287.097 29.2637 287.37 29.931 287.38 30.6278C287.378 31.1886 287.257 31.7428 287.024 32.2533C286.682 33.0793 286.295 33.886 285.865 34.67C285.353 35.6177 285.058 36.1797 284.976 36.3389C284.524 37.0603 284.236 37.8721 284.133 38.7169C284.152 39.0751 284.331 39.2486 284.668 39.2306C286.069 38.7693 287.426 38.1841 288.723 37.482L287.994 40.4039C286.148 41.5893 284.859 42.3756 284.126 42.7629C283.585 43.0836 282.985 43.2912 282.362 43.3732C281.788 43.4075 281.22 43.2275 280.771 42.8681C280.527 42.6685 280.331 42.4168 280.197 42.1313C280.063 41.8459 279.996 41.5341 279.998 41.219C279.935 40.1019 280.694 37.9634 282.273 34.8036C282.623 34.2346 282.85 33.5981 282.936 32.9356C282.933 32.8496 282.906 32.7661 282.859 32.6942C282.812 32.6222 282.746 32.5644 282.668 32.5271L282.415 32.5404C281.982 32.6422 281.586 32.8639 281.273 33.1802C280.877 33.547 280.028 34.5156 278.714 36.0879C277.436 37.6043 276.341 38.9883 275.429 40.24C274.715 41.237 273.728 42.5307 272.468 44.121L269.601 43.3458L276.735 26.7657L276.727 26.7648ZM296.724 21.1929C294.987 24.8948 293.294 28.8505 291.645 33.0598C289.996 37.269 288.593 41.0209 287.435 44.3153C286.275 47.6128 285.341 50.3575 284.633 52.5494L287.709 53.1437C288.581 50.7711 289.351 48.6744 290.018 46.8535C290.685 45.0325 291.372 43.3533 292.078 41.8161C292.795 40.2632 293.625 38.7652 294.562 37.3341C295.602 35.7665 296.776 34.2907 298.068 32.9232C298.571 32.2671 299.301 31.8229 300.115 31.6779C300.564 31.6533 300.805 31.8031 300.824 32.1395L300.842 32.4835C300.814 32.668 300.757 32.8471 300.674 33.0143C300.572 33.2313 300.367 33.6086 300.053 34.1677C299.738 34.7269 299.418 35.3296 299.08 35.9959C298.236 37.3582 297.739 38.9071 297.633 40.5063C297.633 40.7921 297.695 41.0745 297.817 41.3333C297.938 41.5921 298.115 41.821 298.335 42.0036C298.554 42.1862 298.812 42.3181 299.089 42.3897C299.365 42.4613 299.655 42.4709 299.935 42.4179C300.926 42.2792 301.874 41.9233 302.711 41.3754C303.745 40.7951 304.74 40.1507 305.693 39.4458L306.464 36.522C305.917 36.8196 305.349 37.1323 304.754 37.4602C304.159 37.7882 303.671 38.0402 303.273 38.224C302.996 38.3763 302.694 38.4762 302.381 38.5188C302.26 38.5189 302.144 38.4777 302.05 38.4022C301.988 38.3559 301.938 38.2958 301.904 38.2267C301.87 38.1576 301.852 38.0814 301.853 38.0042C301.838 37.7749 301.879 37.5454 301.971 37.3351C302.066 37.1256 302.378 36.5096 302.9 35.4945C303.422 34.4795 303.841 33.6114 304.154 32.8901C304.69 31.8445 305.016 30.7041 305.114 29.5332C305.087 28.9596 304.86 28.4136 304.473 27.9893C304.281 27.7732 304.041 27.6051 303.772 27.4986C303.503 27.3921 303.213 27.3502 302.925 27.3761C301.773 27.5773 300.711 28.1268 299.881 28.9503C298.071 30.5704 296.374 32.312 294.801 34.163L294.365 33.9261L299.568 22.3909L296.72 21.192L296.724 21.1929ZM321.65 25.98L324.56 27.2671L320.505 36.0622C320.378 36.3289 320.31 36.6198 320.306 36.9152C320.33 37.3654 320.553 37.5853 320.969 37.5625C321.637 37.3879 322.268 37.0934 322.831 36.6934C323.253 36.4167 323.93 36.03 324.875 35.5182L324.103 38.4421C323.11 39.1339 322.073 39.7597 320.998 40.3158C320.135 40.8586 319.178 41.2353 318.176 41.4265C317.748 41.4489 317.325 41.3278 316.973 41.0825C316.775 40.9432 316.607 40.765 316.479 40.5587C316.352 40.3525 316.268 40.1224 316.232 39.8826L316.191 39.1311C316.246 38.4915 316.42 37.8679 316.705 37.2925C317.17 36.3392 317.692 35.4145 318.267 34.5231L318.088 34.3279C317.785 34.6046 317.213 35.214 316.376 36.1542C313 39.9168 310.455 41.8439 308.741 41.9355C308.472 41.9487 308.203 41.9041 307.953 41.8047C307.702 41.7054 307.476 41.5535 307.289 41.3593C307.103 41.1652 306.959 40.9332 306.87 40.6792C306.78 40.4251 306.746 40.1548 306.77 39.8864C306.776 39.1589 306.911 38.4383 307.169 37.7578C307.465 36.8612 308.044 35.4557 308.906 33.527C309.767 31.5984 311.128 28.6432 313.004 24.6238L315.942 25.9507L311.521 35.523C311.382 35.8145 311.268 36.1177 311.182 36.4291L311.194 36.6394C311.24 36.9683 311.403 37.1284 311.685 37.1133C312.138 37.0415 312.558 36.829 312.885 36.5058C313.35 36.121 314.217 35.2705 315.487 33.9544C316.508 32.9056 317.328 32.0391 317.947 31.3548C318.62 30.5995 319.253 29.8086 319.842 28.9854C320.523 28.0287 321.127 27.0204 321.651 25.9696L321.65 25.98ZM333.01 19.2273C331.273 22.9292 329.58 26.8848 327.931 31.0941C326.283 35.3034 324.879 39.0553 323.721 42.3497C322.561 45.6472 321.627 48.3919 320.919 50.5837L323.995 51.1781C324.867 48.8055 325.636 46.7084 326.304 44.8868C326.971 43.0652 327.658 41.3862 328.363 39.8495C329.08 38.2966 329.911 36.7986 330.847 35.3676C331.888 33.7999 333.061 32.3242 334.354 30.9567C334.857 30.3007 335.587 29.8565 336.4 29.7114C336.85 29.6867 337.09 29.8364 337.109 30.1729L337.128 30.5169C337.1 30.7015 337.043 30.8806 336.959 31.0477C336.859 31.2648 336.653 31.6419 336.339 32.202C336.024 32.7621 335.704 33.364 335.366 34.0303C334.522 35.3925 334.025 36.9413 333.919 38.5406C333.918 38.8265 333.981 39.109 334.102 39.3679C334.223 39.6268 334.4 39.8558 334.62 40.0385C334.84 40.2211 335.097 40.3529 335.374 40.4244C335.651 40.4959 335.94 40.5055 336.221 40.4523C337.212 40.3137 338.16 39.9577 338.997 39.4098C340.03 38.8291 341.026 38.1842 341.979 37.4791L342.75 34.5553C342.202 34.8529 341.635 35.1657 341.039 35.4936C340.444 35.8215 339.957 36.0736 339.559 36.2575C339.282 36.41 338.98 36.5102 338.666 36.5532C338.546 36.5535 338.43 36.5126 338.336 36.4375C338.275 36.3912 338.225 36.3311 338.19 36.262C338.156 36.1929 338.138 36.1167 338.138 36.0395C338.123 35.8102 338.164 35.5806 338.257 35.3704C338.352 35.1609 338.663 34.5449 339.186 33.5298C339.708 32.5148 340.127 31.6467 340.44 30.9255C340.975 29.8798 341.301 28.7394 341.399 27.5685C341.371 26.9949 341.145 26.4489 340.758 26.0246C340.566 25.8083 340.326 25.6401 340.057 25.5335C339.788 25.4268 339.498 25.3847 339.209 25.4105C338.058 25.6118 336.996 26.1611 336.166 26.9846C334.356 28.6048 332.659 30.3464 331.086 32.1973L330.651 31.9603L335.854 20.4253L333.006 19.2264L333.01 19.2273ZM355.298 21.9587L356.105 24.3669C354.349 25.0219 352.744 26.027 351.389 27.3212C350.13 28.4738 349.086 29.84 348.303 31.3566C347.69 32.4256 347.356 33.6315 347.331 34.8634C347.317 35.1726 347.367 35.4812 347.479 35.77C347.59 36.0587 347.76 36.3211 347.978 36.5408C348.158 36.7005 348.368 36.8232 348.596 36.9016C348.824 36.98 349.064 37.0126 349.305 36.9977C350.275 36.8788 351.17 36.4153 351.827 35.6916C352.768 34.7536 353.486 33.6165 353.93 32.3641C354.476 30.9189 354.705 29.3733 354.601 27.8319C354.584 27.523 354.529 27.0254 354.437 26.361L358.181 25.1015C358.327 25.7212 358.416 26.3532 358.445 26.9894C358.558 29.0891 358.114 31.1814 357.16 33.055C356.26 34.9231 354.937 36.5558 353.296 37.8232C351.885 38.9665 350.161 39.6546 348.351 39.7964C345.294 39.962 343.683 38.5295 343.517 35.4993C343.453 33.6821 343.927 31.8867 344.88 30.3378C345.981 28.4974 347.419 26.8802 349.117 25.5706C350.999 24.084 353.079 22.8685 355.298 21.9596V21.9587ZM375.972 22.7065L379.049 24.0968C376.799 28.7427 374.901 32.7729 373.355 36.1874C371.809 39.6018 370.675 42.2047 369.952 43.996C369.224 45.7825 368.631 47.3226 368.159 48.6172L364.212 47.5699C365.892 43.6239 367.847 39.8001 370.061 36.1267C370.701 35.0699 371.076 34.4302 371.19 34.2056L371.01 34.1307C370.73 34.3578 370.476 34.6148 370.252 34.8974C367.779 37.5044 365.455 38.8682 363.28 38.9889C362.39 39.0371 361.51 38.7899 360.776 38.2857C360.364 37.9818 360.034 37.582 359.812 37.1211C359.591 36.6603 359.485 36.1524 359.505 35.6414C359.501 34.2434 359.846 32.8663 360.506 31.6343C361.288 30.0333 362.291 28.5508 363.488 27.231C364.697 25.8578 366.102 24.6704 367.658 23.7073C368.986 22.8381 370.511 22.3167 372.093 22.1909C372.717 22.1616 373.339 22.2705 373.916 22.5097C374.493 22.7489 375.01 23.1126 375.43 23.5747L375.968 22.7065H375.972ZM374.476 25.5356C374.33 25.2141 374.089 24.9449 373.786 24.7638C373.482 24.5826 373.131 24.4981 372.779 24.5214C371.356 24.7265 370.032 25.3668 368.988 26.3544C367.582 27.4923 366.363 28.845 365.379 30.3625C364.546 31.4491 364.062 32.7626 363.99 34.1298C363.99 34.5054 364.136 34.8664 364.397 35.1363C364.496 35.2404 364.616 35.3229 364.749 35.3788C364.882 35.4347 365.024 35.4629 365.168 35.4614C366.076 35.2894 366.933 34.9128 367.673 34.3601C369 33.4419 370.187 32.3356 371.195 31.0761C372.553 29.3992 373.658 27.5326 374.474 25.5356H374.476ZM383.7 20.8432C382.02 23.7951 380.652 26.4059 379.593 28.6755C378.674 30.3788 378.168 32.2745 378.118 34.2094C378.149 34.9271 378.385 35.6209 378.797 36.2091C379.203 36.7922 379.76 37.2541 380.408 37.5455C381.052 37.8518 381.762 37.9903 382.473 37.9482C383.879 37.8199 385.22 37.294 386.337 36.4319C387.638 35.5098 388.75 34.3467 389.612 33.0057C390.387 31.925 390.841 30.6474 390.921 29.32C390.916 29.2716 390.924 29.2227 390.943 29.1783C390.963 29.1338 390.994 29.0954 391.034 29.0668C391.266 28.9608 391.506 28.8746 391.753 28.8091C392.162 28.6878 392.501 28.5712 392.77 28.465C393.23 28.295 393.665 28.0653 394.065 27.7817C394.408 27.5273 394.774 27.3025 395.156 27.1098L395.412 27.2993C395.318 27.4244 395.146 27.7154 394.876 28.1808C394.023 29.664 393.385 30.8477 392.948 31.7453C392.597 32.4379 392.304 33.1584 392.071 33.8995C391.927 34.385 391.863 34.8909 391.882 35.397C391.955 36.7529 392.741 37.3891 394.24 37.3057C395.27 37.2086 396.264 36.8776 397.147 36.338C398.154 35.7794 399.094 35.1065 399.948 34.3326L400.72 31.4088C398.739 32.9537 397.37 33.7466 396.613 33.7877C396.17 33.8114 395.933 33.5848 395.907 33.1147C396.058 32.1037 396.411 31.1334 396.944 30.261L400.394 23.1899L397.581 21.863C396.914 23.2471 395.868 24.4132 394.564 25.2256C393.241 26.1774 391.724 26.8247 390.122 27.1211C389.32 26.5765 388.34 26.3597 387.383 26.5155C386.961 26.5778 386.556 26.7193 386.187 26.9325C385.689 27.1728 385.228 27.4852 384.821 27.8595C384.659 27.9793 384.526 28.1329 384.429 28.3096C384.333 28.4864 384.277 28.6821 384.264 28.883L384.738 29.8308C384.878 30.0772 385.039 30.1954 385.222 30.1852C385.772 30.1172 386.317 30.0171 386.855 29.8857L387.024 29.8762C387.132 29.9198 387.191 29.9796 387.194 30.0365V30.1208C387.055 30.7614 386.82 31.3774 386.497 31.9481C386.057 32.8386 385.491 33.6617 384.818 34.3923C384.55 34.7244 384.218 34.9995 383.841 35.2013C383.465 35.4032 383.052 35.5277 382.627 35.5675C382.475 35.5742 382.323 35.5477 382.183 35.4895C382.042 35.4314 381.916 35.3432 381.813 35.2311C381.557 34.9443 381.416 34.5729 381.419 34.1886C381.394 33.8069 381.426 33.4236 381.513 33.0512C381.584 32.7405 381.679 32.436 381.798 32.1405C381.911 31.8808 382.099 31.4543 382.366 30.8477C383.856 27.6525 385.28 24.759 386.639 22.1672L383.701 20.8404L383.7 20.8432ZM417.784 6.27051L420.361 7.01927C420.711 7.11278 420.916 7.25678 420.976 7.45138L420.994 7.78886C420.855 8.51095 420.631 9.21381 420.325 9.88244C419.919 10.8482 419.323 12.1987 418.524 13.9331C417.725 15.6675 416.863 17.4758 415.958 19.3713C415.053 21.2668 413.873 23.731 412.426 26.7714C411.977 27.7116 411.679 28.3125 411.516 28.5608C411.355 28.8098 411.104 28.9873 410.816 29.0564L409.721 29.1161C408.927 29.0327 408.518 28.773 408.495 28.3371C408.565 27.8296 408.726 27.3389 408.969 26.888C409.288 26.1516 409.74 25.1271 410.31 23.8069C410.88 22.4867 411.57 20.7863 412.372 18.6994C412.91 17.303 413.676 15.2227 414.67 12.4585C415.669 9.69195 416.337 7.97842 416.674 7.30457C417.012 6.63072 417.387 6.29323 417.788 6.27143L417.784 6.27051ZM407.129 32.6806L408.556 32.603C409.409 32.5566 409.846 32.8712 409.882 33.5384C409.881 34.0496 409.737 34.5502 409.467 34.9846C409.166 35.5201 408.766 35.9938 408.288 36.3807C407.887 36.7369 407.384 36.9566 406.85 37.0081C405.894 37.0602 405.396 36.7068 405.354 35.941C405.388 35.5397 405.466 35.1433 405.586 34.759C405.912 33.4085 406.424 32.7185 407.134 32.6806H407.129Z" fill="#98C22A"/>
</svg>
