<svg width="14" height="17" viewBox="0 0 14 17" fill="none" xmlns="http://www.w3.org/2000/svg">
<path d="M2.625 4.47368C2.625 2.00294 4.58375 0 7 0C9.41625 0 11.375 2.00294 11.375 4.47368C11.375 6.94443 9.41625 8.94737 7 8.94737C4.58375 8.94737 2.625 6.94443 2.625 4.47368ZM7 7.15789C8.44975 7.15789 9.625 5.95613 9.625 4.47368C9.625 2.99124 8.44975 1.78947 7 1.78947C5.55025 1.78947 4.375 2.99124 4.375 4.47368C4.375 5.95613 5.55025 7.15789 7 7.15789Z" fill="#02517A"/>
<path d="M2.05025 11.9386C0.737498 13.281 0 15.1016 0 17H1.75C1.75 15.5762 2.30312 14.2107 3.28769 13.204C4.27226 12.1972 5.60761 11.6316 7 11.6316C8.39239 11.6316 9.72775 12.1972 10.7123 13.204C11.6969 14.2107 12.25 15.5762 12.25 17H14C14 15.1016 13.2625 13.281 11.9497 11.9386C10.637 10.5962 8.85651 9.8421 7 9.8421C5.14348 9.8421 3.36301 10.5962 2.05025 11.9386Z" fill="#02517A"/>
</svg>
