<svg width="32" height="32" viewBox="0 0 32 32" fill="none" xmlns="http://www.w3.org/2000/svg">
<circle cx="16" cy="16" r="15.5" stroke="#02517A"/>
<path d="M11.625 12.4737C11.625 10.0029 13.5838 8 16 8C18.4162 8 20.375 10.0029 20.375 12.4737C20.375 14.9444 18.4162 16.9474 16 16.9474C13.5838 16.9474 11.625 14.9444 11.625 12.4737ZM16 15.1579C17.4497 15.1579 18.625 13.9561 18.625 12.4737C18.625 10.9912 17.4497 9.78947 16 9.78947C14.5503 9.78947 13.375 10.9912 13.375 12.4737C13.375 13.9561 14.5503 15.1579 16 15.1579Z" fill="#02517A"/>
<path d="M11.0503 19.9386C9.7375 21.281 9 23.1016 9 25H10.75C10.75 23.5762 11.3031 22.2107 12.2877 21.204C13.2723 20.1972 14.6076 19.6316 16 19.6316C17.3924 19.6316 18.7277 20.1972 19.7123 21.204C20.6969 22.2107 21.25 23.5762 21.25 25H23C23 23.1016 22.2625 21.281 20.9497 19.9386C19.637 18.5962 17.8565 17.8421 16 17.8421C14.1435 17.8421 12.363 18.5962 11.0503 19.9386Z" fill="#02517A"/>
</svg>
