<svg width="30" height="31" viewBox="0 0 30 31" fill="none" xmlns="http://www.w3.org/2000/svg">
<path d="M15 0.0839844C12.0333 0.0839844 9.13319 0.963719 6.66645 2.61194C4.19972 4.26016 2.27713 6.60284 1.14181 9.34373C0.00649929 12.0846 -0.290551 15.1006 0.288228 18.0103C0.867006 20.9201 2.29562 23.5928 4.3934 25.6906C6.49119 27.7884 9.16394 29.217 12.0737 29.7958C14.9834 30.3745 17.9994 30.0775 20.7403 28.9422C23.4812 27.8069 25.8238 25.8843 27.4721 23.4175C29.1203 20.9508 30 18.0507 30 15.084C30 11.1057 28.4197 7.29043 25.6066 4.47738C22.7936 1.66434 18.9783 0.0839844 15 0.0839844V0.0839844ZM22.609 16.706C23.3328 17.3628 24.0224 18.0564 24.675 18.784C24.9602 19.111 25.2084 19.4685 25.415 19.85C25.7 20.403 25.443 21.009 24.948 21.042H21.875C21.509 21.0691 21.1417 21.0109 20.802 20.8721C20.4623 20.7333 20.1593 20.5176 19.917 20.242C19.492 19.81 19.098 19.348 18.688 18.901C18.5257 18.7138 18.3398 18.5485 18.135 18.409C18.0575 18.3406 17.9646 18.292 17.8642 18.2672C17.7639 18.2425 17.659 18.2423 17.5586 18.2667C17.4581 18.2912 17.3651 18.3395 17.2873 18.4076C17.2096 18.4758 17.1494 18.5616 17.112 18.658C16.8948 19.1046 16.7839 19.5954 16.788 20.092C16.755 20.817 16.536 21.006 15.809 21.04C14.2815 21.1597 12.7523 20.831 11.409 20.094C10.2387 19.3892 9.23043 18.4452 8.45001 17.324C6.90611 15.155 5.59867 12.8271 4.55001 10.38C4.30401 9.83298 4.48401 9.53998 5.08801 9.52898C6.08801 9.50998 7.09401 9.51198 8.09701 9.52898C8.28448 9.53115 8.46641 9.59287 8.6165 9.70522C8.7666 9.81756 8.87709 9.97472 8.93201 10.154C9.46409 11.4879 10.1483 12.7559 10.971 13.933C11.1755 14.259 11.4366 14.5458 11.742 14.78C11.8012 14.8427 11.8766 14.8878 11.9598 14.9103C12.043 14.9329 12.1309 14.932 12.2136 14.9078C12.2964 14.8836 12.3708 14.837 12.4288 14.7732C12.4867 14.7093 12.5259 14.6307 12.542 14.546C12.6426 14.2927 12.7023 14.025 12.719 13.753C12.8116 12.8286 12.7952 11.8965 12.67 10.976C12.6503 10.7135 12.5419 10.4655 12.3625 10.2728C12.1831 10.0802 11.9434 9.95431 11.683 9.91598C11.39 9.85998 11.433 9.75198 11.575 9.58398C11.6807 9.43351 11.8224 9.31181 11.987 9.22991C12.1517 9.14801 12.3342 9.10851 12.518 9.11498H15.99C16.537 9.22198 16.66 9.46798 16.734 10.015V13.873C16.728 14.086 16.841 14.719 17.224 14.858C17.531 14.958 17.733 14.713 17.917 14.519C18.7163 13.6207 19.376 12.6074 19.874 11.513C20.108 11.037 20.311 10.544 20.507 10.051C20.5549 9.88403 20.6595 9.73899 20.8027 9.6408C20.946 9.54261 21.119 9.49741 21.292 9.51298H24.635C24.7353 9.51032 24.8357 9.51634 24.935 9.53098C25.498 9.63098 25.653 9.86998 25.479 10.419C25.1619 11.2518 24.7132 12.0283 24.15 12.719C23.591 13.491 22.996 14.236 22.443 15.012C21.938 15.734 21.978 16.091 22.609 16.706Z" fill="white"/>
</svg>
