<svg width="30" height="31" viewBox="0 0 30 31" fill="none" xmlns="http://www.w3.org/2000/svg">
<path d="M13.1309 17.8939L18.0099 15.0839L13.1309 12.2739V17.8939Z" fill="white"/>
<path d="M15 0.0839844C12.0333 0.0839844 9.13319 0.963719 6.66645 2.61194C4.19972 4.26016 2.27713 6.60284 1.14181 9.34373C0.00649929 12.0846 -0.290551 15.1006 0.288228 18.0103C0.867006 20.9201 2.29562 23.5928 4.3934 25.6906C6.49119 27.7884 9.16394 29.217 12.0737 29.7958C14.9834 30.3745 17.9994 30.0775 20.7403 28.9422C23.4812 27.8069 25.8238 25.8843 27.4721 23.4175C29.1203 20.9508 30 18.0507 30 15.084C30 11.1057 28.4197 7.29043 25.6066 4.47738C22.7936 1.66434 18.9783 0.0839844 15 0.0839844V0.0839844ZM24.373 15.099C24.3823 16.6106 24.2531 18.1199 23.987 19.608C23.8797 20.0035 23.6708 20.3641 23.381 20.6539C23.0911 20.9437 22.7306 21.1527 22.335 21.26C19.9009 21.5465 17.4508 21.6758 15 21.647C12.5488 21.6773 10.0984 21.5437 7.66501 21.247C7.26946 21.1397 6.90887 20.9307 6.61906 20.6409C6.32926 20.3511 6.12032 19.9905 6.01301 19.595C5.74622 18.1063 5.61701 16.5963 5.62701 15.084C5.61765 13.5723 5.74686 12.063 6.01301 10.575C6.12262 10.1789 6.33209 9.81767 6.62135 9.52578C6.9106 9.2339 7.26997 9.02117 7.66501 8.90798C10.0992 8.62179 12.5493 8.49285 15 8.52198C17.4512 8.49127 19.9017 8.62491 22.335 8.92198C22.7306 9.0293 23.0911 9.23823 23.381 9.52804C23.6708 9.81785 23.8797 10.1784 23.987 10.574C24.2615 12.0663 24.3908 13.5817 24.373 15.099Z" fill="white"/>
</svg>
